<svg width="48" height="48" viewBox="0 0 48 48" fill="none" xmlns="http://www.w3.org/2000/svg">
<g clip-path="url(#clip0_197_3249)">
<path d="M48 48H0V0H48V48Z" fill="#FDBEE9"/>
<path d="M45.9649 37.776C45.9649 41.1504 36.2593 43.8864 24.2881 43.8864C12.3169 43.8864 2.61133 41.1504 2.61133 37.776C2.61133 34.4016 12.3169 31.6608 24.2881 31.6608C36.2593 31.6608 45.9649 34.4016 45.9649 37.776Z" fill="#FDA2DC"/>
<path d="M44.8991 37.1376C44.8991 37.8432 42.1631 38.4144 38.7935 38.4144C35.4191 38.4144 32.6831 37.8432 32.6831 37.1376C32.6831 36.4272 35.4191 35.856 38.7935 35.856C42.1631 35.856 44.8991 36.4272 44.8991 37.1376Z" fill="#FF87D9"/>
<path d="M41.5102 31.656C41.5102 31.6608 43.4686 30.4272 43.4686 30.4272H36.9262C36.9262 30.4272 34.9678 31.6608 34.9678 31.656H41.5102Z" fill="#455890"/>
<path d="M38.251 36.4224C38.251 36.7008 38.7502 36.9264 39.3646 36.9264C39.9838 36.9264 40.483 36.7008 40.483 36.4224V17.1216H38.251V36.4224Z" fill="white"/>
<path d="M39.3646 16.6464C39.9838 16.6464 40.483 16.8624 40.483 17.1216C40.483 17.3856 39.9838 17.6016 39.3646 17.6016C38.7502 17.6016 38.251 17.3856 38.251 17.1216C38.251 16.8624 38.7502 16.6464 39.3646 16.6464Z" fill="#D2E1F6"/>
<path d="M39.3645 16.9968C39.5325 16.9968 39.6669 17.0544 39.6669 17.1216C39.6669 17.1936 39.5325 17.2512 39.3645 17.2512C39.2013 17.2512 39.0669 17.1936 39.0669 17.1216C39.0669 17.0544 39.2013 16.9968 39.3645 16.9968Z" fill="#6170B1"/>
<path d="M36.7148 36.48C36.734 36.7536 37.2524 36.9456 37.8668 36.9024C38.4812 36.8544 38.9612 36.5952 38.942 36.3168L37.55 17.0688L35.3228 17.2272L36.7148 36.48Z" fill="#E7F5FE"/>
<path d="M36.398 16.6752C37.0172 16.6272 37.5308 16.8048 37.55 17.0688C37.5692 17.328 37.0844 17.5776 36.47 17.6256C35.8556 17.6688 35.342 17.4912 35.3228 17.2272C35.3036 16.968 35.7836 16.7184 36.398 16.6752Z" fill="#D2E1F6"/>
<path d="M36.4267 17.0208C36.5899 17.0064 36.7291 17.0544 36.7339 17.1264C36.7387 17.1984 36.6091 17.2656 36.4459 17.2752C36.2779 17.2896 36.1387 17.2416 36.1339 17.1696C36.1291 17.0976 36.2587 17.0304 36.4267 17.0208Z" fill="#6170B1"/>
<path d="M39.7388 36.3072C39.7196 36.5856 40.1996 36.8496 40.814 36.8976C41.4284 36.9456 41.9468 36.7584 41.966 36.48L43.4636 17.2368L41.2364 17.064L39.7388 36.3072Z" fill="#F4F9FD"/>
<path d="M42.3834 16.68C42.9978 16.7232 43.4826 16.9776 43.4634 17.2368C43.4394 17.5008 42.9258 17.6736 42.3114 17.6256C41.697 17.5776 41.2122 17.328 41.2362 17.064C41.2554 16.8048 41.769 16.632 42.3834 16.68Z" fill="#D2E1F6"/>
<path d="M42.3595 17.0256C42.5227 17.0352 42.6523 17.1072 42.6475 17.1744C42.6427 17.2464 42.5035 17.2944 42.3403 17.28C42.1723 17.2656 42.0427 17.1984 42.0475 17.1312C42.0523 17.0592 42.1915 17.0112 42.3595 17.0256Z" fill="#6170B1"/>
<path d="M34.9678 37.8432H41.5102V31.6608H34.9678V37.8432Z" fill="#6C7CC4"/>
<path d="M41.5103 37.8432L43.4687 36.6144V30.4272L41.5103 31.656C41.5103 34.2096 41.5103 37.8432 41.5103 37.8432Z" fill="#6170B1"/>
<path d="M34.8527 37.3728C34.8527 38.0784 27.7871 38.6496 19.0655 38.6496C10.3487 38.6496 3.27832 38.0784 3.27832 37.3728C3.27832 36.6624 10.3487 36.0912 19.0655 36.0912C27.7871 36.0912 34.8527 36.6624 34.8527 37.3728Z" fill="#FF87D9"/>
<path d="M5.03076 36.768H6.82596L9.92196 34.8288H8.12196L5.03076 36.768Z" fill="white"/>
<path d="M6.70592 37.032C6.60992 37.032 6.52832 37.2048 6.52832 37.4208C6.52832 37.632 6.60992 37.8048 6.70592 37.8048H6.87872V37.032H6.70592Z" fill="#6170B1"/>
<path d="M7.05645 37.4208C7.05645 37.632 6.97485 37.8048 6.87885 37.8048C6.78285 37.8048 6.70605 37.632 6.70605 37.4208C6.70605 37.2048 6.78285 37.032 6.87885 37.032C6.97485 37.032 7.05645 37.2048 7.05645 37.4208Z" fill="#455890"/>
<path d="M9.57124 35.208C9.47524 35.208 9.39844 35.3808 9.39844 35.592C9.39844 35.808 9.47524 35.9808 9.57124 35.9808H9.74884V35.208H9.57124Z" fill="#6170B1"/>
<path d="M9.92169 35.592C9.92169 35.808 9.84489 35.9808 9.74889 35.9808C9.65289 35.9808 9.57129 35.808 9.57129 35.592C9.57129 35.3808 9.65289 35.208 9.74889 35.208C9.84489 35.208 9.92169 35.3808 9.92169 35.592Z" fill="#455890"/>
<path d="M5.20356 37.032C5.10756 37.032 5.03076 37.2048 5.03076 37.4208C5.03076 37.632 5.10756 37.8048 5.20356 37.8048H5.37636V37.032H5.20356Z" fill="#6170B1"/>
<path d="M5.55401 37.4208C5.55401 37.632 5.47721 37.8048 5.37641 37.8048C5.28041 37.8048 5.20361 37.632 5.20361 37.4208C5.20361 37.2048 5.28041 37.032 5.37641 37.032C5.47721 37.032 5.55401 37.2048 5.55401 37.4208Z" fill="#455890"/>
<path d="M5.95215 27.9264C5.95215 28.1904 5.95215 36.4032 5.95215 36.4032L7.88175 35.1936V27.9312L5.95215 27.9264Z" fill="white"/>
<path d="M5.95215 27.9264H7.07055V36.4032H5.95215V27.9264Z" fill="#F4F9FD"/>
<path d="M5.03076 36.768V37.1376H6.82596V36.768H5.03076Z" fill="#F4F9FD"/>
<path d="M6.82568 36.768L9.92168 34.8288V35.1936L6.82568 37.1376V36.768Z" fill="#D2E1F6"/>
<path d="M7.0708 27.9264C7.0708 28.1904 7.0708 36.4032 7.0708 36.4032L9.0004 35.1936V27.9312L7.0708 27.9264Z" fill="#B5C8D7"/>
<path d="M8.84164 28.1856L10.0128 27.3312V26.3424C10.0128 26.3424 9.99844 26.2368 9.77284 26.3808C9.54244 26.52 8.32324 27.3984 8.32324 27.3984L8.84164 28.1856Z" fill="#D2E1F6"/>
<path d="M8.84153 21.2976L9.95993 20.616C9.95993 20.616 10.4111 26.1168 10.0127 26.3424C9.62393 26.568 8.32313 27.3984 8.32313 27.3984C8.32313 27.3984 6.95033 22.8144 8.84153 21.2976Z" fill="#D2E1F6"/>
<path d="M29.04 37.5456C28.944 37.5456 28.8672 37.7184 28.8672 37.9344C28.8672 38.1504 28.944 38.3232 29.04 38.3232H29.2176V37.5456H29.04Z" stroke="#606060" stroke-width="0.4" stroke-miterlimit="10"/>
<path d="M29.3904 37.9344C29.3904 38.1504 29.3136 38.3232 29.2176 38.3232C29.1216 38.3232 29.04 38.1504 29.04 37.9344C29.04 37.7184 29.1216 37.5456 29.2176 37.5456C29.3136 37.5456 29.3904 37.7184 29.3904 37.9344Z" stroke="#606060" stroke-width="0.4" stroke-miterlimit="10"/>
<path d="M4.02736 21.2976H8.84176C8.84176 21.2976 7.98256 22.2432 8.32336 27.3984H3.25456C3.25456 27.3984 2.74096 22.5024 4.02736 21.2976Z" fill="white"/>
<path d="M5.15064 22.0128C5.01624 22.1376 4.94424 22.392 4.91064 22.6704H6.48504C6.53784 22.1376 6.64824 22.0128 6.64824 22.0128H5.15064Z" fill="#6170B1"/>
<path d="M4.11375 24.2208L3.77295 24.9072H7.98255L8.24175 24.2208H4.11375Z" fill="#E7F5FE"/>
<path d="M5.29464 24.2208L5.16504 24.4752H6.74424L6.84504 24.2208H5.29464Z" fill="#6170B1"/>
<path d="M8.26082 24.2352C8.25602 24.2304 8.24642 24.2256 8.24162 24.2208L7.98242 24.9072L8.32322 27.3984C8.23682 26.0928 8.22722 25.056 8.26082 24.2352Z" fill="#D4E1F4"/>
<path d="M7.98255 24.9072H3.77295L4.20015 27.3984H8.32335L7.98255 24.9072Z" fill="#F4F9FD"/>
<path d="M3.25439 27.3984L3.90719 28.1856H8.84159L8.32319 27.3984H3.25439Z" fill="#E7F5FE"/>
<path d="M4.02734 21.2976L5.61614 20.616H9.96014L8.84174 21.2976H4.02734Z" fill="#E8F3FF"/>
<path d="M4.47363 28.1808L4.90083 28.704H8.16483L7.82403 28.1808H4.47363Z" fill="#D2E1F6"/>
<path d="M8.87062 28.1856H7.82422L8.16502 28.704L8.87062 28.1856Z" fill="#F4F9FD"/>
<path d="M10.0898 19.8C9.3986 19.8 8.8418 21.0384 8.8418 22.5648C8.8418 24.0912 9.3986 25.3296 10.0898 25.3296H11.333V19.8H10.0898Z" fill="#6170B1"/>
<path d="M12.581 22.5648C12.581 24.0912 12.0242 25.3296 11.333 25.3296C10.6466 25.3296 10.0898 24.0912 10.0898 22.5648C10.0898 21.0384 10.6466 19.8 11.333 19.8C12.0242 19.8 12.581 21.0384 12.581 22.5648Z" fill="#455890"/>
<path d="M11.6111 20.3712C11.0735 20.3712 10.6367 21.3408 10.6367 22.5312C10.6367 23.7264 11.0735 24.696 11.6111 24.696H29.0735V20.3712H11.6111Z" fill="#F4F9FD"/>
<path d="M27.2112 22.8288H11.1696C11.0352 22.8288 10.9248 22.7184 10.9248 22.584C10.9248 22.4496 11.0352 22.344 11.1696 22.344H27.2112C27.3456 22.344 27.456 22.4496 27.456 22.584C27.456 22.7184 27.3456 22.8288 27.2112 22.8288Z" fill="#E7F5FE"/>
<path d="M27.3504 22.6944H11.0304C10.9728 22.6944 10.9248 22.6464 10.9248 22.584C10.9248 22.5264 10.9728 22.4784 11.0304 22.4784H27.3504C27.408 22.4784 27.456 22.5264 27.456 22.584C27.456 22.6464 27.408 22.6944 27.3504 22.6944Z" fill="#D2E1F6"/>
<path d="M27.7968 19.8C27.1056 19.8 26.5488 21.0384 26.5488 22.5648C26.5488 24.0912 27.1056 25.3296 27.7968 25.3296H29.04V19.8H27.7968Z" fill="#6170B1"/>
<path d="M30.2881 22.5648C30.2881 24.0912 29.7313 25.3296 29.0401 25.3296C28.3537 25.3296 27.7969 24.0912 27.7969 22.5648C27.7969 21.0384 28.3537 19.8 29.0401 19.8C29.7313 19.8 30.2881 21.0384 30.2881 22.5648Z" fill="#455890"/>
<path d="M9.4658 25.4208C9.1202 25.4208 8.8418 26.04 8.8418 26.8032C8.8418 27.5664 9.1202 28.1856 9.4658 28.1856H10.0898V25.4208H9.4658Z" fill="#6170B1"/>
<path d="M10.709 26.8032C10.709 27.5664 10.4306 28.1856 10.0898 28.1856C9.74422 28.1856 9.46582 27.5664 9.46582 26.8032C9.46582 26.04 9.74422 25.4208 10.0898 25.4208C10.4306 25.4208 10.709 26.04 10.709 26.8032Z" fill="#455890"/>
<path d="M10.2772 25.7232C10.0084 25.7232 9.7876 26.208 9.7876 26.8032C9.7876 27.3984 10.0084 27.8832 10.2772 27.8832H28.954V25.7232H10.2772Z" fill="#F4F9FD"/>
<path d="M27.4848 25.4208C27.1392 25.4208 26.8608 26.04 26.8608 26.8032C26.8608 27.5664 27.1392 28.1856 27.4848 28.1856H28.1088V25.4208H27.4848Z" fill="#6170B1"/>
<path d="M28.7329 26.8032C28.7329 27.5664 28.4497 28.1856 28.1089 28.1856C27.7633 28.1856 27.4849 27.5664 27.4849 26.8032C27.4849 26.04 27.7633 25.4208 28.1089 25.4208C28.4497 25.4208 28.7329 26.04 28.7329 26.8032Z" fill="#455890"/>
<path d="M29.2754 36.768H31.0754L34.1714 34.8288H32.3714L29.2754 36.768Z" fill="white"/>
<path d="M30.9554 37.032C30.8546 37.032 30.7778 37.2048 30.7778 37.4208C30.7778 37.632 30.8546 37.8048 30.9554 37.8048H31.1282V37.032H30.9554Z" fill="#6170B1"/>
<path d="M31.3012 37.4208C31.3012 37.632 31.2244 37.8048 31.1284 37.8048C31.0324 37.8048 30.9556 37.632 30.9556 37.4208C30.9556 37.2048 31.0324 37.032 31.1284 37.032C31.2244 37.032 31.3012 37.2048 31.3012 37.4208Z" fill="#455890"/>
<path d="M33.8207 35.208C33.7247 35.208 33.6479 35.3808 33.6479 35.592C33.6479 35.808 33.7247 35.9808 33.8207 35.9808H33.9935V35.208H33.8207Z" fill="#6170B1"/>
<path d="M34.1712 35.592C34.1712 35.808 34.0944 35.9808 33.9936 35.9808C33.8976 35.9808 33.8208 35.808 33.8208 35.592C33.8208 35.3808 33.8976 35.208 33.9936 35.208C34.0944 35.208 34.1712 35.3808 34.1712 35.592Z" fill="#455890"/>
<path d="M29.453 37.032C29.357 37.032 29.2754 37.2048 29.2754 37.4208C29.2754 37.632 29.357 37.8048 29.453 37.8048H29.6258V37.032H29.453Z" fill="#6170B1"/>
<path d="M29.8035 37.4208C29.8035 37.632 29.7219 37.8048 29.6259 37.8048C29.5299 37.8048 29.4531 37.632 29.4531 37.4208C29.4531 37.2048 29.5299 37.032 29.6259 37.032C29.7219 37.032 29.8035 37.2048 29.8035 37.4208Z" fill="#455890"/>
<path d="M30.1968 27.9264C30.1968 28.1904 30.1968 36.4032 30.1968 36.4032L32.1264 35.1936V27.9312L30.1968 27.9264Z" fill="white"/>
<path d="M30.1968 27.9264H31.32V36.4032H30.1968V27.9264Z" fill="#F4F9FD"/>
<path d="M29.2754 36.768V37.1376H31.0754V36.768H29.2754Z" fill="#F4F9FD"/>
<path d="M31.0752 36.768L34.1712 34.8288V35.1936L31.0752 37.1376V36.768Z" fill="#D2E1F6"/>
<path d="M31.3203 27.9264C31.3203 28.1904 31.3203 36.4032 31.3203 36.4032L33.2499 35.1936V27.9312L31.3203 27.9264Z" fill="#B5C8D7"/>
<path d="M33.0912 28.1856L34.2624 27.3312V26.3424C34.2624 26.3424 34.248 26.2368 34.0224 26.3808C33.792 26.52 32.5728 27.3984 32.5728 27.3984L33.0912 28.1856Z" fill="#D2E1F6"/>
<path d="M33.0915 21.2976L34.2099 20.616C34.2099 20.616 34.6611 26.1168 34.2627 26.3424C33.8691 26.568 32.5731 27.3984 32.5731 27.3984C32.5731 27.3984 31.2003 22.8144 33.0915 21.2976Z" fill="#D2E1F6"/>
<path d="M28.277 21.2976H33.0914C33.0914 21.2976 32.2322 22.2432 32.573 27.3984H27.5042C27.5042 27.3984 26.9858 22.5024 28.277 21.2976Z" fill="white"/>
<path d="M29.4002 22.0128C29.2658 22.1376 29.1938 22.392 29.1602 22.6704H30.7346C30.7826 22.1376 30.8978 22.0128 30.8978 22.0128H29.4002Z" fill="#6170B1"/>
<path d="M28.3632 24.2208L28.0176 24.9072H32.232L32.4864 24.2208H28.3632Z" fill="#E7F5FE"/>
<path d="M29.5442 24.2208L29.4146 24.4752H30.9938L31.0898 24.2208H29.5442Z" fill="#6170B1"/>
<path d="M32.5108 24.2352C32.506 24.2304 32.4964 24.2256 32.4868 24.2208L32.2324 24.9072L32.5732 27.3984C32.4868 26.0928 32.4772 25.056 32.5108 24.2352Z" fill="#D4E1F4"/>
<path d="M32.232 24.9072H28.0176L28.4496 27.3984H32.5728L32.232 24.9072Z" fill="#F4F9FD"/>
<path d="M27.5044 27.3984L28.1524 28.1856H33.0916L32.5732 27.3984H27.5044Z" fill="#E7F5FE"/>
<path d="M28.2769 21.2976L29.8657 20.616H34.2097L33.0913 21.2976H28.2769Z" fill="#E8F3FF"/>
<path d="M28.7188 28.1808L29.1508 28.704H32.4148L32.074 28.1808H28.7188Z" fill="#D2E1F6"/>
<path d="M33.1201 28.1856H32.0737L32.4145 28.704L33.1201 28.1856Z" fill="#F4F9FD"/>
<path d="M37.608 20.3472L37.3056 20.0448L31.2192 23.3616L31.5216 23.6784L37.608 20.3472Z" fill="#455890"/>
<path d="M37.1519 23.6784H31.5215L32.0975 20.3472H37.6079L37.1519 23.6784Z" fill="#455890"/>
<path d="M36.8496 23.376H31.2192L31.7952 20.0448H37.3056L36.8496 23.376Z" fill="#6170B1"/>
<path d="M31.5264 23.1168L32.0112 20.2992H37.0128L36.624 23.1168H31.5264Z" fill="#455890"/>
<path d="M11.2275 22.608C11.2275 22.608 7.91554 24.3552 8.10274 31.536C8.28994 38.7216 4.15234 39.2352 4.15234 39.2352H19.3491C19.3491 39.2352 23.4867 38.7216 23.2995 31.536C23.1123 24.3552 26.4243 22.608 26.4243 22.608H11.2275Z" fill="white"/>
<path d="M11.2275 22.608C11.2275 22.608 7.91554 24.3552 8.10274 31.536C8.28994 38.7216 4.15234 39.2352 4.15234 39.2352H19.3491C19.3491 39.2352 23.4867 38.7216 23.2995 31.536C23.1123 24.3552 26.4243 22.608 26.4243 22.608H11.2275Z" fill="white"/>
<path d="M5.48633 38.976C5.76953 38.8032 6.07673 38.568 6.37913 38.2608C7.33913 37.2912 8.45753 35.3328 8.36153 31.5312C8.26553 27.912 9.08633 25.7376 9.79193 24.552C10.4399 23.4576 11.1119 22.9824 11.2943 22.8624H25.6607C24.6671 23.784 22.9055 26.184 23.0447 31.5456C23.1167 34.3872 22.4927 36.576 21.2351 37.872C20.3615 38.7792 19.4495 38.9568 19.3295 38.976H5.48633Z" fill="#4965A4"/>
<path d="M36.7203 20.7168H33.3027L33.3459 20.4768H36.7635L36.7203 20.7168Z" fill="url(#paint0_linear_197_3249)"/>
<path d="M36.6242 21.2256H33.2114L33.2546 20.9856H36.6722L36.6242 21.2256Z" fill="url(#paint1_linear_197_3249)"/>
<path d="M36.5426 21.6912H33.125L33.1682 21.456H36.5858L36.5426 21.6912Z" fill="url(#paint2_linear_197_3249)"/>
<path d="M36.4659 22.1184H33.0483L33.0915 21.8784H36.5091L36.4659 22.1184Z" fill="url(#paint3_linear_197_3249)"/>
<path d="M16.2241 33.0768C13.9713 33.0672 11.7169 33.056 9.46094 33.0432C9.69134 29.6064 9.42734 26.616 11.6881 23.8224C13.9153 23.816 16.1441 23.8112 18.3745 23.808C15.9937 26.2272 16.4545 30.0144 16.2241 33.0768Z" fill="#15D2FC"/>
<path d="M23.098 25.9776C22.0196 26.0096 20.9412 26.0416 19.8628 26.0736C20.2852 25.104 20.7172 24.1872 21.5332 23.4816C22.5796 23.4816 23.626 23.4816 24.6724 23.4816C23.9092 24.1728 23.5252 25.0608 23.098 25.9776Z" fill="#FFDB0E"/>
<path d="M21.4227 30.0912C21.3795 31.9248 20.7171 34.3584 18.3891 34.392C16.2963 34.4256 16.0515 31.2768 16.0899 29.9904C16.1379 28.2048 17.2851 26.0256 19.5075 25.9056C21.6483 25.7856 21.4515 28.776 21.4227 30.0912Z" fill="#FF87D9"/>
<path d="M15.9797 36.7248C15.2981 37.3248 14.3237 37.56 13.4021 37.5648C12.7061 37.5648 12.6965 37.3968 13.3829 36.6864C13.9397 36.1104 14.7077 35.5296 15.5189 35.5008C16.2293 35.4816 16.8485 35.9568 15.9797 36.7248Z" fill="#FF87D9"/>
<path d="M12.5571 30.5472C12.8115 31.4976 13.0707 32.448 13.2243 33.4176C13.9203 33.576 14.2659 33.6528 14.9571 33.8016C14.2899 34.5168 13.9203 34.8288 13.1571 35.3664C12.9411 36.1248 12.8259 36.432 12.3267 36.936C12.0099 36.6816 11.8179 36.5136 11.3715 36.24C10.5459 36.5088 10.0995 36.6528 9.27393 36.8448C9.84033 36.408 10.1043 36.12 10.5603 35.3712C10.2771 34.8384 10.1187 34.5312 9.74913 33.7968C10.4979 33.648 10.8723 33.5712 11.6163 33.4128C12.0579 32.5056 12.3363 31.5312 12.5571 30.5472Z" fill="#FFDB0E"/>
<g style="mix-blend-mode:multiply" opacity="0.2">
<path d="M8.08354 32.8512C7.76194 38.7744 4.15234 39.2208 4.15234 39.2208H19.3491C19.3491 39.2208 22.9635 38.7744 23.2851 32.8512H8.08354Z" fill="#6170B1"/>
</g>
<g style="mix-blend-mode:multiply" opacity="0.2">
<path d="M7.29154 36.456C6.12994 38.9856 4.15234 39.2352 4.15234 39.2352H19.3491C19.3491 39.2352 21.3315 38.9856 22.4883 36.456H7.29154Z" fill="#6170B1"/>
</g>
<path d="M37.5795 39.6192C37.5795 40.3248 34.2531 40.896 30.1443 40.896C26.0403 40.896 22.7139 40.3248 22.7139 39.6192C22.7139 38.9088 26.0403 38.3376 30.1443 38.3376C34.2531 38.3376 37.5795 38.9088 37.5795 39.6192Z" fill="#FF87D9"/>
<path d="M24.749 40.3104H26.5538V35.4096H24.749V40.3104Z" fill="#6170B1"/>
<path d="M26.5537 40.3104L28.1089 39.336V34.4304L26.5537 35.4048C26.5537 37.4304 26.5537 40.3104 26.5537 40.3104Z" fill="#455890"/>
<path d="M24.749 35.4096L26.5538 35.4048L28.109 34.4304H26.381L24.749 35.4096Z" fill="#6C7CC4"/>
<path d="M25.6514 35.1072C25.6514 35.184 25.7906 35.2464 25.9634 35.2464C26.1362 35.2464 26.2754 35.184 26.2754 35.1072V34.9632H25.6514V35.1072Z" fill="#D2E1F6"/>
<path d="M25.9634 34.824C26.1362 34.824 26.2754 34.8864 26.2754 34.9632C26.2754 35.0448 26.1362 35.1072 25.9634 35.1072C25.7906 35.1072 25.6514 35.0448 25.6514 34.9632C25.6514 34.8864 25.7906 34.824 25.9634 34.824Z" fill="white"/>
<path d="M26.1314 36.0912H25.1042C25.0178 36.0912 24.9458 36.0192 24.9458 35.928C24.9458 35.8416 25.0178 35.7696 25.1042 35.7696H26.1314C26.2178 35.7696 26.2898 35.8416 26.2898 35.928C26.2898 36.0192 26.2178 36.0912 26.1314 36.0912Z" fill="#FFDB0E"/>
<path d="M27.1348 40.3104H28.9396V35.4096H27.1348V40.3104Z" fill="#6170B1"/>
<path d="M28.9395 40.3104L30.4947 39.336V34.4304L28.9395 35.4048C28.9395 37.4304 28.9395 40.3104 28.9395 40.3104Z" fill="#455890"/>
<path d="M27.1348 35.4096L28.9396 35.4048L30.4948 34.4304H28.7716L27.1348 35.4096Z" fill="#6C7CC4"/>
<path d="M28.0371 35.1072C28.0371 35.184 28.1811 35.2464 28.3539 35.2464C28.5267 35.2464 28.6659 35.184 28.6659 35.1072V34.9632H28.0371V35.1072Z" fill="#D2E1F6"/>
<path d="M28.3539 34.824C28.5267 34.824 28.6659 34.8864 28.6659 34.9632C28.6659 35.0448 28.5267 35.1072 28.3539 35.1072C28.1811 35.1072 28.0371 35.0448 28.0371 34.9632C28.0371 34.8864 28.1811 34.824 28.3539 34.824Z" fill="white"/>
<path d="M28.4835 36.0864H27.4563C27.3699 36.0864 27.2979 36.0144 27.2979 35.928C27.2979 35.8416 27.3699 35.7696 27.4563 35.7696H28.4835C28.5699 35.7696 28.6419 35.8416 28.6419 35.928C28.6419 36.0144 28.5699 36.0864 28.4835 36.0864Z" fill="#FD6AA7"/>
<path d="M29.5444 40.3104H31.3492V35.4096H29.5444V40.3104Z" fill="#6170B1"/>
<path d="M31.3491 40.3104L32.9043 39.336V34.4304L31.3491 35.4048C31.3491 37.4304 31.3491 40.3104 31.3491 40.3104Z" fill="#455890"/>
<path d="M29.5444 35.4096L31.3492 35.4048L32.9044 34.4304H31.1764L29.5444 35.4096Z" fill="#6C7CC4"/>
<path d="M30.4468 35.1072C30.4468 35.184 30.586 35.2464 30.7588 35.2464C30.9316 35.2464 31.0708 35.184 31.0708 35.1072V34.9632H30.4468V35.1072Z" fill="#D2E1F6"/>
<path d="M30.7588 34.824C30.9316 34.824 31.0708 34.8864 31.0708 34.9632C31.0708 35.0448 30.9316 35.1072 30.7588 35.1072C30.586 35.1072 30.4468 35.0448 30.4468 34.9632C30.4468 34.8864 30.586 34.824 30.7588 34.824Z" fill="white"/>
<path d="M30.96 36.0864H29.9328C29.8416 36.0864 29.7744 36.0144 29.7744 35.928C29.7744 35.8416 29.8416 35.7696 29.9328 35.7696H30.96C31.0464 35.7696 31.1184 35.8416 31.1184 35.928C31.1184 36.0144 31.0464 36.0864 30.96 36.0864Z" fill="#15D2FC"/>
<path d="M31.9492 40.3104H33.754V35.4096H31.9492V40.3104Z" fill="#6170B1"/>
<path d="M33.7539 40.3104L35.3091 39.336V34.4304L33.7539 35.4048C33.7539 37.4304 33.7539 40.3104 33.7539 40.3104Z" fill="#455890"/>
<path d="M31.9492 35.4096L33.754 35.4048L35.3092 34.4304H33.5812L31.9492 35.4096Z" fill="#6C7CC4"/>
<path d="M32.8516 35.1072C32.8516 35.184 32.9908 35.2464 33.1636 35.2464C33.3364 35.2464 33.4756 35.184 33.4756 35.1072V34.9632H32.8516V35.1072Z" fill="#D2E1F6"/>
<path d="M33.1636 34.824C33.3364 34.824 33.4756 34.8864 33.4756 34.9632C33.4756 35.0448 33.3364 35.1072 33.1636 35.1072C32.9908 35.1072 32.8516 35.0448 32.8516 34.9632C32.8516 34.8864 32.9908 34.824 33.1636 34.824Z" fill="white"/>
<path d="M33.3316 36.0624H32.3092C32.218 36.0624 32.146 35.9904 32.146 35.904C32.146 35.8128 32.218 35.7408 32.3092 35.7408H33.3316C33.4228 35.7408 33.4948 35.8128 33.4948 35.904C33.4948 35.9904 33.4228 36.0624 33.3316 36.0624Z" fill="black"/>
<path d="M17.2943 15.744H6.56152V5.0112H17.2943V15.744Z" fill="#FDA2DC"/>
<path d="M16.9583 15.3696H6.2207V4.63199H16.9583V15.3696Z" fill="white"/>
<path d="M16.4976 14.9088H6.68164V5.09277H16.4976V14.9088Z" fill="#EDEDED"/>
<path d="M13.1328 9.83039C12.9936 8.90399 12.0816 8.28479 11.1504 8.53439C10.4496 8.71679 9.96003 9.37439 9.97443 10.0944C9.98403 10.5456 10.176 10.9392 10.4736 11.2176C10.6368 11.3712 10.7376 11.5824 10.7664 11.8032L10.8144 12.0912C10.896 12.6624 11.4288 13.056 11.9952 12.9696C12.5664 12.8832 12.96 12.3552 12.8736 11.784L12.8304 11.4912C12.7968 11.2704 12.8352 11.04 12.9456 10.8432C13.1136 10.5456 13.1856 10.1952 13.1328 9.83039Z" fill="#DEDEDE"/>
<path d="M11.5343 12.3312C11.5151 11.856 11.4287 11.3808 11.2799 10.9296C11.2559 10.8528 11.2271 10.776 11.1743 10.7184C11.1215 10.6608 11.0351 10.6224 10.9583 10.6464C10.8671 10.68 10.8239 10.8 10.8575 10.8912C10.8911 10.9824 10.9823 11.0448 11.0783 11.0688C11.2511 11.1024 11.4479 11.016 11.5295 10.8576C11.6159 10.704 11.5871 10.4928 11.4623 10.368C11.3471 10.584 11.4959 10.896 11.7407 10.9392C11.9855 10.9872 12.2351 10.7472 12.2063 10.5024C12.1967 10.4304 12.1583 10.3584 12.0911 10.3392C12.0047 10.32 11.9279 10.4112 11.9087 10.4976C11.8703 10.6944 12.0431 10.9056 12.2447 10.9056C12.4415 10.9104 12.6191 10.6992 12.5807 10.5024C12.5663 10.4304 12.5087 10.3536 12.4367 10.3632C12.3695 10.3728 12.3359 10.4448 12.3167 10.512C12.1439 11.0784 12.2063 11.712 12.4847 12.2352" stroke="white" stroke-width="1.5" stroke-miterlimit="10" stroke-linecap="round"/>
<path d="M12.7345 12.5664L11.1025 12.8112C10.9393 12.8352 10.7905 12.72 10.7665 12.5616C10.7425 12.4032 10.8529 12.2496 11.0161 12.2256L12.6481 11.9808C12.8065 11.9568 12.9601 12.072 12.9841 12.2304C13.0081 12.3888 12.8977 12.5424 12.7345 12.5664Z" fill="white"/>
<path d="M12.7152 12.7968L11.1888 13.0272C11.0928 13.0416 11.0016 12.9744 10.9872 12.8784L10.9824 12.8544C10.968 12.7584 11.0352 12.672 11.1312 12.6576L12.6624 12.4272C12.7584 12.4128 12.8448 12.48 12.8592 12.576L12.864 12.6C12.8784 12.696 12.8112 12.7872 12.7152 12.7968Z" fill="white"/>
<path d="M12.7631 13.1184L11.2367 13.3488C11.1407 13.3632 11.0495 13.296 11.0351 13.2L11.0303 13.176C11.0159 13.08 11.0831 12.9888 11.1791 12.9744L12.7103 12.7488C12.8063 12.7344 12.8927 12.7968 12.9071 12.8928L12.9119 12.9216C12.9263 13.0128 12.8591 13.104 12.7631 13.1184Z" fill="white"/>
<path d="M12.8114 13.44L11.285 13.6656C11.189 13.68 11.0978 13.6128 11.0834 13.5216L11.0786 13.4928C11.0642 13.3968 11.1314 13.3104 11.2274 13.296L12.7586 13.0656C12.8546 13.0512 12.941 13.1184 12.9554 13.2144L12.9602 13.2384C12.9746 13.3344 12.9074 13.4256 12.8114 13.44Z" fill="white"/>
<path d="M12.7151 13.6848L11.4479 13.872C11.3711 13.8864 11.2991 13.8288 11.2847 13.752L11.2799 13.7328C11.2703 13.6512 11.3231 13.5792 11.4047 13.5648L12.6671 13.3776C12.7439 13.3632 12.8207 13.4208 12.8303 13.4976L12.8351 13.5216C12.8447 13.5984 12.7919 13.6704 12.7151 13.6848Z" fill="white"/>
<path d="M12.3744 7.2528C12.3216 7.2384 12.288 7.1808 12.3072 7.1232L12.6912 5.9184C12.7056 5.8656 12.7632 5.8368 12.8208 5.8512C12.8736 5.8704 12.9024 5.928 12.888 5.9808L12.504 7.1856C12.4848 7.2432 12.4272 7.272 12.3744 7.2528Z" fill="#DEDEDE"/>
<path d="M14.0157 8.52001C13.9917 8.47201 14.0109 8.40961 14.0589 8.38081L15.1821 7.80001C15.2349 7.77601 15.2973 7.7952 15.3213 7.8432C15.3501 7.896 15.3309 7.95841 15.2781 7.98241L14.1549 8.56801C14.1069 8.59201 14.0445 8.57281 14.0157 8.52001Z" fill="#DEDEDE"/>
<path d="M14.2801 10.5792C14.2993 10.5264 14.3569 10.4928 14.4097 10.512L15.6193 10.896C15.6721 10.9104 15.7009 10.968 15.6865 11.0256C15.6673 11.0784 15.6097 11.1072 15.5569 11.0928L14.3473 10.7088C14.2945 10.6896 14.2657 10.632 14.2801 10.5792Z" fill="#DEDEDE"/>
<path d="M9.31671 11.2176C9.34071 11.2704 9.32151 11.3328 9.26871 11.3568L8.14551 11.9424C8.09751 11.9664 8.03511 11.9472 8.00631 11.8944C7.98231 11.8464 8.00151 11.784 8.05431 11.7552L9.17751 11.1744C9.22551 11.1504 9.28791 11.1696 9.31671 11.2176Z" fill="#DEDEDE"/>
<path d="M9.04787 9.16319C9.03347 9.21599 8.97587 9.24479 8.91827 9.23039L7.71347 8.84639C7.66067 8.82719 7.63187 8.76959 7.64627 8.71679C7.66547 8.66399 7.72307 8.63039 7.77587 8.64959L8.98067 9.03359C9.03827 9.04799 9.06707 9.10559 9.04787 9.16319Z" fill="#DEDEDE"/>
<path d="M10.3153 7.5216C10.2673 7.5456 10.2049 7.5264 10.1761 7.4736L9.59529 6.35041C9.57129 6.30241 9.59049 6.24 9.63849 6.2112C9.69129 6.1872 9.75369 6.2064 9.77769 6.2592L10.3633 7.38241C10.3873 7.43041 10.3681 7.4928 10.3153 7.5216Z" fill="#DEDEDE"/>
<path d="M29.8415 17.304H20.9663V8.42877H29.8415V17.304Z" fill="#FDA2DC"/>
<path d="M29.5055 16.9296H20.6255V8.05438H29.5055V16.9296Z" fill="white"/>
<path d="M29.1265 16.5504H21.0049V8.43359H29.1265V16.5504Z" fill="#EDEDED"/>
<path d="M21.0049 16.5504L24.0913 11.208L25.7809 14.7024L27.2497 12.672L29.1265 16.5504H21.0049Z" fill="#DEDEDE"/>
<path d="M42.1149 13.3632H34.3149V5.56317H42.1149V13.3632Z" fill="#FDA2DC"/>
<path d="M41.7789 12.9888H33.9741V5.18878H41.7789V12.9888Z" fill="white"/>
<path d="M41.4429 12.6528H34.3101V5.51999H41.4429V12.6528Z" fill="#EDEDED"/>
<path d="M37.9533 8.67358C37.9533 9.32638 37.4253 9.85438 36.7725 9.85438C36.1149 9.85438 35.5869 9.32638 35.5869 8.67358C35.5869 8.01598 36.1149 7.48798 36.7725 7.48798C37.4253 7.48798 37.9533 8.01598 37.9533 8.67358Z" fill="#DEDEDE"/>
<path d="M40.0939 10.4736C40.0939 10.9392 39.7147 11.3184 39.2491 11.3184C38.7835 11.3184 38.4043 10.9392 38.4043 10.4736C38.4043 10.008 38.7835 9.62878 39.2491 9.62878C39.7147 9.62878 40.0939 10.008 40.0939 10.4736Z" fill="#DEDEDE"/>
</g>
<defs>
<linearGradient id="paint0_linear_197_3249" x1="33.3462" y1="20.4777" x2="36.7633" y2="20.4777" gradientUnits="userSpaceOnUse">
<stop stop-color="white"/>
<stop offset="1" stop-color="#77E7F5"/>
</linearGradient>
<linearGradient id="paint1_linear_197_3249" x1="33.2531" y1="20.9866" x2="36.6702" y2="20.9866" gradientUnits="userSpaceOnUse">
<stop stop-color="white"/>
<stop offset="1" stop-color="#F88BCB"/>
</linearGradient>
<linearGradient id="paint2_linear_197_3249" x1="33.1676" y1="21.4545" x2="36.5846" y2="21.4545" gradientUnits="userSpaceOnUse">
<stop stop-color="white"/>
<stop offset="1" stop-color="#646FC1"/>
</linearGradient>
<linearGradient id="paint3_linear_197_3249" x1="33.0902" y1="21.8784" x2="36.5073" y2="21.8784" gradientUnits="userSpaceOnUse">
<stop stop-color="white"/>
<stop offset="1" stop-color="#FFE815"/>
</linearGradient>
<clipPath id="clip0_197_3249">
<rect width="48" height="48" rx="8" fill="white"/>
</clipPath>
</defs>
</svg>
