<svg width="35" height="48" viewBox="0 0 35 48" fill="none" xmlns="http://www.w3.org/2000/svg">
<path d="M4.43146 45.1109L2.00146 1.60979L30.8676 0L33.2976 43.495L4.43146 45.1109Z" fill="#DEDEDE"/>
<path d="M0.936523 46.1821L1.30378 2.61362L30.2127 2.85845L29.8455 46.4269L0.936523 46.1821Z" fill="#F3F3F3"/>
<path d="M14.5186 8.51415L15.0817 1.26089L22.543 1.83626L21.9799 9.09563L14.5186 8.51415Z" fill="#B95F5F"/>
<path d="M26.4053 4.46825L26.4236 2.10559L27.6295 2.11783L27.6111 4.4805L26.4053 4.46825Z" fill="#93D684"/>
<path d="M24.1284 4.85998L24.1468 2.49731L25.3587 2.50956L25.3404 4.87222L24.1284 4.85998Z" fill="#F4F6AB"/>
<path d="M31.3513 37.0375L34.5525 37.5884L34.3077 39.0023L31.1064 38.4514L31.3513 37.0375Z" fill="#B95F5F"/>
<path d="M0 47.749L0.397858 4.24789L32.5203 4.50497L32.1224 48L0 47.749Z" fill="#516974"/>
<path d="M26.8462 18.7116L26.9441 7.09412L27.5868 7.10024L27.4889 18.7177L26.8462 18.7116Z" fill="#3E4D5B"/>
<path d="M25.4141 22.6167L25.5426 7.05127H26.1914L26.0568 22.6228L25.4141 22.6167Z" fill="#3E4D5B"/>
<path d="M32.5017 7.14307L34.8643 9.62814L34.748 23.5899L32.3486 25.1507L32.5017 7.14307Z" fill="#3E4D5B"/>
<path d="M4.32128 4.28462L3.95402 47.7796L0.0244141 47.749L0.397789 4.24789L4.32128 4.28462Z" fill="#3E4D5B"/>
<g style="mix-blend-mode:multiply">
<path d="M9.4567 4.32747L9.49955 2.68707L4.7987 2.64423L4.75586 4.28462L9.4567 4.32747Z" fill="#D7D8D9"/>
</g>
<path d="M9.44446 4.33357L9.39549 4.72531H4.85379L4.75586 4.28461L9.44446 4.33357Z" fill="#3D5259"/>
<path d="M9.29165 4.84164H4.95806C4.90297 4.84164 4.854 4.79267 4.854 4.73758C4.854 4.68249 4.90297 4.63965 4.95806 4.63965H9.29165C9.34674 4.63965 9.3957 4.68249 9.3957 4.73758C9.3957 4.79267 9.34674 4.84164 9.29165 4.84164Z" fill="#434244"/>
<path d="M9.33406 4.63964H4.9209V2.23413H9.33406V4.63964Z" fill="#383838"/>
<path d="M4.91504 2.30145H9.33432V4.59066L4.91504 4.59679V2.30145Z" fill="#393939"/>
<path d="M4.91504 2.3749L9.33432 2.36877V4.54781H4.91504V2.3749Z" fill="#3A3A3A"/>
<path d="M4.91504 2.44223H9.33432V4.49885L4.91504 4.50497V2.44223Z" fill="#3B3B3B"/>
<path d="M4.91504 2.50958H9.3282V4.4499L4.91504 4.45602V2.50958Z" fill="#3C3C3C"/>
<path d="M4.91504 2.58302L9.3282 2.5769V4.40705H4.91504V2.58302Z" fill="#3D3D3D"/>
<path d="M4.91504 2.65035L9.3282 2.64423V4.35807L4.91504 4.3642V2.65035Z" fill="#3E3E3E"/>
<path d="M4.91504 2.72379L9.3282 2.71155V4.3091L4.91504 4.31522V2.72379Z" fill="#3F3F3F"/>
<path d="M4.91504 2.79111L9.3282 2.77887V4.26013L4.91504 4.27237V2.79111Z" fill="#404040"/>
<path d="M4.91504 2.85845L9.3282 2.85233V4.21728L4.91504 4.2234V2.85845Z" fill="#414141"/>
<path d="M4.91504 2.93192L9.3282 2.91968V4.16834L4.91504 4.18058V2.93192Z" fill="#414141"/>
<path d="M4.91504 2.99924L9.3282 2.987V4.11936L4.91504 4.13161V2.99924Z" fill="#424242"/>
<path d="M4.91504 3.06656L9.3282 3.05432V4.07651L4.91504 4.08875V3.06656Z" fill="#434343"/>
<path d="M4.91504 3.14001L9.3282 3.12164V4.02753L4.91504 4.03978V3.14001Z" fill="#444444"/>
<path d="M4.91504 3.20734L9.3282 3.1951V3.97857L4.91504 3.99694V3.20734Z" fill="#454545"/>
<path d="M4.91504 3.27469L9.3282 3.26245V3.92963L4.91504 3.94799V3.27469Z" fill="#464646"/>
<path d="M4.91504 3.34814L9.3282 3.32977V3.88677L4.91504 3.89902V3.34814Z" fill="#474747"/>
<path d="M4.91504 3.41546L9.3282 3.39709V3.8378L4.91504 3.85616V3.41546Z" fill="#484848"/>
<path d="M4.91504 3.48278L9.3282 3.46442V3.78882L4.91504 3.80719V3.48278Z" fill="#494949"/>
<path d="M4.91504 3.55622V3.76433L9.3282 3.73985V3.53174L4.91504 3.55622Z" fill="#4A4A4A"/>
<path opacity="0.4" d="M4.91504 2.30144V2.57688L9.3282 2.55852V2.28308L4.91504 2.30144Z" fill="url(#paint0_linear_197_2878)"/>
<path d="M9.3282 2.29533V2.21576L4.91504 2.23412V2.31369L9.3282 2.29533Z" fill="#313131"/>
<path d="M6.40905 0.477432C6.53759 0.330531 6.75794 0.25708 7.06398 0.25708C7.43736 0.25708 7.6822 0.361136 7.78625 0.569246C8.00048 0.967103 7.60874 1.59755 7.52917 1.71385V2.25861L8.44731 4.6886L8.31877 4.73757L7.39451 2.28309V1.67101L7.40675 1.65264C7.41288 1.64652 7.85358 0.985466 7.66995 0.630455C7.58426 0.477432 7.38227 0.397861 7.06398 0.397861C6.75182 0.397861 6.54983 0.477432 6.46414 0.636575C6.26215 1.00383 6.70285 1.68937 6.70897 1.70161L6.72121 1.71385V2.3137L5.8092 4.73145L5.68066 4.6886L6.58044 2.28921V1.7567C6.50698 1.6404 6.12137 0.979345 6.34172 0.569246C6.35804 0.536601 6.38049 0.505997 6.40905 0.477432Z" fill="#A09993"/>
<path opacity="0.5" d="M6.40905 0.477432C6.53759 0.330531 6.75794 0.25708 7.06398 0.25708C7.43736 0.25708 7.6822 0.361136 7.78625 0.569246C8.00048 0.967103 7.60874 1.59755 7.52917 1.71385V2.25861L8.44731 4.6886L8.31877 4.73757L7.39451 2.28309V1.67101L7.40675 1.65264C7.41288 1.64652 7.85358 0.985466 7.66995 0.630455C7.58426 0.477432 7.38227 0.397861 7.06398 0.397861C6.75182 0.397861 6.54983 0.477432 6.46414 0.636575C6.26215 1.00383 6.70285 1.68937 6.70897 1.70161L6.72121 1.71385V2.3137L5.8092 4.73145L5.68066 4.6886L6.58044 2.28921V1.7567C6.50698 1.6404 6.12137 0.979345 6.34172 0.569246C6.35804 0.536601 6.38049 0.505997 6.40905 0.477432Z" fill="url(#paint1_linear_197_2878)"/>
<path style="mix-blend-mode:multiply" opacity="0.4" d="M5.71739 4.59067L5.68066 4.6886L5.8092 4.73145L5.86429 4.59067H5.71739Z" fill="url(#paint2_linear_197_2878)"/>
<path style="mix-blend-mode:multiply" opacity="0.4" d="M8.25781 4.57843L8.31902 4.73757L8.44756 4.68861L8.40471 4.57843H8.25781Z" fill="url(#paint3_linear_197_2878)"/>
<path d="M6.56834 4.63959H4.95855C4.90346 4.63959 4.85449 4.68243 4.85449 4.73752C4.85449 4.79261 4.90346 4.84158 4.95855 4.84158H6.56834V4.63959Z" fill="#313131"/>
<path d="M7.68262 4.84158H9.29241C9.3475 4.84158 9.39647 4.79261 9.39647 4.73752C9.39647 4.68243 9.3475 4.63959 9.29241 4.63959H7.68262V4.84158Z" fill="#313131"/>
<path opacity="0.6" d="M6.56804 4.77425V4.64571L4.9154 4.63959C4.86031 4.63959 4.85419 4.7008 4.86031 4.77425C4.86031 4.77833 4.86031 4.78241 4.86031 4.78649L6.56804 4.77425Z" fill="url(#paint4_linear_197_2878)"/>
<path opacity="0.6" d="M9.39034 4.76199C9.38422 4.70078 9.38422 4.64569 9.33526 4.64569H7.68262V4.77423L9.39034 4.76199Z" fill="url(#paint5_linear_197_2878)"/>
<path d="M2.35645 47.7674L3.92339 47.7796L4.32125 4.27846L3.15216 4.27234L2.35645 47.7674Z" fill="#3E4D5B"/>
<path d="M1.17529 47.7613L2.64431 47.7735L3.12786 4.27237L1.77514 4.26013L1.17529 47.7613Z" fill="#3E4D5B"/>
<path d="M0.397858 4.24789L0 47.749L1.35884 47.7613L1.92808 4.26014L0.397858 4.24789Z" fill="#3E4D5B"/>
<path d="M0.575592 4.25397L0.177734 47.749L1.52433 47.7612L2.08745 4.26621L0.575592 4.25397Z" fill="#3D4C5A"/>
<path d="M0.746717 4.26013L0.35498 47.749L1.68933 47.7674L2.24021 4.27237L0.746717 4.26013Z" fill="#3D4C59"/>
<path d="M0.923964 4.26624L0.532227 47.7551L1.85434 47.7674L2.3991 4.27236L0.923964 4.26624Z" fill="#3C4B58"/>
<path d="M1.10144 4.26624L0.71582 47.7551L2.01957 47.7674L2.55209 4.27848L1.10144 4.26624Z" fill="#3C4B57"/>
<path d="M1.27917 4.27234L0.893555 47.7551L2.18506 47.7735L2.71146 4.28458L1.27917 4.27234Z" fill="#3B4A56"/>
<path d="M1.4569 4.27847L1.07129 47.7551L2.35055 47.7735L2.86471 4.28459L1.4569 4.27847Z" fill="#3A4955"/>
<path d="M1.63415 4.27847L1.24854 47.7551L2.51556 47.7735L3.02359 4.29072L1.63415 4.27847Z" fill="#3A4954"/>
<path d="M1.80599 4.28461L1.43262 47.7551L2.68128 47.7796L3.17707 4.29685L1.80599 4.28461Z" fill="#394854"/>
<path d="M1.98324 4.29071L1.60986 47.7551L2.84628 47.7796L3.33595 4.29683L1.98324 4.29071Z" fill="#394853"/>
<path d="M2.16048 4.29071L1.78711 47.7551L3.01741 47.7796L3.48872 4.30295L2.16048 4.29071Z" fill="#384752"/>
<path d="M2.33822 4.29681L1.96484 47.7612L3.1829 47.7857L3.64809 4.30906L2.33822 4.29681Z" fill="#374651"/>
<path d="M2.51569 4.30298L2.14844 47.7613L3.34813 47.7858L3.80108 4.31522L2.51569 4.30298Z" fill="#374650"/>
<path d="M2.69343 4.30908L2.32617 47.7613L3.51362 47.7919L3.96045 4.3152L2.69343 4.30908Z" fill="#36454F"/>
<path d="M2.87067 4.30908L2.50342 47.7613L3.67863 47.7919L4.11321 4.32132L2.87067 4.30908Z" fill="#36454E"/>
<path d="M3.0418 4.31519L2.68066 47.7612L3.84363 47.7918L4.27209 4.32743L3.0418 4.31519Z" fill="#35444D"/>
<defs>
<linearGradient id="paint0_linear_197_2878" x1="7.11923" y1="3.39947" x2="7.11423" y2="2.33076" gradientUnits="userSpaceOnUse">
<stop offset="0.002" stop-color="white"/>
<stop offset="0.998"/>
</linearGradient>
<linearGradient id="paint1_linear_197_2878" x1="3.4294" y1="4.24343" x2="3.40628" y2="-0.691719" gradientUnits="userSpaceOnUse">
<stop offset="0.478" stop-color="#4D4D4D"/>
<stop offset="0.61" stop-color="white"/>
<stop offset="0.733" stop-color="#EBEBEB"/>
</linearGradient>
<linearGradient id="paint2_linear_197_2878" x1="5.8305" y1="4.35391" x2="5.83249" y2="4.77791" gradientUnits="userSpaceOnUse">
<stop offset="0.384" stop-color="white"/>
<stop offset="0.756"/>
</linearGradient>
<linearGradient id="paint3_linear_197_2878" x1="8.41873" y1="4.46605" x2="8.41991" y2="4.71554" gradientUnits="userSpaceOnUse">
<stop offset="0.384" stop-color="white"/>
<stop offset="0.756"/>
</linearGradient>
<linearGradient id="paint4_linear_197_2878" x1="5.71693" y1="4.54808" x2="5.71771" y2="4.71591" gradientUnits="userSpaceOnUse">
<stop offset="0.002" stop-color="white"/>
<stop offset="0.998"/>
</linearGradient>
<linearGradient id="paint5_linear_197_2878" x1="8.54291" y1="4.53858" x2="8.54379" y2="4.7271" gradientUnits="userSpaceOnUse">
<stop offset="0.002" stop-color="white"/>
<stop offset="0.998"/>
</linearGradient>
</defs>
</svg>
