<svg width="43" height="48" viewBox="0 0 43 48" fill="none" xmlns="http://www.w3.org/2000/svg">
<path d="M42.7943 21.3972C42.7943 33.2138 33.2138 42.7943 21.3972 42.7943C9.58057 42.7943 0 33.2138 0 21.3972C0 9.5789 9.58057 0 21.3972 0C33.2138 0 42.7943 9.5789 42.7943 21.3972Z" fill="#40E6FF"/>
<g opacity="0.3">
<path d="M41.3357 40.7074C41.3357 42.3706 38.1583 43.8478 33.2441 44.7774C33.2156 46.5579 27.7554 48 21.0205 48C14.2856 48 8.82536 46.5579 8.79689 44.7774C3.88266 43.8478 0.705322 42.3706 0.705322 40.7074C0.705322 37.8901 9.80017 35.6089 21.0205 35.6089C32.2408 35.6089 41.3357 37.8901 41.3357 40.7074Z" fill="#000072"/>
</g>
<path d="M10.4232 36.3945H4.03003V27.5006C4.03003 26.5694 4.78375 25.8156 5.715 25.8156H36.6375C37.5687 25.8156 38.3241 26.5694 38.3241 27.5006V36.3945H31.9293" fill="#DFE8ED"/>
<path d="M38.3659 36.4363H31.9291V36.3526H38.2821V27.5006C38.2821 26.5945 37.5452 25.8575 36.6374 25.8575H5.71488C4.80875 25.8575 4.07178 26.5945 4.07178 27.5006V36.3526H10.4231V36.4363H3.98804V27.5006C3.98804 26.5476 4.76185 25.7737 5.71488 25.7737H36.6374C37.5904 25.7737 38.3659 26.5476 38.3659 27.5006V36.4363Z" fill="#000072"/>
<g opacity="0.3">
<path d="M4.03003 33.301H9.68625C9.55561 33.6075 9.48359 33.9475 9.48359 34.3026V36.3946H4.03003V33.301Z" fill="#263069"/>
<path fill-rule="evenodd" clip-rule="evenodd" d="M9.52534 36.4364H3.98804V33.259H9.74978L9.72466 33.3177C9.59234 33.6292 9.52534 33.9592 9.52534 34.3025V36.4364ZM4.07178 36.3526H9.44159V34.3025C9.44159 33.9692 9.50189 33.6476 9.62416 33.3428H4.07178V36.3526Z" fill="#000072"/>
</g>
<g opacity="0.3">
<path d="M38.3242 33.3009V36.3945H32.8706V34.3025C32.8706 33.9474 32.7986 33.6074 32.668 33.3009H38.3242Z" fill="#000072"/>
</g>
<path d="M31.9293 36.3945H38.3241L37.3945 39.8817H31.9293H30.4185H11.934H10.4232H4.95961L4.03003 36.3945H10.4232" fill="#4089FF"/>
<g opacity="0.3">
<path d="M38.3241 36.3945L37.3929 39.8817H4.95961L4.03003 36.3945H4.51743C5.22425 37.6842 6.59099 38.5233 8.11517 38.5233H34.239C35.7632 38.5233 37.1299 37.6842 37.8367 36.3945H38.3241Z" fill="#000072"/>
</g>
<path d="M38.3242 36.7596H31.9294C31.7284 36.7596 31.5642 36.5954 31.5642 36.3944C31.5642 36.1918 31.7284 36.0276 31.9294 36.0276H37.9574V27.5006C37.9574 26.772 37.3662 26.1807 36.6376 26.1807H5.71511C4.98819 26.1807 4.39527 26.772 4.39527 27.5006V36.0276H10.4233C10.626 36.0276 10.7885 36.1918 10.7885 36.3944C10.7885 36.5954 10.626 36.7596 10.4233 36.7596H4.03014C3.82747 36.7596 3.66333 36.5954 3.66333 36.3944V27.5006C3.66333 26.37 4.58454 25.4488 5.71511 25.4488H36.6376C37.7698 25.4488 38.6894 26.37 38.6894 27.5006V36.3944C38.6894 36.5954 38.5252 36.7596 38.3242 36.7596Z" fill="#000072"/>
<path d="M37.3944 40.2468H4.95944C4.79362 40.2468 4.64958 40.1362 4.60603 39.9754L3.67645 36.4883C3.6463 36.3777 3.66975 36.2605 3.74009 36.1717C3.80877 36.0812 3.91596 36.0276 4.02986 36.0276H10.423C10.6257 36.0276 10.7882 36.1918 10.7882 36.3945C10.7882 36.5954 10.6257 36.7596 10.423 36.7596H4.50553L5.24083 39.5165H37.113L37.8483 36.7596H31.9291C31.7281 36.7596 31.564 36.5954 31.564 36.3945C31.564 36.1918 31.7281 36.0276 31.9291 36.0276H38.324C38.4379 36.0276 38.545 36.0812 38.6137 36.1717C38.6824 36.2605 38.7058 36.3777 38.6774 36.4883L37.7478 39.9754C37.7042 40.1362 37.5602 40.2468 37.3944 40.2468Z" fill="#000072"/>
<path d="M30.3028 32.6745H12.0511C11.1517 32.6745 10.4231 33.4031 10.4231 34.3008V39.8817H31.9291V34.3008C31.9291 33.4031 31.2005 32.6745 30.3028 32.6745Z" fill="#4089FF"/>
<g opacity="0.5">
<path d="M31.9291 34.3008V34.9272C31.9291 34.0295 31.2022 33.3009 30.3028 33.3009H12.0511C11.1517 33.3009 10.4231 34.0295 10.4231 34.9272V34.3008C10.4231 33.4031 11.1517 32.6745 12.0511 32.6745H30.3028C31.2022 32.6745 31.9291 33.4031 31.9291 34.3008Z" fill="white"/>
</g>
<g opacity="0.3">
<path d="M31.9291 37.0326V39.8817H10.4231V37.0326H31.9291Z" fill="#000072"/>
</g>
<path fill-rule="evenodd" clip-rule="evenodd" d="M31.9293 40.2468H10.4232C10.2222 40.2468 10.0581 40.0843 10.0581 39.8817V34.3008C10.0581 33.2021 10.9525 32.3076 12.0513 32.3076H30.3029C31.4017 32.3076 32.2961 33.2021 32.2961 34.3008V39.8817C32.2961 40.0843 32.1319 40.2468 31.9293 40.2468ZM10.7884 39.5165H31.5641V34.3008C31.5641 33.6057 30.998 33.0396 30.3029 33.0396H12.0513C11.3545 33.0396 10.7884 33.6057 10.7884 34.3008V39.5165Z" fill="#000072"/>
<path fill-rule="evenodd" clip-rule="evenodd" d="M30.4185 40.2468H11.934C11.733 40.2468 11.5688 40.0843 11.5688 39.8817V34.3008C11.5688 34.0362 11.7849 33.8201 12.0512 33.8201H30.3029C30.5675 33.8201 30.7853 34.0362 30.7853 34.3008V39.8817C30.7853 40.0843 30.6211 40.2468 30.4185 40.2468ZM12.3008 39.5165H30.0533V34.5504H12.3008V39.5165Z" fill="#000072"/>
<path d="M30.3346 43.7942H12.1349C11.6944 43.7942 11.3476 43.4207 11.3811 42.9819L11.8334 37.0326L12.0511 34.1852H30.4183L30.6344 37.0326L31.0883 42.9819C31.1218 43.4207 30.7751 43.7942 30.3346 43.7942Z" fill="white"/>
<path fill-rule="evenodd" clip-rule="evenodd" d="M30.3347 44.1611H12.1349C11.8234 44.1611 11.5236 44.0305 11.3125 43.8027C11.1015 43.5732 10.9926 43.265 11.0161 42.9552L11.686 34.1568C11.7011 33.9675 11.8602 33.8201 12.0512 33.8201H30.4184C30.6094 33.8201 30.7685 33.9675 30.7835 34.1568L31.4535 42.9552C31.477 43.265 31.3681 43.5732 31.1571 43.8027C30.946 44.0305 30.6462 44.1611 30.3347 44.1611ZM12.3895 34.5504L11.7463 43.0104C11.738 43.1193 11.7748 43.2248 11.8485 43.3052C11.9239 43.3856 12.0244 43.4292 12.1349 43.4292H30.3347C30.4452 43.4292 30.5457 43.3856 30.6211 43.3052C30.6948 43.2248 30.7316 43.1193 30.7233 43.0104L30.0801 34.5504H12.3895Z" fill="#000072"/>
<path d="M30.7483 20.7775H11.6056C10.9256 20.7775 10.3745 21.3285 10.3745 22.0085V25.8156H31.9777V22.0085C31.9777 21.3285 31.4283 20.7775 30.7483 20.7775Z" fill="#4089FF"/>
<g opacity="0.3">
<path d="M31.9794 23.6901V25.8156H10.3745V23.6901H31.9794Z" fill="#000072"/>
</g>
<g opacity="0.5">
<path d="M31.9794 22.0069V22.7656C31.9794 22.0873 31.4266 21.5345 30.7483 21.5345H11.6056C10.9256 21.5345 10.3745 22.0873 10.3745 22.7656V22.0069C10.3745 21.3285 10.9256 20.7775 11.6056 20.7775H30.7483C31.4266 20.7775 31.9794 21.3285 31.9794 22.0069Z" fill="white"/>
</g>
<path fill-rule="evenodd" clip-rule="evenodd" d="M31.9776 26.1808H10.3744C10.1734 26.1808 10.0093 26.0167 10.0093 25.8157V22.0086C10.0093 21.1275 10.7245 20.4124 11.6055 20.4124H30.7482C31.6275 20.4124 32.3444 21.1275 32.3444 22.0086V25.8157C32.3444 26.0167 32.1803 26.1808 31.9776 26.1808ZM10.7412 25.4489H31.6125V22.0086C31.6125 21.5312 31.2239 21.1426 30.7482 21.1426H11.6055C11.1281 21.1426 10.7412 21.5312 10.7412 22.0086V25.4489Z" fill="#000072"/>
<path d="M32.9425 29.4569C32.9425 29.9895 32.5104 30.4217 31.9777 30.4217C31.4468 30.4217 31.0146 29.9895 31.0146 29.4569C31.0146 28.926 31.4468 28.4938 31.9777 28.4938C32.5104 28.4938 32.9425 28.926 32.9425 29.4569Z" fill="#F2355D"/>
<path fill-rule="evenodd" clip-rule="evenodd" d="M31.9776 30.4635C31.4232 30.4635 30.9727 30.013 30.9727 29.4569C30.9727 28.9025 31.4232 28.452 31.9776 28.452C32.5337 28.452 32.9842 28.9025 32.9842 29.4569C32.9842 30.013 32.5337 30.4635 31.9776 30.4635ZM31.9776 28.5357C31.4701 28.5357 31.0564 28.9494 31.0564 29.4569C31.0564 29.9661 31.4701 30.3798 31.9776 30.3798C32.4868 30.3798 32.9005 29.9661 32.9005 29.4569C32.9005 28.9494 32.4868 28.5357 31.9776 28.5357Z" fill="#000072"/>
<path d="M36.433 29.4569C36.433 29.9895 36.0008 30.4217 35.4699 30.4217C34.9373 30.4217 34.5051 29.9895 34.5051 29.4569C34.5051 28.926 34.9373 28.4938 35.4699 28.4938C36.0008 28.4938 36.433 28.926 36.433 29.4569Z" fill="#8AC457"/>
<path fill-rule="evenodd" clip-rule="evenodd" d="M35.47 30.4635C34.9139 30.4635 34.4634 30.013 34.4634 29.4569C34.4634 28.9025 34.9139 28.452 35.47 28.452C36.0244 28.452 36.475 28.9025 36.475 29.4569C36.475 30.013 36.0244 30.4635 35.47 30.4635ZM35.47 28.5357C34.9608 28.5357 34.5471 28.9494 34.5471 29.4569C34.5471 29.9661 34.9608 30.3798 35.47 30.3798C35.9775 30.3798 36.3912 29.9661 36.3912 29.4569C36.3912 28.9494 35.9775 28.5357 35.47 28.5357Z" fill="#000072"/>
<g opacity="0.3">
<path d="M33.6342 30.0331C33.6342 30.5641 33.2037 30.9962 32.6711 30.9962C32.2691 30.9962 31.9241 30.75 31.78 30.3999C31.8437 30.4133 31.909 30.4217 31.9793 30.4217C32.5103 30.4217 32.9424 29.9896 32.9424 29.4586C32.9424 29.328 32.9156 29.2024 32.8687 29.0885C33.3076 29.1806 33.6342 29.5675 33.6342 30.0331Z" fill="#000072"/>
</g>
<g opacity="0.3">
<path d="M37.1246 30.0331C37.1246 30.5641 36.6925 30.9962 36.1615 30.9962C35.7596 30.9962 35.4145 30.75 35.2688 30.3999C35.3341 30.4133 35.4011 30.4217 35.4681 30.4217C36.0007 30.4217 36.4329 29.9896 36.4329 29.4586C36.4329 29.328 36.4077 29.2024 36.3592 29.0885C36.7963 29.1806 37.1246 29.5675 37.1246 30.0331Z" fill="#000072"/>
</g>
<g opacity="0.5">
<path d="M32.8319 29.0097C32.7113 28.9544 32.5774 28.9243 32.435 28.9243C31.904 28.9243 31.4719 29.3564 31.4719 29.889C31.4719 30.0498 31.5121 30.2022 31.5825 30.3362C31.2475 30.1855 31.0146 29.8488 31.0146 29.4586C31.0146 28.9243 31.4468 28.4938 31.9794 28.4938C32.3496 28.4938 32.6711 28.7032 32.8319 29.0097Z" fill="#E9F0F4"/>
</g>
<g opacity="0.5">
<path d="M36.3241 29.0097C36.2018 28.9544 36.0678 28.9243 35.9271 28.9243C35.3928 28.9243 34.9624 29.3564 34.9624 29.889C34.9624 30.0498 35.0009 30.2022 35.0712 30.3362C34.7379 30.1838 34.5051 29.8471 34.5051 29.4586C34.5051 28.9243 34.9373 28.4938 35.4682 28.4938C35.84 28.4938 36.1633 28.7032 36.3241 29.0097Z" fill="#E9F0F4"/>
</g>
<path fill-rule="evenodd" clip-rule="evenodd" d="M31.9776 30.7868C31.2457 30.7868 30.6494 30.1905 30.6494 29.4569C30.6494 28.725 31.2457 28.1287 31.9776 28.1287C32.7112 28.1287 33.3075 28.725 33.3075 29.4569C33.3075 30.1905 32.7112 30.7868 31.9776 30.7868ZM31.9776 28.859C31.6477 28.859 31.3797 29.1269 31.3797 29.4569C31.3797 29.7869 31.6477 30.0565 31.9776 30.0565C32.3076 30.0565 32.5773 29.7869 32.5773 29.4569C32.5773 29.1269 32.3076 28.859 31.9776 28.859Z" fill="#000072"/>
<path fill-rule="evenodd" clip-rule="evenodd" d="M35.47 30.7868C34.7364 30.7868 34.1401 30.1905 34.1401 29.4569C34.1401 28.725 34.7364 28.1287 35.47 28.1287C36.202 28.1287 36.7982 28.725 36.7982 29.4569C36.7982 30.1905 36.202 30.7868 35.47 30.7868ZM35.47 28.859C35.1401 28.859 34.8704 29.1269 34.8704 29.4569C34.8704 29.7869 35.1401 30.0565 35.47 30.0565C35.8 30.0565 36.068 29.7869 36.068 29.4569C36.068 29.1269 35.8 28.859 35.47 28.859Z" fill="#000072"/>
<path d="M30.4185 19.6151V25.8156H12.0513V16.967C12.0513 16.5466 12.393 16.2049 12.8134 16.2049H26.7186L30.4185 19.6151Z" fill="white"/>
<g opacity="0.3">
<path d="M30.4184 21.0136H27.365C27.0083 21.0136 26.7185 20.7238 26.7185 20.3671V17.6018L30.4184 19.5514V21.0136Z" fill="#000072"/>
</g>
<path fill-rule="evenodd" clip-rule="evenodd" d="M30.4181 26.1808H12.0509C11.8482 26.1808 11.6841 26.0166 11.6841 25.8156V16.967C11.6841 16.3456 12.1916 15.8381 12.813 15.8381H26.7182C26.8103 15.8381 26.8991 15.8733 26.9661 15.9353L30.666 19.3471C30.7414 19.4157 30.7849 19.5129 30.7849 19.6151V25.8156C30.7849 26.0166 30.6208 26.1808 30.4181 26.1808ZM12.416 25.4488H30.053V19.7759L26.5758 16.57H12.813C12.5952 16.57 12.416 16.7476 12.416 16.967V25.4488Z" fill="#000072"/>
<path d="M30.4184 19.6151H26.7185V16.2049L30.4184 19.6151Z" fill="white"/>
<path fill-rule="evenodd" clip-rule="evenodd" d="M30.4183 19.9819H26.7184C26.5157 19.9819 26.3533 19.8177 26.3533 19.6151V16.2049C26.3533 16.0592 26.4387 15.9286 26.571 15.8699C26.705 15.8113 26.8591 15.8364 26.9663 15.9353L30.6662 19.3471C30.7767 19.4493 30.8136 19.6084 30.76 19.7491C30.7047 19.8881 30.5691 19.9819 30.4183 19.9819ZM27.0835 19.2499H29.482L27.0835 17.039V19.2499Z" fill="#000072"/>
<path d="M30.4185 19.9819C30.3298 19.9819 30.241 19.9484 30.1707 19.8847L26.4707 16.4729C26.3217 16.3372 26.3133 16.1044 26.449 15.957C26.5863 15.808 26.8175 15.7979 26.9665 15.9353L30.6664 19.3471C30.8155 19.4827 30.8239 19.7139 30.6882 19.863C30.6162 19.9417 30.5174 19.9819 30.4185 19.9819Z" fill="#000072"/>
<g opacity="0.3">
<path d="M30.6345 37.0326H11.8335L12.0512 34.1852H30.4185L30.6345 37.0326Z" fill="#000072"/>
</g>
<g opacity="0.3">
<path d="M30.4183 25.8156H12.2957V22.7656H30.4183V25.8156Z" fill="#000072"/>
</g>
<g opacity="0.3">
<path d="M19.3654 41.7895H14.2452C14.1011 41.7895 13.9839 41.6739 13.9839 41.5282C13.9839 41.3841 14.1011 41.2669 14.2452 41.2669H19.3654C19.5095 41.2669 19.6267 41.3841 19.6267 41.5282C19.6267 41.6739 19.5095 41.7895 19.3654 41.7895Z" fill="#000072"/>
<path d="M20.9333 38.7193H14.3843C14.2403 38.7193 14.123 38.602 14.123 38.458C14.123 38.314 14.2403 38.1967 14.3843 38.1967H20.9333C21.0773 38.1967 21.1946 38.314 21.1946 38.458C21.1946 38.602 21.0773 38.7193 20.9333 38.7193Z" fill="#000072"/>
<path d="M18.0591 40.143H14.3843C14.2403 40.143 14.123 40.0257 14.123 39.8817C14.123 39.7376 14.2403 39.6204 14.3843 39.6204H18.0591C18.2032 39.6204 18.3204 39.7376 18.3204 39.8817C18.3204 40.0257 18.2032 40.143 18.0591 40.143Z" fill="#000072"/>
<path d="M28.2642 41.7895H24.5894C24.4454 41.7895 24.3281 41.6739 24.3281 41.5282C24.3281 41.3841 24.4454 41.2669 24.5894 41.2669H28.2642C28.4082 41.2669 28.5255 41.3841 28.5255 41.5282C28.5255 41.6739 28.4082 41.7895 28.2642 41.7895Z" fill="#000072"/>
</g>
</svg>
