<svg width="900" height="900" viewBox="0 0 900 900" fill="none" xmlns="http://www.w3.org/2000/svg">
<path d="M250.3 225.1C251.633 223.967 253.033 222.967 254.5 222.1L420.1 126.5L434.7 134.9L269.1 230.5C267.633 231.367 266.233 232.4 264.9 233.6C262.1 236 259.6 239.1 257.5 242.5L242.9 234C245 230.6 247.5 227.6 250.3 225.1Z" fill="#F4F4FA"/>
<path d="M269.1 230.5L254.5 222.1C245.1 227.5 237.4 240.8 237.5 251.7L252 260.1C252 249.3 259.7 236 269.1 230.5Z" fill="#F4F4FA"/>
<path d="M439.3 579.8L436 584.4C445.5 578.9 453.1 565.7 453.1 554.8L450.7 560.1C450.7 567.3 445.6 576.2 439.3 579.8Z" fill="#BFBEED"/>
<path d="M273.7 675.4L270.4 680L436 584.4L439.3 579.8L273.7 675.4Z" fill="#BFBEED"/>
<path d="M262.4 671.1L253.5 673.5C254.1 676.9 255.6 679.5 257.7 680.9L265.3 676C263.8 675 262.8 673.3 262.4 671.1Z" fill="#F4F4FA"/>
<path d="M265.3 676L257.7 680.9C260.9 683 265.4 682.9 270.4 680L273.7 675.4C270.4 677.3 267.4 677.4 265.3 676Z" fill="#BFBEED"/>
<path d="M243.6 672.7L258.2 681.2C255.1 679.4 253.2 675.6 253.2 670.2L238.6 661.7C238.6 667.2 240.5 671 243.6 672.7Z" fill="#BFBEED"/>
<path d="M253.2 670.2L238.6 661.7C238.6 667.2 240.5 671 243.6 672.7L258.2 681.2C255.1 679.4 253.2 675.6 253.2 670.2Z" fill="#BFBEED"/>
<path d="M450.7 560.1L453.1 554.8L451.9 144.7L449.5 150L450.7 560.1Z" fill="#BFBEED"/>
<path d="M449.5 150L451.9 144.7C451.9 143.033 451.7 141.5 451.3 140.1L449.2 146.9C449.4 147.833 449.5 148.867 449.5 150Z" fill="#BFBEED"/>
<path d="M449.2 146.9L451.3 140.1C450.5 136.9 448.8 134.6 446.4 133.5L445.9 142.5C447.4 143.2 448.6 144.7 449.2 146.9Z" fill="#F4F4FA"/>
<path d="M445.9 142.5L446.4 133.5C444.2 132.4 441.6 132.3 438.6 133.2L440.7 142.3C442.6 141.7 444.4 141.8 445.9 142.5Z" fill="#F4F4FA"/>
<path d="M440.7 142.3L438.6 133.2C437.333 133.6 436.033 134.167 434.7 134.9L438.1 143.4C438.967 142.933 439.833 142.567 440.7 142.3Z" fill="#F4F4FA"/>
<path d="M446.9 133.7L432.3 125.3C429.2 123.5 424.9 123.7 420.1 126.5L434.7 134.9C439.5 132.2 443.8 131.9 446.9 133.7Z" fill="#F4F4FA"/>
<path d="M446.9 133.7L432.3 125.3C430.4 124.2 428.1 123.8 425.5 124.4L440.1 132.8C442.7 132.3 445 132.6 446.9 133.7Z" fill="#F4F4FA"/>
<path d="M440.1 132.8L425.5 124.4C423.833 124.667 422.033 125.367 420.1 126.5L434.7 134.9C436.567 133.833 438.367 133.133 440.1 132.8Z" fill="#F4F4FA"/>
<path d="M261.1 258.8L262.3 668.9C262.3 669.633 262.333 670.367 262.4 671.1L253.5 673.5C253.3 672.5 253.2 671.4 253.2 670.2L252 260.1L261.1 258.8Z" fill="#F4F4FA"/>
<path d="M252 260.1L237.5 251.7L238.6 661.7L253.2 670.2L252 260.1Z" fill="#BFBEED"/>
<path d="M438.1 143.4L434.7 134.9L269.1 230.5L272.5 239.1L438.1 143.4Z" fill="#F4F4FA"/>
<path d="M272.5 239.1C266.2 242.7 261.1 251.5 261.1 258.8L262.3 668.9C262.3 676.1 267.4 679 273.7 675.4L439.3 579.8C445.6 576.2 450.7 567.3 450.7 560.1L449.5 150C449.5 142.7 444.4 139.8 438.1 143.4L272.5 239.1Z" fill="#F4F4FA"/>
<path d="M272.5 239.1L269.1 230.5C261.7 234.8 255.4 243.9 253 252.8L261.8 253.9C263.3 248 267.5 241.9 272.5 239.1Z" fill="#F4F4FA"/>
<path d="M261.8 253.9L253 252.8C252.4 255.3 252 257.8 252 260.1L261.1 258.8C261.1 257.2 261.3 255.6 261.8 253.9Z" fill="#F4F4FA"/>
<path d="M257.5 242.5L242.9 234C240.6 237.9 238.8 242.1 238 246.3L252.6 254.8C253.4 250.6 255.2 246.3 257.5 242.5Z" fill="#F4F4FA"/>
<path d="M252.6 254.8L238 246.3C237.667 248.1 237.5 249.9 237.5 251.7L252 260.1C252 258.367 252.2 256.6 252.6 254.8Z" fill="#BFBEED"/>
<path d="M261.9 656.2C261.9 658.3 262.3 660.1 263.2 661.5C265.1 664.6 268.9 665.2 273.3 662.7C273.3 662.7 440.6 566 441.4 565.3C446.5 561.1 450.3 553.6 450.3 547.4L449.1 149.9C449.1 142.7 444 139.8 437.7 143.4L272.1 239C267.3 241.8 263.1 247.7 261.5 253.6C261.167 254.6 260.933 255.633 260.8 256.7C260.7 257.4 261.9 656.2 261.9 656.2Z" fill="#3A2C99"/>
<path d="M320.7 234.6L391.1 194C395.1 191.7 398.7 187 400.4 181.9L408 159.5L303.8 219.7L311.4 233.3C313.1 236.4 316.7 236.9 320.7 234.6Z" fill="#F4F4FA"/>
<path d="M328.5 217.6C328.4 222.5 324.8 228.4 320.5 230.7C319.3 231.3 318.2 231.6 317.3 231.6C316.433 231.6 315.733 231.333 315.2 230.8C314.4 230 313.9 228.6 314 226.8C314.1 221.9 317.7 216 322 213.7C323.1 213.1 324.2 212.8 325.1 212.8C325.567 212.8 326 212.9 326.4 213.1C327.8 213.7 328.5 215.3 328.5 217.6Z" fill="#F4F4FA"/>
<path d="M327.6 217.1C327.5 221.9 323.9 227.8 319.6 230.2C318.5 230.8 317.4 231.1 316.5 231.1C316.033 231.033 315.6 230.933 315.2 230.8C314.4 230 313.9 228.6 314 226.8C314.1 221.9 317.7 216 322 213.7C323.1 213.1 324.2 212.8 325.1 212.8C325.567 212.8 326 212.9 326.4 213.1C327.2 213.9 327.7 215.3 327.6 217.1Z" fill="#BFBEED"/>
<path d="M316.5 230.4C316.167 230.4 315.867 230.333 315.6 230.2C314.9 229.5 314.6 228.3 314.6 226.8C314.8 222.2 318.2 216.5 322.3 214.3C323.3 213.7 324.3 213.5 325.1 213.5C325.433 213.5 325.733 213.567 326 213.7C326.6 214.3 327 215.5 327 217C326.8 221.7 323.4 227.3 319.3 229.6C318.3 230.1 317.3 230.4 316.5 230.4Z" fill="#3A2C99"/>
<path d="M321.8 216.6C321.8 217.2 321.4 217.9 320.9 218.1C320.4 218.4 320 218.2 320 217.6C320 217 320.4 216.3 320.9 216C321.5 215.8 321.9 216 321.8 216.6Z" fill="#3A2C99"/>
<path d="M319.6 217.9C319.8 218.3 319.7 219 319.2 219.6C318.8 220.1 318.2 220.2 318 219.9C317.7 219.5 317.9 218.8 318.3 218.2C318.8 217.7 319.4 217.6 319.6 217.9Z" fill="#3A2C99"/>
<path d="M317.7 220.3C318.1 220.4 318.2 221 318 221.6C317.7 222.2 317.1 222.7 316.7 222.7C316.3 222.6 316.1 222.1 316.4 221.4C316.7 220.8 317.2 220.3 317.7 220.3Z" fill="#3A2C99"/>
<path d="M316.6 223.2C317.1 222.9 317.5 223.2 317.5 223.7C317.5 224.3 317 225 316.5 225.3C316 225.6 315.6 225.3 315.6 224.7C315.6 224.2 316.1 223.5 316.6 223.2Z" fill="#3A2C99"/>
<path d="M316.6 225.7C317.1 225.2 317.6 225 317.9 225.4C318.1 225.8 317.9 226.5 317.5 227C317 227.5 316.5 227.7 316.2 227.3C316 227 316.2 226.2 316.6 225.7Z" fill="#3A2C99"/>
<path d="M317.8 227.2C318 226.5 318.6 226.1 319.1 226.1C319.5 226.2 319.6 226.7 319.4 227.4C319.1 228 318.5 228.5 318.1 228.4C317.6 228.4 317.5 227.8 317.8 227.2Z" fill="#3A2C99"/>
<path d="M319.8 227.3C319.8 226.7 320.2 226 320.7 225.7C321.2 225.4 321.6 225.7 321.6 226.3C321.6 226.8 321.2 227.5 320.7 227.8C320.1 228.1 319.7 227.9 319.8 227.3Z" fill="#3A2C99"/>
<path d="M322 225.9C321.8 225.6 321.9 224.8 322.4 224.3C322.8 223.8 323.4 223.6 323.6 224C323.9 224.4 323.7 225.1 323.3 225.6C322.8 226.2 322.2 226.3 322 225.9Z" fill="#3A2C99"/>
<path d="M323.9 223.5C323.5 223.5 323.4 222.9 323.6 222.3C323.9 221.6 324.5 221.1 324.9 221.2C325.3 221.2 325.5 221.8 325.2 222.4C324.9 223.1 324.4 223.6 323.9 223.5Z" fill="#3A2C99"/>
<path d="M325 220.7C324.5 220.9 324.1 220.7 324.1 220.1C324.1 219.5 324.6 218.8 325.1 218.6C325.6 218.3 326 218.5 326 219.1C326 219.7 325.5 220.4 325 220.7Z" fill="#3A2C99"/>
<path d="M325 218.2C324.5 218.7 324 218.8 323.7 218.5C323.5 218.1 323.7 217.4 324.1 216.8C324.6 216.3 325.1 216.2 325.4 216.5C325.6 216.9 325.4 217.6 325 218.2Z" fill="#3A2C99"/>
<path d="M323.8 216.7C323.6 217.3 323 217.8 322.5 217.7C322.1 217.7 322 217.1 322.2 216.5C322.5 215.8 323.1 215.4 323.5 215.4C324 215.5 324.1 216 323.8 216.7Z" fill="#3A2C99"/>
<path d="M323 220.7C322.9 222.1 321.9 223.7 320.7 224.4C319.5 225 318.6 224.5 318.6 223.1C318.7 221.7 319.7 220.1 320.9 219.5C322.1 218.8 323 219.4 323 220.7Z" fill="#3A2C99"/>
<path d="M351.4 204.2C351.3 209.1 347.7 215 343.4 217.4C342.3 218 341.2 218.3 340.3 218.3C339.433 218.233 338.733 217.933 338.2 217.4C337.3 216.6 336.9 215.2 336.9 213.4C337 208.6 340.6 202.7 345 200.3C346.1 199.7 347.2 199.4 348.1 199.4C348.567 199.467 349 199.567 349.4 199.7C350.7 200.3 351.5 201.9 351.4 204.2Z" fill="#F4F4FA"/>
<path d="M350.6 203.7C350.5 208.6 346.9 214.4 342.6 216.8C341.5 217.4 340.4 217.7 339.4 217.7C338.933 217.7 338.533 217.6 338.2 217.4C337.3 216.6 336.9 215.2 336.9 213.4C337 208.6 340.6 202.7 345 200.3C346.1 199.7 347.2 199.4 348.1 199.4C348.567 199.467 349 199.567 349.4 199.7C350.2 200.5 350.7 201.9 350.6 203.7Z" fill="#BFBEED"/>
<path d="M339.5 217C339.167 217 338.867 216.933 338.6 216.8C337.9 216.1 337.6 215 337.6 213.5C337.7 208.8 341.2 203.2 345.3 200.9C346.3 200.4 347.3 200.1 348.1 200.1C348.433 200.1 348.733 200.167 349 200.3C349.6 201 350 202.2 349.9 203.7C349.8 208.3 346.4 213.9 342.3 216.2C341.2 216.7 340.3 217 339.5 217Z" fill="#3A2C99"/>
<path d="M344.8 203.2C344.8 203.8 344.4 204.5 343.9 204.8C343.4 205.1 343 204.8 343 204.2C343 203.6 343.4 202.9 343.9 202.7C344.4 202.4 344.8 202.6 344.8 203.2Z" fill="#3A2C99"/>
<path d="M342.6 204.6C342.8 204.9 342.6 205.7 342.2 206.2C341.7 206.7 341.2 206.9 340.9 206.5C340.7 206.1 340.9 205.4 341.3 204.9C341.8 204.3 342.3 204.2 342.6 204.6Z" fill="#3A2C99"/>
<path d="M340.6 207C341.1 207 341.2 207.6 340.9 208.2C340.7 208.9 340.1 209.4 339.7 209.3C339.2 209.3 339.1 208.7 339.4 208.1C339.6 207.4 340.2 206.9 340.6 207Z" fill="#3A2C99"/>
<path d="M339.6 209.8C340.1 209.5 340.5 209.8 340.5 210.4C340.4 211 340 211.7 339.5 211.9C339 212.2 338.6 212 338.6 211.4C338.6 210.8 339 210.1 339.6 209.8Z" fill="#3A2C99"/>
<path d="M339.6 212.3C340 211.8 340.6 211.7 340.8 212C341.1 212.4 340.9 213.1 340.5 213.7C340 214.2 339.5 214.3 339.2 214C339 213.6 339.1 212.9 339.6 212.3Z" fill="#3A2C99"/>
<path d="M340.8 213.8C341 213.2 341.6 212.7 342 212.7C342.5 212.8 342.6 213.4 342.3 214C342.1 214.6 341.5 215.1 341.1 215.1C340.6 215 340.5 214.5 340.8 213.8Z" fill="#3A2C99"/>
<path d="M342.7 213.9C342.7 213.3 343.2 212.6 343.7 212.4C344.2 212.1 344.6 212.3 344.6 212.9C344.6 213.5 344.1 214.2 343.6 214.5C343.1 214.7 342.7 214.5 342.7 213.9Z" fill="#3A2C99"/>
<path d="M345 212.6C344.7 212.2 344.9 211.5 345.4 210.9C345.8 210.4 346.4 210.3 346.6 210.6C346.9 211 346.7 211.7 346.2 212.3C345.8 212.8 345.2 212.9 345 212.6Z" fill="#3A2C99"/>
<path d="M346.9 210.1C346.5 210.1 346.3 209.5 346.6 208.9C346.9 208.2 347.4 207.8 347.9 207.8C348.3 207.9 348.5 208.4 348.2 209.1C347.9 209.7 347.3 210.2 346.9 210.1Z" fill="#3A2C99"/>
<path d="M348 207.3C347.5 207.6 347.1 207.3 347.1 206.8C347.1 206.2 347.5 205.5 348.1 205.2C348.6 204.9 349 205.2 349 205.7C348.9 206.3 348.5 207 348 207.3Z" fill="#3A2C99"/>
<path d="M348 204.8C347.5 205.3 346.9 205.5 346.7 205.1C346.5 204.7 346.6 204 347.1 203.5C347.5 202.9 348.1 202.8 348.3 203.2C348.6 203.5 348.4 204.3 348 204.8Z" fill="#3A2C99"/>
<path d="M346.8 203.3C346.5 204 346 204.4 345.5 204.4C345.1 204.3 344.9 203.8 345.2 203.1C345.5 202.5 346.1 202 346.5 202.1C346.9 202.1 347.1 202.7 346.8 203.3Z" fill="#3A2C99"/>
<path d="M345.9 207.4C345.9 208.7 344.9 210.4 343.7 211C342.5 211.7 341.6 211.1 341.6 209.7C341.6 208.4 342.6 206.7 343.8 206.1C345 205.4 346 206 345.9 207.4Z" fill="#3A2C99"/>
<path d="M362.8 200.4L371.6 195.4C373.2 194.4 374.5 192.1 374.5 190.2C374.5 188.3 373.2 187.6 371.6 188.5L362.8 193.6C361.2 194.5 359.9 196.8 359.9 198.7C359.9 200.6 361.2 201.4 362.8 200.4Z" fill="#231869"/>
<path d="M475.9 516.4C476.2 516.2 476.6 516.3 476.9 516.4C477.3 516.5 477.6 516.8 477.8 517C480.5 519.3 483.3 522.3 485.5 524.9L485.3 524.8C485.633 525.2 485.967 525.567 486.3 525.9C486.3 526.033 486.333 526.133 486.4 526.2C487.5 526.5 488.5 526.8 489.2 527.6C489.7 528.1 489.9 528.8 490.1 529.4C490.4 530.6 490.8 533.9 490.7 535C490.7 535.4 490 536.2 489.5 536.3C489.5 536.3 489.467 536.267 489.4 536.2V536.3C488.6 536.9 487.9 537.7 487.4 538.5C487 539.2 486.2 539 485.4 539.3C482.4 535.5 478.5 533.6 476.3 529.4C476 528.9 475.7 528.3 475.8 527.8C476 527.2 476.6 526.7 477.2 526.9C476.9 526.4 477 525.7 477.5 525.3C477.9 524.9 478.7 524.8 479.2 525C479.1 524.5 479.4 523.9 479.9 523.7C480.167 523.567 480.433 523.5 480.7 523.5C479.2 522.1 477.9 520.8 476.6 519C476.1 518.4 475.3 517.7 475.5 517C475.6 516.8 475.7 516.6 475.9 516.4Z" fill="#F9D5C3"/>
<path d="M565.4 726.9C565.2 726.3 564.8 725.9 563.6 725.8C562.2 725.7 560.8 725.6 559.4 725.6C557.467 725.467 555.533 725.333 553.6 725.2C553.7 723.6 553.8 722.1 553.9 720.5C551.9 721 550.8 720.4 548.8 719.6C546.533 718.8 544.2 718.033 541.8 717.3C540.8 717.1 539.8 716.8 538.8 717C536.2 717.5 534.8 721.8 535.1 724C535.3 725.6 536.4 726.9 537.7 727.9C539.6 729.4 542.2 730.6 544.6 731C547.1 731.4 549.5 732.2 551.5 733.8C554.2 735.8 556.1 738 559.6 738.3C563.1 738.5 566 736.4 566.2 732.7C566.2 731.4 566 730.1 565.8 728.8C565.6 728 565.6 727.4 565.4 726.9Z" fill="#BFBEED"/>
<path d="M547.5 733.3C547.5 733.033 547.5 732.767 547.5 732.5C547.7 729.6 546.6 727.2 545.6 724.5C545.2 723.6 544.7 722.5 543.9 721.9C542 720.3 539 721.7 537.8 723.8C537.2 724.7 536.9 725.8 536.4 726.9C535.5 728.8 533.6 731 531.3 731.1C528.2 731.3 524.7 730.2 521.6 730C520.3 730 519.1 729.9 517.9 730.4C515.3 731.5 514.5 735.8 515.4 738.2C516 739.7 517.4 740.7 518.8 741.4C521 742.5 523.8 743.1 526.2 742.9C528.8 742.7 531.3 742.9 533.6 744.1C537.7 746 542.4 748.7 546.4 745C547.5 744 548.1 742.5 548.2 741C548.4 738.4 547.5 735.9 547.5 733.3Z" fill="#BFBEED"/>
<path d="M559.2 614.2C557.3 616.2 549.9 612.7 549.8 611.8C540.9 605.2 542.6 632.2 545.4 642.9C546.8 648.7 546.6 654.7 547.6 660.6C548.6 667.1 550.2 673.6 552.2 679.9C552.6 681.2 553.1 682.6 554.1 683.7C556.2 685.8 559.6 685.5 562.5 684.9C565 684.4 567.8 683.7 569 681.4C569.7 680 569.7 678.3 569.6 676.8C569.5 672.6 569.4 668.3 570.1 664.2C570.9 659.867 571.667 655.5 572.4 651.1C573.1 647.3 573.8 643.5 574.1 639.6C574.6 632.6 573.8 625.6 572.6 618.7C571.9 615.1 573 608.3 567.8 607.6C563.1 607.1 560.5 612.8 559.2 614.2Z" fill="#231869"/>
<path d="M549.6 674.5L548.2 668.4C548.8 670.4 549.267 672.433 549.6 674.5Z" fill="#6E4CB3"/>
<path d="M553.2 677.6C554.6 675.5 558.3 675.5 559.6 676C560.6 676.4 567.6 672.2 569.6 670.5C569.4 670.7 569.8 672.4 569.8 672.6C569.867 673.333 569.933 674.067 570 674.8C570.067 676.2 570.167 677.6 570.3 679C570.4 681.8 570.6 684.6 570.6 687.4C570.6 707.5 566.9 725.1 566.6 727.1C566.4 728.2 566.2 729.2 565.5 730C564.6 731.2 561.9 732.3 558 731.7C555.6 731.3 553.5 729.7 552.7 727.3C551.9 725.2 552.1 722.9 552.2 720.7C552.7 712 553.3 703.4 553.1 694.6C553 687.6 552.4 680.6 550.9 673.7L553.2 677.6Z" fill="#231869"/>
<path d="M529 633.7C528.5 642.2 528.6 650.8 529.3 659.3C529.7 664.433 530.333 669.533 531.2 674.6C531.6 677.133 532.067 679.667 532.6 682.2C533.1 684.6 533.6 685.4 535.5 686.7C539.8 689.5 547.6 689.3 550.8 684.5C554.3 679.4 553.1 671.1 554.3 665.2C556.1 656.6 562 650.5 564.8 642.4C565.8 639.4 566.3 636.6 566.5 633.7H529Z" fill="#3A2C99"/>
<path d="M575.4 593.3C575.6 591.767 575.833 590.233 576.1 588.7C577.3 581.5 579.5 574.5 580.4 567.2C581.1 561.5 581.6 554.5 577.1 550.1C576.4 549.4 575.5 548.8 574.7 548.3C565.9 543.3 557.6 549.3 549.4 552.3C544 554.2 538.9 556.8 534.1 559.8C532.4 560.9 530.7 561.6 529.6 563.3C528.4 565.1 527.7 567 527.6 569.1C527.5 571.5 527.9 574 528.3 576.4C530.7 590.3 531.7 604.5 530 618.6C529.3 624.6 528.6 641.1 528.6 641.1C530.6 642 531.9 642.8 541.6 643C561.8 643.4 572.9 638.3 574 637.2C575.2 636.2 574.8 633.7 574.8 632.3C575 627.9 574.9 623.5 574.8 619.1C574.6 610.5 574.3 601.9 575.4 593.3Z" fill="#DADAF9"/>
<path d="M532.8 686.2C533.067 690.6 533.3 695.033 533.5 699.5C533.633 702.967 533.733 706.467 533.8 710C533.933 712.667 534 715.367 534 718.1C534.1 732.8 532.5 736.1 539.4 738.2C540.9 738.7 542.6 738.8 544.2 738.5C548.7 737.5 549.6 733.5 550.3 728.6C550.7 725.8 550.9 722.5 551.1 719.7C551.233 717.3 551.333 714.933 551.4 712.6C551.533 709.4 551.667 706.2 551.8 703C551.933 698.733 552.067 694.5 552.2 690.3C552.4 684.9 553 679.3 553.2 673.9C553.2 673.2 552.7 672.3 552.1 671.9C551.3 671.3 534.9 676.9 533.2 678.7C533.2 678.7 532.4 680.7 532.8 686.2Z" fill="#3A2C99"/>
<path d="M531.7 556.4C526.4 555.6 513.6 553.1 510.8 551.4C503.4 547 495.7 538 492.4 533.6C491.3 532.1 482.2 538 482.2 539.3C482.2 540.4 489.3 551.4 490.4 553C496 561.2 501.4 565.7 503.3 566.8C508.3 569.5 528.1 577.7 529.3 577.9C532.9 578.7 539.1 575.2 540.6 572.7C549.7 556.7 533.9 556.7 531.7 556.4Z" fill="#F4F4FA"/>
<path d="M547.2 545.2C546.9 543 545.3 543.5 546.1 541.6C546.8 539.9 547.9 538.4 549.3 537.3C550.7 536.2 552.5 535.5 554.3 535.6C555 535.6 555.4 536 556 536C557.7 536 559.4 535.7 561.1 535.9C562.8 536.2 564.4 536.3 564.4 538.2C564.4 540.7 564.2 543.2 565 545.7C565.5 547 566.1 548.3 566.3 549.7C566.5 552.5 564.5 555 562 556.2C558.9 557.7 555.5 557.6 552.2 557.1C550.6 556.9 548.3 556.5 547.3 555C546.6 553.8 546.9 552.3 547.1 551C547.3 549.1 547.5 547.1 547.2 545.2Z" fill="#F9D5C3"/>
<path d="M550.9 512.7L558 516.8C557.5 516.5 556.8 516.6 556 517L548.9 512.9C549.7 512.4 550.4 512.4 550.9 512.7Z" fill="#3A2C99"/>
<path d="M556 517L548.9 512.9C549.7 512.4 550.4 512.4 550.9 512.7L558 516.8C557.5 516.5 556.8 516.6 556 517Z" fill="#7F89A6"/>
<path d="M539.9 517.6C538.9 518.8 538.1 520.2 537.9 521.9C537.3 525.5 538.8 529.3 538 533C537.2 536.5 538.7 544.5 545.7 546.6C549.2 547.6 556.2 546.4 558.4 545.3C561.4 543.9 563.4 541 565.2 538.2C579.7 515 549.8 505.5 539.9 517.6Z" fill="#F9D5C3"/>
<path d="M571.8 527.8C571.733 528.467 571.633 529.133 571.5 529.8C571.367 530.333 571.233 530.867 571.1 531.4C570.967 531.8 570.8 532.2 570.6 532.6C569.9 534.2 568.9 535.6 568 537C566.6 538.9 565.2 540.9 563 541.9C562.1 542.4 561.1 542.6 560.1 542.8C557.4 543.4 553.3 543.6 551.2 541.3C550.3 540.3 549.9 538.8 549.7 537.5C549.5 536.2 549.5 535 549.1 533.7C549.033 533.367 548.967 533.033 548.9 532.7C548.7 532.2 548.5 531.7 548.3 531.2C547.8 530.5 547.2 529.8 546.3 529.5C544.9 529.1 543.1 529.9 541.9 529.1C541.2 528.7 540.9 527.9 540.6 527.2C540.3 526.5 540.1 525.7 539.8 524.9C539.4 523.9 539 522.9 538.3 522.1C538 521.6 537.6 521.2 537.3 520.8C536.9 520.1 536.5 519.5 536.5 518.8C536.4 515.4 539.1 512 541.5 509.9C542.7 508.7 544.1 507.7 545.7 507C547.1 506.4 548.6 506.1 550 505.9C554.4 505.3 559.2 505.4 563 507.5C564.1 508.1 565.1 508.9 565.6 509.9C565.7 510.2 565.7 510.4 565.9 510.6C566.1 510.9 566.5 511 566.8 511.2C567.867 511.667 568.733 512.267 569.4 513C573 516.7 572.5 522.9 571.8 527.8Z" fill="#3A2C99"/>
<path d="M547.9 528C550.7 527.7 551.5 531.2 549.6 533.9C549 534.7 548.1 535.4 547.3 536C542.4 540.4 541.1 535.8 542.6 534.3C546.3 530.9 544.4 528.3 547.9 528Z" fill="#F9D5C3"/>
<path d="M547.1 533.2C547.5 532.9 550.6 531 548.4 529.8C547.8 529.4 547.1 530 547.1 530.6C547 530.9 547.1 531.3 547.1 531.6C547.033 531.8 546.967 531.967 546.9 532.1C546.6 532.6 545.7 533.1 545.9 533.7C546 534.3 547 533.4 547.1 533.2Z" fill="#FFBFA2"/>
<path d="M532.3 473.5C532 473.2 531.7 472.9 531.7 472.6C531.8 472.1 532.5 471.8 532.9 471.8C533.7 471.7 534.4 471.8 535.1 472.1C536 472.5 536.8 473 537.7 473.3C537.9 473.4 538.2 473.4 538.5 473.4C538.7 473.3 538.9 473.1 538.9 472.8C538.9 472.3 538.1 471.9 537.8 471.7C537.267 471.3 536.7 470.933 536.1 470.6C535.2 470.1 534 469.5 533 469.4C531.8 469.2 530.6 469.5 529.4 469.4C529.2 469.3 529 469.3 528.8 469.2C528.4 469 528.2 468.7 528 468.4C527.8 468.067 527.633 467.7 527.5 467.3C527.433 467.233 527.4 467.167 527.4 467.1C527.4 467 527.5 467 527.6 466.9C528.9 466 530.5 465.6 532 465C533.067 464.6 534.133 464.233 535.2 463.9C535.4 463.8 535.7 463.7 536 463.8C536.2 463.8 536.5 464 536.7 464.1C537.5 464.5 538.3 464.8 539.1 465.1C541.8 466.2 544.1 468.1 546.3 470.1C547.7 471.4 549.2 472.7 550.6 474.1C551.8 475.2 551.1 477.3 550.1 478.2C549.833 478.4 549.567 478.6 549.3 478.8C548.3 479.3 547.1 479.3 546 479C545.4 478.9 542.9 477.9 542.1 477.7C538.9 476.8 535.6 475.7 532.8 473.9C532.6 473.767 532.433 473.633 532.3 473.5Z" fill="#F9D5C3"/>
<path d="M593.8 480.3C602.2 474.9 605.4 466.1 602.4 463.2C597.2 458.2 592.6 461.5 580.7 471.9C580.433 472.167 580.167 472.4 579.9 472.6C577 475.1 574.1 477.6 571.4 480.4C569.9 481.9 568.5 483.5 567.2 485.3C566.867 485.7 566.567 486.1 566.3 486.5C566.1 486.9 566 487.5 565.8 488C565.4 489.2 565.1 490.5 565.1 491.8C565 493.4 565.6 495.1 566.8 496.2C568.2 497.4 570.3 497.5 572.1 496.9C574.1 496.3 581.2 494.9 586.4 489.8C589.9 486.5 583 487.4 593.8 480.3Z" fill="#D3D3F5"/>
<path d="M547.7 474.1C548.2 473.4 548.7 472.9 549.6 473.1C550.5 473.3 551.3 473.7 552.2 474.1C553.8 475 555.3 476.2 556.9 477.2C558.9 478.7 561 479.8 563.1 481.1C564.633 482.033 566.133 483 567.6 484C570.3 486 576.3 490.5 573.4 494.4C572.4 495.9 570 497.2 568.2 497C566.8 496.8 565.1 495.1 564 494.3C561.4 492.5 558.9 490.5 556.4 488.6C553.4 486.3 550.5 483.6 547.5 481.2C546.2 480.3 545.4 480.2 545.8 478.4C546.1 476.9 546.8 475.6 547.6 474.3C547.667 474.233 547.7 474.167 547.7 474.1Z" fill="#D3D3F5"/>
<path d="M631 468.4C631 466.7 631.1 465 631.2 463.3C631.3 459.8 631.3 456.3 630.7 452.9C629.9 448.8 628.4 444.8 626.1 441.3C625.8 440.8 625.4 440.2 625 439.8C623.8 440 622.3 439.6 621.3 440.2C619.7 441 618.6 443.7 617.9 445.2C616.1 449.3 615.5 454 616.5 458.4C616.8 460.1 617.6 461.5 618.2 463C618.9 465 619.5 466.9 620.6 468.6C622 470.7 624.1 472.5 626.6 473C627.9 473.2 629.3 473.1 630.2 472.1C631.1 471.1 631 469.7 631 468.4Z" fill="#302534"/>
<path d="M630.2 467.5C626.4 465.8 619.4 462.4 615.7 459.8C615.1 459.5 612.6 461.1 612 461C607.1 460 602 460.2 597.5 462.2C597.433 462.2 597.367 462.2 597.3 462.2V492H625.9L630.2 467.5Z" fill="#FFBFA2"/>
<path d="M619.4 465.3C619.4 465.3 601.7 474.2 602.5 464.3C603.7 450.6 604.6 449 610.8 447.3C612.4 446.8 613.1 445.4 614.9 445.4C621.2 445.7 618.6 449 618.2 451.4C617 458.6 619.6 461.5 619.4 465.3Z" fill="#FFBFA2"/>
<path d="M603.4 459.9C603.333 459.9 603.233 459.933 603.1 460C603.9 459.7 604.3 459.9 603.4 459.9Z" fill="#E3E2F2"/>
<path d="M639.3 477.8C639.367 478.333 639.4 478.9 639.4 479.5C639.3 481.2 638.9 482.8 638.5 484.3C638.1 486.2 637.2 487.9 636.1 489.6C635.1 491.3 634.2 493.1 633.1 494.8C632 496.6 631.5 498.4 630.6 500.2C628.7 504.4 627 508.7 626.2 513.3C625.6 516.9 625.6 520.6 625.8 524.3C625.9 526 626.2 527.8 626.1 529.6C626.1 530 626.2 530.9 626.1 531.3C626 532 625.7 532.2 625.1 532.6C621.9 535.1 618.1 536.5 614.2 537.2C610 537.9 605.5 537.6 601.5 536.9C600.3 536.7 599.133 536.5 598 536.3C593.2 535.1 589.6 533.7 589 533.2C588.1 532.5 588.5 532.7 589.2 526.3C592.3 499.9 580.7 499.5 585.2 485.7C586 483.3 587.6 481.1 588.6 478.7C592.2 470.1 589.9 460.4 603.1 459.9C602.3 460.2 594.7 473.1 603.9 476.9C609.8 479.3 621.6 472.8 624.4 464.7C628.3 466.6 631.8 467.7 635.1 470.1C637.9 472.2 639.1 474.6 639.3 477.8Z" fill="#F4F4FA"/>
<path d="M615 653.8C614.5 654.5 614.2 655.4 613.9 656.2C612.9 659.067 611.867 661.967 610.8 664.9C609.9 667.5 609.6 670.3 609.3 673C609 675.1 608.2 677.8 609.7 679.5C611.2 681.3 613.9 681.7 616.1 680.9C618.3 680.1 619.9 678.3 621 676.2C622.3 673.7 622.5 671.2 622.9 668.5C623.367 665.5 623.833 662.533 624.3 659.6C624.5 658.3 624.6 657.1 624.4 655.9C623.6 652.7 618 650.5 615.6 653.1C615.333 653.3 615.133 653.533 615 653.8Z" fill="#19121B"/>
<path d="M591 659.8C591 658.2 591.7 656.7 592.5 655.5C594 653.5 595.9 651.9 597.4 650C598.2 649.1 598.6 648.1 599.2 647.1C599.8 646 601 645 601.8 644.1C601.933 643.9 602.067 643.733 602.2 643.6C603.6 642.1 605.4 641 607.4 640.5C609 640.1 611.7 640 612.8 641.4C614.5 643.4 614.2 645.7 613.6 648C612.9 650.4 610.8 651.2 609.1 652.8C608.3 653.7 607.7 654.7 606.8 655.5C605.7 656.6 604.6 657.8 603.5 659C602 660.5 600.4 662 598.4 662.8C595.5 664.1 591.2 663.8 591 659.9C591 659.833 591 659.8 591 659.8Z" fill="#19121B"/>
<path d="M584.3 598.2C585.8 601.8 596.7 628.5 599.1 637.2C600.2 641.1 601.3 646.2 598.6 649.6C598 650.4 597.3 651.1 596.9 652C596.5 652.9 596.5 654.1 597.2 654.7C597.9 655.4 598.9 655.4 599.7 655.1C600.6 654.8 601.2 654.2 601.9 653.7C604 651.9 606 650.1 607.8 648C608.8 646.8 609.7 645.5 610.4 644.1C611.1 642.7 611.7 641.6 611 640.1C609.4 637 608.8 633.4 608.5 630C608.4 627.9 608.4 625.7 608.4 623.5C608.5 621.5 608.8 619.5 608.7 617.5C608.4 613.5 608.2 609.4 607.2 605.4C606.5 602.9 605.3 600.3 603.6 598.2C601.8 596.1 599.4 594.8 597.5 592.8C596.4 591.7 594.9 590.5 593.1 590.8L584.3 598.2Z" fill="#FFBFA2"/>
<path d="M631.7 552.6C631.6 547.5 631.5 544.7 630.8 539.6C630.3 536.4 627.8 527.6 627.8 527.6C627.8 527.6 614.6 533.2 610.4 533.6C605.3 534.1 603.3 534.3 599.3 533.5C597.5 533.2 597.4 533.2 597.4 535.1C597.4 537.6 598.4 540.4 598.9 542.9C600.7 552.5 603.6 562.1 605.1 571.8C606.3 579.6 606 588 607.1 596C607.5 599.4 609.4 602.8 610.9 605.7C612.7 609.1 614.5 611 617.8 610.6C619.3 610.5 621.9 608.8 622.7 607.5C623.2 606.7 623.4 605.1 623.7 604.1C624.567 601.3 625.3 598.5 625.9 595.7C626.033 595.1 626.167 594.5 626.3 593.9C626.3 593.833 626.3 593.767 626.3 593.7C627.8 586.2 628.6 578.4 629.8 570.8C630.6 564.8 631.8 558.7 631.7 552.6Z" fill="#F9D5C3"/>
<path d="M606.1 590.7C606.8 600.1 610.6 606.9 612.2 616.2C613.9 626.4 614.1 636.7 614.2 647C614.2 651.4 614.5 656.2 613.8 660.5C613.3 663.2 610.9 667.7 613.1 670.1C613.9 671 615 671.5 616.2 671.6C617.2 671.6 618.2 671.5 619.1 670.9C620.5 669.9 620.8 667.3 621.3 665.7C623.1 660.2 624.1 654.5 625.7 648.9C627.3 642.7 630 636.7 630.9 630.4C631.4 626.7 631.4 623 631.3 619.3C631.2 612 628.7 601.9 625.7 595.3C625 593.7 624.8 595.6 623.1 595.3L606.1 590.7Z" fill="#F9D5C3"/>
<path d="M581.3 590.7C580.6 594.1 580.4 597.1 582.9 600.6C585.8 604.6 590.8 606.7 595.7 607.3C600.6 607.8 605.5 607 610.4 606.3C615.933 605.367 621.5 604.467 627.1 603.6C628.3 603.4 629.7 603.1 630.6 602.1C631.5 601 631.4 599.5 631.3 598.1C630.8 591.4 630.3 584.9 630.6 578.2C631 570.6 632.3 562.9 632.3 555.3C632.7 548.1 632.3 540.7 629.7 534C629.1 532.4 628.3 527.9 626.7 527.3C624.3 526.2 619.5 529.5 617.2 530.3C614.1 531.4 602.9 533.5 600.4 533.6C595.3 533.8 594.4 529.7 588.1 529.7C586.3 529.7 585.3 542.2 585 543.8C584.3 548.1 583.8 552.4 583.5 556.7C583.2 560.7 583.8 564.4 583.7 568.3C583.6 574.3 583.2 580.5 582.2 586.4C581.9 587.9 581.6 589.3 581.3 590.7Z" fill="#3A2C99"/>
<path d="M588.1 529.7C588.7 527.5 589.3 525.4 589.3 525.4C589.3 525.4 597.4 532.6 608.3 531.8C618.7 531 626.1 525 625.8 524.5C626.467 525.5 627.133 526.533 627.8 527.6C616.5 537.3 599.9 537 588.1 529.7Z" fill="#231869"/>
<path d="M612.8 456.7C613.333 456.433 613.833 456.1 614.3 455.7C614.5 455.5 614.7 455.3 614.9 455.1C616.6 453.5 617.7 451.2 619.1 449.3C620.4 447.3 621.1 444.6 621.5 442.3C622.2 437.5 621 432.5 617.6 428.9C613.7 424.9 607.7 423.3 602.4 424.7C600.9 425.1 599.6 425.8 598.2 426.4C597.1 427 595.9 427.7 595.1 428.6C594.5 429.2 594 430 593.6 430.7C592.9 432.1 592.5 433.4 592.1 434.8C591.9 435.6 591.9 436.5 591.9 437.3C591.9 438.8 592 440.2 592.3 441.6C592.567 442.8 592.7 444 592.7 445.2C592.8 446.4 592.2 447.4 591.8 448.5C591.6 449.2 591.2 450.3 591.4 451C591.6 451.8 592.4 452.4 592.8 453.1C593.2 453.8 593.3 454.4 593.4 455.2C593.4 455.8 593.6 456.1 593.8 456.6C594 457 593.9 457.3 593.9 457.8C594 458.2 594.4 458.7 594.5 459.1C594.7 459.6 594.9 460.1 595.2 460.6C596.8 463.5 599.1 463.7 601.9 462.6C604.2 461.7 606.2 460.6 608.2 459.3C609.8 458.4 611.4 457.7 612.8 456.7Z" fill="#F9D5C3"/>
<path d="M626.7 437.4C626.567 436.067 626.3 434.767 625.9 433.5C625.5 432.233 624.967 431.067 624.3 430C624 429.4 623.6 428.8 623.2 428.4C622.8 427.9 621.9 427.4 621.7 426.9C621.7 426.8 619.4 421.2 608.9 421.2C604.9 421.2 601 422.6 597.7 424.7C595.3 426.2 593.8 427.5 592.7 430.1C591.6 432.7 591 435.5 591.1 438.3C591.1 438.7 591.1 439.2 591.4 439.5C591.9 440 592.6 439.8 593.2 439.7C595.6 439.1 597.5 438.3 599.6 437.1C600.5 436.6 603.1 435.4 604.2 435.9C605.1 436.4 604.4 438.7 604.8 439.8C605.2 441.1 606 442.4 607.2 443.2C608.3 443.9 609.5 444.3 610.6 444.9C611.7 445.5 612.8 446.4 613.1 447.6C613.4 448.9 612.9 450.7 614.1 451.4C615.5 452.2 619.3 449 619.1 449.3C618.1 450.9 618.3 450.6 617.9 453.4C622.3 450.8 625.6 446.1 626.5 441C626.7 439.8 626.767 438.6 626.7 437.4Z" fill="#3E3544"/>
<path d="M617.7 444.2C620.4 444 621.1 447.4 619.2 450.1C618.7 450.8 617.7 451.5 617 452.1C612 456.3 610.8 451.8 612.3 450.3C616 447 614.2 444.4 617.7 444.2Z" fill="#F9D5C3"/>
<path d="M615.9 450.4C616.2 450.1 619.4 448.3 617.2 447C616.6 446.7 616 447.2 615.9 447.8C615.8 448.1 615.9 448.5 615.9 448.8C615.833 449 615.767 449.167 615.7 449.3C615.4 449.8 614.4 450.2 614.6 450.9C614.8 451.5 615.7 450.6 615.9 450.4Z" fill="#FFBFA2"/>
<path d="M631.7 516.8C631.4 517.1 631.1 517.3 630.8 517.5C630.2 517.8 629.5 517.8 628.9 517.6C628.1 517.4 627.6 516.7 627 516.1C626.133 515.033 625.233 514.033 624.3 513.1C624.1 512.9 623.8 512.6 623.4 512.7C623.1 512.7 622.8 513 622.8 513.3C622.7 513.5 622.9 514.5 622.7 514.5C622.5 514.6 621.9 514.2 621.6 514.1C621.2 513.967 620.767 513.833 620.3 513.7C619.367 513.5 618.433 513.333 617.5 513.2C615.633 513 613.733 513.033 611.8 513.3C611.7 513.3 611.5 513.3 611.4 513.4C611.2 513.5 611.1 513.7 611.1 513.8C611.2 514 611.3 514.1 611.5 514.2C612.7 514.9 614.2 515 615.5 515.4C616.1 515.5 616.6 515.8 617.2 516C617.933 516.2 618.667 516.467 619.4 516.8C617.133 516.267 614.8 516 612.4 516C611.9 515.9 610.8 516 610.5 516.4C610.1 517.1 611.2 517.5 611.6 517.6C612.867 518.067 614.133 518.533 615.4 519C614 518.5 612.4 518.4 611 518.5C610.2 518.6 609.7 518.6 609.9 519.5C610 520 610.5 520.5 611.1 520.6C612 520.8 612.8 520.9 613.7 521.1C614.9 521.4 616.2 521.7 617.3 522.2C616.3 522.3 615.3 522.4 614.4 522.7C613.6 522.9 612.7 523.4 612.3 524.1C612 524.6 611.9 525.5 612.6 525.6C613.4 525.667 614.2 525.7 615 525.7C616.6 525.6 618.3 525.3 619.9 525.6C622.3 525.9 624.5 527.3 626.9 527.6C629 527.9 631.2 527.3 633.1 526.3C634.9 525.5 636.2 523.9 637.9 522.8C639 522.2 640.1 521.8 640.9 521C641.833 520 642.733 519 643.6 518C644 517.5 644.5 516.9 644.5 516.3C644.6 515.4 643.9 514.6 643.1 514.1C642.2 513.4 641 512.9 639.9 512.7C638.8 512.5 637.5 512.2 636.5 512.7C635.1 513.4 633.9 514.8 632.7 515.8C632.4 516.1 632.1 516.4 631.7 516.8Z" fill="#F9D5C3"/>
<path d="M635.7 470.3C635.433 470.1 635.167 469.9 634.9 469.7C634 469 632.9 468.5 631.9 468.8C631.1 469.1 630.5 469.9 630.2 470.7C629.3 472.7 629 475 628.9 477.2C628.7 479.5 628.6 481.8 629 484C629.4 486 630.1 488.7 631.8 490C633.5 491.2 635 492.6 636.6 493.9C639.8 496.567 643.067 499.167 646.4 501.7C647.9 502.8 649.6 504.5 651.4 505.2C656.6 507.3 661.6 504.6 662.4 500.8C662.8 499.4 662.2 497.8 661.6 496.5C660.7 494.6 659.1 493.2 657.7 491.7C656.167 489.9 654.567 488.133 652.9 486.4C648.6 481.8 644.3 477.1 639.4 473.1C638.2 472.1 636.9 471.3 635.7 470.3Z" fill="#F4F4FA"/>
<path d="M636.6 523.6C638.9 524.2 640.5 522.5 642 521.3C645.5 518.5 658.8 509.5 662.2 501.5C663.1 499.6 658.3 497.8 656.1 495.8C654.6 494.5 652 495.2 650.3 495.8C648.2 496.4 631.9 515.4 631.6 516.4C630.9 518.7 634.8 523.1 636.6 523.6Z" fill="#F4F4FA"/>
<g opacity="0.2">
<path d="M566.6 344.5C566.7 355.2 559.1 368.3 549.8 373.7L306.2 514.3C296.9 519.7 289.3 515.4 289.2 504.6L288.7 324.4V306.8C288.7 296.1 296.2 283 305.6 277.6L549.1 137C558.4 131.6 566.1 135.9 566.1 146.7V164.3L566.6 344.5Z" fill="#BFBEED"/>
</g>
<g opacity="0.2">
<path d="M579.7 357C579.8 367.7 572.2 380.8 562.9 386.2L319.3 526.8C310 532.2 302.4 527.9 302.3 517.1L301.8 336.9V319.4C301.7 308.6 309.3 295.5 318.6 290.1L562.2 149.5C571.5 144.1 579.1 148.5 579.2 159.2V176.8L579.7 357Z" fill="#BFBEED"/>
</g>
<path d="M586.7 158.1L590.9 160.6C587.9 158.8 583.7 159 579 161.7L574.8 159.3C579.4 156.6 583.6 156.3 586.7 158.1Z" fill="#F4F4FA"/>
<path d="M579 161.7L574.8 159.3C579.4 156.6 583.6 156.3 586.7 158.1L590.9 160.6C587.9 158.8 583.7 159 579 161.7Z" fill="#FE8786"/>
<path d="M327.8 534.7L323.6 532.2C320.6 530.5 318.7 526.8 318.7 521.5L323 524C323 529.3 324.8 533 327.8 534.7Z" fill="#BFBEED"/>
<path d="M327.8 534.7L323.6 532.2C320.6 530.5 318.7 526.8 318.7 521.5L323 524C323 529.3 324.8 533 327.8 534.7Z" fill="#BFBEED"/>
<path d="M322.4 329.1L318.1 326.6L318.2 343.9L322.5 346.4L322.4 329.1Z" fill="#FF6661"/>
<path d="M318.2 343.9L318.7 521.5L323 524L322.5 346.4L318.2 343.9Z" fill="#BFBEED"/>
<path d="M339 300.3L334.8 297.8L574.8 159.3L579 161.7L339 300.3Z" fill="#FE8786"/>
<path d="M322.4 329.1L318.1 326.6C318.1 316 325.6 303.1 334.8 297.8L339 300.3C329.8 305.6 322.4 318.5 322.4 329.1Z" fill="#F4F4FA"/>
<path d="M322.4 329.1L318.1 326.6C318.1 316 325.6 303.1 334.8 297.8L339 300.3C329.8 305.6 322.4 318.5 322.4 329.1Z" fill="#FF6661"/>
<path d="M596.3 366.2C596.4 376.8 588.9 389.6 579.7 395L339.7 533.5C330.5 538.8 323 534.6 323 524L322.4 346.4V329.1C322.4 318.5 329.8 305.6 339 300.3L579 161.7C588.3 156.4 595.7 160.7 595.8 171.3V188.6L596.3 366.2Z" fill="#F3F2FC"/>
<path d="M595.8 188.6L322.4 346.4V329.1C322.4 318.5 329.8 305.6 339 300.3L579 161.7C588.3 156.4 595.7 160.7 595.8 171.3V188.6Z" fill="#FE4340"/>
<path d="M500.8 298.2C500.8 274.7 484.4 265.1 464.2 276.7C444 288.4 427.7 316.9 427.7 340.5C427.7 364 444 373.6 464.2 362C484.4 350.3 500.8 321.8 500.8 298.2Z" fill="#3A2C99"/>
<path d="M475.6 289.3C475.6 296.6 470.5 305.4 464.2 309C458 312.6 452.9 309.7 452.9 302.4C452.9 295.1 458 286.2 464.2 282.6C470.5 279 475.6 282 475.6 289.3Z" fill="white"/>
<path d="M482 340V318.2C482 308.7 475.3 304.7 467.1 309.5L461.4 312.8C453.2 317.5 446.5 329.2 446.5 338.7V360.5L482 340Z" fill="white"/>
<path d="M521.3 357.7L407.2 423.5V404.3L521.3 338.5V357.7Z" fill="white"/>
<path d="M486 419.6L443.5 444.1V456.4L486 431.9V419.6Z" fill="#3A2C99"/>
<path d="M521.3 387.4L407.2 453.2V434.1L521.3 368.2V387.4Z" fill="white"/>
<path d="M415.8 439.1L413.7 439.6L414 438.2L416.1 437.9L416 435.2L417.1 434.6L417 437.4L419 435.3L419.4 436.4L417.3 438.3L418.6 439.7L417.8 440.9L416.5 439.4L415.2 442.3L414.4 442.1L415.8 439.1Z" fill="#F22B38"/>
<path d="M421.8 435.6L419.8 436.1L420.1 434.7L422.1 434.4V431.7L423.1 431.1V433.9L425.1 431.9L425.4 432.9L423.3 434.8L424.7 436.2L423.8 437.4L422.5 435.9L421.3 438.8L420.4 438.6L421.8 435.6Z" fill="#F22B38"/>
<path d="M427.9 432.1L425.8 432.6L426.1 431.2L428.2 430.9L428.1 428.2L429.2 427.6L429.1 430.4L431.2 428.4L431.5 429.4L429.4 431.3L430.7 432.7L429.9 433.9L428.6 432.4L427.4 435.3L426.5 435.1L427.9 432.1Z" fill="#F22B38"/>
<path d="M433.9 428.6L431.9 429.1L432.2 427.7L434.3 427.4L434.2 424.7L435.2 424.1V426.9L437.2 424.9L437.5 425.9L435.4 427.8L436.8 429.2L435.9 430.4L434.7 428.9L433.4 431.8L432.6 431.6L433.9 428.6Z" fill="#F22B38"/>
<path d="M440 425.1L437.9 425.6L438.2 424.2L440.3 423.9L440.2 421.2L441.3 420.6L441.2 423.4L443.3 421.4L443.6 422.4L441.5 424.3L442.8 425.7L442 426.9L440.7 425.4L439.5 428.3L438.6 428.1L440 425.1Z" fill="#F22B38"/>
<path d="M569.5 186.1C569.5 188.4 571.1 189.3 573.1 188.2C575 187.1 576.6 184.3 576.6 182C576.6 179.8 575 178.8 573.1 180C571.1 181.1 569.5 183.9 569.5 186.1Z" fill="#F4F4FA"/>
<path d="M558.3 192.6C558.3 194.9 559.9 195.8 561.9 194.7C563.8 193.5 565.4 190.8 565.4 188.5C565.4 186.2 563.8 185.3 561.9 186.4C559.9 187.6 558.3 190.3 558.3 192.6Z" fill="#F4F4FA"/>
<path d="M547.1 199.1C547.1 201.3 548.7 202.3 550.7 201.1C552.6 200 554.2 197.2 554.2 195C554.2 192.7 552.6 191.8 550.7 192.9C548.7 194 547.1 196.8 547.1 199.1Z" fill="#F4F4FA"/>
<path d="M247.5 749.3L290 773.9C284.9 771 281.7 764.7 281.7 755.7L239.2 731.1C239.2 740.1 242.4 746.4 247.5 749.3Z" fill="#FFB700"/>
<path d="M281.7 755.7L239.2 731.1C239.2 740.1 242.4 746.4 247.5 749.3L290 773.9C284.9 771 281.7 764.7 281.7 755.7Z" fill="#FFB700"/>
<path d="M426.9 537.3L384.4 512.7C379.2 509.7 372.1 510.1 364.2 514.7L406.6 539.3C414.5 534.7 421.7 534.3 426.9 537.3Z" fill="#FFDE38"/>
<path d="M426.9 537.3L384.4 512.7C379.3 509.8 372.3 510.1 364.5 514.4L407 539.1C414.7 534.7 421.8 534.4 426.9 537.3Z" fill="#FFDE38"/>
<path d="M407 539.1L364.5 514.4C364.433 514.533 364.333 514.633 364.2 514.7L406.6 539.3C406.733 539.233 406.867 539.167 407 539.1Z" fill="#FFDE38"/>
<path d="M281.3 644.4L238.9 619.8L239.2 731.1L281.7 755.7L281.3 644.4Z" fill="#FFB700"/>
<path d="M406.6 539.3L364.2 514.7L267.3 570.6L309.8 595.2L406.6 539.3Z" fill="#FFDE38"/>
<path d="M309.8 595.2L267.3 570.6C251.6 579.6 238.8 601.8 238.9 619.8L281.3 644.4C281.3 626.4 294.1 604.2 309.8 595.2Z" fill="#FFDE38"/>
<path d="M309.8 595.2L267.3 570.6C263.9 572.5 260.7 575.1 257.7 578.1L300.2 602.7C303.2 599.7 306.4 597.1 309.8 595.2Z" fill="#FFDE38"/>
<path d="M300.2 602.7L257.7 578.1C246.7 589 238.9 605.7 238.9 619.8L281.3 644.4C281.3 630.3 289.2 613.6 300.2 602.7Z" fill="#FFDE38"/>
<path d="M309.8 595.2C294.1 604.2 281.3 626.4 281.3 644.4L281.7 755.7C281.7 773.7 294.6 781.1 310.3 772L407.1 716.1C422.8 707 435.6 684.9 435.5 666.9L435.2 555.6C435.2 537.6 422.3 530.2 406.6 539.3L309.8 595.2Z" fill="#FFC400"/>
<path d="M377.1 689C377.1 681.6 371.9 678.5 365.4 682.2C358.9 685.9 353.7 695 353.6 702.5C353.6 707.4 355.9 710.4 359.3 710.8L359.2 732L371.3 725.1V703.9C374.8 699.6 377.1 694 377.1 689Z" fill="#262028"/>
<path d="M406.6 468.8L406.4 528C406.4 530 405 532.1 402.3 533.6C397 536.7 388.2 536.7 382.9 533.5C380.2 532 378.8 529.9 378.8 527.8L379.1 468.7C379.1 458.4 376.2 450.8 371.1 447.8C366 444.8 358 446.1 349 451.2L333.8 459.9C309.9 473.6 289.7 508.3 289.6 535.8L289.4 594.9C289.4 597 288 599 285.3 600.6C281.9 602.6 277 603.3 272.6 602.7C270.1 602.4 267.8 601.7 265.8 600.5C265.133 600.1 264.533 599.633 264 599.1C262.5 597.8 261.8 596.3 261.8 594.8L262 535.7C262.1 517.7 268.1 497.5 279 478.8C289.9 460.1 304.5 444.9 320.1 436L335.3 427.3C343.9 422.4 352.5 419.5 360.8 418.8C369.6 418.1 377.9 419.9 385 424C392 428.1 397.7 434.5 401.4 442.5C404.9 450 406.7 458.9 406.6 468.8Z" fill="#DADAF9"/>
<path d="M378.7 451C377.2 450.1 375.3 449.6 373.3 449.5C377 453.2 379.1 460 379.1 468.7L378.8 527.8C378.8 529.9 380.2 532 382.9 533.5C383.967 534.167 385.133 534.7 386.4 535.1L386.7 471.9C386.7 461.6 383.8 454 378.7 451Z" fill="#BFBEED"/>
<path d="M386.8 427.5C382 426.1 376.9 425.6 371.6 426.1C363.3 426.8 354.7 429.6 346.1 434.5L330.9 443.2C315.3 452.2 300.7 467.4 289.8 486.1C278.9 504.8 272.9 524.9 272.8 542.9L272.6 602.7C270.1 602.4 267.8 601.7 265.8 600.5C265.133 600.1 264.533 599.633 264 599.1L264.2 539.3C264.3 521.3 270.3 501.2 281.2 482.5C292.1 463.8 306.6 448.6 322.2 439.6L337.5 430.9C346.1 426 354.6 423.2 362.9 422.5C371.6 421.8 379.8 423.5 386.8 427.5Z" fill="#F4F4FA"/>
</svg>
