<svg width="417" height="421" viewBox="0 0 417 421" fill="none" xmlns="http://www.w3.org/2000/svg">
<path d="M345.954 62.1719L266.493 14.9003C228.457 -7.75762 180.398 -4.32316 145.941 23.4865L41.5677 107.726C5.82209 136.585 -7.20668 185.288 9.40143 228.123C10.8968 231.908 12.5671 235.565 14.4125 239.095C10.5945 242.958 8.20832 248.253 8.20832 254.12C8.20832 265.903 17.7055 275.395 29.4457 275.395C33.7886 275.395 37.8452 274.107 41.2336 271.865C58.5099 285.937 80.2245 294.523 103.419 295.525L267.925 302.632C311.497 304.493 351.777 279.402 369.291 239.476L388.668 195.401C410.096 146.603 391.77 89.4569 345.954 62.1719Z" fill="#B3F7FF"/>
<path d="M330.492 42.6623C339.846 42.6623 347.386 35.0779 347.386 25.7762C347.386 16.4268 339.846 8.84239 330.492 8.84239C321.138 8.84239 313.597 16.4268 313.597 25.7762C313.597 35.0779 321.138 42.6623 330.492 42.6623Z" fill="#B3F7FF"/>
<path d="M59.4646 75.9096C62.4713 75.9096 64.9052 73.4769 64.9052 70.4717C64.9052 67.4188 62.4713 64.9861 59.4646 64.9861C56.458 64.9861 53.9763 67.4188 53.9763 70.4717C53.9763 73.4769 56.458 75.9096 59.4646 75.9096Z" fill="#B3F7FF"/>
<path d="M380.841 354.102H18.9941V351.812C18.9941 320.043 44.8131 294.285 76.5975 294.285H323.237C355.022 294.285 380.841 320.043 380.841 351.812V354.102Z" fill="#4F9967"/>
<path d="M391.34 371.131H8.49495C3.81796 371.131 0 367.363 0 362.688V362.02C0 357.298 3.81796 353.53 8.49495 353.53H391.34C396.017 353.53 399.835 357.298 399.835 362.02V362.688C399.835 367.363 396.017 371.131 391.34 371.131Z" fill="#444463"/>
<path d="M360.463 324.813C360.463 331.634 354.927 337.12 348.102 337.12C341.326 337.12 335.79 331.634 335.79 324.813C335.79 317.992 341.326 301.249 348.102 301.249C354.927 301.249 360.463 317.992 360.463 324.813Z" fill="#67E56A"/>
<path d="M337.22 330.585C339.273 334.449 343.377 337.12 348.102 337.12C353.876 337.12 358.649 333.209 360.033 327.914C356.549 331.015 349.152 331.444 337.22 330.585Z" fill="#58CC58"/>
<path d="M348.102 301.249C341.516 301.249 336.076 317.133 335.79 324.241C341.707 323.144 356.741 319.471 356.502 309.787C354.307 305.065 351.348 301.249 348.102 301.249Z" fill="#A1F973"/>
<path d="M360.223 353.434H335.979V331.73H360.223V353.434Z" fill="#EFE5D0"/>
<path d="M355.737 349.427H340.466V335.737H355.737V349.427Z" fill="#E2D0B0"/>
<path d="M340.465 349.427L355.737 335.737H340.465C340.465 335.737 340.37 349.522 340.465 349.427Z" fill="#C4B090"/>
<path d="M388.667 324.813C388.667 331.634 383.179 337.12 376.354 337.12C369.53 337.12 364.042 331.634 364.042 324.813C364.042 317.992 369.53 301.249 376.354 301.249C383.179 301.249 388.667 317.992 388.667 324.813Z" fill="#67E56A"/>
<path d="M365.472 330.585C367.525 334.449 371.629 337.12 376.354 337.12C382.081 337.12 386.901 333.209 388.285 327.914C384.801 331.014 377.404 331.444 365.472 330.585Z" fill="#58CC58"/>
<path d="M376.354 301.249C369.721 301.249 364.328 317.133 364.042 324.241C369.912 323.144 384.993 319.471 384.754 309.787C382.559 305.065 379.6 301.249 376.354 301.249Z" fill="#A1F973"/>
<path d="M388.477 353.434H364.233V331.73H388.477V353.434Z" fill="#EFE5D0"/>
<path d="M383.991 349.427H368.719V335.737H383.991V349.427Z" fill="#E2D0B0"/>
<path d="M368.719 349.427L383.991 335.737H368.719C368.719 335.737 368.623 349.522 368.719 349.427Z" fill="#C4B090"/>
<path d="M34.4571 324.813C34.4571 331.634 28.9688 337.12 22.1442 337.12C15.3196 337.12 9.8313 331.634 9.8313 324.813C9.8313 317.992 15.3196 301.249 22.1442 301.249C28.9688 301.249 34.4571 317.992 34.4571 324.813Z" fill="#67E56A"/>
<path d="M11.2153 330.585C13.3152 334.449 17.4195 337.12 22.1442 337.12C27.8712 337.12 32.6913 333.209 34.0753 327.914C30.5915 331.015 23.1942 331.444 11.2153 330.585Z" fill="#58CC58"/>
<path d="M22.1442 301.249C15.5105 301.249 10.1176 317.133 9.8313 324.241C15.7014 323.144 30.7823 319.471 30.5437 309.787C28.3484 305.065 25.3895 301.249 22.1442 301.249Z" fill="#A1F973"/>
<path d="M34.2667 353.434H10.0227V331.73H34.2667V353.434Z" fill="#EFE5D0"/>
<path d="M29.7799 349.427H14.5081V335.737H29.7799V349.427Z" fill="#E2D0B0"/>
<path d="M14.5085 349.427L29.7803 335.737H14.5085C14.5085 335.737 14.413 349.522 14.5085 349.427Z" fill="#C4B090"/>
<path d="M62.7099 324.813C62.7099 331.634 57.1739 337.12 50.397 337.12C43.5724 337.12 38.0364 331.634 38.0364 324.813C38.0364 317.992 43.5724 301.249 50.397 301.249C57.1739 301.249 62.7099 317.992 62.7099 324.813Z" fill="#67E56A"/>
<path d="M39.4683 330.585C41.5681 334.449 45.6247 337.12 50.3972 337.12C56.1241 337.12 60.9443 333.209 62.2805 327.914C58.7967 331.014 51.4471 331.444 39.4683 330.585Z" fill="#58CC58"/>
<path d="M50.3974 301.249C43.7637 301.249 38.3708 317.133 38.0845 324.241C43.9546 323.144 58.9878 319.471 58.7969 309.787C56.5538 305.065 53.6426 301.249 50.3974 301.249Z" fill="#A1F973"/>
<path d="M62.5195 353.434H38.2278V331.73H62.5195V353.434Z" fill="#EFE5D0"/>
<path d="M58.0327 349.427H42.7131V335.737H58.0327V349.427Z" fill="#E2D0B0"/>
<path d="M42.7133 349.427L58.0329 335.737H42.7133C42.7133 335.737 42.6179 349.522 42.7133 349.427Z" fill="#C4B090"/>
<path d="M331.972 354.34H67.8647V176.559H331.972V354.34Z" fill="#FFD876"/>
<path d="M104.708 232.274H75.2617V217.582H104.708V232.274Z" fill="#FFCF4A"/>
<path d="M273.222 218.822H243.776V204.082H273.222V218.822Z" fill="#FFB133"/>
<path d="M201.254 258.032H171.808V243.34H201.254V258.032Z" fill="#FFCF4A"/>
<path d="M326.387 291.566H296.941V276.874H326.387V291.566Z" fill="#FFB133"/>
<path d="M82.0868 260.512H67.9126V245.773H82.0868V260.512Z" fill="#FFB133"/>
<path d="M331.876 260.512H317.654V245.773H331.876V260.512Z" fill="#FFCF4A"/>
<path d="M169.183 320.616H155.009V305.876H169.183V320.616Z" fill="#FFCF4A"/>
<path d="M331.972 192.634L67.8647 195.925V176.559H331.972V192.634Z" fill="#FFB133"/>
<path d="M331.972 354.34H67.8647V340.889H331.972V354.34Z" fill="#EFE5D0"/>
<path d="M331.972 354.34H67.8647V350.953H331.972V354.34Z" fill="#E2D0B0"/>
<path d="M340.657 186.91H59.1784L54.1196 154.807H345.716L340.657 186.91Z" fill="#CCC2B2"/>
<path d="M289.306 103.815H110.53L54.1196 154.807H345.764L289.306 103.815Z" fill="#EFE5D0"/>
<path d="M59.1784 186.91H95.7353V154.807H54.1196L59.1784 186.91Z" fill="#F4586B"/>
<path d="M137.351 186.91H179.109V154.807H137.351V186.91Z" fill="#F4586B"/>
<path d="M220.726 186.91H262.485V154.807H220.726V186.91Z" fill="#F4586B"/>
<path d="M304.053 154.807V186.91H340.658L345.716 154.807H304.053Z" fill="#F4586B"/>
<path d="M289.305 103.815H286.919C280.762 103.91 264.632 104.101 263.725 103.815L304.052 154.712H345.62L289.305 103.815Z" fill="#FF7E71"/>
<path d="M212.66 103.767L220.725 154.712H262.484L238.24 103.767C238.24 103.767 213.424 103.767 212.66 103.767Z" fill="#FF7E71"/>
<path d="M137.351 154.712H179.109L187.175 103.767H161.595L137.351 154.712Z" fill="#FF7E71"/>
<path d="M53.9766 154.712H95.7355L136.11 103.767C135.872 103.767 110.53 103.767 110.53 103.767L53.9766 154.712Z" fill="#FF7E71"/>
<path d="M67.4829 142.596C77.6482 144.599 89.0066 146.603 100.842 148.32L115.016 130.384C106.808 128.142 98.5038 125.423 90.2475 122.084L67.4829 142.596Z" fill="#FFAD91"/>
<path d="M146.037 136.443L138.449 152.375C152.671 153.281 166.702 153.424 179.492 152.232L181.735 138.208C170.138 138.494 158.207 137.969 146.037 136.443Z" fill="#FFAD91"/>
<path d="M217.576 134.916L219.199 145.172C230.462 142.405 242.011 139.114 253.369 135.584L249.742 127.952C239.673 130.718 228.887 133.103 217.576 134.916Z" fill="#FFAD91"/>
<path d="M297.276 111.018C290.977 113.784 283.913 116.694 276.182 119.556L281.432 126.187C289.64 123.277 297.42 120.367 304.626 117.648L297.276 111.018Z" fill="#FFAD91"/>
<path d="M94.0652 354.34H162.788V210.617H94.0652V354.34Z" fill="#444463"/>
<path d="M100.222 282.216H156.68V216.341H100.222V282.216Z" fill="#9FDAFF"/>
<path d="M100.222 353.434H156.68V287.559H100.222V353.434Z" fill="#9FDAFF"/>
<path d="M153.577 282.216L156.68 274.107V217.82L113.823 282.216H153.577Z" fill="#C2EBFF"/>
<path d="M151.525 287.559H110.292L100.222 302.776V353.434H126.231L151.525 287.559Z" fill="#C2EBFF"/>
<path d="M152.003 293.617H142.696C141.79 293.617 141.026 292.854 141.026 291.947C141.026 290.993 141.79 290.23 142.696 290.23H152.003C152.957 290.23 153.673 290.993 153.673 291.947C153.673 292.854 152.957 293.617 152.003 293.617Z" fill="white"/>
<path d="M110.339 245.391L128.141 231.224L148.137 244.866" stroke="#444463" stroke-width="2" stroke-miterlimit="10"/>
<path d="M132.101 231.844C132.101 233.943 130.431 235.612 128.331 235.612C126.231 235.612 124.561 233.943 124.561 231.844C124.561 229.745 126.231 228.076 128.331 228.076C130.431 228.076 132.101 229.745 132.101 231.844Z" fill="white"/>
<path d="M106.187 245.964V270.911H147.707V245.964H106.187Z" fill="#7BADC6"/>
<path d="M416.831 421H121.787V243.722H416.831V421Z" fill="#F4586B"/>
<path d="M93.8741 234.134C92.8719 234.134 92.0605 234.945 92.0605 235.946V248.969C92.0605 249.97 92.8719 250.781 93.8741 250.781C94.924 250.781 95.7353 249.97 95.7353 248.969V235.946C95.7353 234.945 94.924 234.134 93.8741 234.134Z" fill="#55557C"/>
<path d="M93.8738 316.036C92.8716 316.036 92.0603 316.847 92.0603 317.849V330.871C92.0603 331.873 92.8716 332.732 93.8738 332.732C94.9238 332.732 95.7351 331.873 95.7351 330.871V317.849C95.7351 316.847 94.9238 316.036 93.8738 316.036Z" fill="#55557C"/>
<path d="M320.614 320.091H185.315V325.338H320.614V320.091Z" fill="#EFE5D0"/>
<path d="M320.614 325.338C320.614 325.338 259.097 329.774 230.081 330.012C201.017 330.203 185.315 325.338 185.315 325.338H320.614Z" fill="#FFB133"/>
<path d="M187.319 320.187H316.605V210.617H187.319V320.187Z" fill="#444463"/>
<path d="M193.619 314.891H310.305V215.96H193.619V314.891Z" fill="#9FDAFF"/>
<path d="M310.305 284.649C277.089 284.315 235.903 288.656 193.619 304.731V314.892H310.305V284.649Z" fill="#7DC0E2"/>
<path d="M196.148 314.891H247.261L293.936 215.96H273.366L196.148 314.891Z" fill="#C2EBFF"/>
<path d="M306.582 215.96H298.565L260.767 314.891H274.559L306.582 215.96Z" fill="#C2EBFF"/>
<path d="M289.401 293.999H310.304V314.892H289.401V293.999Z" fill="white"/>
<path d="M292.504 298.578H306.869V303.968L292.504 303.92V298.578Z" fill="#EFE5D0"/>
<path d="M306.105 296.813H292.647C292.504 296.813 292.408 296.67 292.408 296.526C292.408 296.383 292.504 296.288 292.647 296.288H306.105C306.296 296.288 306.392 296.383 306.392 296.526C306.392 296.67 306.296 296.813 306.105 296.813Z" fill="#444463"/>
<path d="M306.105 306.64H292.647C292.504 306.64 292.408 306.496 292.408 306.353C292.408 306.21 292.504 306.115 292.647 306.115H306.105C306.296 306.115 306.392 306.21 306.392 306.353C306.392 306.496 306.296 306.64 306.105 306.64Z" fill="#444463"/>
<path d="M306.105 310.551H292.647C292.504 310.551 292.408 310.456 292.408 310.313C292.408 310.122 292.504 310.026 292.647 310.026H306.105C306.296 310.026 306.392 310.122 306.392 310.313C306.392 310.456 306.296 310.551 306.105 310.551Z" fill="#444463"/>
<path d="M292.647 308.595H299.376C299.519 308.595 299.663 308.452 299.663 308.309C299.663 308.166 299.519 308.07 299.376 308.07H292.647C292.504 308.07 292.408 308.166 292.408 308.309C292.408 308.452 292.504 308.595 292.647 308.595Z" fill="#444463"/>
<path d="M299.376 311.982H292.647C292.504 311.982 292.408 312.125 292.408 312.268C292.408 312.411 292.504 312.506 292.647 312.506H299.376C299.519 312.506 299.663 312.411 299.663 312.268C299.663 312.125 299.519 311.982 299.376 311.982Z" fill="#444463"/>
<path d="M341.707 224.308V219.204H333.785V210.379H331.685V276.97H333.785V267.334H341.707V262.23H333.785V224.308H341.707Z" fill="#55557C"/>
<path d="M361.369 277.256H344.093C341.134 277.256 338.748 274.823 338.748 271.866V215.34C338.748 212.383 341.134 209.95 344.093 209.95H361.369C364.328 209.95 366.714 212.383 366.714 215.34V271.866C366.714 274.823 364.328 277.256 361.369 277.256Z" fill="#FF7E71"/>
<path d="M338.748 243.15V256.983C350.297 250.209 359.842 238.189 366.714 227.17V215.34C366.714 212.955 365.187 210.904 362.992 210.236C358.076 220.73 349.868 234.993 338.748 243.15Z" fill="#FFAD91"/>
<path d="M344.093 277.256H361.369C364.328 277.256 366.714 274.823 366.714 271.865V235.04C358.649 251.974 348.77 266.237 338.748 265.235V271.865C338.748 274.823 341.134 277.256 344.093 277.256Z" fill="#F4586B"/>
</svg>
