<svg width="700" height="700" viewBox="0 0 700 700" fill="none" xmlns="http://www.w3.org/2000/svg">
<path d="M135.909 108.25C137.334 107.029 138.83 105.952 140.398 105.017L317.395 2L333 11.0517L156.003 114.069C154.435 115.003 152.939 116.116 151.514 117.409C148.521 119.996 145.849 123.336 143.605 127L128 117.841C130.245 114.177 132.917 110.944 135.909 108.25Z" fill="#F4F4FA"/>
<path d="M155 114.063L139.754 105C129.937 110.826 121.897 125.176 122.001 136.937L137.143 146C137.143 134.347 145.184 119.997 155 114.063Z" fill="#F4F4FA"/>
<path d="M337.667 489.182L334 494C344.556 488.24 353 474.416 353 463L350.333 468.551C350.333 476.091 344.667 485.412 337.667 489.182Z" fill="#BFBEED"/>
<path d="M159.576 592.088L156 597L335.425 494.912L339 490L159.576 592.088Z" fill="#BFBEED"/>
<path d="M148.297 587L140 589.939C140.559 594.102 141.958 597.286 143.915 599L151 593C149.602 591.776 148.669 589.694 148.297 587Z" fill="#F4F4FA"/>
<path d="M151.55 592.691L143 598.337C146.6 600.756 151.662 600.641 157.287 597.3L161 592C157.288 594.189 153.912 594.304 151.55 592.691Z" fill="#BFBEED"/>
<path d="M128.357 589.846L144 599C140.679 597.062 138.643 592.969 138.643 587.154L123 578C123 583.923 125.036 588.015 128.357 589.846Z" fill="#BFBEED"/>
<path d="M138.643 587.154L123 578C123 583.923 125.036 588.015 128.357 589.846L144 599C140.679 597.062 138.643 592.969 138.643 587.154Z" fill="#BFBEED"/>
<path d="M350.333 468L353 462.31L351.667 22L349 27.6904L350.333 468Z" fill="#BFBEED"/>
<path d="M349.333 28L352 22.6465C352 20.9626 351.778 19.4141 351.333 18L349 24.8687C349.222 25.8111 349.333 26.8556 349.333 28Z" fill="#BFBEED"/>
<path d="M349.056 25L351 17.3881C350.259 13.806 348.685 11.2313 346.463 10L346 20.0746C347.389 20.8582 348.5 22.5373 349.056 25Z" fill="#F4F4FA"/>
<path d="M345.487 20L346 10.0076C343.744 8.78627 341.077 8.67524 338 9.67449L340.154 19.7779C342.103 19.1118 343.949 19.2228 345.487 20Z" fill="#F4F4FA"/>
<path d="M340 19.7059L337.55 9C336.072 9.47059 334.555 10.1376 333 11L336.967 21C337.978 20.4506 338.988 20.02 340 19.7059Z" fill="#F4F4FA"/>
<path d="M347 9.77383L331.201 1.19063C327.847 -0.64863 323.194 -0.444271 318 2.4168L333.799 11C338.993 8.24111 343.646 7.93457 347 9.77383Z" fill="#F4F4FA"/>
<path d="M347 10L330.626 1.23055C328.495 0.0821645 325.916 -0.33543 323 0.29096L339.374 9.06042C342.29 8.53843 344.869 8.85162 347 10Z" fill="#F4F4FA"/>
<path d="M340 8.80001L323.94 0C322.106 0.279714 320.126 1.01305 318 2.2L334.06 11C336.114 9.88219 338.094 9.14887 340 8.80001Z" fill="#F4F4FA"/>
<path d="M146.75 145L147.904 585.064C147.904 585.85 147.936 586.638 148 587.425L139.442 590C139.25 588.927 139.154 587.747 139.154 586.459L138 146.395L146.75 145Z" fill="#F4F4FA"/>
<path d="M137.701 146.012L122 137L123.191 576.881L139 586L137.701 146.012Z" fill="#BFBEED"/>
<path d="M338 20.1363L334.318 11L155 113.756L158.682 123L338 20.1363Z" fill="#F4F4FA"/>
<path d="M159.266 124.133C152.487 127.988 147 137.411 147 145.229L148.291 584.384C148.291 592.094 153.778 595.2 160.557 591.345L338.734 488.971C345.513 485.116 351 475.586 351 467.876L349.709 28.7202C349.709 20.903 344.222 17.7976 337.443 21.6526L159.266 124.133Z" fill="#F4F4FA"/>
<path d="M159 123.556L155.513 114C147.923 118.778 141.462 128.889 139 138.778L148.026 140C149.564 133.444 153.872 126.667 159 123.556Z" fill="#F4F4FA"/>
<path d="M147 139.205L138.918 138C138.367 140.74 138 143.479 138 146L146.357 144.575C146.357 142.822 146.541 141.068 147 139.205Z" fill="#F4F4FA"/>
<path d="M143 127.399L128.026 118C125.667 122.312 123.821 126.957 123 131.601L137.974 141C138.795 136.356 140.641 131.601 143 127.399Z" fill="#F4F4FA"/>
<path d="M139 140.623L122.563 132C122.188 133.826 122 135.652 122 137.478L138.324 146C138.324 144.242 138.55 142.449 139 140.623Z" fill="#BFBEED"/>
<path d="M147.191 571.366C147.191 573.618 147.621 575.547 148.59 577.048C150.635 580.371 154.726 581.014 159.462 578.334C159.462 578.334 339.558 474.674 340.419 473.924C345.909 469.421 350 461.382 350 454.735L348.708 28.6248C348.708 20.9066 343.218 17.7979 336.436 21.657L158.171 124.138C153.004 127.139 148.482 133.464 146.76 139.789C146.401 140.861 146.15 141.968 146.006 143.112C145.899 143.862 147.191 571.366 147.191 571.366Z" fill="#3A2C99"/>
<path d="M211.003 118.467L285.997 74.9653C290.258 72.501 294.093 67.4651 295.904 62.0007L304 38L193 102.502L201.096 117.074C202.907 120.395 206.742 120.931 211.003 118.467Z" fill="#F4F4FA"/>
<path d="M220 100.106C219.89 105.319 215.921 111.596 211.18 114.043C209.857 114.681 208.644 115 207.652 115C206.696 115 205.925 114.716 205.337 114.149C204.455 113.298 203.904 111.809 204.014 109.894C204.124 104.681 208.093 98.4042 212.834 95.9574C214.047 95.3191 215.259 95 216.252 95C216.766 95 217.244 95.1064 217.685 95.3192C219.228 95.9574 220 97.6596 220 100.106Z" fill="#F4F4FA"/>
<path d="M217.987 99.6995C217.884 104.945 214.185 111.393 209.767 114.016C208.637 114.672 207.507 115 206.582 115C206.102 114.927 205.657 114.817 205.246 114.672C204.424 113.798 203.91 112.268 204.013 110.301C204.116 104.945 207.815 98.4973 212.233 95.9836C213.363 95.3279 214.493 95 215.418 95C215.898 95 216.343 95.1093 216.754 95.3279C217.576 96.2022 218.09 97.7322 217.987 99.6995Z" fill="#BFBEED"/>
<path d="M206.839 114C206.516 114 206.226 113.925 205.968 113.775C205.29 112.988 205 111.639 205 109.953C205.194 104.781 208.484 98.3728 212.452 95.8994C213.419 95.2249 214.387 95 215.161 95C215.484 95 215.774 95.0753 216.032 95.2248C216.613 95.8994 217 97.2485 217 98.9349C216.806 104.219 213.516 110.515 209.548 113.101C208.581 113.663 207.613 114 206.839 114Z" fill="#3A2C99"/>
<path d="M211.983 98.5837C211.983 99.1025 211.542 99.7079 210.992 99.8808C210.441 100.14 210 99.9673 210 99.4484C210 98.9296 210.441 98.3243 210.992 98.0649C211.653 97.8919 212.093 98.0649 211.983 98.5837Z" fill="#3A2C99"/>
<path d="M209.895 100.217C210.112 100.73 210.004 101.628 209.461 102.398C209.026 103.04 208.374 103.168 208.157 102.783C207.831 102.27 208.048 101.372 208.483 100.602C209.026 99.9599 209.678 99.8315 209.895 100.217Z" fill="#3A2C99"/>
<path d="M207.566 103C208 103.125 208.108 103.875 207.892 104.625C207.566 105.375 206.916 106 206.482 106C206.048 105.875 205.831 105.25 206.157 104.375C206.482 103.625 207.024 103 207.566 103Z" fill="#3A2C99"/>
<path d="M207.053 106.154C207.579 105.769 208 106.154 208 106.795C208 107.565 207.474 108.464 206.947 108.849C206.421 109.234 206 108.849 206 108.079C206 107.437 206.526 106.539 207.053 106.154Z" fill="#3A2C99"/>
<path d="M206.515 109.441C207.054 109.011 207.592 108.839 207.915 109.183C208.131 109.527 207.915 110.129 207.485 110.559C206.946 110.989 206.408 111.161 206.085 110.817C205.869 110.559 206.085 109.871 206.515 109.441Z" fill="#3A2C99"/>
<path d="M208.181 110.951C208.395 110.346 209.037 110 209.572 110C210 110.086 210.107 110.519 209.893 111.124C209.572 111.643 208.93 112.075 208.502 111.989C207.967 111.989 207.86 111.47 208.181 110.951Z" fill="#3A2C99"/>
<path d="M210.017 110.458C210.017 109.949 210.458 109.355 211.008 109.1C211.559 108.845 212 109.1 212 109.609C212 110.034 211.559 110.628 211.008 110.883C210.347 111.138 209.907 110.968 210.017 110.458Z" fill="#3A2C99"/>
<path d="M212.105 109.694C211.888 109.311 211.996 108.291 212.539 107.654C212.974 107.016 213.626 106.761 213.843 107.271C214.169 107.781 213.952 108.674 213.517 109.311C212.974 110.077 212.322 110.204 212.105 109.694Z" fill="#3A2C99"/>
<path d="M214.434 106.984C214 106.984 213.892 106.21 214.108 105.436C214.434 104.532 215.084 103.887 215.518 104.016C215.952 104.016 216.169 104.79 215.843 105.564C215.518 106.468 214.976 107.113 214.434 106.984Z" fill="#3A2C99"/>
<path d="M214.947 103.903C214.421 104.162 214 103.903 214 103.124C214 102.346 214.526 101.438 215.053 101.179C215.579 100.79 216 101.049 216 101.827C216 102.606 215.474 103.514 214.947 103.903Z" fill="#3A2C99"/>
<path d="M215.485 100.398C214.946 101.04 214.408 101.168 214.085 100.783C213.869 100.27 214.085 99.3717 214.515 98.6016C215.054 97.9599 215.592 97.8315 215.915 98.2166C216.131 98.7299 215.915 99.6283 215.485 100.398Z" fill="#3A2C99"/>
<path d="M213.819 98.6863C213.605 99.4645 212.963 100.113 212.428 99.9834C212 99.9834 211.893 99.2051 212.107 98.4268C212.428 97.5189 213.07 97 213.498 97C214.033 97.1297 214.14 97.7783 213.819 98.6863Z" fill="#3A2C99"/>
<path d="M213 102.923C212.909 104.722 212 106.779 210.909 107.679C209.818 108.45 209 107.808 209 106.008C209.091 104.208 210 102.151 211.091 101.38C212.182 100.48 213 101.252 213 102.923Z" fill="#3A2C99"/>
<path d="M243.991 85.8254C243.888 90.7513 240.166 96.6825 235.72 99.0952C234.583 99.6984 233.446 100 232.515 100C231.619 99.9326 230.895 99.631 230.344 99.0952C229.414 98.291 229 96.8836 229 95.0741C229.103 90.2487 232.825 84.3175 237.374 81.9048C238.512 81.3016 239.649 81 240.58 81C241.062 81.0674 241.51 81.1679 241.924 81.3016C243.268 81.9048 244.095 83.5132 243.991 85.8254Z" fill="#F4F4FA"/>
<path d="M242.987 85.4645C242.885 90.5519 239.21 96.5738 234.819 99.0656C233.696 99.6885 232.573 100 231.552 100C231.076 100 230.667 99.8962 230.327 99.6885C229.408 98.8579 229 97.4044 229 95.5355C229.102 90.5519 232.778 84.4262 237.27 81.9344C238.393 81.3115 239.516 81 240.435 81C240.911 81.0696 241.354 81.1734 241.762 81.3115C242.579 82.1421 243.089 83.5956 242.987 85.4645Z" fill="#BFBEED"/>
<path d="M231.851 99C231.527 99 231.235 98.9286 230.974 98.787C230.292 98.0414 230 96.8698 230 95.2722C230.097 90.2663 233.508 84.3018 237.503 81.8521C238.477 81.3195 239.452 81 240.231 81C240.556 81 240.848 81.0714 241.108 81.213C241.693 81.9586 242.083 83.2367 241.985 84.8343C241.888 89.7337 238.575 95.6982 234.58 98.1479C233.508 98.6805 232.631 99 231.851 99Z" fill="#3A2C99"/>
<path d="M237 84.5416C237 85.051 236.556 85.6454 236 85.9001C235.444 86.1548 235 85.9001 235 85.3906C235 84.8812 235.444 84.2868 236 84.117C236.556 83.8623 237 84.0321 237 84.5416Z" fill="#3A2C99"/>
<path d="M234.915 86.204C235.131 86.459 234.915 87.1391 234.485 87.5641C233.946 87.9891 233.408 88.1591 233.085 87.8191C232.869 87.4791 233.085 86.8841 233.515 86.459C234.054 85.949 234.592 85.864 234.915 86.204Z" fill="#3A2C99"/>
<path d="M232.49 89.011C233.034 89.011 233.143 89.527 232.816 90.043C232.599 90.645 231.946 91.075 231.51 90.989C230.966 90.989 230.857 90.473 231.184 89.957C231.401 89.355 232.054 88.925 232.49 89.011Z" fill="#3A2C99"/>
<path d="M232.053 91.1499C232.579 90.7678 233 91.1499 233 91.914C232.895 92.6782 232.474 93.5697 231.947 93.8245C231.421 94.2065 231 93.9518 231 93.1877C231 92.4235 231.421 91.532 232.053 91.1499Z" fill="#3A2C99"/>
<path d="M231.539 94.4011C231.974 93.9733 232.626 93.8877 232.843 94.1444C233.169 94.4866 232.952 95.0856 232.517 95.5989C231.974 96.0267 231.431 96.1123 231.105 95.8556C230.888 95.5134 230.996 94.9144 231.539 94.4011Z" fill="#3A2C99"/>
<path d="M233.184 95.9167C233.401 95.4167 234.054 95 234.49 95C235.034 95.0833 235.143 95.5833 234.816 96.0833C234.599 96.5833 233.946 97 233.51 97C232.966 96.9167 232.857 96.5 233.184 95.9167Z" fill="#3A2C99"/>
<path d="M235 95.4163C235 94.8975 235.526 94.2921 236.053 94.1192C236.579 93.8598 237 94.0327 237 94.5516C237 95.0704 236.474 95.6757 235.947 95.9351C235.421 96.1081 235 95.9351 235 95.4163Z" fill="#3A2C99"/>
<path d="M237.15 94.7834C236.831 94.2701 237.044 93.3716 237.575 92.6016C238 91.9599 238.638 91.8316 238.85 92.2166C239.169 92.73 238.956 93.6283 238.425 94.3984C238 95.0401 237.362 95.1685 237.15 94.7834Z" fill="#3A2C99"/>
<path d="M239.471 91.9834C239.047 91.9834 238.835 91.2051 239.153 90.4268C239.471 89.5188 240 89 240.529 89C240.953 89.1297 241.165 89.7783 240.847 90.6863C240.529 91.4645 239.894 92.1131 239.471 91.9834Z" fill="#3A2C99"/>
<path d="M239.947 88.8977C239.421 89.1541 239 88.8977 239 88.4702C239 87.9573 239.421 87.3588 240.053 87.1023C240.579 86.8459 241 87.1023 241 87.5298C240.895 88.0427 240.474 88.6412 239.947 88.8977Z" fill="#3A2C99"/>
<path d="M240.517 86.3462C239.974 86.9837 239.322 87.2387 239.105 86.7287C238.888 86.2186 238.996 85.3261 239.539 84.6885C239.974 83.9235 240.626 83.796 240.843 84.306C241.169 84.6885 240.952 85.7086 240.517 86.3462Z" fill="#3A2C99"/>
<path d="M238.847 84.5732C238.529 85.4812 238 86 237.471 86C237.047 85.8703 236.835 85.2217 237.153 84.3137C237.471 83.5355 238.106 82.8869 238.529 83.0166C238.953 83.0166 239.165 83.7949 238.847 84.5732Z" fill="#3A2C99"/>
<path d="M237.994 88.7424C237.994 90.164 237.065 92.0231 235.95 92.6793C234.836 93.4448 234 92.7886 234 91.2576C234 89.836 234.929 87.9769 236.043 87.3207C237.158 86.5552 238.086 87.2114 237.994 88.7424Z" fill="#3A2C99"/>
<path d="M256.979 81.5575L266.021 76.4483C267.664 75.4265 269 73.0762 269 71.1347C269 69.1932 267.664 68.4779 266.021 69.3976L256.979 74.609C255.336 75.5286 254 77.8789 254 79.8204C254 81.7619 255.336 82.5793 256.979 81.5575Z" fill="#231869"/>
<path d="M378.481 421.125C378.816 420.908 379.262 421.017 379.596 421.125C380.042 421.234 380.376 421.56 380.599 421.777C383.61 424.275 386.732 427.534 389.185 430.358L388.962 430.25C389.333 430.684 389.705 431.083 390.077 431.445C390.077 431.589 390.113 431.698 390.188 431.77C391.415 432.096 392.53 432.422 393.31 433.291C393.868 433.834 394.091 434.595 394.314 435.246C394.648 436.55 395.094 440.134 394.983 441.329C394.983 441.764 394.202 442.633 393.645 442.741C393.645 442.741 393.608 442.705 393.533 442.633V442.741C392.641 443.393 391.861 444.262 391.303 445.131C390.857 445.891 389.965 445.674 389.073 446C385.728 441.872 381.38 439.809 378.927 435.246C378.593 434.703 378.258 434.051 378.37 433.508C378.593 432.857 379.262 432.314 379.931 432.531C379.596 431.988 379.708 431.227 380.265 430.793C380.711 430.358 381.603 430.25 382.16 430.467C382.049 429.924 382.383 429.272 382.941 429.055C383.239 428.91 383.535 428.838 383.833 428.838C382.16 427.317 380.711 425.905 379.262 423.95C378.704 423.298 377.812 422.537 378.035 421.777C378.147 421.56 378.258 421.343 378.481 421.125Z" fill="#F9D5C3"/>
<path d="M473.152 647.188C472.94 646.514 472.516 646.065 471.245 645.953C469.761 645.841 468.277 645.728 466.794 645.728C464.745 645.579 462.696 645.429 460.647 645.279C460.753 643.483 460.859 641.799 460.965 640.003C458.846 640.564 457.68 639.891 455.561 638.993C453.158 638.095 450.686 637.234 448.143 636.411C447.083 636.186 446.023 635.85 444.963 636.074C442.208 636.635 440.725 641.462 441.042 643.932C441.254 645.728 442.42 647.188 443.798 648.31C445.811 649.994 448.567 651.341 451.11 651.79C453.759 652.239 456.303 653.137 458.422 654.934C461.283 657.179 463.297 659.649 467.006 659.985C470.715 660.21 473.788 657.852 474 653.699C474 652.239 473.788 650.78 473.576 649.321C473.364 648.423 473.364 647.749 473.152 647.188Z" fill="#BFBEED"/>
<path d="M455.209 654.207C455.209 653.916 455.209 653.625 455.209 653.333C455.426 650.166 454.233 647.545 453.148 644.596C452.714 643.613 452.172 642.411 451.304 641.756C449.243 640.008 445.988 641.537 444.686 643.831C444.035 644.814 443.71 646.016 443.167 647.217C442.191 649.292 440.13 651.695 437.635 651.804C434.272 652.023 430.475 650.821 427.112 650.603C425.701 650.603 424.4 650.494 423.098 651.04C420.277 652.241 419.409 656.938 420.386 659.559C421.037 661.197 422.555 662.29 424.074 663.054C426.461 664.256 429.498 664.911 432.102 664.693C434.923 664.474 437.635 664.693 440.13 666.003C444.578 668.078 449.676 671.027 454.016 666.986C455.209 665.894 455.86 664.256 455.969 662.617C456.186 659.778 455.209 657.047 455.209 654.207Z" fill="#BFBEED"/>
<path d="M467.061 526.162C464.922 528.322 456.594 524.542 456.482 523.57C446.465 516.441 448.379 545.603 451.53 557.16C453.105 563.424 452.88 569.905 454.006 576.277C455.131 583.297 456.932 590.318 459.183 597.122C459.633 598.526 460.196 600.038 461.321 601.227C463.684 603.495 467.511 603.171 470.775 602.523C473.588 601.983 476.739 601.227 478.09 598.742C478.878 597.23 478.878 595.394 478.765 593.774C478.653 589.238 478.54 584.594 479.328 580.165C480.228 575.485 481.092 570.769 481.916 566.016C482.704 561.912 483.492 557.808 483.83 553.596C484.392 546.035 483.492 538.475 482.141 531.022C481.354 527.134 482.592 519.789 476.739 519.033C471.45 518.493 468.524 524.65 467.061 526.162Z" fill="#231869"/>
<path d="M457 591L456 585C456.429 586.967 456.762 588.967 457 591Z" fill="#6E4CB3"/>
<path d="M460.452 594.52C461.944 592.296 465.888 592.296 467.274 592.825C468.34 593.249 475.802 588.801 477.934 587C477.721 587.212 478.147 589.012 478.147 589.224C478.219 590.001 478.289 590.778 478.36 591.554C478.432 593.037 478.538 594.52 478.68 596.003C478.787 598.969 479 601.934 479 604.9C479 626.189 475.056 644.831 474.736 646.949C474.523 648.114 474.31 649.173 473.563 650.02C472.604 651.291 469.726 652.457 465.569 651.821C463.01 651.397 460.772 649.703 459.919 647.161C459.066 644.936 459.279 642.5 459.386 640.17C459.919 630.955 460.558 621.847 460.345 612.526C460.239 605.112 459.599 597.698 458 590.389L460.452 594.52Z" fill="#231869"/>
<path d="M434.339 547C433.797 556.303 433.905 565.715 434.664 575.018C435.098 580.636 435.784 586.218 436.724 591.763C437.158 594.535 437.664 597.309 438.242 600.081C438.784 602.708 439.327 603.583 441.387 605.006C446.049 608.071 454.507 607.852 457.977 602.598C461.772 597.017 460.47 587.933 461.772 581.475C463.723 572.063 470.121 565.387 473.157 556.522C474.241 553.238 474.783 550.174 475 547H434.339Z" fill="#3A2C99"/>
<path d="M485.06 504.007C485.277 502.373 485.531 500.738 485.822 499.104C487.128 491.431 489.524 483.97 490.504 476.19C491.266 470.115 491.81 462.655 486.911 457.965C486.148 457.219 485.169 456.58 484.298 456.047C474.716 450.718 465.68 457.113 456.752 460.31C450.873 462.335 445.32 465.106 440.094 468.303C438.243 469.476 436.392 470.222 435.194 472.034C433.888 473.952 433.126 475.977 433.017 478.215C432.908 480.773 433.344 483.437 433.779 485.995C436.392 500.81 437.481 515.944 435.63 530.971C434.868 537.366 434.106 554.951 434.106 554.951C436.283 555.91 437.699 556.763 448.26 556.976C470.253 557.403 482.338 551.967 483.535 550.795C484.842 549.729 484.406 547.064 484.406 545.572C484.624 540.883 484.515 536.194 484.406 531.504C484.189 522.338 483.862 513.173 485.06 504.007Z" fill="#DADAF9"/>
<path d="M438.126 603.458C438.425 608.2 438.686 612.977 438.911 617.791C439.06 621.527 439.172 625.299 439.247 629.106C439.396 631.98 439.471 634.889 439.471 637.835C439.583 653.676 437.789 657.232 445.526 659.495C447.208 660.034 449.114 660.141 450.908 659.818C455.954 658.741 456.963 654.43 457.748 649.15C458.197 646.132 458.421 642.576 458.645 639.559C458.794 636.972 458.907 634.422 458.982 631.908C459.131 628.459 459.281 625.011 459.43 621.562C459.579 616.964 459.73 612.403 459.879 607.877C460.103 602.057 460.776 596.023 461 590.203C461 589.449 460.439 588.479 459.767 588.048C458.87 587.402 440.48 593.436 438.574 595.376C438.574 595.376 437.677 597.531 438.126 603.458Z" fill="#3A2C99"/>
<path d="M437.573 464.766C431.944 463.907 418.349 461.22 415.376 459.392C407.516 454.663 399.338 444.99 395.833 440.261C394.665 438.648 385 444.99 385 446.387C385 447.569 392.541 459.392 393.709 461.112C399.657 469.926 405.392 474.762 407.41 475.944C412.72 478.846 433.75 487.66 435.024 487.875C438.848 488.735 445.433 484.973 447.026 482.286C456.691 465.089 439.91 465.089 437.573 464.766Z" fill="#F4F4FA"/>
<path d="M454.358 452.56C454.05 450.142 452.406 450.691 453.228 448.604C453.947 446.736 455.078 445.087 456.516 443.878C457.955 442.67 459.805 441.901 461.654 442.01C462.374 442.01 462.785 442.45 463.401 442.45C465.148 442.45 466.895 442.12 468.642 442.34C470.389 442.67 472.033 442.78 472.033 444.867C472.033 447.615 471.828 450.362 472.65 453.109C473.164 454.537 473.78 455.966 473.986 457.504C474.191 460.581 472.136 463.328 469.567 464.647C466.381 466.295 462.887 466.185 459.496 465.636C457.852 465.416 455.489 464.977 454.461 463.328C453.742 462.01 454.05 460.361 454.255 458.933C454.461 456.845 454.666 454.647 454.358 452.56Z" fill="#F9D5C3"/>
<path d="M458.198 417.182L466 420.822C465.451 420.556 464.681 420.645 463.802 421L456 417.359C456.879 416.915 457.648 416.915 458.198 417.182Z" fill="#3A2C99"/>
<path d="M463.802 421L456 417.359C456.879 416.915 457.648 416.915 458.198 417.182L466 420.822C465.451 420.556 464.681 420.645 463.802 421Z" fill="#7F89A6"/>
<path d="M446.259 422.782C445.206 424.099 444.364 425.634 444.153 427.499C443.522 431.447 445.101 435.615 444.259 439.673C443.416 443.512 444.996 452.286 452.365 454.589C456.05 455.686 463.42 454.37 465.736 453.164C468.895 451.628 471.001 448.447 472.896 445.376C488.162 419.931 456.682 409.511 446.259 422.782Z" fill="#F9D5C3"/>
<path d="M481.444 433.219C481.369 433.946 481.258 434.672 481.109 435.399C480.96 435.98 480.811 436.562 480.662 437.143C480.513 437.579 480.327 438.015 480.103 438.451C479.321 440.195 478.204 441.721 477.198 443.247C475.634 445.318 474.07 447.498 471.612 448.588C470.606 449.133 469.489 449.351 468.372 449.569C465.355 450.223 460.774 450.441 458.428 447.934C457.422 446.844 456.975 445.209 456.752 443.792C456.528 442.375 456.528 441.067 456.081 439.65C456.006 439.287 455.933 438.923 455.858 438.56C455.634 438.015 455.411 437.47 455.187 436.925C454.629 436.162 453.958 435.399 452.953 435.072C451.388 434.636 449.377 435.508 448.037 434.636C447.254 434.2 446.919 433.328 446.584 432.565C446.249 431.802 446.025 430.93 445.69 430.058C445.243 428.968 444.796 427.878 444.014 427.006C443.679 426.461 443.232 426.025 442.897 425.589C442.45 424.826 442.003 424.171 442.003 423.408C441.891 419.702 444.908 415.996 447.59 413.707C448.93 412.399 450.495 411.309 452.282 410.546C453.847 409.892 455.523 409.565 457.087 409.347C462.003 408.693 467.366 408.802 471.612 411.091C472.841 411.745 473.958 412.617 474.517 413.707C474.629 414.034 474.629 414.252 474.852 414.47C475.076 414.797 475.522 414.906 475.858 415.124C477.05 415.633 478.017 416.287 478.763 417.086C482.785 421.119 482.226 427.878 481.444 433.219Z" fill="#3A2C99"/>
<path d="M454.828 434.018C458.075 433.715 459.002 437.259 456.799 439.992C456.103 440.803 455.06 441.511 454.132 442.119C448.45 446.574 446.943 441.916 448.682 440.397C452.972 436.955 450.769 434.322 454.828 434.018Z" fill="#F9D5C3"/>
<path d="M454.485 439.335C454.968 439.052 458.714 437.256 456.055 436.122C455.33 435.744 454.485 436.311 454.485 436.878C454.364 437.162 454.485 437.54 454.485 437.823C454.404 438.012 454.324 438.17 454.243 438.296C453.88 438.768 452.793 439.241 453.035 439.808C453.156 440.375 454.364 439.524 454.485 439.335Z" fill="#FFBFA2"/>
<path d="M438.346 374.721C438.018 374.391 437.691 374.061 437.691 373.731C437.8 373.181 438.564 372.85 439 372.85C439.873 372.74 440.636 372.85 441.4 373.181C442.382 373.621 443.255 374.171 444.237 374.501C444.455 374.611 444.782 374.611 445.109 374.611C445.328 374.501 445.546 374.281 445.546 373.951C445.546 373.401 444.673 372.96 444.346 372.74C443.764 372.3 443.146 371.896 442.491 371.53C441.509 370.979 440.2 370.319 439.109 370.209C437.8 369.989 436.491 370.319 435.182 370.209C434.964 370.099 434.745 370.099 434.527 369.989C434.091 369.769 433.873 369.439 433.655 369.108C433.436 368.742 433.254 368.338 433.109 367.898C433.036 367.824 433 367.751 433 367.678C433 367.568 433.109 367.568 433.218 367.457C434.636 366.467 436.382 366.027 438.018 365.366C439.182 364.926 440.345 364.522 441.509 364.156C441.727 364.046 442.055 363.936 442.382 364.046C442.6 364.046 442.927 364.266 443.146 364.376C444.018 364.816 444.891 365.146 445.764 365.476C448.709 366.687 451.219 368.778 453.619 370.979C455.146 372.41 456.782 373.841 458.31 375.382C459.619 376.592 458.855 378.904 457.764 379.894C457.473 380.114 457.183 380.334 456.891 380.555C455.801 381.105 454.491 381.105 453.291 380.775C452.637 380.665 449.909 379.564 449.037 379.344C445.546 378.353 441.946 377.143 438.891 375.162C438.673 375.015 438.491 374.868 438.346 374.721Z" fill="#F9D5C3"/>
<path d="M504.391 382.339C513.575 376.397 517.074 366.714 513.794 363.523C508.108 358.021 503.079 361.652 490.068 373.096C489.776 373.39 489.485 373.646 489.193 373.866C486.023 376.617 482.852 379.368 479.9 382.449C478.26 384.1 476.729 385.86 475.308 387.841C474.944 388.281 474.616 388.721 474.324 389.161C474.105 389.602 473.996 390.262 473.777 390.812C473.34 392.132 473.012 393.563 473.012 394.993C472.902 396.754 473.558 398.624 474.87 399.835C476.401 401.155 478.697 401.265 480.665 400.605C482.852 399.945 490.615 398.404 496.3 392.793C500.127 389.161 492.583 390.152 504.391 382.339Z" fill="#D3D3F5"/>
<path d="M455.181 376.133C455.725 375.374 456.27 374.831 457.249 375.048C458.229 375.265 459.1 375.699 460.08 376.133C461.822 377.11 463.455 378.411 465.196 379.496C467.374 381.124 469.66 382.317 471.946 383.728C473.615 384.74 475.247 385.789 476.844 386.874C479.784 389.044 486.315 393.926 483.158 398.157C482.07 399.784 479.457 401.195 477.498 400.978C475.974 400.761 474.123 398.916 472.925 398.049C470.095 396.096 467.374 393.926 464.652 391.865C461.386 389.369 458.229 386.44 454.963 383.836C453.548 382.86 452.677 382.751 453.113 380.798C453.439 379.171 454.201 377.761 455.072 376.35C455.145 376.277 455.181 376.206 455.181 376.133Z" fill="#D3D3F5"/>
<path d="M544.721 370.074C544.721 368.286 544.833 366.499 544.945 364.711C545.056 361.031 545.056 357.35 544.387 353.775C543.494 349.464 541.819 345.258 539.252 341.577C538.918 341.052 538.471 340.421 538.025 340C536.685 340.21 535.011 339.79 533.895 340.421C532.109 341.262 530.882 344.101 530.1 345.678C528.091 349.99 527.422 354.932 528.538 359.559C528.873 361.346 529.765 362.818 530.435 364.396C531.216 366.499 531.886 368.497 533.114 370.284C534.676 372.492 537.02 374.385 539.81 374.911C541.261 375.121 542.824 375.016 543.829 373.965C544.833 372.913 544.721 371.441 544.721 370.074Z" fill="#302534"/>
<path d="M544 368.401C539.842 366.555 532.182 362.864 528.134 360.041C527.477 359.715 524.742 361.452 524.085 361.344C518.723 360.258 513.143 360.475 508.219 362.646C508.146 362.646 508.073 362.646 508 362.646V395H539.295L544 368.401Z" fill="#FFBFA2"/>
<path d="M531.988 366.259C531.988 366.259 513.178 375.319 514.028 365.241C515.303 351.294 516.26 349.665 522.849 347.934C524.549 347.425 525.293 346 527.206 346C533.901 346.305 531.138 349.665 530.713 352.108C529.438 359.438 532.201 362.39 531.988 366.259Z" fill="#FFBFA2"/>
<path d="M553.891 379.352C553.964 379.928 554 380.541 554 381.19C553.891 383.027 553.457 384.757 553.023 386.379C552.588 388.433 551.611 390.271 550.416 392.109C549.33 393.947 548.353 395.893 547.158 397.73C545.964 399.676 545.421 401.622 544.444 403.568C542.38 408.109 540.534 412.758 539.665 417.731C539.014 421.623 539.014 425.623 539.231 429.623C539.34 431.461 539.665 433.407 539.557 435.353C539.557 435.785 539.665 436.758 539.557 437.191C539.448 437.948 539.122 438.164 538.471 438.596C534.996 441.299 530.869 442.812 526.634 443.569C522.073 444.326 517.186 444.002 512.842 443.245C511.539 443.029 510.272 442.812 509.041 442.596C503.829 441.299 499.919 439.785 499.268 439.245C498.291 438.488 498.725 438.704 499.485 431.785C502.852 403.244 490.254 402.812 495.141 387.892C496.01 385.298 497.748 382.919 498.833 380.325C502.743 371.027 500.245 360.541 514.58 360C513.711 360.324 505.458 374.271 515.449 378.379C521.856 380.973 534.67 373.946 537.711 365.189C541.946 367.243 545.747 368.433 549.33 371.027C552.371 373.298 553.674 375.892 553.891 379.352Z" fill="#F4F4FA"/>
<path d="M527.304 568.078C526.794 568.865 526.489 569.877 526.183 570.777C525.163 574.002 524.11 577.264 523.022 580.562C522.104 583.487 521.798 586.636 521.492 589.673C521.186 592.035 520.371 595.071 521.9 596.983C523.43 599.008 526.183 599.458 528.426 598.558C530.669 597.658 532.3 595.634 533.422 593.272C534.748 590.46 534.952 587.648 535.359 584.611C535.836 581.237 536.311 577.9 536.787 574.601C536.991 573.139 537.093 571.789 536.889 570.44C536.073 566.841 530.363 564.366 527.916 567.29C527.644 567.515 527.44 567.778 527.304 568.078Z" fill="#19121B"/>
<path d="M501 575.03C501 573.31 501.758 571.697 502.625 570.407C504.251 568.257 506.309 566.536 507.935 564.494C508.801 563.526 509.235 562.451 509.885 561.376C510.535 560.193 511.835 559.118 512.702 558.15C512.846 557.935 512.991 557.756 513.135 557.613C514.652 556 516.603 554.817 518.77 554.28C520.503 553.85 523.429 553.742 524.621 555.247C526.463 557.398 526.138 559.87 525.488 562.343C524.729 564.924 522.454 565.784 520.612 567.504C519.745 568.472 519.095 569.547 518.12 570.407C516.928 571.589 515.736 572.88 514.544 574.17C512.919 575.783 511.185 577.395 509.018 578.255C505.876 579.653 501.217 579.33 501 575.137C501 575.065 501 575.03 501 575.03Z" fill="#19121B"/>
<path d="M494 508.192C495.61 512.153 507.313 541.527 509.889 551.098C511.07 555.389 512.251 560.999 509.352 564.74C508.708 565.62 507.957 566.39 507.527 567.38C507.098 568.37 507.098 569.69 507.849 570.35C508.601 571.121 509.675 571.121 510.533 570.79C511.5 570.46 512.144 569.8 512.895 569.25C515.15 567.27 517.297 565.29 519.229 562.98C520.303 561.659 521.269 560.229 522.021 558.689C522.772 557.149 523.417 555.939 522.665 554.288C520.947 550.878 520.303 546.917 519.981 543.177C519.874 540.867 519.874 538.446 519.874 536.026C519.981 533.826 520.303 531.625 520.196 529.425C519.874 525.025 519.659 520.514 518.585 516.114C517.834 513.363 516.545 510.503 514.72 508.192C512.788 505.882 510.211 504.452 508.171 502.252C506.991 501.042 505.38 499.721 503.448 500.051L494 508.192Z" fill="#FFBFA2"/>
<path d="M545.993 459.79C545.883 454.325 545.772 451.325 544.997 445.859C544.443 442.43 541.674 433 541.674 433C541.674 433 527.052 439.001 522.4 439.43C516.751 439.965 514.535 440.18 510.105 439.323C508.111 439.001 508 439.001 508 441.037C508 443.716 509.108 446.717 509.662 449.396C511.655 459.683 514.868 469.971 516.529 480.365C517.858 488.724 517.526 497.725 518.744 506.298C519.188 509.942 521.292 513.585 522.954 516.693C524.948 520.336 526.941 522.372 530.597 521.944C532.258 521.836 535.138 520.015 536.024 518.622C536.578 517.764 536.8 516.05 537.132 514.978C538.092 511.978 538.904 508.977 539.569 505.977C539.716 505.334 539.865 504.691 540.012 504.048C540.012 503.976 540.012 503.905 540.012 503.833C541.674 495.796 542.56 487.438 543.889 479.294C544.775 472.864 546.104 466.327 545.993 459.79Z" fill="#F9D5C3"/>
<path d="M518 500C518.748 510.225 522.811 517.622 524.522 527.738C526.34 538.833 526.554 550.037 526.661 561.241C526.661 566.027 526.981 571.248 526.233 575.926C525.698 578.863 523.132 583.758 525.484 586.368C526.34 587.347 527.516 587.891 528.799 588C529.868 588 530.937 587.891 531.9 587.239C533.397 586.151 533.717 583.323 534.252 581.582C536.177 575.6 537.246 569.399 538.957 563.308C540.667 556.564 543.554 550.037 544.516 543.184C545.051 539.159 545.051 535.135 544.944 531.11C544.837 523.169 542.164 512.183 538.957 505.004C538.208 503.263 537.994 505.33 536.177 505.004L518 500Z" fill="#F9D5C3"/>
<path d="M491.5 501.072C490.74 504.71 490.523 507.92 493.237 511.664C496.384 515.944 501.811 518.191 507.13 518.833C512.448 519.368 517.767 518.512 523.085 517.763C529.091 516.765 535.133 515.802 541.211 514.874C542.514 514.66 544.033 514.339 545.01 513.269C545.987 512.092 545.879 510.487 545.77 508.989C545.227 501.821 544.685 494.866 545.01 487.698C545.444 479.566 546.855 471.328 546.855 463.196C547.29 455.492 546.855 447.575 544.033 440.406C543.382 438.694 542.514 433.88 540.777 433.238C538.172 432.061 532.962 435.592 530.466 436.448C527.101 437.625 514.945 439.871 512.231 439.978C506.696 440.192 505.719 435.806 498.881 435.806C496.927 435.806 495.842 449.18 495.516 450.892C494.756 455.492 494.214 460.093 493.888 464.694C493.562 468.974 494.214 472.933 494.105 477.105C493.996 483.525 493.562 490.159 492.477 496.471C492.151 498.076 491.826 499.574 491.5 501.072Z" fill="#3A2C99"/>
<path d="M498 435.425C498.665 433.13 499.33 430.939 499.33 430.939C499.33 430.939 508.307 438.451 520.388 437.616C531.914 436.782 540.116 430.522 539.783 430C540.523 431.043 541.261 432.121 542 433.234C529.476 443.355 511.078 443.042 498 435.425Z" fill="#231869"/>
<path d="M524.624 356.151C525.186 355.871 525.713 355.521 526.206 355.1C526.416 354.89 526.627 354.68 526.838 354.47C528.631 352.788 529.791 350.371 531.267 348.375C532.638 346.273 533.376 343.436 533.798 341.019C534.536 335.974 533.271 330.72 529.685 326.937C525.573 322.733 519.246 321.052 513.657 322.523C512.075 322.944 510.704 323.679 509.228 324.31C508.068 324.94 506.803 325.676 505.959 326.622C505.326 327.252 504.799 328.093 504.377 328.828C503.639 330.3 503.217 331.666 502.796 333.137C502.585 333.978 502.585 334.923 502.585 335.764C502.585 337.34 502.69 338.812 503.006 340.283C503.288 341.544 503.428 342.805 503.428 344.066C503.534 345.327 502.901 346.378 502.479 347.534C502.268 348.27 501.847 349.426 502.057 350.161C502.268 351.002 503.112 351.632 503.534 352.368C503.956 353.104 504.061 353.734 504.166 354.575C504.166 355.205 504.377 355.521 504.588 356.046C504.799 356.466 504.694 356.782 504.694 357.307C504.799 357.727 505.221 358.253 505.326 358.673C505.537 359.199 505.748 359.724 506.065 360.249C507.752 363.297 510.177 363.507 513.13 362.351C515.555 361.405 517.664 360.249 519.773 358.883C521.46 357.938 523.147 357.202 524.624 356.151Z" fill="#F9D5C3"/>
<path d="M540.972 336.106C540.822 334.698 540.523 333.325 540.074 331.988C539.625 330.65 539.027 329.419 538.278 328.292C537.941 327.658 537.492 327.025 537.043 326.602C536.594 326.075 535.584 325.547 535.359 325.019C535.359 324.913 532.778 319 520.992 319C516.502 319 512.125 320.478 508.42 322.696C505.726 324.28 504.043 325.652 502.808 328.398C501.573 331.143 500.9 334.099 501.012 337.056C501.012 337.478 501.012 338.006 501.349 338.323C501.91 338.851 502.696 338.64 503.369 338.534C506.063 337.901 508.196 337.056 510.553 335.789C511.563 335.261 514.482 333.994 515.716 334.522C516.727 335.05 515.941 337.478 516.39 338.64C516.839 340.012 517.737 341.385 519.084 342.23C520.318 342.969 521.665 343.391 522.9 344.025C524.135 344.658 525.37 345.609 525.706 346.876C526.043 348.248 525.482 350.149 526.829 350.888C528.4 351.733 532.666 348.354 532.441 348.671C531.319 350.36 531.543 350.043 531.094 353C536.033 350.255 539.737 345.292 540.747 339.907C540.972 338.64 541.047 337.373 540.972 336.106Z" fill="#3E3544"/>
<path d="M530.3 344.008C533.134 343.821 533.868 346.991 531.874 349.507C531.35 350.16 530.3 350.812 529.566 351.372C524.318 355.286 523.059 351.092 524.633 349.694C528.516 346.618 526.627 344.194 530.3 344.008Z" fill="#F9D5C3"/>
<path d="M528.172 350.329C528.438 350.043 531.267 348.326 529.322 347.086C528.791 346.799 528.261 347.276 528.172 347.849C528.084 348.135 528.172 348.517 528.172 348.803C528.113 348.994 528.055 349.153 527.996 349.28C527.73 349.757 526.846 350.138 527.023 350.806C527.2 351.378 527.996 350.52 528.172 350.329Z" fill="#FFBFA2"/>
<path d="M545.323 421.875C545.003 422.21 544.682 422.432 544.362 422.655C543.722 422.99 542.974 422.99 542.334 422.767C541.479 422.544 540.946 421.764 540.305 421.095C539.379 419.906 538.418 418.791 537.422 417.751C537.209 417.528 536.888 417.194 536.461 417.305C536.141 417.305 535.82 417.639 535.82 417.974C535.714 418.197 535.927 419.311 535.714 419.311C535.5 419.423 534.86 418.977 534.539 418.866C534.112 418.717 533.65 418.568 533.151 418.42C532.155 418.197 531.158 418.011 530.162 417.862C528.168 417.639 526.14 417.676 524.076 417.974C523.969 417.974 523.755 417.974 523.649 418.085C523.435 418.197 523.328 418.42 523.328 418.531C523.435 418.754 523.542 418.866 523.755 418.977C525.037 419.757 526.638 419.869 528.026 420.315C528.667 420.426 529.201 420.76 529.841 420.983C530.624 421.206 531.408 421.504 532.19 421.875C529.77 421.281 527.279 420.983 524.716 420.983C524.183 420.872 523.008 420.983 522.688 421.429C522.261 422.21 523.435 422.655 523.862 422.767C525.215 423.287 526.567 423.807 527.919 424.327C526.425 423.77 524.716 423.659 523.222 423.77C522.367 423.882 521.834 423.882 522.047 424.885C522.154 425.442 522.688 425.999 523.328 426.111C524.289 426.334 525.143 426.445 526.104 426.668C527.386 427.003 528.774 427.337 529.948 427.894C528.88 428.006 527.813 428.117 526.852 428.452C525.998 428.675 525.037 429.232 524.61 430.012C524.289 430.57 524.182 431.573 524.93 431.684C525.784 431.759 526.638 431.796 527.492 431.796C529.201 431.684 531.016 431.35 532.724 431.684C535.287 432.019 537.636 433.579 540.198 433.914C542.44 434.248 544.789 433.579 546.818 432.465C548.74 431.573 550.128 429.789 551.943 428.563C553.117 427.894 554.292 427.449 555.146 426.557C556.142 425.442 557.103 424.327 558.029 423.213C558.456 422.655 558.99 421.987 558.99 421.318C559.097 420.315 558.349 419.423 557.495 418.866C556.534 418.085 555.253 417.528 554.078 417.305C552.904 417.082 551.516 416.748 550.448 417.305C548.953 418.085 547.672 419.646 546.391 420.76C546.071 421.095 545.75 421.429 545.323 421.875Z" fill="#F9D5C3"/>
<path d="M550.222 371.707C549.945 371.492 549.67 371.278 549.393 371.063C548.462 370.31 547.323 369.773 546.287 370.095C545.459 370.418 544.838 371.278 544.527 372.137C543.595 374.286 543.285 376.758 543.181 379.122C542.974 381.594 542.871 384.065 543.285 386.43C543.699 388.579 544.424 391.48 546.184 392.877C547.944 394.167 549.497 395.671 551.153 397.068C554.467 399.934 557.849 402.728 561.3 405.45C562.853 406.632 564.613 408.459 566.477 409.212C571.861 411.468 577.038 408.567 577.866 404.483C578.28 402.979 577.659 401.259 577.038 399.862C576.106 397.821 574.449 396.316 573 394.704C571.412 392.77 569.756 390.871 568.03 389.009C563.578 384.065 559.126 379.015 554.053 374.716C552.81 373.642 551.464 372.782 550.222 371.707Z" fill="#F4F4FA"/>
<path d="M551.282 428.865C553.672 429.514 555.335 427.676 556.894 426.378C560.531 423.349 574.351 413.614 577.885 404.961C578.82 402.906 573.832 400.959 571.546 398.795C569.987 397.389 567.285 398.146 565.519 398.795C563.336 399.444 546.398 419.996 546.086 421.077C545.359 423.565 549.412 428.325 551.282 428.865Z" fill="#F4F4FA"/>
<g opacity="0.2">
<path d="M475.187 236.638C475.294 248.127 467.134 262.193 457.147 267.992L195.576 418.965C185.59 424.763 177.429 420.146 177.321 408.549L176.785 215.055V196.156C176.785 184.667 184.838 170.6 194.931 164.802L456.396 13.8291C466.382 8.03069 474.65 12.6479 474.65 24.2447V43.1432L475.187 236.638Z" fill="#BFBEED"/>
</g>
<g opacity="0.2">
<path d="M489.253 250.06C489.361 261.549 481.2 275.616 471.214 281.414L209.642 432.387C199.656 438.185 191.495 433.568 191.388 421.971L190.851 228.477V209.686C190.744 198.089 198.904 184.022 208.89 178.224L470.462 27.2511C480.448 21.4527 488.609 26.1773 488.717 37.6667V56.5652L489.253 250.06Z" fill="#BFBEED"/>
</g>
<path d="M496.565 36.1982L501 38.8383C497.832 36.9374 493.398 37.1486 488.435 40L484 37.4654C488.857 34.6141 493.292 34.2972 496.565 36.1982Z" fill="#F4F4FA"/>
<path d="M488.435 40L484 37.4654C488.857 34.6141 493.292 34.2972 496.565 36.1982L501 38.8383C497.832 36.9374 493.398 37.1486 488.435 40Z" fill="#FE8786"/>
<path d="M218 441L213.846 438.348C210.879 436.545 209 432.621 209 427L213.253 429.652C213.253 435.273 215.033 439.197 218 441Z" fill="#BFBEED"/>
<path d="M218 441L213.846 438.348C210.879 436.545 209 432.621 209 427L213.253 429.652C213.253 435.273 215.033 439.197 218 441Z" fill="#BFBEED"/>
<path d="M212.886 219.652L208 217L208.114 235.348L213 238L212.886 219.652Z" fill="#FF6661"/>
<path d="M208 236L208.521 427.307L213 430L212.479 238.693L208 236Z" fill="#BFBEED"/>
<path d="M231.506 189L227 186.323L484.494 38L489 40.5702L231.506 189Z" fill="#FE8786"/>
<path d="M212.732 220L208 217.284C208 205.77 216.254 191.757 226.378 186L231 188.716C220.876 194.473 212.732 208.486 212.732 220Z" fill="#F4F4FA"/>
<path d="M212.732 220L208 217.284C208 205.77 216.254 191.757 226.378 186L231 188.716C220.876 194.473 212.732 208.486 212.732 220Z" fill="#FF6661"/>
<path d="M506.999 259.955C507.106 271.333 499.056 285.074 489.181 290.87L231.57 439.542C221.694 445.231 213.644 440.723 213.644 429.344L213 238.701V220.13C213 208.752 220.943 194.904 230.818 189.215L488.429 40.4361C498.412 34.7468 506.355 39.3626 506.462 50.7411V69.3117L506.999 259.955Z" fill="#F3F2FC"/>
<path d="M506 69.2023L213 238V219.494C213 208.156 220.931 194.356 230.79 188.687L487.996 40.4276C497.962 34.7582 505.893 39.3579 506 50.6966V69.2023Z" fill="#FE4340"/>
<path d="M405 186.603C405 161.163 387.276 150.77 365.446 163.328C343.616 175.994 326 206.848 326 232.397C326 257.837 343.616 268.23 365.446 255.672C387.276 243.006 405 212.152 405 186.603Z" fill="#3A2C99"/>
<path d="M378 177.93C378 185.858 372.383 195.414 365.445 199.324C358.617 203.234 353 200.084 353 192.157C353 184.229 358.617 174.564 365.445 170.654C372.383 166.744 378 170.002 378 177.93Z" fill="white"/>
<path d="M384 232.354V209.336C384 199.305 376.828 195.082 368.051 200.15L361.949 203.634C353.172 208.597 346 220.951 346 230.982V254L384 232.354Z" fill="white"/>
<path d="M426 250.781L303 322V301.219L426 230V250.781Z" fill="white"/>
<path d="M389 318L343 343.299V356L389 330.701V318Z" fill="#3A2C99"/>
<path d="M426 282.555L303 353V332.552L426 262V282.555Z" fill="white"/>
<path d="M313.211 338.26L311 338.844L311.316 337.208L313.526 336.857L313.421 333.701L314.579 333L314.474 336.273L316.579 333.818L317 335.104L314.789 337.325L316.158 338.961L315.316 340.364L313.947 338.61L312.579 342L311.737 341.766L313.211 338.26Z" fill="#F22B38"/>
<path d="M319.143 335.26L317 335.844L317.321 334.208L319.464 333.857V330.701L320.536 330V333.273L322.679 330.935L323 332.104L320.75 334.325L322.25 335.961L321.286 337.364L319.893 335.61L318.607 339L317.643 338.766L319.143 335.26Z" fill="#F22B38"/>
<path d="M326.211 330.675L324 331.195L324.316 329.74L326.526 329.429L326.421 326.623L327.579 326L327.474 328.909L329.684 326.831L330 327.87L327.789 329.844L329.158 331.299L328.316 332.545L326.947 330.987L325.684 334L324.737 333.792L326.211 330.675Z" fill="#F22B38"/>
<path d="M332.5 326.675L330 327.195L330.375 325.74L333 325.429L332.875 322.623L334.125 322V324.909L336.625 322.831L337 323.87L334.375 325.844L336.125 327.299L335 328.545L333.5 326.987L331.875 330L330.875 329.792L332.5 326.675Z" fill="#F22B38"/>
<path d="M339.211 323.675L337 324.195L337.316 322.74L339.526 322.429L339.421 319.623L340.579 319L340.474 321.909L342.684 319.831L343 320.87L340.789 322.844L342.158 324.299L341.316 325.545L339.947 323.987L338.684 327L337.737 326.792L339.211 323.675Z" fill="#F22B38"/>
<path d="M478 66.4834C478 68.7382 479.803 69.6205 482.056 68.5421C484.197 67.4637 486 64.7188 486 62.464C486 60.3072 484.197 59.3268 482.056 60.5033C479.803 61.5816 478 64.3266 478 66.4834Z" fill="#F4F4FA"/>
<path d="M466 73.498C466 75.7397 467.803 76.6169 470.056 75.5448C472.197 74.3752 474 71.7437 474 69.502C474 67.2603 472.197 66.3831 470.056 67.4552C467.803 68.6248 466 71.2563 466 73.498Z" fill="#F4F4FA"/>
<path d="M454 79.9885C454 82.6245 455.803 83.8227 458.056 82.3849C460.197 81.0669 462 77.7119 462 75.0759C462 72.32 460.197 71.2416 458.056 72.5596C455.803 73.8777 454 77.2326 454 79.9885Z" fill="#F4F4FA"/>
<path d="M132.823 670.986L178 698C172.579 694.815 169.177 687.897 169.177 678.014L124 651C124 660.883 127.402 667.801 132.823 670.986Z" fill="#FFB700"/>
<path d="M169.177 678.014L124 651C124 660.883 127.402 667.801 132.823 670.986L178 698C172.579 694.815 169.177 687.897 169.177 678.014Z" fill="#FFB700"/>
<path d="M325 443.826L279.585 417.088C274.029 413.828 266.442 414.262 258 419.262L303.308 446C311.75 441 319.443 440.565 325 443.826Z" fill="#FFDE38"/>
<path d="M325 443.092L280.048 417.016C274.654 413.943 267.25 414.261 259 418.818L303.952 445C312.096 440.336 319.606 440.018 325 443.092Z" fill="#FFDE38"/>
<path d="M303 445.783L258.315 419C258.245 419.144 258.14 419.253 258 419.325L302.579 446C302.719 445.927 302.86 445.856 303 445.783Z" fill="#FFDE38"/>
<path d="M168.57 558.428L123 532L123.322 651.572L169 678L168.57 558.428Z" fill="#FFB700"/>
<path d="M303 445.281L257.343 419L153 478.719L198.765 505L303 445.281Z" fill="#FFDE38"/>
<path d="M200 505.333L153.844 479C136.793 488.634 122.892 512.398 123.001 531.667L169.048 558C169.048 538.732 182.949 514.967 200 505.333Z" fill="#FFDE38"/>
<path d="M200 505.822L153.503 479C149.783 481.072 146.282 483.907 143 487.178L189.497 514C192.779 510.729 196.28 507.894 200 505.822Z" fill="#FFDE38"/>
<path d="M188 513.973L142.935 488C131.271 499.508 123 517.14 123 532.027L167.959 558C167.959 543.113 176.336 525.481 188 513.973Z" fill="#FFDE38"/>
<path d="M199.496 506.15C182.696 515.805 169 539.621 169 558.931L169.428 678.332C169.428 697.642 183.231 705.581 200.031 695.818L303.61 635.85C320.41 626.087 334.106 602.379 333.999 583.069L333.678 463.668C333.678 444.358 319.875 436.419 303.075 446.182L199.496 506.15Z" fill="#FFC400"/>
<path d="M272 605.956C272 598.033 266.247 594.713 259.055 598.675C251.864 602.637 246.111 612.381 246 620.412C246 625.659 248.545 628.871 252.306 629.299L252.196 652L265.583 644.612V621.911C269.455 617.307 272 611.31 272 605.956Z" fill="#262028"/>
<path d="M302.996 370.616L302.78 433.911C302.78 436.049 301.272 438.295 298.363 439.898C292.653 443.213 283.173 443.213 277.463 439.791C274.555 438.188 273.046 435.942 273.046 433.697L273.369 370.509C273.369 359.497 270.245 351.371 264.751 348.164C259.257 344.956 250.638 346.346 240.942 351.799L224.567 361.101C198.819 375.748 177.057 412.848 176.949 442.251L176.734 505.438C176.734 507.684 175.226 509.822 172.317 511.533C168.654 513.671 163.375 514.419 158.635 513.778C155.942 513.457 153.464 512.709 151.309 511.426C150.591 510.998 149.944 510.499 149.37 509.929C147.754 508.539 147 506.935 147 505.331L147.215 442.144C147.323 422.899 153.787 401.301 165.53 381.308C177.273 361.314 193.002 345.063 209.808 335.547L226.183 326.246C235.448 321.007 244.713 317.906 253.655 317.158C263.135 316.409 272.077 318.334 279.726 322.717C287.267 327.101 293.408 333.944 297.394 342.497C301.164 350.516 303.103 360.031 302.996 370.616Z" fill="#DADAF9"/>
<path d="M273.642 351.595C272.075 350.638 270.09 350.106 268 350C271.866 353.933 274.06 361.162 274.06 370.411L273.746 433.239C273.746 435.472 275.209 437.704 278.03 439.299C279.145 440.008 280.363 440.575 281.687 441L282 373.813C282 362.863 278.97 354.784 273.642 351.595Z" fill="#BFBEED"/>
<path d="M282 326.515C276.84 325.017 271.358 324.482 265.661 325.017C256.739 325.766 247.495 328.762 238.251 334.006L221.912 343.316C205.143 352.947 189.45 369.213 177.733 389.224C166.016 409.235 159.567 430.745 159.459 450.007L159.244 514C156.557 513.679 154.085 512.93 151.935 511.646C151.218 511.218 150.573 510.718 150 510.148L150.215 446.154C150.322 426.892 156.772 405.383 168.489 385.371C180.205 365.36 195.792 349.094 212.56 339.463L229.007 330.153C238.251 324.91 247.388 321.913 256.309 321.164C265.661 320.415 274.476 322.234 282 326.515Z" fill="#F4F4FA"/>
</svg>
