<svg width="252" height="252" viewBox="0 0 252 252" fill="none" xmlns="http://www.w3.org/2000/svg">
<g filter="url(#filter0_d_75_178)">
<mask id="mask0_75_178" style="mask-type:luminance" maskUnits="userSpaceOnUse" x="4" y="0" width="244" height="244">
<path d="M4 0H248V244H4V0Z" fill="white"/>
</mask>
<g mask="url(#mask0_75_178)">
<mask id="mask1_75_178" style="mask-type:luminance" maskUnits="userSpaceOnUse" x="4" y="0" width="244" height="244">
<path d="M125.998 0C58.6221 0 4 54.6196 4 122C4 189.38 58.6221 244 125.998 244C193.378 244 248 189.38 248 122C248 54.6196 193.378 0 125.998 0Z" fill="white"/>
</mask>
<g mask="url(#mask1_75_178)">
<path d="M4 0H248V244H4V0Z" fill="#F1FCFD"/>
</g>
</g>
<mask id="mask2_75_178" style="mask-type:luminance" maskUnits="userSpaceOnUse" x="38" y="55" width="87" height="71">
<path d="M38 55H124.377V125.893H38V55Z" fill="white"/>
</mask>
<g mask="url(#mask2_75_178)">
<path d="M109.832 114.135C109.121 113.424 108.132 112.981 107.04 112.981C105.949 112.981 104.965 113.424 104.248 114.135C103.537 114.852 103.093 115.836 103.093 116.928C103.093 118.019 103.537 119.008 104.248 119.72C104.965 120.436 105.949 120.874 107.04 120.874C108.132 120.874 109.121 120.436 109.832 119.72C110.549 119.008 110.992 118.019 110.992 116.928C110.992 115.836 110.549 114.852 109.832 114.135ZM62.4994 77.8727C64.4972 71.9621 68.1614 66.8214 72.9317 63.0207C78.4232 58.645 85.3813 56.0283 92.9339 56.0283C100.394 56.0283 107.269 58.5816 112.736 62.8696C118.311 67.2404 122.404 73.4142 124.143 80.5186L117.614 82.0973C116.245 76.4888 113.009 71.6113 108.604 68.1565C104.297 64.7797 98.8542 62.7673 92.9339 62.7673C86.9503 62.7673 81.454 64.8333 77.1173 68.2881C73.4336 71.2214 70.5831 75.1537 68.9849 79.6659C69.7353 80.0118 70.4662 80.3968 71.1727 80.8256C74.491 82.8331 77.2148 85.7275 79.0177 89.1774L73.073 92.2813C71.8354 89.9181 69.9691 87.9397 67.6985 86.5608C65.5204 85.2451 62.9428 84.485 60.1702 84.485C56.1552 84.485 52.5202 86.1125 49.8889 88.7437C47.2626 91.3701 45.6351 95.0052 45.6351 99.0203C45.6351 103.035 47.2626 106.67 49.8889 109.302C52.5202 111.933 56.1552 113.56 60.1702 113.56H98.6934C99.1466 112.43 99.8288 111.412 100.677 110.564C102.304 108.936 104.555 107.928 107.04 107.928C109.525 107.928 111.776 108.936 113.404 110.564C115.036 112.191 116.045 114.442 116.045 116.928C116.045 119.413 115.036 121.664 113.404 123.296C111.776 124.924 109.525 125.932 107.04 125.932C104.555 125.932 102.304 124.924 100.677 123.296C99.8288 122.443 99.1466 121.43 98.6934 120.299H60.1702C54.2987 120.299 48.9778 117.917 45.1284 114.067C41.279 110.218 38.8962 104.897 38.8962 99.0203C38.8962 93.1487 41.279 87.8277 45.1284 83.9782C48.9778 80.1288 54.2987 77.746 60.1702 77.746C60.9547 77.746 61.7344 77.7899 62.4994 77.8727Z" fill="#376FB7"/>
</g>
<mask id="mask3_75_178" style="mask-type:luminance" maskUnits="userSpaceOnUse" x="86" y="97" width="128" height="63">
<path d="M86.7654 97.412H214V159.783H86.7654V97.412Z" fill="white"/>
</mask>
<g mask="url(#mask3_75_178)">
<path d="M99.2781 97.9578H201.833C205.268 97.9578 208.386 99.3563 210.647 101.617C212.903 103.878 214.307 106.992 214.307 110.432V147.153C214.307 150.593 212.903 153.707 210.647 155.967C208.386 158.228 205.268 159.627 201.833 159.627H182.43V152.698H201.833C203.353 152.698 204.742 152.074 205.745 151.066C206.754 150.062 207.378 148.678 207.378 147.153V110.432C207.378 108.907 206.754 107.523 205.745 106.519C204.742 105.511 203.353 104.887 201.833 104.887H99.2781C97.7578 104.887 96.374 105.511 95.3653 106.519C94.3616 107.523 93.7379 108.907 93.7379 110.432V147.153C93.7379 148.678 94.3616 150.062 95.3653 151.066C96.374 152.074 97.7578 152.698 99.2781 152.698H118.681V159.627H99.2781C95.8477 159.627 92.7243 158.228 90.4634 155.967C88.2074 153.707 86.8041 150.593 86.8041 147.153V110.432C86.8041 106.992 88.2074 103.878 90.4634 101.617C92.7243 99.3563 95.8477 97.9578 99.2781 97.9578Z" fill="#376FB7"/>
</g>
<mask id="mask4_75_178" style="mask-type:luminance" maskUnits="userSpaceOnUse" x="114" y="74" width="73" height="31">
<path d="M114.091 74.0475H186.44V104.897H114.091V74.0475Z" fill="white"/>
</mask>
<g mask="url(#mask4_75_178)">
<path d="M122.145 97.9579H178.965V82.4042C178.965 82.0144 178.804 81.6587 178.546 81.4004L178.551 81.3955C178.293 81.1373 177.937 80.9814 177.542 80.9814H123.573C123.183 80.9814 122.827 81.1373 122.564 81.4004C122.306 81.6587 122.145 82.0144 122.145 82.4042V97.9579ZM182.43 104.887H115.216V82.4042C115.216 80.0994 116.152 78.0139 117.667 76.5033C119.178 74.9879 121.268 74.0475 123.573 74.0475H177.542C179.833 74.0475 181.918 74.9879 183.433 76.5033H183.443C184.954 78.0139 185.899 80.0994 185.899 82.4042V104.887H182.43Z" fill="#376FB7"/>
</g>
<mask id="mask5_75_178" style="mask-type:luminance" maskUnits="userSpaceOnUse" x="114" y="131" width="73" height="59">
<path d="M114.091 131.092H186.44V189.122H114.091V131.092Z" fill="white"/>
</mask>
<g mask="url(#mask5_75_178)">
<path d="M118.681 131.911H185.899V179.814C185.899 182.27 184.89 184.502 183.278 186.115C181.665 187.733 179.433 188.732 176.977 188.732H124.133C121.677 188.732 119.451 187.733 117.833 186.115C116.22 184.502 115.216 182.27 115.216 179.814V131.911H118.681ZM178.965 138.84H122.145V179.814C122.145 180.355 122.369 180.857 122.735 181.218C123.091 181.578 123.592 181.803 124.133 181.803H176.977C177.518 181.803 178.015 181.578 178.38 181.218C178.741 180.857 178.965 180.355 178.965 179.814V138.84Z" fill="#376FB7"/>
</g>
<path d="M112 117.498C112 118.095 111.885 118.669 111.656 119.223C111.427 119.773 111.102 120.26 110.682 120.681C110.261 121.106 109.774 121.431 109.22 121.656C108.67 121.885 108.097 122 107.5 122C106.903 122 106.33 121.885 105.78 121.656C105.226 121.431 104.739 121.106 104.318 120.681C103.898 120.26 103.573 119.773 103.344 119.223C103.115 118.669 103 118.095 103 117.498C103 116.9 103.115 116.327 103.344 115.777C103.573 115.227 103.898 114.74 104.318 114.314C104.739 113.894 105.226 113.569 105.78 113.339C106.33 113.11 106.903 113 107.5 113C108.097 113 108.67 113.11 109.22 113.339C109.774 113.569 110.261 113.894 110.682 114.314C111.102 114.74 111.427 115.227 111.656 115.777C111.885 116.327 112 116.9 112 117.498Z" fill="#376FB7"/>
<path d="M110.48 139C108.556 139 107 137.43 107 135.5C107 133.565 108.556 132 110.48 132H190.525C192.444 132 194 133.565 194 135.5C194 137.43 192.444 139 190.525 139H110.48Z" fill="#376FB7"/>
</g>
<defs>
<filter id="filter0_d_75_178" x="0" y="0" width="252" height="252" filterUnits="userSpaceOnUse" color-interpolation-filters="sRGB">
<feFlood flood-opacity="0" result="BackgroundImageFix"/>
<feColorMatrix in="SourceAlpha" type="matrix" values="0 0 0 0 0 0 0 0 0 0 0 0 0 0 0 0 0 0 127 0" result="hardAlpha"/>
<feOffset dy="4"/>
<feGaussianBlur stdDeviation="2"/>
<feComposite in2="hardAlpha" operator="out"/>
<feColorMatrix type="matrix" values="0 0 0 0 0 0 0 0 0 0 0 0 0 0 0 0 0 0 0.25 0"/>
<feBlend mode="normal" in2="BackgroundImageFix" result="effect1_dropShadow_75_178"/>
<feBlend mode="normal" in="SourceGraphic" in2="effect1_dropShadow_75_178" result="shape"/>
</filter>
</defs>
</svg>
