<svg width="152" height="152" viewBox="0 0 152 152" fill="none" xmlns="http://www.w3.org/2000/svg">
<g filter="url(#filter0_d_181_199)">
<mask id="mask0_181_199" style="mask-type:luminance" maskUnits="userSpaceOnUse" x="4" y="0" width="144" height="144">
<path d="M4 0H148V144H4V0Z" fill="white"/>
</mask>
<g mask="url(#mask0_181_199)">
<mask id="mask1_181_199" style="mask-type:luminance" maskUnits="userSpaceOnUse" x="4" y="0" width="144" height="144">
<path d="M75.9991 0C36.236 0 4 32.2345 4 72C4 111.765 36.236 144 75.9991 144C115.764 144 148 111.765 148 72C148 32.2345 115.764 0 75.9991 0Z" fill="white"/>
</mask>
<g mask="url(#mask1_181_199)">
<path d="M4 0H148V144H4V0Z" fill="#F1FCFD"/>
</g>
</g>
<mask id="mask2_181_199" style="mask-type:luminance" maskUnits="userSpaceOnUse" x="38" y="26" width="35" height="28">
<path d="M38.6517 26.2011H72.211V53.7444H38.6517V26.2011Z" fill="white"/>
</mask>
<g mask="url(#mask2_181_199)">
<path d="M66.56 49.1763C66.2836 48.8999 65.8993 48.7276 65.4753 48.7276C65.0512 48.7276 64.6688 48.8999 64.3905 49.1763C64.1141 49.4546 63.9418 49.837 63.9418 50.2611C63.9418 50.6851 64.1141 51.0694 64.3905 51.3458C64.6688 51.6241 65.0512 51.7945 65.4753 51.7945C65.8993 51.7945 66.2836 51.6241 66.56 51.3458C66.8383 51.0694 67.0106 50.6851 67.0106 50.2611C67.0106 49.837 66.8383 49.4546 66.56 49.1763ZM48.1703 35.0875C48.9464 32.7911 50.3701 30.7939 52.2234 29.3172C54.357 27.6172 57.0603 26.6006 59.9947 26.6006C62.893 26.6006 65.5642 27.5926 67.6883 29.2585C69.854 30.9567 71.4443 33.3553 72.1201 36.1155L69.5833 36.7289C69.0514 34.5499 67.7943 32.6548 66.0829 31.3126C64.4094 30.0007 62.2948 29.2188 59.9947 29.2188C57.6699 29.2188 55.5345 30.0215 53.8496 31.3637C52.4184 32.5034 51.3109 34.0312 50.69 35.7842C50.9815 35.9186 51.2655 36.0682 51.54 36.2348C52.8292 37.0147 53.8875 38.1393 54.5879 39.4796L52.2783 40.6856C51.7975 39.7674 51.0724 38.9988 50.1902 38.463C49.344 37.9519 48.3425 37.6565 47.2654 37.6565C45.7054 37.6565 44.2932 38.2888 43.2709 39.3111C42.2505 40.3315 41.6182 41.7438 41.6182 43.3038C41.6182 44.8637 42.2505 46.276 43.2709 47.2983C44.2932 48.3206 45.7054 48.9529 47.2654 48.9529H62.2323C62.4084 48.5137 62.6734 48.118 63.0028 47.7886C63.6351 47.1563 64.5098 46.7644 65.4753 46.7644C66.4407 46.7644 67.3154 47.1563 67.9477 47.7886C68.5819 48.4209 68.9737 49.2956 68.9737 50.2611C68.9737 51.2266 68.5819 52.1012 67.9477 52.7354C67.3154 53.3677 66.4407 53.7596 65.4753 53.7596C64.5098 53.7596 63.6351 53.3677 63.0028 52.7354C62.6734 52.4041 62.4084 52.0103 62.2323 51.5711H47.2654C44.9841 51.5711 42.9169 50.6454 41.4213 49.1498C39.9257 47.6542 39 45.5869 39 43.3038C39 41.0225 39.9257 38.9552 41.4213 37.4596C42.9169 35.9641 44.9841 35.0383 47.2654 35.0383C47.5701 35.0383 47.873 35.0553 48.1703 35.0875Z" fill="#376FB7"/>
</g>
<mask id="mask3_181_199" style="mask-type:luminance" maskUnits="userSpaceOnUse" x="57" y="42" width="51" height="25">
<path d="M57.5981 42.679H107.031V66.9112H57.5981V42.679Z" fill="white"/>
</mask>
<g mask="url(#mask3_181_199)">
<path d="M62.4594 42.891H102.304C103.639 42.891 104.85 43.4344 105.729 44.3128C106.605 45.1912 107.15 46.4009 107.15 47.7375V62.0042C107.15 63.3408 106.605 64.5505 105.729 65.4289C104.85 66.3073 103.639 66.8506 102.304 66.8506H94.7655V64.1586H102.304C102.895 64.1586 103.434 63.9163 103.824 63.5244C104.216 63.1344 104.458 62.5967 104.458 62.0042V47.7375C104.458 47.1449 104.216 46.6073 103.824 46.2173C103.434 45.8254 102.895 45.5831 102.304 45.5831H62.4594C61.8688 45.5831 61.3311 45.8254 60.9392 46.2173C60.5493 46.6073 60.3069 47.1449 60.3069 47.7375V62.0042C60.3069 62.5967 60.5493 63.1344 60.9392 63.5244C61.3311 63.9163 61.8688 64.1586 62.4594 64.1586H69.9978V66.8506H62.4594C61.1267 66.8506 59.9132 66.3073 59.0348 65.4289C58.1583 64.5505 57.613 63.3408 57.613 62.0042V47.7375C57.613 46.4009 58.1583 45.1912 59.0348 44.3128C59.9132 43.4344 61.1267 42.891 62.4594 42.891Z" fill="#376FB7"/>
</g>
<mask id="mask4_181_199" style="mask-type:luminance" maskUnits="userSpaceOnUse" x="68" y="33" width="29" height="13">
<path d="M68.2146 33.6014H96.3236V45.5869H68.2146V33.6014Z" fill="white"/>
</mask>
<g mask="url(#mask4_181_199)">
<path d="M71.3439 42.891H93.4195V36.8481C93.4195 36.6967 93.357 36.5585 93.2567 36.4581L93.2586 36.4563C93.1583 36.3559 93.0201 36.2953 92.8667 36.2953H71.8986C71.7471 36.2953 71.6089 36.3559 71.5067 36.4581C71.4063 36.5585 71.3439 36.6967 71.3439 36.8481V42.891ZM94.7655 45.5831H68.6519V36.8481C68.6519 35.9527 69.0153 35.1424 69.6041 34.5555C70.191 33.9668 71.0031 33.6014 71.8986 33.6014H92.8667C93.7565 33.6014 94.5668 33.9668 95.1555 34.5555H95.1593C95.7462 35.1424 96.1134 35.9527 96.1134 36.8481V45.5831H94.7655Z" fill="#376FB7"/>
</g>
<mask id="mask5_181_199" style="mask-type:luminance" maskUnits="userSpaceOnUse" x="68" y="55" width="29" height="24">
<path d="M68.2146 55.7644H96.3236V78.3098H68.2146V55.7644Z" fill="white"/>
</mask>
<g mask="url(#mask5_181_199)">
<path d="M69.9979 56.0825H96.1134V74.694C96.1134 75.6481 95.7216 76.5152 95.0949 77.1418C94.4683 77.7703 93.6013 78.1584 92.6471 78.1584H72.1163C71.1621 78.1584 70.297 77.7703 69.6685 77.1418C69.0418 76.5152 68.6519 75.6481 68.6519 74.694V56.0825H69.9979ZM93.4195 58.7745H71.3439V74.694C71.3439 74.9041 71.431 75.0991 71.5729 75.2392C71.7111 75.3793 71.9061 75.4664 72.1163 75.4664H92.6471C92.8573 75.4664 93.0504 75.3793 93.1923 75.2392C93.3324 75.0991 93.4195 74.9041 93.4195 74.694V58.7745Z" fill="#376FB7"/>
</g>
<path d="M67.4912 50.2591C67.4912 50.4958 67.4458 50.723 67.3549 50.9426C67.264 51.1603 67.1353 51.3534 66.9687 51.52C66.8021 51.6885 66.609 51.8172 66.3894 51.9062C66.1717 51.997 65.9445 52.0425 65.7079 52.0425C65.4712 52.0425 65.2441 51.997 65.0264 51.9062C64.8068 51.8172 64.6137 51.6885 64.4471 51.52C64.2805 51.3534 64.1517 51.1603 64.0609 50.9426C63.97 50.723 63.9246 50.4958 63.9246 50.2591C63.9246 50.0225 63.97 49.7953 64.0609 49.5776C64.1517 49.3599 64.2805 49.1668 64.4471 48.9983C64.6137 48.8317 64.8068 48.703 65.0264 48.6121C65.2441 48.5212 65.4712 48.4777 65.7079 48.4777C65.9445 48.4777 66.1717 48.5212 66.3894 48.6121C66.609 48.703 66.8021 48.8317 66.9687 48.9983C67.1353 49.1668 67.264 49.3599 67.3549 49.5776C67.4458 49.7953 67.4912 50.0225 67.4912 50.2591Z" fill="#376FB7"/>
<path d="M66.9007 58.7745C66.1567 58.7745 65.5547 58.1706 65.5547 57.4285C65.5547 56.6845 66.1567 56.0825 66.9007 56.0825H97.8645C98.6066 56.0825 99.2086 56.6845 99.2086 57.4285C99.2086 58.1706 98.6066 58.7745 97.8645 58.7745H66.9007Z" fill="#376FB7"/>
<path d="M66.1677 107.287C70.1736 107.287 72.6346 105.381 72.6346 102.195C72.6346 99.5158 70.874 97.9236 66.6732 96.9335C64.091 96.3315 63.1993 95.6784 63.1993 94.6409C63.1993 93.5315 64.1875 92.8557 65.8042 92.8557C67.5667 92.8557 68.6288 93.772 68.6288 95.2922H72.3223C72.3223 91.8902 69.7628 89.7169 65.7569 89.7169C61.8703 89.7169 59.4566 91.6251 59.4566 94.7129C59.4566 97.4655 61.3157 99.1068 65.2742 99.9512C67.6633 100.459 68.7499 101.157 68.7499 102.34C68.7499 103.474 67.7352 104.126 66.1431 104.126C64.2841 104.126 63.0782 103.185 63.0782 101.568H59.3127C59.3127 105.068 61.9196 107.287 66.1677 107.287Z" fill="#2C63A8"/>
<path d="M75.0223 106.95H78.8597V100.12H80.8872C81.2015 100.12 81.4665 100.12 81.7562 100.095L85.3758 106.95H89.8417L85.2793 98.6714C85.9551 98.0202 86.4625 97.1758 86.896 96.0646L89.2378 90.0557H85.0862L83.494 94.4478C82.9147 96.0418 82.2143 96.5473 80.3079 96.5473H78.8597V90.0557H75.0223V106.95Z" fill="#2C63A8"/>
<path d="M96.2587 106.95H100.096V100.989L106.298 90.0557H101.93L99.8556 93.9651L98.1897 97.0301L96.4991 93.9651L94.3997 90.0557H90.0322L96.2587 101.038V106.95Z" fill="#2C63A8"/>
<path d="M56.4478 115.175C56.9628 115.175 57.3641 115.3 57.6519 115.546C57.9434 115.788 58.0911 116.125 58.0911 116.553C58.0911 116.983 57.9434 117.318 57.6519 117.56C57.3641 117.802 56.9628 117.924 56.4478 117.924H55.3725V119.196H54.9485V115.175H56.4478ZM56.4403 117.552C56.8378 117.552 57.1407 117.467 57.349 117.295C57.561 117.119 57.667 116.871 57.667 116.553C57.667 116.225 57.561 115.975 57.349 115.803C57.1407 115.627 56.8378 115.538 56.4403 115.538H55.3725V117.552H56.4403Z" fill="#2C63A8"/>
<path d="M65.7223 119.196L64.806 117.901C64.7 117.916 64.5902 117.924 64.4804 117.924H63.4051V119.196H62.9811V115.175H64.4804C64.9954 115.175 65.3967 115.3 65.6845 115.546C65.976 115.788 66.1237 116.125 66.1237 116.553C66.1237 116.867 66.0423 117.132 65.8813 117.348C65.7242 117.566 65.4989 117.723 65.2074 117.818L66.1918 119.196H65.7223ZM64.4729 117.56C64.8704 117.56 65.1733 117.473 65.3816 117.295C65.5936 117.119 65.6996 116.871 65.6996 116.553C65.6996 116.225 65.5936 115.975 65.3816 115.803C65.1733 115.627 64.8704 115.538 64.4729 115.538H63.4051V117.56H64.4729Z" fill="#2C63A8"/>
<path d="M71.0426 115.175H71.4667V119.196H71.0426V115.175Z" fill="#2C63A8"/>
<path d="M80.0476 115.175V119.196H79.6917L77.1095 115.932V119.196H76.6854V115.175H77.0338L79.6235 118.438V115.175H80.0476Z" fill="#2C63A8"/>
<path d="M86.0439 115.538H84.6278V115.175H87.884V115.538H86.4679V119.196H86.0439V115.538Z" fill="#2C63A8"/>
<path d="M92.4695 115.175H92.8935V119.196H92.4695V115.175Z" fill="#2C63A8"/>
<path d="M101.474 115.175V119.196H101.119L98.5364 115.932V119.196H98.1123V115.175H98.4606L101.05 118.438V115.175H101.474Z" fill="#2C63A8"/>
<path d="M109.523 117.181H109.932V118.719C109.739 118.885 109.515 119.014 109.258 119.105C109.004 119.192 108.737 119.234 108.455 119.234C108.05 119.234 107.686 119.147 107.365 118.969C107.041 118.792 106.785 118.548 106.6 118.234C106.418 117.922 106.327 117.571 106.327 117.181C106.327 116.799 106.418 116.451 106.6 116.136C106.785 115.824 107.041 115.58 107.365 115.402C107.686 115.226 108.05 115.137 108.455 115.137C108.762 115.137 109.046 115.188 109.303 115.288C109.561 115.385 109.776 115.529 109.954 115.72L109.689 115.985C109.371 115.673 108.966 115.515 108.478 115.515C108.148 115.515 107.853 115.589 107.592 115.735C107.329 115.877 107.122 116.076 106.971 116.333C106.823 116.587 106.751 116.869 106.751 117.181C106.751 117.499 106.823 117.785 106.971 118.037C107.122 118.291 107.327 118.49 107.584 118.635C107.845 118.777 108.141 118.847 108.47 118.847C108.883 118.847 109.235 118.745 109.523 118.537V117.181Z" fill="#2C63A8"/>
</g>
<defs>
<filter id="filter0_d_181_199" x="0" y="0" width="152" height="152" filterUnits="userSpaceOnUse" color-interpolation-filters="sRGB">
<feFlood flood-opacity="0" result="BackgroundImageFix"/>
<feColorMatrix in="SourceAlpha" type="matrix" values="0 0 0 0 0 0 0 0 0 0 0 0 0 0 0 0 0 0 127 0" result="hardAlpha"/>
<feOffset dy="4"/>
<feGaussianBlur stdDeviation="2"/>
<feComposite in2="hardAlpha" operator="out"/>
<feColorMatrix type="matrix" values="0 0 0 0 0 0 0 0 0 0 0 0 0 0 0 0 0 0 0.25 0"/>
<feBlend mode="normal" in2="BackgroundImageFix" result="effect1_dropShadow_181_199"/>
<feBlend mode="normal" in="SourceGraphic" in2="effect1_dropShadow_181_199" result="shape"/>
</filter>
</defs>
</svg>
