<svg width="1280" height="1009" viewBox="0 0 1280 1009" fill="none" xmlns="http://www.w3.org/2000/svg">
<rect x="0.5" y="0.5" width="1279" height="1008" rx="31.5" fill="#FCFDFF"/>
<rect x="29.5" y="438.5" width="295" height="286" rx="31.5" fill="#D20F39" fill-opacity="0.5"/>
<path d="M107.805 541V506.091H128.737V509.841H112.033V521.636H127.169V525.386H112.033V541H107.805ZM139.455 506.091V541H135.432V506.091H139.455ZM163.322 530.295V514.818H167.345V541H163.322V536.568H163.05C162.436 537.898 161.482 539.028 160.186 539.96C158.891 540.881 157.254 541.341 155.277 541.341C153.641 541.341 152.186 540.983 150.913 540.267C149.641 539.54 148.641 538.449 147.913 536.994C147.186 535.528 146.822 533.682 146.822 531.455V514.818H150.845V531.182C150.845 533.091 151.379 534.614 152.447 535.75C153.527 536.886 154.902 537.455 156.572 537.455C157.572 537.455 158.589 537.199 159.624 536.688C160.669 536.176 161.544 535.392 162.249 534.335C162.964 533.278 163.322 531.932 163.322 530.295ZM186.099 514.818V518.227H172.531V514.818H186.099ZM176.486 508.545H180.509V533.5C180.509 534.636 180.673 535.489 181.003 536.057C181.344 536.614 181.776 536.989 182.298 537.182C182.832 537.364 183.395 537.455 183.986 537.455C184.429 537.455 184.793 537.432 185.077 537.386C185.361 537.33 185.588 537.284 185.759 537.25L186.577 540.864C186.304 540.966 185.923 541.068 185.435 541.17C184.946 541.284 184.327 541.341 183.577 541.341C182.44 541.341 181.327 541.097 180.236 540.608C179.156 540.119 178.259 539.375 177.543 538.375C176.838 537.375 176.486 536.114 176.486 534.591V508.545ZM203.537 514.818V518.227H189.969V514.818H203.537ZM193.923 508.545H197.946V533.5C197.946 534.636 198.111 535.489 198.44 536.057C198.781 536.614 199.213 536.989 199.736 537.182C200.27 537.364 200.832 537.455 201.423 537.455C201.866 537.455 202.23 537.432 202.514 537.386C202.798 537.33 203.026 537.284 203.196 537.25L204.014 540.864C203.741 540.966 203.361 541.068 202.872 541.17C202.384 541.284 201.764 541.341 201.014 541.341C199.878 541.341 198.764 541.097 197.673 540.608C196.594 540.119 195.696 539.375 194.98 538.375C194.276 537.375 193.923 536.114 193.923 534.591V508.545ZM220.284 541.545C217.761 541.545 215.585 540.989 213.756 539.875C211.938 538.75 210.534 537.182 209.545 535.17C208.568 533.148 208.08 530.795 208.08 528.114C208.08 525.432 208.568 523.068 209.545 521.023C210.534 518.966 211.909 517.364 213.67 516.216C215.443 515.057 217.511 514.477 219.875 514.477C221.239 514.477 222.585 514.705 223.915 515.159C225.244 515.614 226.455 516.352 227.545 517.375C228.636 518.386 229.506 519.727 230.153 521.398C230.801 523.068 231.125 525.125 231.125 527.568V529.273H210.943V525.795H227.034C227.034 524.318 226.739 523 226.148 521.841C225.568 520.682 224.739 519.767 223.659 519.097C222.591 518.426 221.33 518.091 219.875 518.091C218.273 518.091 216.886 518.489 215.716 519.284C214.557 520.068 213.665 521.091 213.04 522.352C212.415 523.614 212.102 524.966 212.102 526.409V528.727C212.102 530.705 212.443 532.381 213.125 533.756C213.818 535.119 214.778 536.159 216.006 536.875C217.233 537.58 218.659 537.932 220.284 537.932C221.341 537.932 222.295 537.784 223.148 537.489C224.011 537.182 224.756 536.727 225.381 536.125C226.006 535.511 226.489 534.75 226.83 533.841L230.716 534.932C230.307 536.25 229.619 537.409 228.653 538.409C227.688 539.398 226.494 540.17 225.074 540.727C223.653 541.273 222.057 541.545 220.284 541.545ZM237.244 541V514.818H241.131V518.773H241.403C241.881 517.477 242.744 516.426 243.994 515.619C245.244 514.812 246.653 514.409 248.222 514.409C248.517 514.409 248.886 514.415 249.33 514.426C249.773 514.437 250.108 514.455 250.335 514.477V518.568C250.199 518.534 249.886 518.483 249.398 518.415C248.92 518.335 248.415 518.295 247.881 518.295C246.608 518.295 245.472 518.562 244.472 519.097C243.483 519.619 242.699 520.347 242.119 521.278C241.551 522.199 241.267 523.25 241.267 524.432V541H237.244ZM93.7557 575H89.5284C89.2784 573.784 88.8409 572.716 88.2159 571.795C87.6023 570.875 86.8523 570.102 85.9659 569.477C85.0909 568.841 84.1193 568.364 83.0511 568.045C81.983 567.727 80.8693 567.568 79.7102 567.568C77.5966 567.568 75.6818 568.102 73.9659 569.17C72.2614 570.239 70.9034 571.812 69.892 573.892C68.892 575.972 68.392 578.523 68.392 581.545C68.392 584.568 68.892 587.119 69.892 589.199C70.9034 591.278 72.2614 592.852 73.9659 593.92C75.6818 594.989 77.5966 595.523 79.7102 595.523C80.8693 595.523 81.983 595.364 83.0511 595.045C84.1193 594.727 85.0909 594.256 85.9659 593.631C86.8523 592.994 87.6023 592.216 88.2159 591.295C88.8409 590.364 89.2784 589.295 89.5284 588.091H93.7557C93.4375 589.875 92.858 591.472 92.017 592.881C91.1761 594.29 90.1307 595.489 88.8807 596.477C87.6307 597.455 86.2273 598.199 84.6705 598.71C83.125 599.222 81.4716 599.477 79.7102 599.477C76.733 599.477 74.0852 598.75 71.767 597.295C69.4489 595.841 67.625 593.773 66.2955 591.091C64.9659 588.409 64.3011 585.227 64.3011 581.545C64.3011 577.864 64.9659 574.682 66.2955 572C67.625 569.318 69.4489 567.25 71.767 565.795C74.0852 564.341 76.733 563.614 79.7102 563.614C81.4716 563.614 83.125 563.869 84.6705 564.381C86.2273 564.892 87.6307 565.642 88.8807 566.631C90.1307 567.608 91.1761 568.801 92.017 570.21C92.858 571.608 93.4375 573.205 93.7557 575ZM110.678 599.545C108.314 599.545 106.24 598.983 104.456 597.858C102.683 596.733 101.297 595.159 100.297 593.136C99.3082 591.114 98.8139 588.75 98.8139 586.045C98.8139 583.318 99.3082 580.937 100.297 578.903C101.297 576.869 102.683 575.29 104.456 574.165C106.24 573.04 108.314 572.477 110.678 572.477C113.041 572.477 115.109 573.04 116.882 574.165C118.666 575.29 120.053 576.869 121.041 578.903C122.041 580.937 122.541 583.318 122.541 586.045C122.541 588.75 122.041 591.114 121.041 593.136C120.053 595.159 118.666 596.733 116.882 597.858C115.109 598.983 113.041 599.545 110.678 599.545ZM110.678 595.932C112.473 595.932 113.95 595.472 115.109 594.551C116.268 593.631 117.126 592.42 117.683 590.92C118.24 589.42 118.518 587.795 118.518 586.045C118.518 584.295 118.24 582.665 117.683 581.153C117.126 579.642 116.268 578.42 115.109 577.489C113.95 576.557 112.473 576.091 110.678 576.091C108.882 576.091 107.405 576.557 106.246 577.489C105.087 578.42 104.229 579.642 103.672 581.153C103.115 582.665 102.837 584.295 102.837 586.045C102.837 587.795 103.115 589.42 103.672 590.92C104.229 592.42 105.087 593.631 106.246 594.551C107.405 595.472 108.882 595.932 110.678 595.932ZM132.705 583.25V599H128.682V572.818H132.568V576.909H132.909C133.523 575.58 134.455 574.511 135.705 573.705C136.955 572.886 138.568 572.477 140.545 572.477C142.318 572.477 143.869 572.841 145.199 573.568C146.528 574.284 147.563 575.375 148.301 576.841C149.04 578.295 149.409 580.136 149.409 582.364V599H145.386V582.636C145.386 580.58 144.852 578.977 143.784 577.83C142.716 576.67 141.25 576.091 139.386 576.091C138.102 576.091 136.955 576.369 135.943 576.926C134.943 577.483 134.153 578.295 133.574 579.364C132.994 580.432 132.705 581.727 132.705 583.25ZM175.305 578.682L171.692 579.705C171.464 579.102 171.129 578.517 170.686 577.949C170.254 577.369 169.663 576.892 168.913 576.517C168.163 576.142 167.203 575.955 166.033 575.955C164.43 575.955 163.095 576.324 162.027 577.062C160.97 577.79 160.442 578.716 160.442 579.841C160.442 580.841 160.805 581.631 161.533 582.21C162.26 582.79 163.396 583.273 164.942 583.659L168.828 584.614C171.169 585.182 172.913 586.051 174.061 587.222C175.209 588.381 175.783 589.875 175.783 591.705C175.783 593.205 175.351 594.545 174.487 595.727C173.635 596.909 172.442 597.841 170.908 598.523C169.374 599.205 167.589 599.545 165.555 599.545C162.885 599.545 160.675 598.966 158.925 597.807C157.175 596.648 156.067 594.955 155.601 592.727L159.419 591.773C159.783 593.182 160.47 594.239 161.482 594.943C162.504 595.648 163.839 596 165.487 596C167.362 596 168.851 595.602 169.953 594.807C171.067 594 171.624 593.034 171.624 591.909C171.624 591 171.305 590.239 170.669 589.625C170.033 589 169.055 588.534 167.737 588.227L163.374 587.205C160.976 586.636 159.214 585.756 158.089 584.562C156.976 583.358 156.419 581.852 156.419 580.045C156.419 578.568 156.834 577.261 157.663 576.125C158.504 574.989 159.646 574.097 161.089 573.449C162.544 572.801 164.192 572.477 166.033 572.477C168.624 572.477 170.658 573.045 172.135 574.182C173.624 575.318 174.68 576.818 175.305 578.682ZM198.338 588.295V572.818H202.361V599H198.338V594.568H198.065C197.452 595.898 196.497 597.028 195.202 597.96C193.906 598.881 192.27 599.341 190.293 599.341C188.656 599.341 187.202 598.983 185.929 598.267C184.656 597.54 183.656 596.449 182.929 594.994C182.202 593.528 181.838 591.682 181.838 589.455V572.818H185.861V589.182C185.861 591.091 186.395 592.614 187.463 593.75C188.543 594.886 189.918 595.455 191.588 595.455C192.588 595.455 193.605 595.199 194.639 594.688C195.685 594.176 196.56 593.392 197.264 592.335C197.98 591.278 198.338 589.932 198.338 588.295ZM209.729 599V572.818H213.615V576.909H213.956C214.501 575.511 215.382 574.426 216.598 573.653C217.814 572.869 219.274 572.477 220.979 572.477C222.706 572.477 224.143 572.869 225.291 573.653C226.45 574.426 227.354 575.511 228.001 576.909H228.274C228.945 575.557 229.95 574.483 231.291 573.688C232.632 572.881 234.24 572.477 236.115 572.477C238.456 572.477 240.371 573.21 241.859 574.676C243.348 576.131 244.092 578.398 244.092 581.477V599H240.07V581.477C240.07 579.545 239.541 578.165 238.484 577.335C237.428 576.506 236.183 576.091 234.751 576.091C232.911 576.091 231.484 576.648 230.473 577.761C229.462 578.864 228.956 580.261 228.956 581.955V599H224.865V581.068C224.865 579.58 224.382 578.381 223.416 577.472C222.45 576.551 221.206 576.091 219.683 576.091C218.638 576.091 217.661 576.369 216.751 576.926C215.854 577.483 215.126 578.256 214.57 579.244C214.024 580.222 213.751 581.352 213.751 582.636V599H209.729ZM262.425 599.545C259.902 599.545 257.726 598.989 255.896 597.875C254.078 596.75 252.675 595.182 251.686 593.17C250.709 591.148 250.22 588.795 250.22 586.114C250.22 583.432 250.709 581.068 251.686 579.023C252.675 576.966 254.05 575.364 255.811 574.216C257.584 573.057 259.652 572.477 262.016 572.477C263.379 572.477 264.726 572.705 266.055 573.159C267.385 573.614 268.595 574.352 269.686 575.375C270.777 576.386 271.646 577.727 272.294 579.398C272.942 581.068 273.266 583.125 273.266 585.568V587.273H253.084V583.795H269.175C269.175 582.318 268.879 581 268.288 579.841C267.709 578.682 266.879 577.767 265.8 577.097C264.732 576.426 263.47 576.091 262.016 576.091C260.413 576.091 259.027 576.489 257.857 577.284C256.697 578.068 255.805 579.091 255.18 580.352C254.555 581.614 254.243 582.966 254.243 584.409V586.727C254.243 588.705 254.584 590.381 255.266 591.756C255.959 593.119 256.919 594.159 258.146 594.875C259.374 595.58 260.8 595.932 262.425 595.932C263.482 595.932 264.436 595.784 265.288 595.489C266.152 595.182 266.896 594.727 267.521 594.125C268.146 593.511 268.629 592.75 268.97 591.841L272.857 592.932C272.447 594.25 271.76 595.409 270.794 596.409C269.828 597.398 268.635 598.17 267.214 598.727C265.794 599.273 264.197 599.545 262.425 599.545ZM279.385 599V572.818H283.271V576.773H283.544C284.021 575.477 284.885 574.426 286.135 573.619C287.385 572.812 288.794 572.409 290.362 572.409C290.658 572.409 291.027 572.415 291.47 572.426C291.913 572.437 292.249 572.455 292.476 572.477V576.568C292.339 576.534 292.027 576.483 291.538 576.415C291.061 576.335 290.555 576.295 290.021 576.295C288.749 576.295 287.612 576.562 286.612 577.097C285.624 577.619 284.839 578.347 284.26 579.278C283.692 580.199 283.408 581.25 283.408 582.432V599H279.385ZM99.6449 639.545C99.6449 635.25 100.202 631.301 101.315 627.699C102.44 624.085 104.043 620.761 106.122 617.727H109.668C108.849 618.852 108.082 620.239 107.366 621.886C106.662 623.523 106.043 625.324 105.509 627.29C104.974 629.244 104.554 631.267 104.247 633.358C103.952 635.449 103.804 637.511 103.804 639.545C103.804 642.25 104.065 644.994 104.588 647.778C105.111 650.562 105.815 653.148 106.702 655.534C107.588 657.92 108.577 659.864 109.668 661.364H106.122C104.043 658.33 102.44 655.011 101.315 651.409C100.202 647.795 99.6449 643.841 99.6449 639.545ZM144.24 633H140.013C139.763 631.784 139.325 630.716 138.7 629.795C138.087 628.875 137.337 628.102 136.45 627.477C135.575 626.841 134.604 626.364 133.536 626.045C132.467 625.727 131.354 625.568 130.195 625.568C128.081 625.568 126.166 626.102 124.45 627.17C122.746 628.239 121.388 629.812 120.376 631.892C119.376 633.972 118.876 636.523 118.876 639.545C118.876 642.568 119.376 645.119 120.376 647.199C121.388 649.278 122.746 650.852 124.45 651.92C126.166 652.989 128.081 653.523 130.195 653.523C131.354 653.523 132.467 653.364 133.536 653.045C134.604 652.727 135.575 652.256 136.45 651.631C137.337 650.994 138.087 650.216 138.7 649.295C139.325 648.364 139.763 647.295 140.013 646.091H144.24C143.922 647.875 143.342 649.472 142.501 650.881C141.661 652.29 140.615 653.489 139.365 654.477C138.115 655.455 136.712 656.199 135.155 656.71C133.609 657.222 131.956 657.477 130.195 657.477C127.217 657.477 124.57 656.75 122.251 655.295C119.933 653.841 118.109 651.773 116.78 649.091C115.45 646.409 114.786 643.227 114.786 639.545C114.786 635.864 115.45 632.682 116.78 630C118.109 627.318 119.933 625.25 122.251 623.795C124.57 622.341 127.217 621.614 130.195 621.614C131.956 621.614 133.609 621.869 135.155 622.381C136.712 622.892 138.115 623.642 139.365 624.631C140.615 625.608 141.661 626.801 142.501 628.21C143.342 629.608 143.922 631.205 144.24 633ZM154.548 622.091V657H150.526V622.091H154.548ZM161.916 657V630.818H165.939V657H161.916ZM163.962 626.455C163.178 626.455 162.501 626.188 161.933 625.653C161.376 625.119 161.098 624.477 161.098 623.727C161.098 622.977 161.376 622.335 161.933 621.801C162.501 621.267 163.178 621 163.962 621C164.746 621 165.416 621.267 165.973 621.801C166.541 622.335 166.825 622.977 166.825 623.727C166.825 624.477 166.541 625.119 165.973 625.653C165.416 626.188 164.746 626.455 163.962 626.455ZM184.284 657.545C181.761 657.545 179.585 656.989 177.756 655.875C175.938 654.75 174.534 653.182 173.545 651.17C172.568 649.148 172.08 646.795 172.08 644.114C172.08 641.432 172.568 639.068 173.545 637.023C174.534 634.966 175.909 633.364 177.67 632.216C179.443 631.057 181.511 630.477 183.875 630.477C185.239 630.477 186.585 630.705 187.915 631.159C189.244 631.614 190.455 632.352 191.545 633.375C192.636 634.386 193.506 635.727 194.153 637.398C194.801 639.068 195.125 641.125 195.125 643.568V645.273H174.943V641.795H191.034C191.034 640.318 190.739 639 190.148 637.841C189.568 636.682 188.739 635.767 187.659 635.097C186.591 634.426 185.33 634.091 183.875 634.091C182.273 634.091 180.886 634.489 179.716 635.284C178.557 636.068 177.665 637.091 177.04 638.352C176.415 639.614 176.102 640.966 176.102 642.409V644.727C176.102 646.705 176.443 648.381 177.125 649.756C177.818 651.119 178.778 652.159 180.006 652.875C181.233 653.58 182.659 653.932 184.284 653.932C185.341 653.932 186.295 653.784 187.148 653.489C188.011 653.182 188.756 652.727 189.381 652.125C190.006 651.511 190.489 650.75 190.83 649.841L194.716 650.932C194.307 652.25 193.619 653.409 192.653 654.409C191.688 655.398 190.494 656.17 189.074 656.727C187.653 657.273 186.057 657.545 184.284 657.545ZM205.267 641.25V657H201.244V630.818H205.131V634.909H205.472C206.085 633.58 207.017 632.511 208.267 631.705C209.517 630.886 211.131 630.477 213.108 630.477C214.881 630.477 216.432 630.841 217.761 631.568C219.091 632.284 220.125 633.375 220.864 634.841C221.602 636.295 221.972 638.136 221.972 640.364V657H217.949V640.636C217.949 638.58 217.415 636.977 216.347 635.83C215.278 634.67 213.813 634.091 211.949 634.091C210.665 634.091 209.517 634.369 208.506 634.926C207.506 635.483 206.716 636.295 206.136 637.364C205.557 638.432 205.267 639.727 205.267 641.25ZM240.709 630.818V634.227H227.141V630.818H240.709ZM231.095 624.545H235.118V649.5C235.118 650.636 235.283 651.489 235.612 652.057C235.953 652.614 236.385 652.989 236.908 653.182C237.442 653.364 238.004 653.455 238.595 653.455C239.038 653.455 239.402 653.432 239.686 653.386C239.97 653.33 240.197 653.284 240.368 653.25L241.186 656.864C240.913 656.966 240.533 657.068 240.044 657.17C239.555 657.284 238.936 657.341 238.186 657.341C237.05 657.341 235.936 657.097 234.845 656.608C233.766 656.119 232.868 655.375 232.152 654.375C231.447 653.375 231.095 652.114 231.095 650.591V624.545ZM255.351 642.273C255.351 646.568 254.788 650.523 253.663 654.136C252.55 657.739 250.953 661.057 248.874 664.091H245.328C246.146 662.966 246.908 661.58 247.612 659.932C248.328 658.295 248.953 656.5 249.487 654.545C250.021 652.58 250.436 650.551 250.732 648.46C251.038 646.358 251.192 644.295 251.192 642.273C251.192 639.568 250.93 636.824 250.408 634.04C249.885 631.256 249.18 628.67 248.294 626.284C247.408 623.898 246.419 621.955 245.328 620.455H248.874C250.953 623.489 252.55 626.812 253.663 630.426C254.788 634.028 255.351 637.977 255.351 642.273Z" fill="black"/>
<rect x="29.5" y="438.5" width="295" height="286" rx="31.5" stroke="black"/>
<path d="M533.176 89.75H523.222C523.04 88.4621 522.669 87.3182 522.108 86.3182C521.547 85.303 520.828 84.4394 519.949 83.7273C519.07 83.0151 518.055 82.4697 516.903 82.0909C515.767 81.7121 514.532 81.5227 513.199 81.5227C510.79 81.5227 508.691 82.1212 506.903 83.3182C505.116 84.5 503.729 86.2273 502.744 88.5C501.759 90.7576 501.267 93.5 501.267 96.7273C501.267 100.045 501.759 102.833 502.744 105.091C503.744 107.348 505.138 109.053 506.926 110.205C508.714 111.356 510.782 111.932 513.131 111.932C514.449 111.932 515.669 111.758 516.79 111.409C517.926 111.061 518.934 110.553 519.812 109.886C520.691 109.205 521.419 108.379 521.994 107.409C522.585 106.439 522.994 105.333 523.222 104.091L533.176 104.136C532.919 106.273 532.275 108.333 531.244 110.318C530.229 112.288 528.858 114.053 527.131 115.614C525.419 117.159 523.373 118.386 520.994 119.295C518.631 120.189 515.956 120.636 512.972 120.636C508.82 120.636 505.108 119.697 501.835 117.818C498.578 115.939 496.002 113.22 494.108 109.659C492.229 106.098 491.29 101.788 491.29 96.7273C491.29 91.6515 492.244 87.3333 494.153 83.7727C496.063 80.2121 498.653 77.5 501.926 75.6364C505.199 73.7576 508.881 72.8182 512.972 72.8182C515.669 72.8182 518.169 73.197 520.472 73.9545C522.79 74.7121 524.843 75.8182 526.631 77.2727C528.419 78.7121 529.873 80.4773 530.994 82.5682C532.131 84.6591 532.858 87.053 533.176 89.75ZM555.824 120.682C552.294 120.682 549.241 119.932 546.665 118.432C544.104 116.917 542.127 114.811 540.733 112.114C539.339 109.402 538.642 106.258 538.642 102.682C538.642 99.0758 539.339 95.9242 540.733 93.2273C542.127 90.5152 544.104 88.4091 546.665 86.9091C549.241 85.3939 552.294 84.6364 555.824 84.6364C559.354 84.6364 562.4 85.3939 564.96 86.9091C567.536 88.4091 569.521 90.5152 570.915 93.2273C572.309 95.9242 573.006 99.0758 573.006 102.682C573.006 106.258 572.309 109.402 570.915 112.114C569.521 114.811 567.536 116.917 564.96 118.432C562.4 119.932 559.354 120.682 555.824 120.682ZM555.869 113.182C557.475 113.182 558.816 112.727 559.892 111.818C560.968 110.894 561.778 109.636 562.324 108.045C562.884 106.455 563.165 104.644 563.165 102.614C563.165 100.583 562.884 98.7727 562.324 97.1818C561.778 95.5909 560.968 94.3333 559.892 93.4091C558.816 92.4848 557.475 92.0227 555.869 92.0227C554.248 92.0227 552.884 92.4848 551.778 93.4091C550.688 94.3333 549.862 95.5909 549.301 97.1818C548.756 98.7727 548.483 100.583 548.483 102.614C548.483 104.644 548.756 106.455 549.301 108.045C549.862 109.636 550.688 110.894 551.778 111.818C552.884 112.727 554.248 113.182 555.869 113.182ZM588.983 99.8182V120H579.301V85.0909H588.528V91.25H588.938C589.71 89.2197 591.006 87.6136 592.824 86.4318C594.642 85.2348 596.847 84.6364 599.438 84.6364C601.862 84.6364 603.975 85.1667 605.778 86.2273C607.581 87.2879 608.983 88.803 609.983 90.7727C610.983 92.7273 611.483 95.0606 611.483 97.7727V120H601.801V99.5C601.816 97.3636 601.271 95.697 600.165 94.5C599.059 93.2879 597.536 92.6818 595.597 92.6818C594.294 92.6818 593.142 92.9621 592.142 93.5227C591.157 94.0833 590.384 94.9015 589.824 95.9773C589.278 97.0379 588.998 98.3182 588.983 99.8182ZM634.886 120.682C631.311 120.682 628.235 119.924 625.659 118.409C623.098 116.879 621.129 114.758 619.75 112.045C618.386 109.333 617.705 106.212 617.705 102.682C617.705 99.1061 618.394 95.9697 619.773 93.2727C621.167 90.5606 623.144 88.447 625.705 86.9318C628.265 85.4015 631.311 84.6364 634.841 84.6364C637.886 84.6364 640.553 85.1894 642.841 86.2955C645.129 87.4015 646.939 88.9545 648.273 90.9545C649.606 92.9545 650.341 95.303 650.477 98H641.341C641.083 96.2576 640.402 94.8561 639.295 93.7955C638.205 92.7197 636.773 92.1818 635 92.1818C633.5 92.1818 632.189 92.5909 631.068 93.4091C629.962 94.2121 629.098 95.3864 628.477 96.9318C627.856 98.4773 627.545 100.348 627.545 102.545C627.545 104.773 627.848 106.667 628.455 108.227C629.076 109.788 629.947 110.977 631.068 111.795C632.189 112.614 633.5 113.023 635 113.023C636.106 113.023 637.098 112.795 637.977 112.341C638.871 111.886 639.606 111.227 640.182 110.364C640.773 109.485 641.159 108.432 641.341 107.205H650.477C650.326 109.871 649.598 112.22 648.295 114.25C647.008 116.265 645.227 117.841 642.955 118.977C640.682 120.114 637.992 120.682 634.886 120.682ZM672.585 120.682C668.994 120.682 665.903 119.955 663.312 118.5C660.737 117.03 658.752 114.955 657.358 112.273C655.964 109.576 655.267 106.386 655.267 102.705C655.267 99.1136 655.964 95.9621 657.358 93.25C658.752 90.5379 660.714 88.4242 663.244 86.9091C665.79 85.3939 668.775 84.6364 672.199 84.6364C674.502 84.6364 676.646 85.0076 678.631 85.75C680.631 86.4773 682.373 87.5758 683.858 89.0455C685.358 90.5152 686.525 92.3636 687.358 94.5909C688.191 96.803 688.608 99.3939 688.608 102.364V105.023H659.131V99.0227H679.494C679.494 97.6288 679.191 96.3939 678.585 95.3182C677.979 94.2424 677.138 93.4015 676.062 92.7955C675.002 92.1742 673.767 91.8636 672.358 91.8636C670.888 91.8636 669.585 92.2045 668.449 92.8864C667.328 93.553 666.449 94.4545 665.812 95.5909C665.176 96.7121 664.85 97.9621 664.835 99.3409V105.045C664.835 106.773 665.153 108.265 665.79 109.523C666.441 110.78 667.358 111.75 668.54 112.432C669.722 113.114 671.123 113.455 672.744 113.455C673.82 113.455 674.805 113.303 675.699 113C676.593 112.697 677.358 112.242 677.994 111.636C678.631 111.03 679.116 110.288 679.449 109.409L688.403 110C687.949 112.152 687.017 114.03 685.608 115.636C684.214 117.227 682.411 118.47 680.199 119.364C678.002 120.242 675.464 120.682 672.585 120.682ZM694.926 133.091V85.0909H704.472V90.9545H704.903C705.328 90.0152 705.941 89.0606 706.744 88.0909C707.563 87.1061 708.623 86.2879 709.926 85.6364C711.244 84.9697 712.881 84.6364 714.835 84.6364C717.381 84.6364 719.729 85.303 721.881 86.6364C724.032 87.9545 725.752 89.947 727.04 92.6136C728.328 95.2652 728.972 98.5909 728.972 102.591C728.972 106.485 728.343 109.773 727.085 112.455C725.843 115.121 724.146 117.144 721.994 118.523C719.858 119.886 717.464 120.568 714.812 120.568C712.934 120.568 711.335 120.258 710.017 119.636C708.714 119.015 707.646 118.235 706.812 117.295C705.979 116.341 705.343 115.379 704.903 114.409H704.608V133.091H694.926ZM704.403 102.545C704.403 104.621 704.691 106.432 705.267 107.977C705.843 109.523 706.676 110.727 707.767 111.591C708.858 112.439 710.184 112.864 711.744 112.864C713.32 112.864 714.653 112.432 715.744 111.568C716.835 110.689 717.661 109.477 718.222 107.932C718.797 106.371 719.085 104.576 719.085 102.545C719.085 100.53 718.805 98.7576 718.244 97.2273C717.684 95.697 716.858 94.5 715.767 93.6364C714.676 92.7727 713.335 92.3409 711.744 92.3409C710.169 92.3409 708.835 92.7576 707.744 93.5909C706.669 94.4242 705.843 95.6061 705.267 97.1364C704.691 98.6667 704.403 100.47 704.403 102.545ZM753.994 85.0909V92.3636H732.972V85.0909H753.994ZM737.744 76.7273H747.426V109.273C747.426 110.167 747.563 110.864 747.835 111.364C748.108 111.848 748.487 112.189 748.972 112.386C749.472 112.583 750.047 112.682 750.699 112.682C751.153 112.682 751.608 112.644 752.062 112.568C752.517 112.477 752.866 112.409 753.108 112.364L754.631 119.568C754.146 119.72 753.464 119.894 752.585 120.091C751.706 120.303 750.638 120.432 749.381 120.477C747.047 120.568 745.002 120.258 743.244 119.545C741.502 118.833 740.146 117.727 739.176 116.227C738.206 114.727 737.729 112.833 737.744 110.545V76.7273ZM788.909 95.0455L780.045 95.5909C779.894 94.8333 779.568 94.1515 779.068 93.5455C778.568 92.9242 777.909 92.4318 777.091 92.0682C776.288 91.6894 775.326 91.5 774.205 91.5C772.705 91.5 771.439 91.8182 770.409 92.4545C769.379 93.0758 768.864 93.9091 768.864 94.9545C768.864 95.7879 769.197 96.4924 769.864 97.0682C770.53 97.6439 771.674 98.1061 773.295 98.4545L779.614 99.7273C783.008 100.424 785.538 101.545 787.205 103.091C788.871 104.636 789.705 106.667 789.705 109.182C789.705 111.47 789.03 113.477 787.682 115.205C786.348 116.932 784.515 118.28 782.182 119.25C779.864 120.205 777.189 120.682 774.159 120.682C769.538 120.682 765.856 119.72 763.114 117.795C760.386 115.856 758.788 113.22 758.318 109.886L767.841 109.386C768.129 110.795 768.826 111.871 769.932 112.614C771.038 113.341 772.455 113.705 774.182 113.705C775.879 113.705 777.242 113.379 778.273 112.727C779.318 112.061 779.848 111.205 779.864 110.159C779.848 109.28 779.477 108.561 778.75 108C778.023 107.424 776.902 106.985 775.386 106.682L769.341 105.477C765.932 104.795 763.394 103.614 761.727 101.932C760.076 100.25 759.25 98.1061 759.25 95.5C759.25 93.2576 759.856 91.3258 761.068 89.7045C762.295 88.0833 764.015 86.8333 766.227 85.9545C768.455 85.0758 771.061 84.6364 774.045 84.6364C778.455 84.6364 781.924 85.5682 784.455 87.4318C787 89.2955 788.485 91.8333 788.909 95.0455Z" fill="black"/>
<rect x="492.5" y="183.5" width="295" height="286" rx="31.5" fill="#40A02B" fill-opacity="0.5"/>
<path d="M554.719 286V251.091H575.788V254.841H558.947V266.636H574.697V270.386H558.947V282.25H576.06V286H554.719ZM585.862 259.818L592.134 270.523L598.407 259.818H603.043L594.589 272.909L603.043 286H598.407L592.134 275.841L585.862 286H581.225L589.543 272.909L581.225 259.818H585.862ZM608.783 295.818V259.818H612.67V263.977H613.147C613.442 263.523 613.852 262.943 614.374 262.239C614.908 261.523 615.67 260.886 616.658 260.33C617.658 259.761 619.011 259.477 620.715 259.477C622.92 259.477 624.863 260.028 626.545 261.131C628.227 262.233 629.539 263.795 630.482 265.818C631.425 267.841 631.897 270.227 631.897 272.977C631.897 275.75 631.425 278.153 630.482 280.188C629.539 282.21 628.232 283.778 626.562 284.892C624.891 285.994 622.965 286.545 620.783 286.545C619.102 286.545 617.755 286.267 616.744 285.71C615.732 285.142 614.954 284.5 614.408 283.784C613.863 283.057 613.442 282.455 613.147 281.977H612.806V295.818H608.783ZM612.738 272.909C612.738 274.886 613.028 276.631 613.607 278.142C614.187 279.642 615.033 280.818 616.147 281.67C617.261 282.511 618.624 282.932 620.238 282.932C621.92 282.932 623.323 282.489 624.448 281.602C625.585 280.705 626.437 279.5 627.005 277.989C627.585 276.466 627.874 274.773 627.874 272.909C627.874 271.068 627.59 269.409 627.022 267.932C626.465 266.443 625.619 265.267 624.482 264.403C623.357 263.528 621.942 263.091 620.238 263.091C618.602 263.091 617.227 263.506 616.113 264.335C614.999 265.153 614.158 266.301 613.59 267.778C613.022 269.244 612.738 270.955 612.738 272.909ZM638.033 286V259.818H641.92V263.773H642.192C642.67 262.477 643.533 261.426 644.783 260.619C646.033 259.812 647.442 259.409 649.011 259.409C649.306 259.409 649.675 259.415 650.119 259.426C650.562 259.437 650.897 259.455 651.124 259.477V263.568C650.988 263.534 650.675 263.483 650.187 263.415C649.71 263.335 649.204 263.295 648.67 263.295C647.397 263.295 646.261 263.562 645.261 264.097C644.272 264.619 643.488 265.347 642.908 266.278C642.34 267.199 642.056 268.25 642.056 269.432V286H638.033ZM666.073 286.545C663.55 286.545 661.374 285.989 659.545 284.875C657.727 283.75 656.323 282.182 655.335 280.17C654.357 278.148 653.869 275.795 653.869 273.114C653.869 270.432 654.357 268.068 655.335 266.023C656.323 263.966 657.698 262.364 659.46 261.216C661.232 260.057 663.3 259.477 665.664 259.477C667.028 259.477 668.374 259.705 669.704 260.159C671.033 260.614 672.244 261.352 673.335 262.375C674.425 263.386 675.295 264.727 675.942 266.398C676.59 268.068 676.914 270.125 676.914 272.568V274.273H656.732V270.795H672.823C672.823 269.318 672.528 268 671.937 266.841C671.357 265.682 670.528 264.767 669.448 264.097C668.38 263.426 667.119 263.091 665.664 263.091C664.062 263.091 662.675 263.489 661.505 264.284C660.346 265.068 659.454 266.091 658.829 267.352C658.204 268.614 657.891 269.966 657.891 271.409V273.727C657.891 275.705 658.232 277.381 658.914 278.756C659.607 280.119 660.567 281.159 661.795 281.875C663.022 282.58 664.448 282.932 666.073 282.932C667.13 282.932 668.085 282.784 668.937 282.489C669.8 282.182 670.545 281.727 671.17 281.125C671.795 280.511 672.278 279.75 672.619 278.841L676.505 279.932C676.096 281.25 675.408 282.409 674.442 283.409C673.477 284.398 672.283 285.17 670.863 285.727C669.442 286.273 667.846 286.545 666.073 286.545ZM701.579 265.682L697.965 266.705C697.738 266.102 697.403 265.517 696.96 264.949C696.528 264.369 695.937 263.892 695.187 263.517C694.437 263.142 693.477 262.955 692.306 262.955C690.704 262.955 689.369 263.324 688.3 264.062C687.244 264.79 686.715 265.716 686.715 266.841C686.715 267.841 687.079 268.631 687.806 269.21C688.533 269.79 689.67 270.273 691.215 270.659L695.102 271.614C697.442 272.182 699.187 273.051 700.335 274.222C701.482 275.381 702.056 276.875 702.056 278.705C702.056 280.205 701.624 281.545 700.761 282.727C699.908 283.909 698.715 284.841 697.181 285.523C695.647 286.205 693.863 286.545 691.829 286.545C689.158 286.545 686.948 285.966 685.198 284.807C683.448 283.648 682.34 281.955 681.874 279.727L685.692 278.773C686.056 280.182 686.744 281.239 687.755 281.943C688.778 282.648 690.113 283 691.761 283C693.636 283 695.124 282.602 696.227 281.807C697.34 281 697.897 280.034 697.897 278.909C697.897 278 697.579 277.239 696.942 276.625C696.306 276 695.329 275.534 694.011 275.227L689.647 274.205C687.249 273.636 685.488 272.756 684.363 271.562C683.249 270.358 682.692 268.852 682.692 267.045C682.692 265.568 683.107 264.261 683.937 263.125C684.778 261.989 685.92 261.097 687.363 260.449C688.817 259.801 690.465 259.477 692.306 259.477C694.897 259.477 696.931 260.045 698.408 261.182C699.897 262.318 700.954 263.818 701.579 265.682ZM726.657 265.682L723.043 266.705C722.816 266.102 722.481 265.517 722.038 264.949C721.606 264.369 721.015 263.892 720.265 263.517C719.515 263.142 718.555 262.955 717.384 262.955C715.782 262.955 714.447 263.324 713.379 264.062C712.322 264.79 711.793 265.716 711.793 266.841C711.793 267.841 712.157 268.631 712.884 269.21C713.612 269.79 714.748 270.273 716.293 270.659L720.18 271.614C722.521 272.182 724.265 273.051 725.413 274.222C726.56 275.381 727.134 276.875 727.134 278.705C727.134 280.205 726.702 281.545 725.839 282.727C724.987 283.909 723.793 284.841 722.259 285.523C720.725 286.205 718.941 286.545 716.907 286.545C714.237 286.545 712.026 285.966 710.276 284.807C708.526 283.648 707.418 281.955 706.952 279.727L710.771 278.773C711.134 280.182 711.822 281.239 712.833 281.943C713.856 282.648 715.191 283 716.839 283C718.714 283 720.202 282.602 721.305 281.807C722.418 281 722.975 280.034 722.975 278.909C722.975 278 722.657 277.239 722.021 276.625C721.384 276 720.407 275.534 719.089 275.227L714.725 274.205C712.327 273.636 710.566 272.756 709.441 271.562C708.327 270.358 707.771 268.852 707.771 267.045C707.771 265.568 708.185 264.261 709.015 263.125C709.856 261.989 710.998 261.097 712.441 260.449C713.896 259.801 715.543 259.477 717.384 259.477C719.975 259.477 722.009 260.045 723.487 261.182C724.975 262.318 726.032 263.818 726.657 265.682ZM531.717 344L522.171 309.091H526.467L533.762 337.523H534.103L541.535 309.091H546.308L553.739 337.523H554.08L561.376 309.091H565.671L556.126 344H551.762L544.058 316.182H543.785L536.08 344H531.717ZM578.933 344.545C576.41 344.545 574.234 343.989 572.404 342.875C570.586 341.75 569.183 340.182 568.194 338.17C567.217 336.148 566.728 333.795 566.728 331.114C566.728 328.432 567.217 326.068 568.194 324.023C569.183 321.966 570.558 320.364 572.319 319.216C574.092 318.057 576.16 317.477 578.523 317.477C579.887 317.477 581.234 317.705 582.563 318.159C583.893 318.614 585.103 319.352 586.194 320.375C587.285 321.386 588.154 322.727 588.802 324.398C589.45 326.068 589.773 328.125 589.773 330.568V332.273H569.592V328.795H585.683C585.683 327.318 585.387 326 584.796 324.841C584.217 323.682 583.387 322.767 582.308 322.097C581.239 321.426 579.978 321.091 578.523 321.091C576.921 321.091 575.535 321.489 574.364 322.284C573.205 323.068 572.313 324.091 571.688 325.352C571.063 326.614 570.751 327.966 570.751 329.409V331.727C570.751 333.705 571.092 335.381 571.773 336.756C572.467 338.119 573.427 339.159 574.654 339.875C575.881 340.58 577.308 340.932 578.933 340.932C579.989 340.932 580.944 340.784 581.796 340.489C582.66 340.182 583.404 339.727 584.029 339.125C584.654 338.511 585.137 337.75 585.478 336.841L589.364 337.932C588.955 339.25 588.268 340.409 587.302 341.409C586.336 342.398 585.143 343.17 583.722 343.727C582.302 344.273 580.705 344.545 578.933 344.545ZM596.438 344V309.091H600.461V321.977H600.802C601.097 321.523 601.506 320.943 602.029 320.239C602.563 319.523 603.325 318.886 604.313 318.33C605.313 317.761 606.665 317.477 608.37 317.477C610.575 317.477 612.518 318.028 614.2 319.131C615.881 320.233 617.194 321.795 618.137 323.818C619.08 325.841 619.552 328.227 619.552 330.977C619.552 333.75 619.08 336.153 618.137 338.188C617.194 340.21 615.887 341.778 614.217 342.892C612.546 343.994 610.62 344.545 608.438 344.545C606.756 344.545 605.41 344.267 604.398 343.71C603.387 343.142 602.609 342.5 602.063 341.784C601.518 341.057 601.097 340.455 600.802 339.977H600.325V344H596.438ZM600.393 330.909C600.393 332.886 600.683 334.631 601.262 336.142C601.842 337.642 602.688 338.818 603.802 339.67C604.915 340.511 606.279 340.932 607.893 340.932C609.575 340.932 610.978 340.489 612.103 339.602C613.239 338.705 614.092 337.5 614.66 335.989C615.239 334.466 615.529 332.773 615.529 330.909C615.529 329.068 615.245 327.409 614.677 325.932C614.12 324.443 613.273 323.267 612.137 322.403C611.012 321.528 609.597 321.091 607.893 321.091C606.256 321.091 604.881 321.506 603.768 322.335C602.654 323.153 601.813 324.301 601.245 325.778C600.677 327.244 600.393 328.955 600.393 330.909ZM629.728 328.25V344H625.705V309.091H629.728V321.909H630.069C630.683 320.557 631.603 319.483 632.83 318.688C634.069 317.881 635.717 317.477 637.773 317.477C639.558 317.477 641.12 317.835 642.461 318.551C643.802 319.256 644.842 320.341 645.58 321.807C646.33 323.261 646.705 325.114 646.705 327.364V344H642.683V327.636C642.683 325.557 642.143 323.949 641.063 322.812C639.995 321.665 638.512 321.091 636.614 321.091C635.296 321.091 634.114 321.369 633.069 321.926C632.035 322.483 631.217 323.295 630.614 324.364C630.023 325.432 629.728 326.727 629.728 328.25ZM664.701 344.545C662.337 344.545 660.263 343.983 658.479 342.858C656.707 341.733 655.32 340.159 654.32 338.136C653.332 336.114 652.837 333.75 652.837 331.045C652.837 328.318 653.332 325.937 654.32 323.903C655.32 321.869 656.707 320.29 658.479 319.165C660.263 318.04 662.337 317.477 664.701 317.477C667.065 317.477 669.133 318.04 670.906 319.165C672.69 320.29 674.076 321.869 675.065 323.903C676.065 325.937 676.565 328.318 676.565 331.045C676.565 333.75 676.065 336.114 675.065 338.136C674.076 340.159 672.69 341.733 670.906 342.858C669.133 343.983 667.065 344.545 664.701 344.545ZM664.701 340.932C666.496 340.932 667.974 340.472 669.133 339.551C670.292 338.631 671.15 337.42 671.707 335.92C672.263 334.42 672.542 332.795 672.542 331.045C672.542 329.295 672.263 327.665 671.707 326.153C671.15 324.642 670.292 323.42 669.133 322.489C667.974 321.557 666.496 321.091 664.701 321.091C662.906 321.091 661.428 321.557 660.269 322.489C659.11 323.42 658.252 324.642 657.695 326.153C657.138 327.665 656.86 329.295 656.86 331.045C656.86 332.795 657.138 334.42 657.695 335.92C658.252 337.42 659.11 338.631 660.269 339.551C661.428 340.472 662.906 340.932 664.701 340.932ZM693.342 344.545C690.978 344.545 688.904 343.983 687.12 342.858C685.347 341.733 683.961 340.159 682.961 338.136C681.972 336.114 681.478 333.75 681.478 331.045C681.478 328.318 681.972 325.937 682.961 323.903C683.961 321.869 685.347 320.29 687.12 319.165C688.904 318.04 690.978 317.477 693.342 317.477C695.705 317.477 697.773 318.04 699.546 319.165C701.33 320.29 702.717 321.869 703.705 323.903C704.705 325.937 705.205 328.318 705.205 331.045C705.205 333.75 704.705 336.114 703.705 338.136C702.717 340.159 701.33 341.733 699.546 342.858C697.773 343.983 695.705 344.545 693.342 344.545ZM693.342 340.932C695.137 340.932 696.614 340.472 697.773 339.551C698.933 338.631 699.79 337.42 700.347 335.92C700.904 334.42 701.183 332.795 701.183 331.045C701.183 329.295 700.904 327.665 700.347 326.153C699.79 324.642 698.933 323.42 697.773 322.489C696.614 321.557 695.137 321.091 693.342 321.091C691.546 321.091 690.069 321.557 688.91 322.489C687.751 323.42 686.893 324.642 686.336 326.153C685.779 327.665 685.501 329.295 685.501 331.045C685.501 332.795 685.779 334.42 686.336 335.92C686.893 337.42 687.751 338.631 688.91 339.551C690.069 340.472 691.546 340.932 693.342 340.932ZM715.096 334.455L715.028 329.477H715.846L727.3 317.818H732.278L720.073 330.159H719.732L715.096 334.455ZM711.346 344V309.091H715.369V344H711.346ZM727.982 344L717.755 331.045L720.619 328.25L733.096 344H727.982ZM756.001 323.682L752.387 324.705C752.16 324.102 751.825 323.517 751.381 322.949C750.95 322.369 750.359 321.892 749.609 321.517C748.859 321.142 747.898 320.955 746.728 320.955C745.126 320.955 743.79 321.324 742.722 322.062C741.665 322.79 741.137 323.716 741.137 324.841C741.137 325.841 741.501 326.631 742.228 327.21C742.955 327.79 744.092 328.273 745.637 328.659L749.523 329.614C751.864 330.182 753.609 331.051 754.756 332.222C755.904 333.381 756.478 334.875 756.478 336.705C756.478 338.205 756.046 339.545 755.183 340.727C754.33 341.909 753.137 342.841 751.603 343.523C750.069 344.205 748.285 344.545 746.251 344.545C743.58 344.545 741.37 343.966 739.62 342.807C737.87 341.648 736.762 339.955 736.296 337.727L740.114 336.773C740.478 338.182 741.165 339.239 742.177 339.943C743.2 340.648 744.535 341 746.183 341C748.058 341 749.546 340.602 750.648 339.807C751.762 339 752.319 338.034 752.319 336.909C752.319 336 752.001 335.239 751.364 334.625C750.728 334 749.751 333.534 748.433 333.227L744.069 332.205C741.671 331.636 739.91 330.756 738.785 329.562C737.671 328.358 737.114 326.852 737.114 325.045C737.114 323.568 737.529 322.261 738.359 321.125C739.2 319.989 740.342 319.097 741.785 318.449C743.239 317.801 744.887 317.477 746.728 317.477C749.319 317.477 751.353 318.045 752.83 319.182C754.319 320.318 755.376 321.818 756.001 323.682ZM553.332 384.545C553.332 380.25 553.889 376.301 555.003 372.699C556.128 369.085 557.73 365.761 559.81 362.727H563.355C562.537 363.852 561.77 365.239 561.054 366.886C560.349 368.523 559.73 370.324 559.196 372.29C558.662 374.244 558.241 376.267 557.935 378.358C557.639 380.449 557.491 382.511 557.491 384.545C557.491 387.25 557.753 389.994 558.276 392.778C558.798 395.562 559.503 398.148 560.389 400.534C561.276 402.92 562.264 404.864 563.355 406.364H559.81C557.73 403.33 556.128 400.011 555.003 396.409C553.889 392.795 553.332 388.841 553.332 384.545ZM588.928 375.818C588.723 374.091 587.893 372.75 586.439 371.795C584.984 370.841 583.2 370.364 581.087 370.364C579.541 370.364 578.189 370.614 577.03 371.114C575.882 371.614 574.984 372.301 574.337 373.176C573.7 374.051 573.382 375.045 573.382 376.159C573.382 377.091 573.604 377.892 574.047 378.562C574.501 379.222 575.081 379.773 575.786 380.216C576.49 380.648 577.229 381.006 578.001 381.29C578.774 381.562 579.484 381.784 580.132 381.955L583.678 382.909C584.587 383.148 585.598 383.477 586.712 383.898C587.837 384.318 588.911 384.892 589.933 385.619C590.967 386.335 591.82 387.256 592.49 388.381C593.161 389.506 593.496 390.886 593.496 392.523C593.496 394.409 593.001 396.114 592.013 397.636C591.036 399.159 589.604 400.369 587.717 401.267C585.842 402.165 583.564 402.614 580.882 402.614C578.382 402.614 576.217 402.21 574.388 401.403C572.57 400.597 571.138 399.472 570.092 398.028C569.058 396.585 568.473 394.909 568.337 393H572.7C572.814 394.318 573.257 395.409 574.03 396.273C574.814 397.125 575.803 397.761 576.996 398.182C578.2 398.591 579.496 398.795 580.882 398.795C582.496 398.795 583.945 398.534 585.229 398.011C586.513 397.477 587.53 396.739 588.28 395.795C589.03 394.841 589.405 393.727 589.405 392.455C589.405 391.295 589.081 390.352 588.433 389.625C587.786 388.898 586.933 388.307 585.876 387.852C584.82 387.398 583.678 387 582.45 386.659L578.155 385.432C575.428 384.648 573.268 383.528 571.678 382.074C570.087 380.619 569.291 378.716 569.291 376.364C569.291 374.409 569.82 372.705 570.876 371.25C571.945 369.784 573.376 368.648 575.172 367.841C576.979 367.023 578.996 366.614 581.223 366.614C583.473 366.614 585.473 367.017 587.223 367.824C588.973 368.619 590.359 369.71 591.382 371.097C592.416 372.483 592.962 374.057 593.018 375.818H588.928ZM610.878 402.545C608.355 402.545 606.179 401.989 604.349 400.875C602.531 399.75 601.128 398.182 600.139 396.17C599.162 394.148 598.673 391.795 598.673 389.114C598.673 386.432 599.162 384.068 600.139 382.023C601.128 379.966 602.503 378.364 604.264 377.216C606.037 376.057 608.105 375.477 610.469 375.477C611.832 375.477 613.179 375.705 614.509 376.159C615.838 376.614 617.048 377.352 618.139 378.375C619.23 379.386 620.099 380.727 620.747 382.398C621.395 384.068 621.719 386.125 621.719 388.568V390.273H601.537V386.795H617.628C617.628 385.318 617.332 384 616.741 382.841C616.162 381.682 615.332 380.767 614.253 380.097C613.185 379.426 611.923 379.091 610.469 379.091C608.866 379.091 607.48 379.489 606.31 380.284C605.151 381.068 604.259 382.091 603.634 383.352C603.009 384.614 602.696 385.966 602.696 387.409V389.727C602.696 391.705 603.037 393.381 603.719 394.756C604.412 396.119 605.372 397.159 606.599 397.875C607.827 398.58 609.253 398.932 610.878 398.932C611.935 398.932 612.889 398.784 613.741 398.489C614.605 398.182 615.349 397.727 615.974 397.125C616.599 396.511 617.082 395.75 617.423 394.841L621.31 395.932C620.901 397.25 620.213 398.409 619.247 399.409C618.281 400.398 617.088 401.17 615.668 401.727C614.247 402.273 612.651 402.545 610.878 402.545ZM627.838 402V375.818H631.724V379.773H631.997C632.474 378.477 633.338 377.426 634.588 376.619C635.838 375.812 637.247 375.409 638.815 375.409C639.111 375.409 639.48 375.415 639.923 375.426C640.366 375.437 640.702 375.455 640.929 375.477V379.568C640.793 379.534 640.48 379.483 639.991 379.415C639.514 379.335 639.009 379.295 638.474 379.295C637.202 379.295 636.065 379.562 635.065 380.097C634.077 380.619 633.293 381.347 632.713 382.278C632.145 383.199 631.861 384.25 631.861 385.432V402H627.838ZM667.903 375.818L658.222 402H654.131L644.449 375.818H648.812L656.04 396.682H656.312L663.54 375.818H667.903ZM683.253 402.545C680.73 402.545 678.554 401.989 676.724 400.875C674.906 399.75 673.503 398.182 672.514 396.17C671.537 394.148 671.048 391.795 671.048 389.114C671.048 386.432 671.537 384.068 672.514 382.023C673.503 379.966 674.878 378.364 676.639 377.216C678.412 376.057 680.48 375.477 682.844 375.477C684.207 375.477 685.554 375.705 686.884 376.159C688.213 376.614 689.423 377.352 690.514 378.375C691.605 379.386 692.474 380.727 693.122 382.398C693.77 384.068 694.094 386.125 694.094 388.568V390.273H673.912V386.795H690.003C690.003 385.318 689.707 384 689.116 382.841C688.537 381.682 687.707 380.767 686.628 380.097C685.56 379.426 684.298 379.091 682.844 379.091C681.241 379.091 679.855 379.489 678.685 380.284C677.526 381.068 676.634 382.091 676.009 383.352C675.384 384.614 675.071 385.966 675.071 387.409V389.727C675.071 391.705 675.412 393.381 676.094 394.756C676.787 396.119 677.747 397.159 678.974 397.875C680.202 398.58 681.628 398.932 683.253 398.932C684.31 398.932 685.264 398.784 686.116 398.489C686.98 398.182 687.724 397.727 688.349 397.125C688.974 396.511 689.457 395.75 689.798 394.841L693.685 395.932C693.276 397.25 692.588 398.409 691.622 399.409C690.656 400.398 689.463 401.17 688.043 401.727C686.622 402.273 685.026 402.545 683.253 402.545ZM700.213 402V375.818H704.099V379.773H704.372C704.849 378.477 705.713 377.426 706.963 376.619C708.213 375.812 709.622 375.409 711.19 375.409C711.486 375.409 711.855 375.415 712.298 375.426C712.741 375.437 713.077 375.455 713.304 375.477V379.568C713.168 379.534 712.855 379.483 712.366 379.415C711.889 379.335 711.384 379.295 710.849 379.295C709.577 379.295 708.44 379.562 707.44 380.097C706.452 380.619 705.668 381.347 705.088 382.278C704.52 383.199 704.236 384.25 704.236 385.432V402H700.213ZM726.663 387.273C726.663 391.568 726.101 395.523 724.976 399.136C723.862 402.739 722.266 406.057 720.186 409.091H716.641C717.459 407.966 718.22 406.58 718.925 404.932C719.641 403.295 720.266 401.5 720.8 399.545C721.334 397.58 721.749 395.551 722.044 393.46C722.351 391.358 722.504 389.295 722.504 387.273C722.504 384.568 722.243 381.824 721.72 379.04C721.197 376.256 720.493 373.67 719.607 371.284C718.72 368.898 717.732 366.955 716.641 365.455H720.186C722.266 368.489 723.862 371.812 724.976 375.426C726.101 379.028 726.663 382.977 726.663 387.273Z" fill="black"/>
<rect x="492.5" y="183.5" width="295" height="286" rx="31.5" stroke="black"/>
<rect x="492.5" y="693.5" width="295" height="286" rx="31.5" fill="#1E66F5" fill-opacity="0.5"/>
<path d="M570.305 796V761.091H591.237V764.841H574.533V776.636H589.669V780.386H574.533V796H570.305ZM601.955 761.091V796H597.932V761.091H601.955ZM625.822 785.295V769.818H629.845V796H625.822V791.568H625.55C624.936 792.898 623.982 794.028 622.686 794.96C621.391 795.881 619.754 796.341 617.777 796.341C616.141 796.341 614.686 795.983 613.413 795.267C612.141 794.54 611.141 793.449 610.413 791.994C609.686 790.528 609.322 788.682 609.322 786.455V769.818H613.345V786.182C613.345 788.091 613.879 789.614 614.947 790.75C616.027 791.886 617.402 792.455 619.072 792.455C620.072 792.455 621.089 792.199 622.124 791.688C623.169 791.176 624.044 790.392 624.749 789.335C625.464 788.278 625.822 786.932 625.822 785.295ZM648.599 769.818V773.227H635.031V769.818H648.599ZM638.986 763.545H643.009V788.5C643.009 789.636 643.173 790.489 643.503 791.057C643.844 791.614 644.276 791.989 644.798 792.182C645.332 792.364 645.895 792.455 646.486 792.455C646.929 792.455 647.293 792.432 647.577 792.386C647.861 792.33 648.088 792.284 648.259 792.25L649.077 795.864C648.804 795.966 648.423 796.068 647.935 796.17C647.446 796.284 646.827 796.341 646.077 796.341C644.94 796.341 643.827 796.097 642.736 795.608C641.656 795.119 640.759 794.375 640.043 793.375C639.338 792.375 638.986 791.114 638.986 789.591V763.545ZM666.037 769.818V773.227H652.469V769.818H666.037ZM656.423 763.545H660.446V788.5C660.446 789.636 660.611 790.489 660.94 791.057C661.281 791.614 661.713 791.989 662.236 792.182C662.77 792.364 663.332 792.455 663.923 792.455C664.366 792.455 664.73 792.432 665.014 792.386C665.298 792.33 665.526 792.284 665.696 792.25L666.514 795.864C666.241 795.966 665.861 796.068 665.372 796.17C664.884 796.284 664.264 796.341 663.514 796.341C662.378 796.341 661.264 796.097 660.173 795.608C659.094 795.119 658.196 794.375 657.48 793.375C656.776 792.375 656.423 791.114 656.423 789.591V763.545ZM682.784 796.545C680.261 796.545 678.085 795.989 676.256 794.875C674.438 793.75 673.034 792.182 672.045 790.17C671.068 788.148 670.58 785.795 670.58 783.114C670.58 780.432 671.068 778.068 672.045 776.023C673.034 773.966 674.409 772.364 676.17 771.216C677.943 770.057 680.011 769.477 682.375 769.477C683.739 769.477 685.085 769.705 686.415 770.159C687.744 770.614 688.955 771.352 690.045 772.375C691.136 773.386 692.006 774.727 692.653 776.398C693.301 778.068 693.625 780.125 693.625 782.568V784.273H673.443V780.795H689.534C689.534 779.318 689.239 778 688.648 776.841C688.068 775.682 687.239 774.767 686.159 774.097C685.091 773.426 683.83 773.091 682.375 773.091C680.773 773.091 679.386 773.489 678.216 774.284C677.057 775.068 676.165 776.091 675.54 777.352C674.915 778.614 674.602 779.966 674.602 781.409V783.727C674.602 785.705 674.943 787.381 675.625 788.756C676.318 790.119 677.278 791.159 678.506 791.875C679.733 792.58 681.159 792.932 682.784 792.932C683.841 792.932 684.795 792.784 685.648 792.489C686.511 792.182 687.256 791.727 687.881 791.125C688.506 790.511 688.989 789.75 689.33 788.841L693.216 789.932C692.807 791.25 692.119 792.409 691.153 793.409C690.188 794.398 688.994 795.17 687.574 795.727C686.153 796.273 684.557 796.545 682.784 796.545ZM699.744 796V769.818H703.631V773.773H703.903C704.381 772.477 705.244 771.426 706.494 770.619C707.744 769.812 709.153 769.409 710.722 769.409C711.017 769.409 711.386 769.415 711.83 769.426C712.273 769.437 712.608 769.455 712.835 769.477V773.568C712.699 773.534 712.386 773.483 711.898 773.415C711.42 773.335 710.915 773.295 710.381 773.295C709.108 773.295 707.972 773.562 706.972 774.097C705.983 774.619 705.199 775.347 704.619 776.278C704.051 777.199 703.767 778.25 703.767 779.432V796H699.744ZM602.615 827.818C602.411 826.091 601.581 824.75 600.126 823.795C598.672 822.841 596.888 822.364 594.774 822.364C593.229 822.364 591.876 822.614 590.717 823.114C589.57 823.614 588.672 824.301 588.024 825.176C587.388 826.051 587.07 827.045 587.07 828.159C587.07 829.091 587.291 829.892 587.734 830.562C588.189 831.222 588.768 831.773 589.473 832.216C590.178 832.648 590.916 833.006 591.689 833.29C592.462 833.562 593.172 833.784 593.82 833.955L597.365 834.909C598.274 835.148 599.286 835.477 600.399 835.898C601.524 836.318 602.598 836.892 603.621 837.619C604.655 838.335 605.507 839.256 606.178 840.381C606.848 841.506 607.183 842.886 607.183 844.523C607.183 846.409 606.689 848.114 605.7 849.636C604.723 851.159 603.291 852.369 601.405 853.267C599.53 854.165 597.251 854.614 594.57 854.614C592.07 854.614 589.905 854.21 588.075 853.403C586.257 852.597 584.825 851.472 583.78 850.028C582.746 848.585 582.161 846.909 582.024 845H586.388C586.501 846.318 586.945 847.409 587.717 848.273C588.501 849.125 589.49 849.761 590.683 850.182C591.888 850.591 593.183 850.795 594.57 850.795C596.183 850.795 597.632 850.534 598.916 850.011C600.2 849.477 601.217 848.739 601.967 847.795C602.717 846.841 603.092 845.727 603.092 844.455C603.092 843.295 602.768 842.352 602.121 841.625C601.473 840.898 600.621 840.307 599.564 839.852C598.507 839.398 597.365 839 596.138 838.659L591.842 837.432C589.115 836.648 586.956 835.528 585.365 834.074C583.774 832.619 582.979 830.716 582.979 828.364C582.979 826.409 583.507 824.705 584.564 823.25C585.632 821.784 587.064 820.648 588.859 819.841C590.666 819.023 592.683 818.614 594.911 818.614C597.161 818.614 599.161 819.017 600.911 819.824C602.661 820.619 604.047 821.71 605.07 823.097C606.104 824.483 606.649 826.057 606.706 827.818H602.615ZM624.974 827.818V831.227H611.406V827.818H624.974ZM615.361 821.545H619.384V846.5C619.384 847.636 619.548 848.489 619.878 849.057C620.219 849.614 620.651 849.989 621.173 850.182C621.707 850.364 622.27 850.455 622.861 850.455C623.304 850.455 623.668 850.432 623.952 850.386C624.236 850.33 624.463 850.284 624.634 850.25L625.452 853.864C625.179 853.966 624.798 854.068 624.31 854.17C623.821 854.284 623.202 854.341 622.452 854.341C621.315 854.341 620.202 854.097 619.111 853.608C618.031 853.119 617.134 852.375 616.418 851.375C615.713 850.375 615.361 849.114 615.361 847.591V821.545ZM641.381 854.545C639.017 854.545 636.943 853.983 635.159 852.858C633.386 851.733 632 850.159 631 848.136C630.011 846.114 629.517 843.75 629.517 841.045C629.517 838.318 630.011 835.937 631 833.903C632 831.869 633.386 830.29 635.159 829.165C636.943 828.04 639.017 827.477 641.381 827.477C643.744 827.477 645.813 828.04 647.585 829.165C649.369 830.29 650.756 831.869 651.744 833.903C652.744 835.937 653.244 838.318 653.244 841.045C653.244 843.75 652.744 846.114 651.744 848.136C650.756 850.159 649.369 851.733 647.585 852.858C645.813 853.983 643.744 854.545 641.381 854.545ZM641.381 850.932C643.176 850.932 644.653 850.472 645.812 849.551C646.972 848.631 647.83 847.42 648.386 845.92C648.943 844.42 649.222 842.795 649.222 841.045C649.222 839.295 648.943 837.665 648.386 836.153C647.83 834.642 646.972 833.42 645.812 832.489C644.653 831.557 643.176 831.091 641.381 831.091C639.585 831.091 638.108 831.557 636.949 832.489C635.79 833.42 634.932 834.642 634.375 836.153C633.818 837.665 633.54 839.295 633.54 841.045C633.54 842.795 633.818 844.42 634.375 845.92C634.932 847.42 635.79 848.631 636.949 849.551C638.108 850.472 639.585 850.932 641.381 850.932ZM659.385 854V827.818H663.271V831.773H663.544C664.021 830.477 664.885 829.426 666.135 828.619C667.385 827.812 668.794 827.409 670.362 827.409C670.658 827.409 671.027 827.415 671.47 827.426C671.913 827.437 672.249 827.455 672.476 827.477V831.568C672.339 831.534 672.027 831.483 671.538 831.415C671.061 831.335 670.555 831.295 670.021 831.295C668.749 831.295 667.612 831.562 666.612 832.097C665.624 832.619 664.839 833.347 664.26 834.278C663.692 835.199 663.408 836.25 663.408 837.432V854H659.385ZM687.425 854.545C684.902 854.545 682.726 853.989 680.896 852.875C679.078 851.75 677.675 850.182 676.686 848.17C675.709 846.148 675.22 843.795 675.22 841.114C675.22 838.432 675.709 836.068 676.686 834.023C677.675 831.966 679.05 830.364 680.811 829.216C682.584 828.057 684.652 827.477 687.016 827.477C688.379 827.477 689.726 827.705 691.055 828.159C692.385 828.614 693.595 829.352 694.686 830.375C695.777 831.386 696.646 832.727 697.294 834.398C697.942 836.068 698.266 838.125 698.266 840.568V842.273H678.084V838.795H694.175C694.175 837.318 693.879 836 693.288 834.841C692.709 833.682 691.879 832.767 690.8 832.097C689.732 831.426 688.47 831.091 687.016 831.091C685.413 831.091 684.027 831.489 682.857 832.284C681.697 833.068 680.805 834.091 680.18 835.352C679.555 836.614 679.243 837.966 679.243 839.409V841.727C679.243 843.705 679.584 845.381 680.266 846.756C680.959 848.119 681.919 849.159 683.146 849.875C684.374 850.58 685.8 850.932 687.425 850.932C688.482 850.932 689.436 850.784 690.288 850.489C691.152 850.182 691.896 849.727 692.521 849.125C693.146 848.511 693.629 847.75 693.97 846.841L697.857 847.932C697.447 849.25 696.76 850.409 695.794 851.409C694.828 852.398 693.635 853.17 692.214 853.727C690.794 854.273 689.197 854.545 687.425 854.545ZM562.145 894.545C562.145 890.25 562.702 886.301 563.815 882.699C564.94 879.085 566.543 875.761 568.622 872.727H572.168C571.349 873.852 570.582 875.239 569.866 876.886C569.162 878.523 568.543 880.324 568.009 882.29C567.474 884.244 567.054 886.267 566.747 888.358C566.452 890.449 566.304 892.511 566.304 894.545C566.304 897.25 566.565 899.994 567.088 902.778C567.611 905.562 568.315 908.148 569.202 910.534C570.088 912.92 571.077 914.864 572.168 916.364H568.622C566.543 913.33 564.94 910.011 563.815 906.409C562.702 902.795 562.145 898.841 562.145 894.545ZM606.74 888H602.513C602.263 886.784 601.825 885.716 601.2 884.795C600.587 883.875 599.837 883.102 598.95 882.477C598.075 881.841 597.104 881.364 596.036 881.045C594.967 880.727 593.854 880.568 592.695 880.568C590.581 880.568 588.666 881.102 586.95 882.17C585.246 883.239 583.888 884.812 582.876 886.892C581.876 888.972 581.376 891.523 581.376 894.545C581.376 897.568 581.876 900.119 582.876 902.199C583.888 904.278 585.246 905.852 586.95 906.92C588.666 907.989 590.581 908.523 592.695 908.523C593.854 908.523 594.967 908.364 596.036 908.045C597.104 907.727 598.075 907.256 598.95 906.631C599.837 905.994 600.587 905.216 601.2 904.295C601.825 903.364 602.263 902.295 602.513 901.091H606.74C606.422 902.875 605.842 904.472 605.001 905.881C604.161 907.29 603.115 908.489 601.865 909.477C600.615 910.455 599.212 911.199 597.655 911.71C596.109 912.222 594.456 912.477 592.695 912.477C589.717 912.477 587.07 911.75 584.751 910.295C582.433 908.841 580.609 906.773 579.28 904.091C577.95 901.409 577.286 898.227 577.286 894.545C577.286 890.864 577.95 887.682 579.28 885C580.609 882.318 582.433 880.25 584.751 878.795C587.07 877.341 589.717 876.614 592.695 876.614C594.456 876.614 596.109 876.869 597.655 877.381C599.212 877.892 600.615 878.642 601.865 879.631C603.115 880.608 604.161 881.801 605.001 883.21C605.842 884.608 606.422 886.205 606.74 888ZM617.048 877.091V912H613.026V877.091H617.048ZM624.416 912V885.818H628.439V912H624.416ZM626.462 881.455C625.678 881.455 625.001 881.188 624.433 880.653C623.876 880.119 623.598 879.477 623.598 878.727C623.598 877.977 623.876 877.335 624.433 876.801C625.001 876.267 625.678 876 626.462 876C627.246 876 627.916 876.267 628.473 876.801C629.041 877.335 629.325 877.977 629.325 878.727C629.325 879.477 629.041 880.119 628.473 880.653C627.916 881.188 627.246 881.455 626.462 881.455ZM646.784 912.545C644.261 912.545 642.085 911.989 640.256 910.875C638.438 909.75 637.034 908.182 636.045 906.17C635.068 904.148 634.58 901.795 634.58 899.114C634.58 896.432 635.068 894.068 636.045 892.023C637.034 889.966 638.409 888.364 640.17 887.216C641.943 886.057 644.011 885.477 646.375 885.477C647.739 885.477 649.085 885.705 650.415 886.159C651.744 886.614 652.955 887.352 654.045 888.375C655.136 889.386 656.006 890.727 656.653 892.398C657.301 894.068 657.625 896.125 657.625 898.568V900.273H637.443V896.795H653.534C653.534 895.318 653.239 894 652.648 892.841C652.068 891.682 651.239 890.767 650.159 890.097C649.091 889.426 647.83 889.091 646.375 889.091C644.773 889.091 643.386 889.489 642.216 890.284C641.057 891.068 640.165 892.091 639.54 893.352C638.915 894.614 638.602 895.966 638.602 897.409V899.727C638.602 901.705 638.943 903.381 639.625 904.756C640.318 906.119 641.278 907.159 642.506 907.875C643.733 908.58 645.159 908.932 646.784 908.932C647.841 908.932 648.795 908.784 649.648 908.489C650.511 908.182 651.256 907.727 651.881 907.125C652.506 906.511 652.989 905.75 653.33 904.841L657.216 905.932C656.807 907.25 656.119 908.409 655.153 909.409C654.188 910.398 652.994 911.17 651.574 911.727C650.153 912.273 648.557 912.545 646.784 912.545ZM667.767 896.25V912H663.744V885.818H667.631V889.909H667.972C668.585 888.58 669.517 887.511 670.767 886.705C672.017 885.886 673.631 885.477 675.608 885.477C677.381 885.477 678.932 885.841 680.261 886.568C681.591 887.284 682.625 888.375 683.364 889.841C684.102 891.295 684.472 893.136 684.472 895.364V912H680.449V895.636C680.449 893.58 679.915 891.977 678.847 890.83C677.778 889.67 676.313 889.091 674.449 889.091C673.165 889.091 672.017 889.369 671.006 889.926C670.006 890.483 669.216 891.295 668.636 892.364C668.057 893.432 667.767 894.727 667.767 896.25ZM703.209 885.818V889.227H689.641V885.818H703.209ZM693.595 879.545H697.618V904.5C697.618 905.636 697.783 906.489 698.112 907.057C698.453 907.614 698.885 907.989 699.408 908.182C699.942 908.364 700.504 908.455 701.095 908.455C701.538 908.455 701.902 908.432 702.186 908.386C702.47 908.33 702.697 908.284 702.868 908.25L703.686 911.864C703.413 911.966 703.033 912.068 702.544 912.17C702.055 912.284 701.436 912.341 700.686 912.341C699.55 912.341 698.436 912.097 697.345 911.608C696.266 911.119 695.368 910.375 694.652 909.375C693.947 908.375 693.595 907.114 693.595 905.591V879.545ZM717.851 897.273C717.851 901.568 717.288 905.523 716.163 909.136C715.05 912.739 713.453 916.057 711.374 919.091H707.828C708.646 917.966 709.408 916.58 710.112 914.932C710.828 913.295 711.453 911.5 711.987 909.545C712.521 907.58 712.936 905.551 713.232 903.46C713.538 901.358 713.692 899.295 713.692 897.273C713.692 894.568 713.43 891.824 712.908 889.04C712.385 886.256 711.68 883.67 710.794 881.284C709.908 878.898 708.919 876.955 707.828 875.455H711.374C713.453 878.489 715.05 881.812 716.163 885.426C717.288 889.028 717.851 892.977 717.851 897.273Z" fill="black"/>
<rect x="492.5" y="693.5" width="295" height="286" rx="31.5" stroke="black"/>
<rect x="955.5" y="693.5" width="295" height="286" rx="31.5" fill="#FE640B" fill-opacity="0.5"/>
<path d="M998.748 796L989.202 761.091H993.498L1000.79 789.523H1001.13L1008.57 761.091H1013.34L1020.77 789.523H1021.11L1028.41 761.091H1032.7L1023.16 796H1018.79L1011.09 768.182H1010.82L1003.11 796H998.748ZM1042.2 761.091V796H1037.97V761.091H1042.2ZM1078.35 761.091V796H1074.26L1055.24 768.591H1054.9V796H1050.67V761.091H1054.76L1073.85 788.568H1074.2V761.091H1078.35ZM1098 796.477C1095.75 796.477 1093.74 796.091 1091.98 795.318C1090.23 794.545 1088.84 793.472 1087.8 792.097C1086.78 790.71 1086.22 789.102 1086.13 787.273H1090.43C1090.52 788.398 1090.9 789.369 1091.59 790.188C1092.27 790.994 1093.16 791.619 1094.26 792.062C1095.36 792.506 1096.59 792.727 1097.93 792.727C1099.43 792.727 1100.76 792.466 1101.92 791.943C1103.07 791.42 1103.98 790.693 1104.64 789.761C1105.3 788.83 1105.63 787.75 1105.63 786.523C1105.63 785.239 1105.31 784.108 1104.68 783.131C1104.04 782.142 1103.11 781.369 1101.88 780.812C1100.65 780.256 1099.15 779.977 1097.38 779.977H1094.59V776.227H1097.38C1098.77 776.227 1099.98 775.977 1101.03 775.477C1102.09 774.977 1102.91 774.273 1103.5 773.364C1104.1 772.455 1104.4 771.386 1104.4 770.159C1104.4 768.977 1104.14 767.949 1103.62 767.074C1103.1 766.199 1102.36 765.517 1101.4 765.028C1100.46 764.54 1099.35 764.295 1098.06 764.295C1096.86 764.295 1095.72 764.517 1094.65 764.96C1093.6 765.392 1092.73 766.023 1092.06 766.852C1091.39 767.67 1091.03 768.659 1090.97 769.818H1086.88C1086.95 767.989 1087.5 766.386 1088.53 765.011C1089.57 763.625 1090.92 762.545 1092.59 761.773C1094.27 761 1096.12 760.614 1098.13 760.614C1100.29 760.614 1102.14 761.051 1103.69 761.926C1105.23 762.79 1106.42 763.932 1107.25 765.352C1108.08 766.773 1108.5 768.307 1108.5 769.955C1108.5 771.92 1107.98 773.597 1106.94 774.983C1105.92 776.369 1104.53 777.33 1102.77 777.864V778.136C1104.97 778.5 1106.69 779.437 1107.93 780.949C1109.17 782.449 1109.79 784.307 1109.79 786.523C1109.79 788.42 1109.27 790.125 1108.24 791.636C1107.22 793.136 1105.82 794.318 1104.05 795.182C1102.27 796.045 1100.26 796.477 1098 796.477ZM1116.76 796V792.932L1128.28 780.318C1129.64 778.841 1130.75 777.557 1131.63 776.466C1132.5 775.364 1133.15 774.33 1133.57 773.364C1134 772.386 1134.22 771.364 1134.22 770.295C1134.22 769.068 1133.92 768.006 1133.33 767.108C1132.75 766.21 1131.96 765.517 1130.94 765.028C1129.93 764.54 1128.8 764.295 1127.53 764.295C1126.19 764.295 1125.02 764.574 1124.02 765.131C1123.03 765.676 1122.27 766.443 1121.72 767.432C1121.19 768.42 1120.92 769.58 1120.92 770.909H1116.9C1116.9 768.864 1117.37 767.068 1118.31 765.523C1119.26 763.977 1120.54 762.773 1122.17 761.909C1123.8 761.045 1125.64 760.614 1127.67 760.614C1129.72 760.614 1131.53 761.045 1133.11 761.909C1134.69 762.773 1135.93 763.937 1136.82 765.403C1137.72 766.869 1138.17 768.5 1138.17 770.295C1138.17 771.58 1137.94 772.835 1137.47 774.062C1137.02 775.278 1136.22 776.636 1135.09 778.136C1133.96 779.625 1132.4 781.443 1130.4 783.591L1122.56 791.977V792.25H1138.78V796H1116.76ZM1147.87 796H1143.44L1156.26 761.091H1160.62L1173.44 796H1169.01L1158.57 766.614H1158.3L1147.87 796ZM1149.51 782.364H1167.37V786.114H1149.51V782.364ZM1178.88 796V761.091H1190.67C1193.41 761.091 1195.65 761.585 1197.39 762.574C1199.14 763.551 1200.43 764.875 1201.27 766.545C1202.11 768.216 1202.53 770.08 1202.53 772.136C1202.53 774.193 1202.11 776.062 1201.27 777.744C1200.44 779.426 1199.16 780.767 1197.42 781.767C1195.68 782.756 1193.46 783.25 1190.74 783.25H1182.28V779.5H1190.6C1192.48 779.5 1193.98 779.176 1195.12 778.528C1196.26 777.881 1197.08 777.006 1197.59 775.903C1198.11 774.79 1198.38 773.534 1198.38 772.136C1198.38 770.739 1198.11 769.489 1197.59 768.386C1197.08 767.284 1196.25 766.42 1195.1 765.795C1193.96 765.159 1192.43 764.841 1190.53 764.841H1183.1V796H1178.88ZM1213.57 761.091V796H1209.34V761.091H1213.57ZM1031.85 854V819.091H1043.65C1046.39 819.091 1048.63 819.585 1050.36 820.574C1052.11 821.551 1053.41 822.875 1054.25 824.545C1055.09 826.216 1055.51 828.08 1055.51 830.136C1055.51 832.193 1055.09 834.062 1054.25 835.744C1053.42 837.426 1052.14 838.767 1050.4 839.767C1048.66 840.756 1046.43 841.25 1043.72 841.25H1035.26V837.5H1043.58C1045.45 837.5 1046.96 837.176 1048.1 836.528C1049.23 835.881 1050.06 835.006 1050.57 833.903C1051.09 832.79 1051.35 831.534 1051.35 830.136C1051.35 828.739 1051.09 827.489 1050.57 826.386C1050.06 825.284 1049.23 824.42 1048.08 823.795C1046.93 823.159 1045.41 822.841 1043.51 822.841H1036.08V854H1031.85ZM1061.78 854V827.818H1065.66V831.773H1065.93C1066.41 830.477 1067.28 829.426 1068.53 828.619C1069.78 827.812 1071.18 827.409 1072.75 827.409C1073.05 827.409 1073.42 827.415 1073.86 827.426C1074.3 827.437 1074.64 827.455 1074.87 827.477V831.568C1074.73 831.534 1074.42 831.483 1073.93 831.415C1073.45 831.335 1072.95 831.295 1072.41 831.295C1071.14 831.295 1070 831.562 1069 832.097C1068.01 832.619 1067.23 833.347 1066.65 834.278C1066.08 835.199 1065.8 836.25 1065.8 837.432V854H1061.78ZM1079.63 854V827.818H1083.66V854H1079.63ZM1081.68 823.455C1080.9 823.455 1080.22 823.188 1079.65 822.653C1079.1 822.119 1078.82 821.477 1078.82 820.727C1078.82 819.977 1079.1 819.335 1079.65 818.801C1080.22 818.267 1080.9 818 1081.68 818C1082.46 818 1083.13 818.267 1083.69 818.801C1084.26 819.335 1084.54 819.977 1084.54 820.727C1084.54 821.477 1084.26 822.119 1083.69 822.653C1083.13 823.188 1082.46 823.455 1081.68 823.455ZM1095.05 838.25V854H1091.03V827.818H1094.91V831.909H1095.25C1095.87 830.58 1096.8 829.511 1098.05 828.705C1099.3 827.886 1100.91 827.477 1102.89 827.477C1104.66 827.477 1106.21 827.841 1107.54 828.568C1108.87 829.284 1109.91 830.375 1110.64 831.841C1111.38 833.295 1111.75 835.136 1111.75 837.364V854H1107.73V837.636C1107.73 835.58 1107.2 833.977 1106.13 832.83C1105.06 831.67 1103.59 831.091 1101.73 831.091C1100.45 831.091 1099.3 831.369 1098.29 831.926C1097.29 832.483 1096.5 833.295 1095.92 834.364C1095.34 835.432 1095.05 836.727 1095.05 838.25ZM1130.49 827.818V831.227H1116.92V827.818H1130.49ZM1120.88 821.545H1124.9V846.5C1124.9 847.636 1125.06 848.489 1125.39 849.057C1125.73 849.614 1126.17 849.989 1126.69 850.182C1127.22 850.364 1127.79 850.455 1128.38 850.455C1128.82 850.455 1129.18 850.432 1129.47 850.386C1129.75 850.33 1129.98 850.284 1130.15 850.25L1130.97 853.864C1130.69 853.966 1130.31 854.068 1129.83 854.17C1129.34 854.284 1128.72 854.341 1127.97 854.341C1126.83 854.341 1125.72 854.097 1124.63 853.608C1123.55 853.119 1122.65 852.375 1121.93 851.375C1121.23 850.375 1120.88 849.114 1120.88 847.591V821.545ZM1147.24 854.545C1144.71 854.545 1142.54 853.989 1140.71 852.875C1138.89 851.75 1137.49 850.182 1136.5 848.17C1135.52 846.148 1135.03 843.795 1135.03 841.114C1135.03 838.432 1135.52 836.068 1136.5 834.023C1137.49 831.966 1138.86 830.364 1140.62 829.216C1142.4 828.057 1144.46 827.477 1146.83 827.477C1148.19 827.477 1149.54 827.705 1150.87 828.159C1152.2 828.614 1153.41 829.352 1154.5 830.375C1155.59 831.386 1156.46 832.727 1157.11 834.398C1157.75 836.068 1158.08 838.125 1158.08 840.568V842.273H1137.9V838.795H1153.99C1153.99 837.318 1153.69 836 1153.1 834.841C1152.52 833.682 1151.69 832.767 1150.61 832.097C1149.54 831.426 1148.28 831.091 1146.83 831.091C1145.23 831.091 1143.84 831.489 1142.67 832.284C1141.51 833.068 1140.62 834.091 1139.99 835.352C1139.37 836.614 1139.06 837.966 1139.06 839.409V841.727C1139.06 843.705 1139.4 845.381 1140.08 846.756C1140.77 848.119 1141.73 849.159 1142.96 849.875C1144.19 850.58 1145.61 850.932 1147.24 850.932C1148.29 850.932 1149.25 850.784 1150.1 850.489C1150.96 850.182 1151.71 849.727 1152.33 849.125C1152.96 848.511 1153.44 847.75 1153.78 846.841L1157.67 847.932C1157.26 849.25 1156.57 850.409 1155.61 851.409C1154.64 852.398 1153.45 853.17 1152.03 853.727C1150.61 854.273 1149.01 854.545 1147.24 854.545ZM1164.2 854V827.818H1168.08V831.773H1168.36C1168.83 830.477 1169.7 829.426 1170.95 828.619C1172.2 827.812 1173.61 827.409 1175.17 827.409C1175.47 827.409 1175.84 827.415 1176.28 827.426C1176.73 827.437 1177.06 827.455 1177.29 827.477V831.568C1177.15 831.534 1176.84 831.483 1176.35 831.415C1175.87 831.335 1175.37 831.295 1174.83 831.295C1173.56 831.295 1172.42 831.562 1171.42 832.097C1170.44 832.619 1169.65 833.347 1169.07 834.278C1168.5 835.199 1168.22 836.25 1168.22 837.432V854H1164.2ZM1025.14 894.545C1025.14 890.25 1025.7 886.301 1026.82 882.699C1027.94 879.085 1029.54 875.761 1031.62 872.727H1035.17C1034.35 873.852 1033.58 875.239 1032.87 876.886C1032.16 878.523 1031.54 880.324 1031.01 882.29C1030.47 884.244 1030.05 886.267 1029.75 888.358C1029.45 890.449 1029.3 892.511 1029.3 894.545C1029.3 897.25 1029.57 899.994 1030.09 902.778C1030.61 905.562 1031.32 908.148 1032.2 910.534C1033.09 912.92 1034.08 914.864 1035.17 916.364H1031.62C1029.54 913.33 1027.94 910.011 1026.82 906.409C1025.7 902.795 1025.14 898.841 1025.14 894.545ZM1069.74 888H1065.51C1065.26 886.784 1064.83 885.716 1064.2 884.795C1063.59 883.875 1062.84 883.102 1061.95 882.477C1061.08 881.841 1060.1 881.364 1059.04 881.045C1057.97 880.727 1056.85 880.568 1055.69 880.568C1053.58 880.568 1051.67 881.102 1049.95 882.17C1048.25 883.239 1046.89 884.812 1045.88 886.892C1044.88 888.972 1044.38 891.523 1044.38 894.545C1044.38 897.568 1044.88 900.119 1045.88 902.199C1046.89 904.278 1048.25 905.852 1049.95 906.92C1051.67 907.989 1053.58 908.523 1055.69 908.523C1056.85 908.523 1057.97 908.364 1059.04 908.045C1060.1 907.727 1061.08 907.256 1061.95 906.631C1062.84 905.994 1063.59 905.216 1064.2 904.295C1064.83 903.364 1065.26 902.295 1065.51 901.091H1069.74C1069.42 902.875 1068.84 904.472 1068 905.881C1067.16 907.29 1066.12 908.489 1064.87 909.477C1063.62 910.455 1062.21 911.199 1060.65 911.71C1059.11 912.222 1057.46 912.477 1055.69 912.477C1052.72 912.477 1050.07 911.75 1047.75 910.295C1045.43 908.841 1043.61 906.773 1042.28 904.091C1040.95 901.409 1040.29 898.227 1040.29 894.545C1040.29 890.864 1040.95 887.682 1042.28 885C1043.61 882.318 1045.43 880.25 1047.75 878.795C1050.07 877.341 1052.72 876.614 1055.69 876.614C1057.46 876.614 1059.11 876.869 1060.65 877.381C1062.21 877.892 1063.62 878.642 1064.87 879.631C1066.12 880.608 1067.16 881.801 1068 883.21C1068.84 884.608 1069.42 886.205 1069.74 888ZM1080.05 877.091V912H1076.03V877.091H1080.05ZM1087.42 912V885.818H1091.44V912H1087.42ZM1089.46 881.455C1088.68 881.455 1088 881.188 1087.43 880.653C1086.88 880.119 1086.6 879.477 1086.6 878.727C1086.6 877.977 1086.88 877.335 1087.43 876.801C1088 876.267 1088.68 876 1089.46 876C1090.25 876 1090.92 876.267 1091.47 876.801C1092.04 877.335 1092.33 877.977 1092.33 878.727C1092.33 879.477 1092.04 880.119 1091.47 880.653C1090.92 881.188 1090.25 881.455 1089.46 881.455ZM1109.78 912.545C1107.26 912.545 1105.09 911.989 1103.26 910.875C1101.44 909.75 1100.03 908.182 1099.05 906.17C1098.07 904.148 1097.58 901.795 1097.58 899.114C1097.58 896.432 1098.07 894.068 1099.05 892.023C1100.03 889.966 1101.41 888.364 1103.17 887.216C1104.94 886.057 1107.01 885.477 1109.38 885.477C1110.74 885.477 1112.09 885.705 1113.41 886.159C1114.74 886.614 1115.95 887.352 1117.05 888.375C1118.14 889.386 1119.01 890.727 1119.65 892.398C1120.3 894.068 1120.62 896.125 1120.62 898.568V900.273H1100.44V896.795H1116.53C1116.53 895.318 1116.24 894 1115.65 892.841C1115.07 891.682 1114.24 890.767 1113.16 890.097C1112.09 889.426 1110.83 889.091 1109.38 889.091C1107.77 889.091 1106.39 889.489 1105.22 890.284C1104.06 891.068 1103.16 892.091 1102.54 893.352C1101.91 894.614 1101.6 895.966 1101.6 897.409V899.727C1101.6 901.705 1101.94 903.381 1102.62 904.756C1103.32 906.119 1104.28 907.159 1105.51 907.875C1106.73 908.58 1108.16 908.932 1109.78 908.932C1110.84 908.932 1111.8 908.784 1112.65 908.489C1113.51 908.182 1114.26 907.727 1114.88 907.125C1115.51 906.511 1115.99 905.75 1116.33 904.841L1120.22 905.932C1119.81 907.25 1119.12 908.409 1118.15 909.409C1117.19 910.398 1115.99 911.17 1114.57 911.727C1113.15 912.273 1111.56 912.545 1109.78 912.545ZM1130.77 896.25V912H1126.74V885.818H1130.63V889.909H1130.97C1131.59 888.58 1132.52 887.511 1133.77 886.705C1135.02 885.886 1136.63 885.477 1138.61 885.477C1140.38 885.477 1141.93 885.841 1143.26 886.568C1144.59 887.284 1145.63 888.375 1146.36 889.841C1147.1 891.295 1147.47 893.136 1147.47 895.364V912H1143.45V895.636C1143.45 893.58 1142.91 891.977 1141.85 890.83C1140.78 889.67 1139.31 889.091 1137.45 889.091C1136.16 889.091 1135.02 889.369 1134.01 889.926C1133.01 890.483 1132.22 891.295 1131.64 892.364C1131.06 893.432 1130.77 894.727 1130.77 896.25ZM1166.21 885.818V889.227H1152.64V885.818H1166.21ZM1156.6 879.545H1160.62V904.5C1160.62 905.636 1160.78 906.489 1161.11 907.057C1161.45 907.614 1161.88 907.989 1162.41 908.182C1162.94 908.364 1163.5 908.455 1164.1 908.455C1164.54 908.455 1164.9 908.432 1165.19 908.386C1165.47 908.33 1165.7 908.284 1165.87 908.25L1166.69 911.864C1166.41 911.966 1166.03 912.068 1165.54 912.17C1165.06 912.284 1164.44 912.341 1163.69 912.341C1162.55 912.341 1161.44 912.097 1160.35 911.608C1159.27 911.119 1158.37 910.375 1157.65 909.375C1156.95 908.375 1156.6 907.114 1156.6 905.591V879.545ZM1180.85 897.273C1180.85 901.568 1180.29 905.523 1179.16 909.136C1178.05 912.739 1176.45 916.057 1174.37 919.091H1170.83C1171.65 917.966 1172.41 916.58 1173.11 914.932C1173.83 913.295 1174.45 911.5 1174.99 909.545C1175.52 907.58 1175.94 905.551 1176.23 903.46C1176.54 901.358 1176.69 899.295 1176.69 897.273C1176.69 894.568 1176.43 891.824 1175.91 889.04C1175.38 886.256 1174.68 883.67 1173.79 881.284C1172.91 878.898 1171.92 876.955 1170.83 875.455H1174.37C1176.45 878.489 1178.05 881.812 1179.16 885.426C1180.29 889.028 1180.85 892.977 1180.85 897.273Z" fill="black"/>
<rect x="955.5" y="693.5" width="295" height="286" rx="31.5" stroke="black"/>
<path d="M811.964 868.964C810.012 870.917 810.012 874.083 811.964 876.036L843.784 907.855C845.737 909.808 848.903 909.808 850.855 907.855C852.808 905.903 852.808 902.737 850.855 900.784L822.571 872.5L850.855 844.216C852.808 842.263 852.808 839.097 850.855 837.145C848.903 835.192 845.737 835.192 843.784 837.145L811.964 868.964ZM926.5 867.5H815.5V877.5H926.5V867.5Z" fill="black"/>
<path d="M929.536 805.536C931.488 803.583 931.488 800.417 929.536 798.464L897.716 766.645C895.763 764.692 892.597 764.692 890.645 766.645C888.692 768.597 888.692 771.763 890.645 773.716L918.929 802L890.645 830.284C888.692 832.237 888.692 835.403 890.645 837.355C892.597 839.308 895.763 839.308 897.716 837.355L929.536 805.536ZM815 807H926V797H815V807Z" fill="black"/>
<path d="M598.464 640.536C600.417 642.488 603.583 642.488 605.536 640.536L637.355 608.716C639.308 606.763 639.308 603.597 637.355 601.645C635.403 599.692 632.237 599.692 630.284 601.645L602 629.929L573.716 601.645C571.763 599.692 568.597 599.692 566.645 601.645C564.692 603.597 564.692 606.763 566.645 608.716L598.464 640.536ZM597 526V637H607V526H597Z" fill="black"/>
<path d="M705.536 522.464C703.583 520.512 700.417 520.512 698.464 522.464L666.645 554.284C664.692 556.237 664.692 559.403 666.645 561.355C668.597 563.308 671.763 563.308 673.716 561.355L702 533.071L730.284 561.355C732.237 563.308 735.403 563.308 737.355 561.355C739.308 559.403 739.308 556.237 737.355 554.284L705.536 522.464ZM707 637V526H697V637H707Z" fill="black"/>
<path d="M411.282 329.581C412.708 327.216 411.946 324.143 409.581 322.718L371.042 299.487C368.677 298.061 365.604 298.823 364.178 301.187C362.753 303.552 363.514 306.625 365.879 308.051L400.137 328.701L379.487 362.958C378.061 365.323 378.823 368.396 381.187 369.822C383.552 371.247 386.625 370.486 388.051 368.121L411.282 329.581ZM178.203 388.853L408.203 331.853L405.797 322.147L175.797 379.147L178.203 388.853Z" fill="black"/>
<rect x="0.5" y="0.5" width="1279" height="1008" rx="31.5" stroke="black"/>
</svg>
