<svg width="57" height="57" viewBox="0 0 57 57" fill="none" xmlns="http://www.w3.org/2000/svg">
<g clip-path="url(#clip0_2_1641)">
<g style="mix-blend-mode:multiply" opacity="0.3">
<path d="M55.6995 28.3544C55.752 27.8821 55.4715 27.3993 54.8494 27.0408L48.9026 23.6083L50.9896 13.0918L47.7566 11.2247L48.2106 8.85922L35.5777 1.56436L35.1234 3.92986L33.4459 2.96086L32.7237 3.32167L30.945 13.2397L27.4236 11.2076C26.277 10.545 24.4003 10.545 23.2537 11.2068L11.6234 17.9185C11.1307 18.2035 10.8511 18.5652 10.7818 18.9388L10.7835 18.9328H10.7818V18.9391C10.7596 19.0601 10.7596 19.1841 10.7818 19.305C10.7818 19.305 10.7596 21.3525 10.7818 21.473V21.4747C10.7818 21.4747 10.7679 29.2837 10.773 32.653V32.6775C10.773 32.771 10.773 32.8619 10.773 32.9477V32.9708C10.773 33.0369 10.773 33.1002 10.773 33.1615V33.2649C10.773 33.3002 10.773 33.3344 10.773 33.3687C10.773 33.4256 10.773 33.4775 10.773 33.5274V33.6098C10.773 33.6383 10.773 33.6668 10.773 33.6953C10.773 33.7417 10.773 33.7859 10.773 33.8258V33.8335C10.773 33.8762 10.773 33.9141 10.773 33.9492C10.773 33.9617 10.773 33.974 10.773 33.9854C10.773 34.0139 10.773 34.0398 10.773 34.0615C10.7734 34.0688 10.7734 34.0761 10.773 34.0834C10.773 34.1037 10.773 34.1205 10.773 34.1342C10.7725 34.1385 10.7725 34.1429 10.773 34.1473C10.7725 34.1557 10.7725 34.1642 10.773 34.1726C10.8428 34.5463 11.1218 34.9085 11.6146 35.1924L14.6775 36.9537L14.6094 36.9933L1.31414 44.6689C0.951332 44.8778 0.781472 45.1571 0.801137 45.4333V46.4407C0.780902 46.7163 0.950762 46.9962 1.31414 47.2051L17.7683 56.7022C18.4566 57.0995 19.5826 57.0992 20.2706 56.7022L33.5619 49.028L34.5802 48.4409L39.051 51.0213C39.6247 51.3527 40.3802 51.5183 41.1358 51.5183C41.8913 51.5183 42.6477 51.3527 43.2214 51.0221L54.8477 44.3135C55.3755 44.0088 55.6582 43.615 55.7001 43.2137V30.5132C55.707 30.446 55.7001 28.3544 55.7001 28.3544H55.6995Z" fill="#08335E"/>
</g>
<path d="M43.2214 34.5913C42.0748 35.2531 40.1981 35.2525 39.051 34.5913L11.6234 18.7604C10.4766 18.0975 10.4766 17.0145 11.6234 16.3533L23.2537 9.64211C24.4003 8.98006 26.2767 8.98063 27.4236 9.64211L54.8485 25.4761C55.9954 26.1382 55.9945 27.2215 54.8485 27.8827L43.2214 34.5913Z" fill="#B6B8B7"/>
<path d="M26.8214 10.6852L54.246 26.519C54.3256 26.5614 54.3983 26.6155 54.4618 26.6794C54.3983 26.7434 54.3256 26.7975 54.246 26.8399L42.62 33.5485C41.8437 33.9968 40.429 33.9962 39.6526 33.5485L12.2265 17.7179C12.1475 17.6747 12.0751 17.6204 12.0116 17.5566C12.0753 17.4932 12.1477 17.439 12.2265 17.3958L23.8545 10.6844C24.6314 10.2369 26.0459 10.2369 26.8214 10.6852Z" fill="#5B6366"/>
<path d="M10.7818 17.3742C10.7821 17.372 10.7827 17.3699 10.7835 17.3679H10.7818V17.3742ZM10.7818 19.9078C10.8517 20.2806 11.1307 20.6428 11.6234 20.9275L39.051 36.7582C40.1981 37.4205 42.0748 37.4205 43.2214 36.7582L54.8477 30.0507C55.3755 29.7457 55.6582 29.3519 55.7001 28.9506V28.9472C55.707 28.8802 55.7001 26.7886 55.7001 26.7886C55.6557 27.1876 55.3741 27.5786 54.8483 27.8815L43.222 34.5902C42.0754 35.2519 40.1987 35.2514 39.0516 34.5902L11.6234 18.7604C11.1307 18.4754 10.8505 18.1132 10.7818 17.7395C10.7818 17.7395 10.7596 19.787 10.7818 19.9078Z" fill="#5B6366"/>
<path d="M10.7818 32.6057C10.8517 32.9794 11.1307 33.3413 11.6234 33.626L39.051 49.4563C40.1981 50.1184 42.0748 50.1184 43.2214 49.4563L54.8477 42.75C55.3755 42.4451 55.6582 42.0512 55.7001 41.6499V28.9517C55.6582 29.353 55.3755 29.7469 54.8477 30.0518L43.2214 36.7593C42.0748 37.4216 40.1981 37.4216 39.051 36.7593L11.6234 20.9287C11.1307 20.6437 10.8517 20.2817 10.7818 19.909C10.7818 19.909 10.7596 32.484 10.7818 32.6057Z" fill="#B6B8B7"/>
<path d="M54.8477 41.3042L43.2214 48.0128C42.0748 48.674 40.1981 48.674 39.051 48.0128L11.6234 32.1813C11.1307 31.8963 10.8517 31.535 10.7818 31.1616C10.775 31.126 10.7724 30.0501 10.7719 28.537C10.7719 30.7646 10.7736 32.5607 10.7818 32.6066C10.8517 32.9802 11.1307 33.3421 11.6234 33.6269L39.051 49.4572C40.1981 50.1192 42.0748 50.1192 43.2214 49.4572L54.8477 42.75C55.3755 42.445 55.6582 42.0512 55.7001 41.6499V40.2055C55.6582 40.6054 55.3755 40.9995 54.8477 41.3042Z" fill="#97989C"/>
<path d="M39.051 49.4566L11.6234 33.6263C11.1307 33.3413 10.8517 32.9796 10.7818 32.606C10.7596 32.4843 10.7818 19.9092 10.7818 19.9092C10.8517 20.282 11.1307 20.6443 11.6234 20.929L39.051 36.7596C39.6247 37.091 40.3802 37.2566 41.1358 37.2566V49.9537C40.3802 49.9534 39.6247 49.7878 39.051 49.4566Z" fill="#97989C"/>
<path d="M34.817 43.0906L15.8602 32.1514V35.7989L34.8127 46.7409L34.817 43.0906Z" fill="#2C2C2B"/>
<path d="M33.5619 44.9266L17.1114 35.4284L15.8602 34.7062L14.6094 35.4284L1.31413 43.1034C0.625859 43.501 0.625859 44.1505 1.31413 44.5475L17.7683 54.0446C18.4566 54.4419 19.5826 54.4419 20.2706 54.0446L33.5619 46.3695L34.8127 45.647L33.5619 44.9266Z" fill="#6A6B6F"/>
<path d="M1.31414 44.5475L17.7683 54.0446C18.4566 54.4418 19.5826 54.4418 20.2706 54.0446L33.5619 46.3695L34.8128 45.647V46.74L33.5619 47.4628L20.2706 55.1372C19.5826 55.5337 18.4566 55.5345 17.7683 55.1372L1.31414 45.6405C0.951331 45.4313 0.781471 45.1511 0.801136 44.8764V43.8683C0.818806 44.1157 0.988666 44.3597 1.31414 44.5475Z" fill="#2C2C2B"/>
<path d="M13.5318 48.0838C13.0735 48.3482 12.3228 48.3482 11.864 48.0838L10.374 47.2228C9.91515 46.958 9.91515 46.5245 10.374 46.2598L18.1858 41.7485C18.6444 41.484 19.3951 41.484 19.8542 41.7485L21.3465 42.6095C21.8045 42.8745 21.8045 43.308 21.3465 43.5725L13.5318 48.0838Z" fill="#2C2C2B"/>
<path d="M19.6288 34.3242L6.9845 41.6177L19.9933 49.1277L32.5869 41.8058L19.6288 34.3242Z" fill="#E5E5E5"/>
<path d="M32.5869 41.8058L19.9933 49.1277L6.9845 41.6177V43.273L19.9933 50.7833L34.0478 42.6494L32.5869 41.8058Z" fill="#B6B8B7"/>
<path d="M6.9845 41.6177V43.273L19.9933 50.7833V49.1277L6.9845 41.6177Z" fill="#C7C7C7"/>
<path d="M3.45876 43.7164L3.05264 43.9048L3.45876 44.3107V45.7858L16.4673 53.2959V51.227L3.45876 43.7164Z" fill="#3D3D3D"/>
<path d="M3.05264 43.9048V45.5592L16.0612 53.0704V51.4149L3.05264 43.9048Z" fill="#2C2C2B"/>
<g style="mix-blend-mode:screen" opacity="0.2">
<path d="M33.7326 30.1316L52.4089 27.9015L54.246 26.8407C54.3256 26.7984 54.3983 26.7443 54.4618 26.6803C54.3983 26.6163 54.3256 26.5623 54.246 26.5198L51.9504 25.194L29.7677 27.8445L33.7326 30.1316Z" fill="#5B6366"/>
</g>
<path d="M47.6631 24.7312C48.122 24.4658 48.1214 24.0321 47.6631 23.7673L30.3744 13.7866C29.9162 13.5221 29.1655 13.5221 28.7069 13.7866L26.173 15.2521C25.7141 15.5171 25.7147 15.9509 26.173 16.2159L43.4625 26.198C43.9208 26.4631 44.6712 26.4625 45.1297 26.198L47.6631 24.7312Z" fill="#2C2C2B"/>
<path d="M43.4625 26.198L26.4035 16.3499C26.4261 16.3345 26.4437 16.3182 26.468 16.3037L29.0027 14.8379C29.4607 14.5729 30.2114 14.5729 30.6703 14.8379L47.7284 24.6853C47.7062 24.7004 47.6882 24.7172 47.6631 24.7317L45.1292 26.1978C44.6706 26.4625 43.9202 26.4631 43.4625 26.198Z" fill="#323A3D"/>
<path d="M30.3984 14.7208L32.7237 1.75873L50.2674 11.8873L47.7284 24.6847L30.3984 14.7208Z" fill="#2C2C2B"/>
<path d="M33.4459 1.39706L32.7237 1.75873L50.2674 11.8873L47.7284 24.6847L48.4506 24.3236L50.9896 11.5263L33.4459 1.39706Z" fill="#6A6B6F"/>
<path d="M32.4227 16.4134L45.0562 23.7129L48.2106 7.29344L35.5777 0L32.4227 16.4134Z" fill="#E5E5E5"/>
<path d="M20.479 22.189L21.9735 21.3257C22.4315 21.0609 23.1825 21.0609 23.6413 21.3257L34.6113 27.6624C35.0701 27.9274 35.0695 28.3607 34.6113 28.6254L33.1193 29.4867C33.0261 29.5383 32.9271 29.5786 32.8243 29.6067L20.2689 22.3608C20.3291 22.2925 20.4 22.2344 20.479 22.189Z" fill="#323A3D"/>
<path d="M24.738 24.213C25.1444 24.4482 25.7592 24.4735 26.1108 24.27C26.4625 24.0665 26.4195 23.712 26.0117 23.4775C25.6038 23.2429 24.9911 23.2175 24.6388 23.4205C24.2866 23.6234 24.331 23.9788 24.738 24.213Z" fill="#FBC903"/>
<path d="M31.4158 28.0873C31.822 28.3222 32.4367 28.3472 32.7884 28.1443C33.1401 27.9414 33.0959 27.5863 32.6898 27.3526C32.2837 27.1189 31.6689 27.0921 31.3172 27.2956C30.9655 27.4991 31.0097 27.8525 31.4158 28.0873Z" fill="#6DCD1B"/>
<path d="M29.4291 26.9154C29.8355 27.15 30.4497 27.1756 30.8014 26.9724C31.1531 26.7692 31.1098 26.4144 30.7033 26.1801C30.2969 25.9458 29.6822 25.9196 29.3302 26.1231C28.9782 26.3266 29.0227 26.6811 29.4291 26.9154Z" fill="#FF0000"/>
<path d="M22.6356 23.0802C23.0428 23.315 23.657 23.3407 24.0084 23.1372C24.3598 22.9337 24.3162 22.5791 23.9115 22.344C23.5068 22.1089 22.8906 22.0841 22.5387 22.287C22.1867 22.4899 22.23 22.8459 22.6356 23.0802Z" fill="#B6B8B7"/>
</g>
<defs>
<clipPath id="clip0_2_1641">
<rect width="57" height="57" fill="white"/>
</clipPath>
</defs>
</svg>
