<svg width="271" height="249" viewBox="0 0 271 249" fill="none" xmlns="http://www.w3.org/2000/svg">
<g clip-path="url(#clip0_164_53)">
<mask id="mask0_164_53" style="mask-type:luminance" maskUnits="userSpaceOnUse" x="0" y="1" width="271" height="250">
<path d="M0 1.54663H270.259V250.158H0V1.54663Z" fill="white"/>
</mask>
<g mask="url(#mask0_164_53)">
<path d="M75.7677 250.129H200.982C215.419 250.129 229.358 244.881 240.172 235.371L253.112 224.005C275.081 204.699 273.242 170.064 249.346 153.166C230.114 139.562 224.522 113.596 236.463 93.3483L237.804 91.0671C248.604 72.7571 246.092 49.5862 231.613 34.0008L214.165 15.2072C196.917 -3.38693 166.715 -0.96298 152.678 20.1408C142.006 36.1826 121.163 42.0853 103.602 34.0436L95.9688 30.5501C74.0566 20.5115 48.0483 27.8409 34.681 47.8184L26.1215 60.6226C17.6472 73.3 16.6058 89.5128 23.3966 103.144C31.1999 118.83 28.589 137.666 16.7771 150.642L13.3389 154.42C-8.13186 178.049 -2.2826 215.337 25.3938 231.35L42.4425 241.202C52.5717 247.049 64.0698 250.129 75.7677 250.129Z" fill="#E7E8FF"/>
</g>
<path d="M261.03 213.725C261.229 229.709 250.301 243.184 244.751 247.919H236.249C242.569 226.6 253.026 216.006 258.889 212.469C259.859 211.885 261.016 212.598 261.03 213.725Z" fill="#032068"/>
<path d="M261.928 161.322C270.631 193.991 248.675 232.661 239.216 247.063H220.085C228.302 185.435 242.084 170.462 259.517 160.339C260.444 159.796 261.643 160.281 261.928 161.322Z" fill="white"/>
<path fill-rule="evenodd" clip-rule="evenodd" d="M259.946 161.079C260.401 160.809 260.972 161.051 261.101 161.535C265.395 177.634 262.141 195.273 256.577 210.759C251.128 225.944 243.481 238.964 238.76 246.222H221.055C225.149 216.006 230.585 197.226 237.104 184.779C243.667 172.244 251.328 166.07 259.946 161.079ZM262.741 161.109C262.313 159.511 260.501 158.784 259.089 159.61C250.273 164.729 242.34 171.118 235.593 183.993C228.873 196.842 223.353 216.107 219.243 246.949L219.114 247.918H239.687L239.929 247.533C244.68 240.304 252.57 226.971 258.189 211.329C263.797 195.701 267.163 177.677 262.741 161.109Z" fill="#032068"/>
<path d="M231.055 181.414C238.589 208.791 229.971 237.224 224.336 247.918H210.298C207.145 214.552 219.971 190.297 228.417 180.758C229.243 179.816 230.727 180.201 231.055 181.414Z" fill="#032068"/>
<path fill-rule="evenodd" clip-rule="evenodd" d="M250.002 184.564L254.581 171.746L256.193 172.301L245.692 201.675L252.584 199.621L253.082 201.247L244.994 203.658L235.45 230.38L244.039 227.185L244.622 228.782L234.708 232.462L229.386 247.348L227.789 246.777L238.589 216.533L234.594 205.383L236.192 204.812L239.487 214.009L249.045 187.26L246.064 177.349L247.69 176.864L250.002 184.564Z" fill="#032068"/>
<path fill-rule="evenodd" clip-rule="evenodd" d="M223.879 203.273L226.049 191.38L227.718 191.68L223.323 215.821L229.044 212.826L229.829 214.323L222.938 217.946L219.158 238.664L223.879 234.956L224.935 236.283L218.687 241.174L217.518 247.648L215.834 247.334L218.873 230.75L213.879 224.262L215.22 223.235L219.272 228.498L223.495 205.355L219.458 201.006L220.699 199.851L223.879 203.273Z" fill="white"/>
<path d="M73.6989 47.5323L76.9663 48.3164C77.5517 48.4602 77.609 49.2722 77.0515 49.4872L73.9993 50.712C73.8135 50.7847 73.6849 50.9409 73.6276 51.1405L72.7868 54.6203C72.6443 55.1755 71.887 55.2621 71.6315 54.7332L70.0473 51.4822C69.9761 51.3121 69.8336 51.1977 69.6617 51.1544L65.8244 50.0718C65.2545 49.914 65.2112 49.116 65.7671 48.901L69.2622 47.5756C69.4341 47.5044 69.5626 47.3761 69.6339 47.2044L70.961 43.3689C71.1453 42.8136 71.9583 42.8276 72.1302 43.3982L73.2436 47.1193C73.3148 47.3188 73.4852 47.4905 73.6989 47.5323Z" fill="white"/>
<path d="M47.5357 79.644L48.3766 80.3292C48.8474 80.7004 48.5485 81.4412 47.9492 81.4133L46.907 81.3422C46.7072 81.3422 46.5075 81.4133 46.3789 81.5695L45.552 82.5965C45.1958 83.0388 44.468 82.7821 44.4541 82.2114V80.8566C44.4541 80.6864 44.3828 80.5148 44.2388 80.4003L43.0975 79.4028C42.6562 79.0177 42.9705 78.2908 43.5543 78.3325L44.9093 78.4331C45.0952 78.447 45.281 78.3898 45.4095 78.2614L46.4796 77.1633C46.907 76.7365 47.6209 77.0922 47.5357 77.6907L47.3205 79.0749C47.2786 79.2883 47.3638 79.5018 47.5357 79.644Z" fill="white"/>
<path d="M251.727 129.396L249.274 132.704C249.132 132.917 248.889 133.002 248.646 132.961L245.621 132.361C244.966 132.232 244.567 133.103 245.079 133.559L247.462 135.712C247.633 135.868 247.72 136.111 247.676 136.34L247.077 139.889C246.962 140.561 247.747 140.974 248.19 140.489L250.629 137.75C250.772 137.594 250.985 137.523 251.185 137.551L254.025 137.95C254.652 138.05 255.023 137.209 254.538 136.767L252.427 134.827C252.255 134.671 252.184 134.428 252.213 134.201L252.884 129.937C252.983 129.238 252.141 128.839 251.727 129.396Z" fill="#F4AD5E"/>
<path d="M103.588 41.8283C103.588 36.9238 107.568 32.9597 112.503 32.9597H213.908C218.829 32.9597 222.825 36.9238 222.825 41.8283V239.021C222.825 243.911 218.829 247.89 213.908 247.89H112.503C107.568 247.89 103.588 243.911 103.588 239.021V41.8283Z" fill="white"/>
<path fill-rule="evenodd" clip-rule="evenodd" d="M102.844 41.8282C102.844 36.5243 107.168 32.218 112.503 32.218H213.908C219.243 32.218 223.566 36.5243 223.566 41.8282V239.021C223.566 244.325 219.243 248.617 213.908 248.617H112.503C107.168 248.617 102.844 244.325 102.844 239.021V41.8282ZM112.503 33.701C107.981 33.701 104.33 37.3372 104.33 41.8282V239.021C104.33 243.512 107.981 247.148 112.503 247.148H213.908C218.416 247.148 222.083 243.512 222.083 239.021V41.8282C222.083 37.3372 218.416 33.701 213.908 33.701H112.503Z" fill="#032068"/>
<path d="M197.916 111.984C197.916 131.163 182.294 146.705 163.007 146.705C143.733 146.705 128.097 131.163 128.097 111.984C128.097 92.8205 143.733 77.2773 163.007 77.2773C182.294 77.2773 197.916 92.8205 197.916 111.984Z" fill="#E7E8FF"/>
<path d="M139.495 40.1606L135.629 32.9597H190.782L186.232 40.4886C184.891 42.7129 182.48 44.0817 179.869 44.0817H146.043C143.304 44.0817 140.78 42.5706 139.495 40.1606Z" fill="#032068"/>
<path d="M221.355 37.4086H104.286C108.167 33.5585 111.862 32.8313 113.231 32.9597H212.411C217.189 32.9597 220.37 35.9255 221.355 37.4086Z" fill="#032068"/>
<path d="M221.27 243.67H105.071C109.094 247.591 111.419 248.317 112.845 248.189H213.495C218.459 248.189 220.242 245.181 221.27 243.67Z" fill="#032068"/>
<path d="M120.664 61.0213C120.664 60.2093 121.334 59.5381 122.147 59.5381H161.707C162.536 59.5381 163.206 60.2093 163.206 61.0213V62.591C163.206 63.4169 162.536 64.0727 161.707 64.0727H122.147C121.334 64.0727 120.664 63.4169 120.664 62.591V61.0213Z" fill="#F4AD5E"/>
<path d="M120.664 160.751C120.664 159.924 121.334 159.268 122.147 159.268H161.707C162.536 159.268 163.206 159.924 163.206 160.751V162.32C163.206 163.133 162.536 163.803 161.707 163.803H122.147C121.334 163.803 120.664 163.133 120.664 162.32V160.751Z" fill="#032068"/>
<path d="M120.664 199.894C120.664 199.08 121.334 198.425 122.147 198.425H145.929C146.742 198.425 147.412 199.08 147.412 199.894V201.375C147.412 202.189 146.742 202.859 145.929 202.859H122.147C121.334 202.859 120.664 202.189 120.664 201.375V199.894Z" fill="#032068"/>
<path d="M120.664 171.831C120.664 171.004 121.334 170.348 122.147 170.348H201.639C202.452 170.348 203.122 171.004 203.122 171.831V186.604C203.122 187.416 202.452 188.072 201.639 188.072H122.147C121.334 188.072 120.664 187.416 120.664 186.604V171.831Z" fill="#E7E8FF"/>
<path d="M120.664 210.245C120.664 209.418 121.334 208.762 122.147 208.762H201.639C202.452 208.762 203.122 209.418 203.122 210.245V225.018C203.122 225.83 202.452 226.487 201.639 226.487H122.147C121.334 226.487 120.664 225.83 120.664 225.018V210.245Z" fill="#E7E8FF"/>
<path fill-rule="evenodd" clip-rule="evenodd" d="M212.967 43.5269H214.45V49.5725H212.967V43.5269Z" fill="#032068"/>
<path fill-rule="evenodd" clip-rule="evenodd" d="M209.171 44.2812H210.655V49.5721H209.171V44.2812Z" fill="#032068"/>
<path fill-rule="evenodd" clip-rule="evenodd" d="M205.377 45.7937H206.86V49.572H205.377V45.7937Z" fill="#032068"/>
<path fill-rule="evenodd" clip-rule="evenodd" d="M201.567 47.3049H203.051V49.5722H201.567V47.3049Z" fill="#032068"/>
<path d="M163.349 112.413C153.518 112.413 145.416 119.884 144.331 129.509C144.204 130.721 145.201 131.719 146.443 131.719H180.255C181.481 131.719 182.494 130.721 182.351 129.509C181.267 119.884 173.178 112.413 163.349 112.413Z" fill="white"/>
<path d="M172.764 101.047C172.764 106.067 168.67 110.132 163.634 110.132C158.584 110.132 154.489 106.067 154.489 101.047C154.489 96.0283 158.584 91.9639 163.634 91.9639C168.67 91.9639 172.764 96.0283 172.764 101.047Z" fill="white"/>
<path d="M85.8257 130.493L88.8362 139.777C90.0487 144.14 85.8257 148.731 75.7538 148.731C67.7075 148.731 66.1093 144.153 66.5089 140.46L68.92 127.713C66.9084 125.731 65.2963 124.534 65.2963 115.022C65.2963 103.13 71.7306 98.7659 79.3775 98.7659C87.0243 98.7659 93.4726 105.098 93.4726 116.604C93.4726 126.515 88.0944 129.694 85.8257 130.493Z" fill="#EFCB96"/>
<path d="M104.913 121.795C110.906 127.998 110.092 143.284 109.18 147.947C99.4779 140.788 92.9167 138.422 89.5206 138.151C88.9786 138.108 88.878 139.376 88.4939 139.433L85.612 129.937C89.948 128.782 92.7014 124.889 93.1009 115.962C93.4153 108.834 89.8195 103.942 87.9798 102.388C81.674 101.989 78.5211 109.761 76.5529 112.869C74.9826 115.35 73.7995 114.937 73.4 114.41C71.4318 109.761 67.8793 109.375 67.0942 114.41C66.467 118.459 69.462 120.497 71.0322 121.01L66.5089 140.802C65.9808 140.831 65.4821 139.092 65.4821 138.307C57.0502 139.234 47.8068 143.669 45.0534 145.508C43.8687 133.089 55.2817 123.734 58.4346 115.962C61.5875 108.206 57.2499 104.327 60.4028 99.2794C62.7427 95.5444 67.0942 95.017 69.8615 94.2313C72.6149 93.4627 74.1851 90.354 77.338 88.7997C82.8587 86.8603 88.1083 91.6516 89.5485 95.017C90.4761 94.8886 93.1009 95.2443 96.2538 97.7251C105.313 103.942 97.4245 114.024 104.913 121.795Z" fill="#032068"/>
<path d="M77.8227 129.995C82.5164 131.079 85.2543 130.678 86.0255 130.336L87.2101 134.087C82.2021 134.642 78.8633 131.591 77.8227 129.995Z" fill="#032068"/>
<path d="M76.7666 145.137C84.6705 145.137 88.3793 140.29 89.2357 137.879C104.314 137.879 116.797 148.246 122.504 155.504C128.226 162.776 149.539 201.148 144.346 216.719C140.181 229.168 130.137 231.064 124.586 230.195L125.514 246.706C125.571 247.875 124.63 248.874 123.445 248.874H47.1362C39.161 249.388 21.7703 249.601 15.9354 246.279C8.65961 242.13 1.91171 220.869 15.9354 178.847C27.1771 145.238 53.5411 137.524 65.3257 137.879C65.8522 140.29 68.8626 145.137 76.7666 145.137Z" fill="#F4AD5E"/>
<path d="M38.904 248.902C26.3782 233.659 13.1249 228.226 8.06043 227.414C8.06043 232.29 10.5142 241.573 14.9225 245.965C18.4462 249.487 32.3845 249.388 38.904 248.902Z" fill="#032068"/>
<path d="M135.843 228.383C144.06 225.261 145.472 214.053 145.145 208.848C137.698 212.37 127.682 224.319 123.603 229.851C124.258 230.665 127.611 231.52 135.843 228.383Z" fill="#032068"/>
<path d="M75.7244 192.849C72.0868 194.418 45.0534 207.038 32.5843 213.083C34.139 210.488 40.3736 206.339 41.9283 204.784C43.4971 203.23 49.219 185.078 49.219 187.673C49.219 190.268 46.094 202.189 47.6488 202.189C49.219 202.189 71.0461 192.849 75.7244 192.849Z" fill="#032068"/>
<path d="M86.6387 207.893C64.5979 237.352 46.6082 247.833 40.3736 249.388H51.2864C70.004 234.871 82.6589 215.678 86.6387 207.893Z" fill="#032068"/>
<path d="M113.674 202.717C114.501 212.67 121.649 225.19 125.114 230.195V234.872C117.212 226.16 114.186 209.803 113.674 202.717Z" fill="#032068"/>
<path d="M123.546 188.7C126.456 190.368 131.691 194.232 133.946 195.972L125.629 186.118C125.215 187.773 124.074 188.528 123.546 188.7Z" fill="#032068"/>
<path d="M92.816 169.564L88.8067 208.549C88.7649 209.005 89.1645 209.376 89.6213 209.289L108.509 205.91C108.794 205.853 109.023 205.626 109.065 205.341L114.586 168.28C114.657 167.853 114.301 167.468 113.86 167.496L93.4587 168.95C93.1164 168.979 92.8594 169.236 92.816 169.564Z" fill="white"/>
<path fill-rule="evenodd" clip-rule="evenodd" d="M113.802 166.811C114.686 166.755 115.4 167.524 115.272 168.38L109.75 205.44C109.664 206.024 109.208 206.481 108.624 206.581L89.7343 209.96C88.8362 210.131 88.0371 209.39 88.1223 208.477L92.1315 169.492C92.2027 168.837 92.7448 168.323 93.4013 168.266L113.802 166.811ZM113.901 168.181L93.5004 169.635L89.4927 208.619L108.381 205.24L113.901 168.181Z" fill="#032068"/>
<path d="M119.908 188.7L113.674 198.04C105.356 198.567 103.801 193.89 105.356 186.632C106.597 180.829 111.249 180.758 113.146 181.442L114.186 177.292C119.908 181.969 119.908 186.46 119.908 188.7Z" fill="#EFCB96"/>
<path d="M83.5152 187.673C82.2733 190.981 79.8761 193.205 78.8494 193.89L85.598 204.271C87.6809 202.189 90.2763 202.189 95.9967 199.594C101.719 196.999 103.273 187.673 101.719 182.482C100.463 178.333 93.2294 181.441 90.2763 183.523L90.8043 177.819C87.1667 179.374 85.0839 183.523 83.5152 187.673Z" fill="#EFCB96"/>
<path d="M264.782 90.5676C264.782 104.442 253.468 115.678 239.515 115.678C225.578 115.678 214.264 104.442 214.264 90.5676C214.264 76.6932 225.578 65.4573 239.515 65.4573C253.468 65.4573 264.782 76.6932 264.782 90.5676Z" fill="white"/>
<path fill-rule="evenodd" clip-rule="evenodd" d="M239.515 66.0697C225.92 66.0697 214.893 77.035 214.893 90.5676C214.893 104.1 225.92 115.065 239.515 115.065C253.126 115.065 264.153 104.1 264.153 90.5676C264.153 77.035 253.126 66.0697 239.515 66.0697ZM213.637 90.5676C213.637 76.3514 225.236 64.8293 239.515 64.8293C253.81 64.8293 265.395 76.3514 265.395 90.5676C265.395 104.784 253.81 116.306 239.515 116.306C225.236 116.306 213.637 104.784 213.637 90.5676Z" fill="#032068"/>
<path fill-rule="evenodd" clip-rule="evenodd" d="M239.816 75.0244C235.007 75.0244 231.099 78.9605 231.099 83.8369V89.8685C231.099 90.5815 231.684 91.1661 232.396 91.1661C233.124 91.1661 233.71 90.5815 233.71 89.8685V83.6652C233.71 80.2581 236.449 77.4912 239.816 77.4912C243.196 77.4912 245.936 80.2581 245.936 83.6652V89.5407C245.936 90.2675 246.521 90.8382 247.233 90.8382C247.961 90.8382 248.533 90.2675 248.533 89.5407V83.8369C248.533 78.9605 244.638 75.0244 239.816 75.0244Z" fill="#032068"/>
<path d="M228.688 90.0262C228.688 88.9993 229.53 88.1719 230.557 88.1719H249.074C250.115 88.1719 250.944 88.9993 250.944 90.0262V103.672C250.944 104.685 250.115 105.526 249.074 105.526H230.557C229.53 105.526 228.688 104.685 228.688 103.672V90.0262Z" fill="#F4AD5E"/>
<path fill-rule="evenodd" clip-rule="evenodd" d="M241.242 97.5687C241.756 97.1542 242.084 96.514 242.084 95.8149C242.084 94.5591 241.07 93.5615 239.816 93.5615C238.574 93.5615 237.561 94.5591 237.561 95.8149C237.561 96.5851 237.947 97.2687 238.546 97.6677L238.032 99.7788C237.96 100.093 238.204 100.391 238.532 100.391H241.285C241.598 100.391 241.841 100.093 241.77 99.7788L241.242 97.5687Z" fill="white"/>
</g>
<defs>
<clipPath id="clip0_164_53">
<rect width="271" height="249" fill="white"/>
</clipPath>
</defs>
</svg>
