<svg width="249" height="249" viewBox="0 0 249 249" fill="none" xmlns="http://www.w3.org/2000/svg">
<path d="M219.191 212.46C214.1 217.735 209.283 221.137 205.477 223.825C160.739 255.42 107.803 246.21 96.5527 243.961C79.9393 240.64 47.826 234.22 24.6086 207.346C-10.5173 166.688 -5.04765 102.633 22.1984 60.3493C27.182 52.6148 53.5075 9.68697 107.014 2.8027C139.396 -1.3636 177.142 7.03934 204.477 29.5805C261.855 76.8963 257.771 172.483 219.191 212.46Z" fill="url(#paint0_linear_2_894)"/>
<path d="M47.4358 70.6165C47.4589 69.4209 48.4635 68.4589 49.6947 68.4589H124.377C125.625 68.4589 126.95 69.4506 126.95 70.6624V239.933C126.95 240.838 126.423 241.705 125.763 242.344C125.104 242.983 124.131 243.34 123.2 243.338L47.6993 243.138C46.7598 243.135 45.8411 242.767 45.1839 242.115C44.5267 241.463 44.1567 240.579 44.1744 239.667L47.4358 70.6165Z" fill="#BDD0FB"/>
<g opacity="0.52">
<path d="M90.3248 80.4548L114.755 80.3727L114.746 77.4041L90.343 77.479L90.3248 80.4548Z" fill="white"/>
<path d="M90.2578 91.3891L114.789 91.2805L114.779 88.2874L90.2762 88.3888L90.2578 91.3891Z" fill="white"/>
<path d="M90.1903 102.414L114.822 102.278L114.813 99.2604L90.2089 99.3887L90.1903 102.414Z" fill="white"/>
<path d="M90.1222 113.53L114.857 113.367L114.847 110.324L90.1409 110.48L90.1222 113.53Z" fill="white"/>
<path d="M90.0535 124.739L114.891 124.548L114.881 121.48L90.0723 121.663L90.0535 124.739Z" fill="white"/>
<path d="M89.9145 147.439L114.96 147.191L114.951 144.071L89.9336 144.312L89.9145 147.439Z" fill="white"/>
<path d="M89.7015 182.214L115.067 181.876L115.057 178.677L89.7212 179.006L89.7015 182.214Z" fill="white"/>
<path d="M89.9843 136.042L114.925 135.822L114.916 132.728L90.0033 132.94L89.9843 136.042Z" fill="white"/>
<path d="M89.8441 158.933L114.995 158.656L114.986 155.51L89.8634 155.779L89.8441 158.933Z" fill="white"/>
<path d="M89.7731 170.525L115.031 170.217L115.021 167.044L89.7926 167.344L89.7731 170.525Z" fill="white"/>
<path d="M89.6293 194.004L115.103 193.635L115.093 190.408L89.6491 190.769L89.6293 194.004Z" fill="white"/>
<path d="M89.5564 205.895L115.139 205.495L115.129 202.24L89.5765 202.632L89.5564 205.895Z" fill="white"/>
<path d="M89.483 217.889L115.176 217.457L115.166 214.174L89.5031 214.597L89.483 217.889Z" fill="white"/>
<path d="M89.4088 229.986L115.213 229.522L115.203 226.211L89.4292 226.666L89.4088 229.986Z" fill="white"/>
<path d="M58.2947 80.5624L82.8783 80.4798L82.905 77.5019L58.3489 77.5772L58.2947 80.5624Z" fill="white"/>
<path d="M58.0953 91.5317L82.7807 91.4223L82.8074 88.4198L58.15 88.5218L58.0953 91.5317Z" fill="white"/>
<path d="M57.8943 102.592L82.6822 102.455L82.7092 99.4278L57.9494 99.5569L57.8943 102.592Z" fill="white"/>
<path d="M57.6915 113.744L82.5829 113.58L82.6102 110.527L57.7472 110.684L57.6915 113.744Z" fill="white"/>
<path d="M57.4872 124.99L82.4827 124.797L82.5102 121.719L57.5432 121.904L57.4872 124.99Z" fill="white"/>
<path d="M57.073 147.765L82.2799 147.515L82.3079 144.385L57.1301 144.627L57.073 147.765Z" fill="white"/>
<path d="M56.4388 182.658L81.9692 182.317L81.9978 179.107L56.4973 179.439L56.4388 182.658Z" fill="white"/>
<path d="M57.281 136.33L82.3818 136.109L82.4095 133.005L57.3375 133.218L57.281 136.33Z" fill="white"/>
<path d="M56.8634 159.298L82.1772 159.018L82.2054 155.862L56.9209 156.133L56.8634 159.298Z" fill="white"/>
<path d="M56.652 170.928L82.0737 170.618L82.1021 167.435L56.71 167.736L56.652 170.928Z" fill="white"/>
<path d="M56.2237 194.488L81.8639 194.117L81.8928 190.879L56.2827 191.241L56.2237 194.488Z" fill="white"/>
<path d="M56.0068 206.42L81.7576 206.017L81.7868 202.751L56.0663 203.145L56.0068 206.42Z" fill="white"/>
<path d="M55.7879 218.455L81.6505 218.02L81.6798 214.726L55.848 215.152L55.7879 218.455Z" fill="white"/>
<path d="M55.5673 230.595L81.5424 230.128L81.5721 226.805L55.6279 227.263L55.5673 230.595Z" fill="white"/>
</g>
<path d="M4.57944 117.306C4.61219 115.924 6.03188 114.786 7.77211 114.786H73.549C75.3125 114.786 77.0445 115.983 77.0445 117.385V242.646C77.0445 243.32 76.5557 243.967 75.955 244.443C75.3543 244.919 74.4642 245.185 73.6158 245.184L4.84254 245.034C3.98674 245.032 3.14888 244.758 2.55035 244.272C1.95182 243.786 1.61433 243.114 1.6303 242.434L4.57944 117.306Z" fill="#BDD0FB"/>
<path d="M53.0207 129.546L71.7591 129.526L71.9078 121.894H53.1512L53.0207 129.546Z" fill="url(#paint1_linear_2_894)"/>
<path d="M32.0171 129.543L50.7366 129.523L50.865 121.894H32.1272L32.0171 129.543Z" fill="url(#paint2_linear_2_894)"/>
<path d="M11.0344 129.539L29.7352 129.519L29.8431 121.894H11.1242L11.0344 129.539Z" fill="url(#paint3_linear_2_894)"/>
<path d="M52.7866 143.247L71.4924 143.256L71.6404 135.674L52.9166 135.667L52.7866 143.247Z" fill="url(#paint4_linear_2_894)"/>
<path d="M31.8195 143.236L50.5065 143.246L50.6344 135.667L31.9292 135.66L31.8195 143.236Z" fill="url(#paint5_linear_2_894)"/>
<path d="M10.8735 143.225L29.5417 143.235L29.6492 135.66L10.9629 135.654L10.8735 143.225Z" fill="url(#paint6_linear_2_894)"/>
<path d="M52.553 156.853L71.2262 156.868L71.3738 149.312L52.6826 149.3L52.553 156.853Z" fill="url(#paint7_linear_2_894)"/>
<path d="M31.6224 156.835L50.2769 156.851L50.4043 149.298L31.7317 149.286L31.6224 156.835Z" fill="url(#paint8_linear_2_894)"/>
<path d="M10.713 156.818L29.3487 156.833L29.4558 149.284L10.8021 149.272L10.713 156.818Z" fill="url(#paint9_linear_2_894)"/>
<path d="M52.3205 170.412L70.9613 170.433L71.1083 162.903L52.4495 162.885L52.3205 170.412Z" fill="url(#paint10_linear_2_894)"/>
<path d="M31.4262 170.387L50.0484 170.409L50.1753 162.883L31.5351 162.864L31.4262 170.387Z" fill="url(#paint11_linear_2_894)"/>
<path d="M10.5529 170.363L29.1564 170.385L29.2632 162.862L10.6417 162.844L10.5529 170.363Z" fill="url(#paint12_linear_2_894)"/>
<path d="M52.0888 183.924L70.6973 183.951L70.8438 176.447L52.2175 176.423L52.0888 183.924Z" fill="url(#paint13_linear_2_894)"/>
<path d="M31.2307 183.893L49.8207 183.92L49.9471 176.42L31.3393 176.396L31.2307 183.893Z" fill="url(#paint14_linear_2_894)"/>
<path d="M10.3934 183.862L28.9648 183.889L29.0711 176.393L10.4819 176.368L10.3934 183.862Z" fill="url(#paint15_linear_2_894)"/>
<path d="M51.8579 197.389L70.4341 197.423L70.5802 189.944L51.9861 189.914L51.8579 197.389Z" fill="url(#paint16_linear_2_894)"/>
<path d="M31.0359 197.352L49.5936 197.385L49.7196 189.91L31.1441 189.88L31.0359 197.352Z" fill="url(#paint17_linear_2_894)"/>
<path d="M10.2346 197.314L28.7738 197.347L28.8798 189.876L10.3228 189.846L10.2346 197.314Z" fill="url(#paint18_linear_2_894)"/>
<path d="M51.6275 210.808L70.1717 210.848L70.3173 203.395L51.7553 203.359L51.6275 210.808Z" fill="url(#paint19_linear_2_894)"/>
<path d="M30.8416 210.764L49.3673 210.803L49.4929 203.354L30.9494 203.318L30.8416 210.764Z" fill="url(#paint20_linear_2_894)"/>
<path d="M10.0762 210.72L28.5835 210.759L28.6892 203.314L10.1642 203.278L10.0762 210.72Z" fill="url(#paint21_linear_2_894)"/>
<path d="M51.3985 224.181L69.9106 224.226L70.0557 216.799L51.5258 216.757L51.3985 224.181Z" fill="url(#paint22_linear_2_894)"/>
<path d="M30.6482 224.13L49.1419 224.176L49.2671 216.752L30.7556 216.71L30.6482 224.13Z" fill="url(#paint23_linear_2_894)"/>
<path d="M9.91852 224.08L28.3939 224.125L28.4991 216.705L10.0061 216.663L9.91852 224.08Z" fill="url(#paint24_linear_2_894)"/>
<path d="M51.1696 237.508L69.6499 237.559L69.7945 230.158L51.2965 230.11L51.1696 237.508Z" fill="url(#paint25_linear_2_894)"/>
<path d="M30.4551 237.451L48.9171 237.502L49.0419 230.104L30.5622 230.056L30.4551 237.451Z" fill="url(#paint26_linear_2_894)"/>
<path d="M9.76129 237.394L28.2048 237.445L28.3098 230.05L9.84851 230.003L9.76129 237.394Z" fill="url(#paint27_linear_2_894)"/>
<path d="M176.277 120.298C176.309 118.915 177.729 117.777 179.469 117.777H245.246C247.01 117.777 248.742 118.974 248.742 120.376V245.637C248.742 246.311 248.253 246.958 247.652 247.434C247.052 247.91 246.162 248.177 245.313 248.175L176.54 248.026C175.684 248.024 174.846 247.749 174.248 247.263C173.649 246.777 173.312 246.105 173.328 245.425L176.277 120.298Z" fill="#BDD0FB"/>
<g opacity="0.5">
<path d="M224.718 132.538L243.456 132.518L243.605 124.885H224.848L224.718 132.538Z" fill="white"/>
<path d="M203.714 132.534L222.434 132.514L222.562 124.885H203.824L203.714 132.534Z" fill="white"/>
<path d="M182.732 132.53L201.433 132.51L201.54 124.885H182.822L182.732 132.53Z" fill="white"/>
<path d="M224.484 146.238L243.189 146.247L243.338 138.665L224.614 138.659L224.484 146.238Z" fill="white"/>
<path d="M203.517 146.227L222.204 146.237L222.332 138.658L203.626 138.652L203.517 146.227Z" fill="white"/>
<path d="M182.571 146.217L201.239 146.226L201.346 138.651L182.66 138.645L182.571 146.217Z" fill="white"/>
<path d="M224.25 159.844L242.924 159.86L243.071 152.303L224.38 152.291L224.25 159.844Z" fill="white"/>
<path d="M203.32 159.827L221.974 159.842L222.102 152.29L203.429 152.277L203.32 159.827Z" fill="white"/>
<path d="M182.41 159.809L201.046 159.825L201.153 152.276L182.499 152.264L182.41 159.809Z" fill="white"/>
<path d="M224.018 173.403L242.659 173.425L242.806 165.894L224.147 165.876L224.018 173.403Z" fill="white"/>
<path d="M203.124 173.379L221.746 173.4L221.873 165.874L203.233 165.856L203.124 173.379Z" fill="white"/>
<path d="M182.25 173.355L200.854 173.376L200.96 165.853L182.339 165.835L182.25 173.355Z" fill="white"/>
<path d="M223.786 186.915L242.394 186.943L242.541 179.438L223.915 179.414L223.786 186.915Z" fill="white"/>
<path d="M202.928 186.884L221.518 186.912L221.644 179.411L203.036 179.387L202.928 186.884Z" fill="white"/>
<path d="M182.091 186.853L200.662 186.881L200.768 179.384L182.179 179.36L182.091 186.853Z" fill="white"/>
<path d="M223.555 200.38L242.131 200.414L242.277 192.936L223.683 192.905L223.555 200.38Z" fill="white"/>
<path d="M202.733 200.343L221.291 200.376L221.417 192.902L202.841 192.871L202.733 200.343Z" fill="white"/>
<path d="M181.932 200.305L200.471 200.339L200.577 192.868L182.02 192.838L181.932 200.305Z" fill="white"/>
<path d="M223.325 213.799L241.869 213.839L242.015 206.386L223.453 206.35L223.325 213.799Z" fill="white"/>
<path d="M202.539 213.755L221.065 213.795L221.19 206.346L202.647 206.31L202.539 213.755Z" fill="white"/>
<path d="M181.774 213.711L200.281 213.751L200.386 206.305L181.862 206.269L181.774 213.711Z" fill="white"/>
<path d="M223.096 227.173L241.608 227.218L241.753 219.791L223.223 219.749L223.096 227.173Z" fill="white"/>
<path d="M202.345 227.122L220.839 227.167L220.964 219.744L202.453 219.702L202.345 227.122Z" fill="white"/>
<path d="M181.616 227.071L200.091 227.116L200.196 219.697L181.703 219.655L181.616 227.071Z" fill="white"/>
<path d="M222.867 240.499L241.347 240.551L241.492 233.149L222.994 233.101L222.867 240.499Z" fill="white"/>
<path d="M202.153 240.442L220.615 240.493L220.739 233.095L202.26 233.048L202.153 240.442Z" fill="white"/>
<path d="M181.459 240.385L199.902 240.436L200.007 233.042L181.546 232.994L181.459 240.385Z" fill="white"/>
</g>
<path d="M110.886 154.373C105.518 137.518 95.1315 124.086 82.8284 116.19C71.8302 109.131 63.9064 98.1369 60.9727 85.438C60.6643 84.1033 60.2978 82.7647 59.8716 81.4265C53.4152 61.1559 35.7072 48.6965 20.3195 53.5975C4.93162 58.4985 -2.30891 78.9042 4.14742 99.1746C5.46742 103.32 7.25835 107.137 9.40373 110.546C16.2507 121.424 18.93 134.472 16.4108 147.092C14.159 158.37 14.7701 171.068 18.7947 183.704C24.7973 202.551 37.0741 217.119 51.2893 224.453C56.6661 227.227 61.5146 230.957 65.5294 235.465C72.2015 242.956 81.6044 246.477 90.2436 243.725C99.5631 240.757 105.386 231.32 105.805 220.309C106.042 214.078 107.507 207.971 109.895 202.197C115.532 188.566 116.314 171.414 110.886 154.373Z" fill="#91B3FA"/>
<path opacity="0.57" d="M32.5758 73.4453C38.8529 86.2017 44.7132 99.1501 50.4374 112.159C51.8699 115.411 53.2498 118.686 54.6402 121.955L56.725 126.861L58.7686 131.783C60.1181 135.071 61.5135 138.339 62.8257 141.641L66.7631 151.548C69.3034 158.187 71.9 164.803 74.3161 171.488C75.5288 174.829 76.8069 178.146 77.9514 181.511L81.4313 191.59C85.9344 205.075 90.0993 218.679 93.5647 232.469L92.9693 232.625L89.982 222.407L89.241 219.852L88.436 217.315L86.8164 212.246L85.2066 207.174C84.6731 205.482 84.0765 203.811 83.5146 202.128C82.3679 198.77 81.2483 195.404 80.0801 192.054C75.3195 178.684 70.3807 165.377 65.1668 152.175C62.509 145.593 59.9083 138.99 57.2045 132.427L55.1903 127.499L53.1346 122.588C51.7661 119.313 50.3975 116.038 48.9957 112.777C46.2482 106.231 43.4534 99.7049 40.6052 93.2014C37.7911 86.6831 34.9147 80.1898 32.0195 73.7083L32.5758 73.4453Z" fill="white"/>
<path d="M155.795 120.871C153.286 102.464 144.994 86.687 133.734 76.2891C123.668 66.994 117.476 54.1862 116.73 40.5191C116.652 39.0825 116.514 37.6313 116.315 36.1699C113.298 14.0322 97.2876 -2.06524 80.5554 0.215285C63.8231 2.49572 52.7049 22.2906 55.7222 44.4283C56.3391 48.955 57.4998 53.2281 59.099 57.1429C64.2025 69.6365 64.6238 83.6184 59.7654 96.2155C55.4237 107.473 53.7764 120.719 55.6572 134.519C58.4625 155.101 68.4989 172.396 81.8293 182.558C86.8715 186.402 91.1978 191.14 94.5261 196.53C100.057 205.488 109.113 210.834 118.507 209.554C128.641 208.173 136.332 199.466 138.737 188.153C140.099 181.75 142.703 175.699 146.199 170.159C154.451 157.082 158.331 139.481 155.795 120.871Z" fill="#7D97F4"/>
<path opacity="0.57" d="M89.6243 22.967C93.8043 37.2998 97.5203 51.7554 101.085 66.2497C101.978 69.8729 102.813 73.51 103.659 77.1443L104.927 82.5961L106.15 88.0584C106.951 91.7032 107.803 95.3369 108.563 98.9909L110.843 109.952C112.27 117.279 113.759 124.593 115.049 131.947C115.7 135.622 116.422 139.284 116.997 142.973L118.776 154.029C120.997 168.794 122.849 183.621 123.947 198.513L123.306 198.566L122.06 187.456L121.755 184.678L121.38 181.908L120.62 176.371L119.871 170.833C119.625 168.987 119.31 167.149 119.033 165.307C118.453 161.626 117.903 157.941 117.3 154.264C114.793 139.572 112.09 124.912 109.086 110.311C107.528 103.021 106.032 95.7193 104.423 88.4402L103.232 82.978L101.994 77.5256C101.171 73.8902 100.349 70.2547 99.489 66.6275C97.8319 59.3588 96.1227 52.1012 94.3542 44.858C92.6239 37.6056 90.8246 30.3675 89.0037 23.1385L89.6243 22.967Z" fill="white"/>
<path d="M232.699 247.385H86.642C85.5005 247.385 84.575 246.46 84.575 245.318V47.9472C84.575 46.8057 85.5005 45.8803 86.642 45.8803H232.699C233.841 45.8803 234.766 46.8057 234.766 47.9472V245.318C234.766 246.46 233.841 247.385 232.699 247.385Z" fill="url(#paint28_linear_2_894)"/>
<path d="M209.198 220.842H109.823C106.056 220.842 103.002 217.788 103.002 214.021V82.9739C103.002 79.2069 106.056 76.1532 109.823 76.1532H209.198C212.965 76.1532 216.019 79.2069 216.019 82.9739V214.021C216.019 217.788 212.965 220.842 209.198 220.842Z" fill="#7D97F4"/>
<path d="M205.438 210.776H113.673C112.543 210.776 111.627 209.86 111.627 208.73V90.1017C111.627 88.9716 112.543 88.0555 113.673 88.0555H205.438C206.568 88.0555 207.484 88.9716 207.484 90.1017V208.73C207.484 209.86 206.568 210.776 205.438 210.776Z" fill="url(#paint29_linear_2_894)"/>
<path d="M159.397 65.8245C161.878 65.8245 163.89 63.8129 163.89 61.3314C163.89 58.85 161.878 56.8383 159.397 56.8383C156.915 56.8383 154.904 58.85 154.904 61.3314C154.904 63.8129 156.915 65.8245 159.397 65.8245Z" fill="url(#paint30_linear_2_894)"/>
<path d="M188.424 133.865L130.62 134.826C126.22 134.899 122.641 138.32 122.641 142.467V178.87C122.641 183.017 126.22 186.235 130.62 186.058L188.424 183.737C192.576 183.57 195.931 180.187 195.931 176.179V140.997C195.931 136.989 192.576 133.796 188.424 133.865Z" fill="url(#paint31_linear_2_894)"/>
<path d="M191.35 127.281C189.599 127.307 188.178 125.956 188.178 124.263V116.296C188.178 108.303 181.417 101.82 173.047 101.844L154.216 101.898C145.631 101.923 138.596 108.598 138.596 116.777V124.931C138.596 126.663 137.105 128.09 135.264 128.117C133.419 128.145 131.922 126.758 131.922 125.021V116.842C131.922 105.168 141.98 95.6696 154.216 95.6696H173.047C184.937 95.6696 194.513 104.895 194.513 116.234V124.178C194.513 125.866 193.098 127.255 191.35 127.281Z" fill="url(#paint32_linear_2_894)"/>
<path d="M168.874 154.04C168.874 149.994 165.342 146.818 161.049 147.11C157.252 147.368 154.113 150.408 153.908 154.039C153.749 156.855 155.297 159.291 157.65 160.522C158.651 161.046 159.148 162.15 158.954 163.242L157.303 172.504C157.093 173.683 158.041 174.719 159.288 174.675L163.53 174.523C164.771 174.478 165.712 173.379 165.504 172.218L163.854 163.043C163.658 161.948 164.227 160.861 165.23 160.261C167.413 158.956 168.874 156.642 168.874 154.04Z" fill="url(#paint33_linear_2_894)"/>
<path d="M52.7772 247.737C52.7785 247.658 52.7732 247.578 52.7528 247.497C51.5541 242.745 45.6047 239.785 45.6047 239.785L43.2472 239.969C41.8918 244.158 42.0659 246.727 42.2836 247.871C42.2897 247.903 42.2994 247.934 42.308 247.965C44.2527 248.138 48.2554 248.252 52.7772 247.737Z" fill="url(#paint34_linear_2_894)"/>
<path d="M42.3079 247.965C42.4129 248.347 42.695 248.644 43.056 248.72C45.8225 249.302 50.2194 248.834 52.0655 248.592C52.4728 248.539 52.7706 248.163 52.7773 247.737C48.2554 248.252 44.2527 248.139 42.3079 247.965Z" fill="#91B3FA"/>
<path d="M42.2993 236.458L43.2978 241.265C43.371 241.617 43.6416 241.881 43.9694 241.911C44.3706 241.949 44.9419 241.971 45.5163 241.887C46.0314 241.811 46.3902 241.288 46.2988 240.726L45.6048 236.458H42.2993Z" fill="url(#paint35_linear_2_894)"/>
<path d="M62.9873 247.904C60.3836 247.831 59.0369 247.524 58.3407 247.24C58.3391 247.499 58.3405 247.762 58.3489 248.035C58.3579 248.327 58.5738 248.56 58.8395 248.558L73.1355 248.466C73.5917 248.463 73.8583 247.934 73.6606 247.515C71.7862 247.67 67.0122 248.016 62.9873 247.904Z" fill="#91B3FA"/>
<path d="M73.6607 247.515C73.6435 247.479 73.6286 247.442 73.6041 247.407C72.3415 245.643 69.1259 242.13 62.7718 240.607L59.7236 240.511C59.7236 240.511 58.3663 242.87 58.3406 247.24C59.0369 247.524 60.3835 247.831 62.9873 247.904C67.0122 248.017 71.7862 247.67 73.6607 247.515Z" fill="url(#paint36_linear_2_894)"/>
<path d="M59.0227 236.033C59.0708 236.257 59.705 239.678 59.9507 241.004C60.0091 241.319 60.2546 241.55 60.5467 241.566C61.0686 241.596 61.9104 241.599 62.6344 241.402C63.0249 241.296 63.2873 240.898 63.2595 240.456L62.9184 235.046L59.0227 236.033Z" fill="url(#paint37_linear_2_894)"/>
<path d="M56.713 172.882C56.713 172.882 60.9062 201.696 63.9322 235.983C63.9886 236.622 63.4797 237.178 62.8524 237.31C61.928 237.505 60.5691 237.736 59.4442 237.704C58.8437 237.687 58.3417 237.242 58.2407 236.65C57.2098 230.604 49.8538 198.159 47.9232 191.018C47.9232 191.018 45.7055 221.351 46.4144 237.088C46.432 237.479 46.1455 237.819 45.7564 237.863C45.1662 237.932 44.222 237.983 43.0202 237.856C42.5641 237.807 42.1961 237.463 42.1309 237.008C41.3966 231.892 37.1702 201.437 37.3499 179.499C37.36 178.261 38.8015 168.096 38.8015 168.096L56.713 172.882Z" fill="url(#paint38_linear_2_894)"/>
<path d="M58.3379 124.427L58.8993 139.505C60.4939 140.054 62.012 140.481 63.4575 140.799C64.3618 137.888 66.3528 134.315 67.9833 131.659C61.993 129.541 58.3379 124.427 58.3379 124.427Z" fill="url(#paint39_linear_2_894)"/>
<path d="M38.1712 174.543C37.7401 174.39 37.4395 173.999 37.3926 173.544C36.835 168.134 34.1352 134.591 51.1801 120.792C51.1801 120.792 52.1576 118.235 60.1922 124.522C68.2268 130.808 63.925 137.398 62.0015 146.486C59.6738 157.484 55.5897 166.474 57.3967 173.242C57.5214 173.709 57.2758 174.2 56.8222 174.367C50.5809 176.667 44.3637 176.743 38.1712 174.543Z" fill="url(#paint40_linear_2_894)"/>
<path d="M57.8289 110.742C57.8235 111.22 51.0173 120.887 51.0173 120.887C51.0173 120.887 52.239 123.293 58.0712 125.246L63.1056 114.896L57.8289 110.742Z" fill="url(#paint41_linear_2_894)"/>
<path d="M54.4571 143.822C54.4146 143.822 54.3714 143.81 54.3336 143.784C48.8964 140.11 46.3386 134.181 46.3133 134.121C46.2658 134.009 46.3182 133.879 46.4305 133.832C46.5432 133.784 46.6725 133.836 46.7204 133.949C46.7451 134.007 49.2554 139.819 54.581 143.418C54.6822 143.486 54.7088 143.623 54.6403 143.725C54.5979 143.788 54.5281 143.822 54.4571 143.822Z" fill="url(#paint42_linear_2_894)"/>
<path d="M62.5561 135.604C62.4836 135.604 62.4123 135.568 62.37 135.502C62.3536 135.477 60.6925 132.891 57.5288 127.226C56.5558 125.484 55.2772 124.381 53.7285 123.947C51.1636 123.231 48.6917 124.606 48.6673 124.619C48.5608 124.678 48.4263 124.643 48.3659 124.537C48.3057 124.43 48.3426 124.296 48.4488 124.235C48.5554 124.175 51.0979 122.752 53.8434 123.521C55.5117 123.986 56.8816 125.16 57.9147 127.01C61.0705 132.661 62.7253 135.237 62.7417 135.263C62.8079 135.365 62.7782 135.502 62.6757 135.568C62.6384 135.592 62.5971 135.604 62.5561 135.604Z" fill="url(#paint43_linear_2_894)"/>
<path d="M63.1876 105.203C63.1876 105.203 65.6093 110.766 65.772 113.686C65.9346 116.606 66.5638 118.501 63.1876 119.089C59.8113 119.677 56.9671 117.995 55.4263 115.086C55.4263 115.086 53.0121 110.604 53.5536 108.769C54.0952 106.933 63.1876 105.203 63.1876 105.203Z" fill="url(#paint44_linear_2_894)"/>
<path d="M56.5801 112.995L56.7723 112.91C57.0169 112.802 57.1217 112.511 56.9988 112.274C56.5227 111.354 55.5945 109.246 56.7935 108.754C58.3388 108.12 64.4596 106.872 65.7802 104.7C67.0494 102.613 65.9249 99.9183 64.2348 99.152C64.1217 99.1006 63.9884 99.1414 63.9303 99.2512L63.7895 99.5177C63.6931 99.7002 63.4236 99.6725 63.3663 99.4743C63.3112 99.284 63.0581 99.2472 62.9531 99.4151C62.5472 100.065 61.4512 101.118 58.5205 101.659C54.3553 102.428 51.6015 104.113 51.5329 106.992C51.5286 107.175 51.3341 107.276 51.1778 107.181C50.8703 106.994 50.3782 106.906 49.7205 107.459C48.5765 108.42 49.0447 110.916 51.5523 112.968C51.6715 113.066 51.6705 113.251 51.5414 113.335C51.0869 113.631 50.4092 114.335 52.1651 115.274C53.9813 116.245 55.3376 116.165 55.8599 116.079C55.9899 116.058 56.0736 115.932 56.0452 115.803L55.4879 113.274C55.4563 113.131 55.5653 112.995 55.7119 112.995H56.5801V112.995Z" fill="url(#paint45_linear_2_894)"/>
<path d="M56.6848 113.529C56.6848 113.529 55.7609 109.975 54.1677 110.971C52.5745 111.968 54.9945 114.953 56.2755 115.086L56.6848 113.529Z" fill="url(#paint46_linear_2_894)"/>
<path d="M88.0444 123.293C88.0444 123.293 86.8304 121.141 86.9076 120.096C86.9849 119.05 86.3333 117.514 87.0266 117.628C87.72 117.742 87.8631 117.649 88.0513 118.904C88.2395 120.158 90.4277 125.639 88.0444 123.293Z" fill="url(#paint47_linear_2_894)"/>
<path d="M88.2725 119.872L88.2446 124.171C80.0275 133.043 73.3766 133.565 67.9832 131.658C66.3527 134.315 64.3617 137.888 63.4574 140.799C85.401 145.637 90.5684 125.464 90.5684 125.464C93.5405 124.233 94.1396 123.513 94.0118 122.706L88.2725 119.872Z" fill="url(#paint48_linear_2_894)"/>
<path d="M94.5919 115.606C93.8906 115.321 92.5182 112.705 92.2553 113.566C91.9925 114.426 92.3663 115.606 92.2553 115.972C92.1443 116.338 90.4333 120.549 90.7751 121.485C91.0216 122.16 92.3801 122.06 92.5873 123.164C92.6562 123.531 92.9492 123.794 93.289 123.794C93.6287 123.794 93.9219 123.532 93.9911 123.165C94.0189 123.018 95.2933 115.891 94.5919 115.606Z" fill="url(#paint49_linear_2_894)"/>
<path d="M72.1943 106.652C66.6533 117.611 71.0456 130.987 82.0049 136.528C90.9124 141.032 101.416 138.973 108.012 132.16L146.09 151.411C146.722 151.731 147.474 151.705 148.083 151.342L151.807 149.124C151.871 149.086 151.932 149.044 151.99 149C152.007 148.988 152.022 148.974 152.038 148.962C152.082 148.927 152.123 148.891 152.163 148.853C152.177 148.841 152.191 148.828 152.204 148.815C152.253 148.766 152.3 148.715 152.344 148.662C152.345 148.661 152.346 148.66 152.346 148.66C152.814 148.09 152.957 147.296 152.67 146.579L149.644 138.993C149.457 138.524 149.105 138.14 148.655 137.912L144.841 135.984L143.832 137.98L140.556 136.324L141.565 134.327L138.5 132.778L137.571 134.614L133.589 132.601L134.518 130.764L133.034 130.014L132.556 130.96L129.218 129.272L129.696 128.327L127.1 127.014L126.091 129.01L124.236 128.072L125.245 126.076L123.638 125.264L122.629 127.26L119.414 125.634L120.424 123.638L115.905 121.354L113.97 120.376C115.547 111.024 110.978 101.345 102.07 96.8412C91.1112 91.3002 77.7352 95.6926 72.1943 106.652ZM85.1675 108.166C87.3865 109.288 88.2761 111.996 87.1541 114.215C86.0321 116.435 83.3234 117.324 81.1044 116.202C78.8853 115.08 77.9957 112.371 79.1177 110.152C80.2398 107.933 82.9484 107.044 85.1675 108.166Z" fill="url(#paint50_linear_2_894)"/>
<path d="M103.058 113.368L121.109 122.494L120.1 124.49L123.314 126.115L124.323 124.119L125.931 124.932L124.921 126.928L126.776 127.866L127.785 125.87L130.382 127.182L129.904 128.128L133.242 129.815L133.72 128.87L135.203 129.62L134.275 131.456L138.257 133.47L139.185 131.633L142.25 133.183L141.241 135.179L144.518 136.836L145.527 134.84L149.341 136.768C149.791 136.996 150.142 137.38 150.329 137.848L153.356 145.434C153.733 146.379 153.367 147.459 152.492 147.98L148.768 150.198C148.159 150.561 147.407 150.587 146.775 150.267L100.809 127.027L103.058 113.368Z" fill="url(#paint51_linear_2_894)"/>
<path d="M82.6903 135.384C93.6495 140.925 107.025 136.532 112.566 125.573C118.107 114.614 113.715 101.238 102.756 95.6969C91.7967 90.1559 78.4207 94.5483 72.8798 105.507C67.3388 116.467 71.7311 129.843 82.6903 135.384ZM81.7899 115.058C79.5708 113.936 78.6812 111.227 79.8032 109.008C80.9252 106.789 83.6339 105.899 85.853 107.021C88.072 108.143 88.9616 110.852 87.8396 113.071C86.7176 115.29 84.0089 116.18 81.7899 115.058Z" fill="url(#paint52_linear_2_894)"/>
<path d="M108.698 131.015L146.775 150.267C147.407 150.587 148.16 150.561 148.768 150.198L152.492 147.98C153.054 147.645 153.402 147.08 153.482 146.468C150.012 142.708 117.024 128.303 115.79 125.338C115.351 124.284 115.276 122.687 116.591 120.21L114.656 119.231C116.233 109.88 111.664 100.201 102.756 95.6969C91.7968 90.1559 78.4208 94.5483 72.8798 105.507C67.3389 116.467 71.7312 129.843 82.6904 135.384C91.5978 139.887 102.102 137.828 108.698 131.015ZM85.853 107.021C88.072 108.143 88.9616 110.852 87.8396 113.071C86.7176 115.29 84.0089 116.18 81.7899 115.058C79.5708 113.936 78.6812 111.227 79.8032 109.008C80.9252 106.789 83.6338 105.899 85.853 107.021Z" fill="url(#paint53_linear_2_894)"/>
<path d="M84.6593 131.489C93.4678 135.943 104.218 132.412 108.672 123.604C113.125 114.796 109.595 104.045 100.787 99.5914C91.9784 95.1378 81.2277 98.6682 76.7742 107.476C72.3207 116.285 75.851 127.035 84.6593 131.489ZM81.7899 115.058C79.5708 113.936 78.6812 111.227 79.8032 109.008C80.9252 106.789 83.6339 105.899 85.853 107.021C88.072 108.143 88.9616 110.852 87.8396 113.071C86.7176 115.29 84.0089 116.18 81.7899 115.058Z" fill="url(#paint54_linear_2_894)"/>
<path d="M54.4571 143.822C54.4571 143.822 75.3966 150.832 87.1091 141.914C87.8355 141.361 88.7522 141.12 89.6534 141.267L94.1279 141.996C96.006 142.302 97.7951 141.085 98.2 139.225C98.4309 138.165 98.5421 137.005 98.3068 136.008L89.8597 135.499L90.1012 134.403C90.1012 134.403 86.3677 135.316 86.2925 138.237C86.2925 138.237 77.5348 143.974 61.5613 135.069C61.5613 135.069 55.3412 139.937 54.4571 143.822Z" fill="url(#paint55_linear_2_894)"/>
<g opacity="0.3">
<path d="M216.19 38.8414C215.702 38.8215 215.323 38.4098 215.344 37.9224C215.382 36.9752 215.381 36.0123 215.338 35.0602C215.317 34.5785 215.686 34.1699 216.165 34.1395C216.17 34.1391 216.176 34.1387 216.182 34.1384C216.669 34.1168 217.082 34.4945 217.104 34.9821C217.148 35.9841 217.15 36.998 217.109 37.995C217.09 38.4509 216.729 38.812 216.283 38.8403C216.253 38.8422 216.221 38.8428 216.19 38.8414ZM214.815 30.4403C214.643 29.5033 214.43 28.5649 214.181 27.6502C214.052 27.1798 214.33 26.6939 214.801 26.5655C215.274 26.4383 215.757 26.715 215.885 27.1858C216.148 28.1481 216.372 29.136 216.553 30.1218C216.641 30.6017 216.323 31.0621 215.843 31.1499C215.808 31.1563 215.773 31.1605 215.739 31.1628C215.298 31.1908 214.896 30.8854 214.815 30.4403ZM212.65 23.2627C212.275 22.3899 211.858 21.5227 211.409 20.685C211.179 20.2549 211.341 19.7193 211.771 19.4891C212.201 19.2595 212.736 19.4209 212.967 19.851C213.439 20.7332 213.879 21.6466 214.273 22.5656C214.466 23.0139 214.258 23.5333 213.81 23.7261C213.714 23.7671 213.616 23.79 213.517 23.7962C213.155 23.8191 212.801 23.6154 212.65 23.2627ZM208.934 16.7496C208.373 15.9815 207.772 15.2292 207.148 14.5128C206.827 14.1448 206.866 13.5867 207.233 13.2663C207.602 12.9462 208.159 12.9848 208.48 13.3521C209.137 14.1064 209.77 14.8987 210.36 15.7067C210.648 16.1006 210.562 16.6535 210.168 16.9412C210.027 17.0443 209.866 17.0994 209.704 17.1098C209.413 17.1282 209.119 17.0024 208.934 16.7496ZM203.859 11.2266C203.144 10.6039 202.391 10.0029 201.622 9.44112C201.228 9.15289 201.143 8.60012 201.43 8.20637C201.719 7.81225 202.271 7.72664 202.665 8.01496C203.474 8.60614 204.266 9.23849 205.019 9.89365C205.387 10.2136 205.426 10.7718 205.106 11.14C204.944 11.3256 204.723 11.4275 204.495 11.4419C204.271 11.456 204.042 11.3855 203.859 11.2266ZM197.69 6.96408C196.852 6.51442 195.986 6.09535 195.113 5.71811C194.665 5.52455 194.459 5.00436 194.653 4.55676C194.846 4.1088 195.366 3.90251 195.814 4.09606C196.732 4.49287 197.645 4.93428 198.526 5.40745C198.956 5.63852 199.117 6.17396 198.886 6.60388C198.736 6.88313 198.457 7.04879 198.163 7.06754C198.004 7.07768 197.84 7.0452 197.69 6.96408ZM164.885 6.55282C164.655 6.12236 164.818 5.5871 165.248 5.35747C166.13 4.88726 167.045 4.44908 167.966 4.0555C168.415 3.86383 168.934 4.07219 169.126 4.52105C169.318 4.96945 169.109 5.48866 168.661 5.68033C167.786 6.05399 166.917 6.47017 166.08 6.91678C165.965 6.97807 165.843 7.01137 165.721 7.01908C165.385 7.04035 165.053 6.86851 164.885 6.55282ZM190.732 4.177C189.817 3.92494 188.879 3.70949 187.945 3.53711C187.465 3.44827 187.148 2.98739 187.237 2.50767C187.326 2.02759 187.786 1.71306 188.266 1.79948C189.25 1.98119 190.237 2.20795 191.201 2.47357C191.672 2.60314 191.948 3.08942 191.819 3.55999C191.716 3.93311 191.389 4.18418 191.023 4.20733C190.928 4.21335 190.83 4.20365 190.732 4.177ZM171.969 3.53522C171.841 3.06438 172.12 2.57919 172.591 2.45176C173.556 2.19099 174.545 1.96845 175.53 1.78979C176.01 1.7005 176.47 2.02166 176.557 2.50156C176.644 2.98156 176.325 3.44127 175.845 3.52849C174.909 3.69827 173.969 3.90968 173.052 4.15771C172.993 4.1735 172.935 4.18275 172.877 4.18652C172.466 4.21254 172.08 3.94764 171.969 3.53522ZM183.328 3.01476C182.38 2.97393 181.418 2.97348 180.467 3.01377C179.98 3.03468 179.568 2.65627 179.547 2.16856C179.527 1.68749 179.895 1.27991 180.373 1.24949C180.38 1.24914 180.386 1.24869 180.392 1.24869C181.393 1.20597 182.406 1.20624 183.404 1.24905C183.892 1.27031 184.27 1.68237 184.249 2.1699C184.229 2.62513 183.868 2.98523 183.423 3.0135C183.392 3.01556 183.36 3.01583 183.328 3.01476Z" fill="#91B3FA"/>
<path d="M160.533 10.4215C160.707 10.4104 160.879 10.3483 161.025 10.2319C161.382 9.94847 161.751 9.66813 162.121 9.39776C162.515 9.11025 162.602 8.55739 162.314 8.16346C162.026 7.76916 161.473 7.68222 161.079 7.97071C160.69 8.25481 160.302 8.54977 159.927 8.84787C159.545 9.15117 159.481 9.70717 159.784 10.089C159.971 10.3247 160.254 10.4392 160.533 10.4215Z" fill="#91B3FA"/>
</g>
<g opacity="0.3">
<path d="M147.653 34.0778C148.079 34.0508 148.434 33.7184 148.476 33.2804C148.519 32.8271 148.573 32.3669 148.635 31.913C148.702 31.4296 148.364 30.9838 147.88 30.9173C147.395 30.8507 146.951 31.189 146.885 31.6722C146.819 32.15 146.763 32.6347 146.717 33.112C146.67 33.5977 147.026 34.0291 147.512 34.0757C147.56 34.0802 147.607 34.0808 147.653 34.0778Z" fill="#91B3FA"/>
<path d="M182.31 71.7943C181.822 71.8014 181.421 71.4116 181.414 70.9234C181.407 70.4356 181.796 70.0354 182.285 70.0275C183.213 70.0142 184.156 69.9609 185.097 69.8693C185.58 69.8207 186.015 70.1777 186.062 70.6633C186.109 71.149 185.754 71.5809 185.268 71.6283C184.861 71.668 184.454 71.7007 184.048 71.7265C183.469 71.7633 182.885 71.7863 182.31 71.7943ZM188.954 70.182C188.842 69.7075 189.136 69.2313 189.61 69.1189C190.522 68.9026 191.434 68.6459 192.322 68.3552C192.784 68.202 193.284 68.4558 193.436 68.9196C193.588 69.3831 193.335 69.8822 192.872 70.034C191.937 70.3403 190.977 70.6107 190.018 70.8379C189.968 70.8497 189.918 70.8571 189.869 70.8602C189.447 70.8869 189.055 70.6071 188.954 70.182ZM177.503 71.5337C176.527 71.4134 175.543 71.2497 174.579 71.0468C174.101 70.9463 173.795 70.4778 173.896 70.0002C173.996 69.5228 174.465 69.2178 174.942 69.3175C175.858 69.5104 176.792 69.6658 177.719 69.78C178.203 69.8398 178.547 70.2807 178.488 70.7652C178.435 71.1935 178.084 71.5121 177.668 71.5385C177.614 71.5419 177.558 71.5406 177.503 71.5337ZM196.153 67.8176C195.939 67.3793 196.121 66.85 196.56 66.6362C197.4 66.2259 198.233 65.7747 199.035 65.2954C199.455 65.0448 199.997 65.1815 200.247 65.6006C200.497 66.0194 200.361 66.5616 199.942 66.8119C199.097 67.3168 198.22 67.792 197.335 68.224C197.228 68.276 197.116 68.305 197.004 68.3121C196.657 68.3342 196.315 68.149 196.153 67.8176ZM169.95 69.7354C169.025 69.4036 168.102 69.0275 167.206 68.6176C166.762 68.4148 166.567 67.8909 166.769 67.4471C166.972 67.003 167.496 66.8079 167.94 67.0107C168.792 67.4 169.669 67.7573 170.547 68.0721C171.006 68.237 171.245 68.743 171.08 69.2023C170.957 69.5445 170.645 69.7641 170.304 69.7858C170.187 69.7933 170.067 69.7774 169.95 69.7354ZM162.975 66.3242C162.143 65.7971 161.324 65.2287 160.54 64.6349C160.151 64.3401 160.075 63.7861 160.369 63.397C160.665 63.0076 161.219 62.9313 161.607 63.2265C162.352 63.7905 163.13 64.3307 163.921 64.8318C164.333 65.093 164.455 65.6389 164.194 66.051C164.036 66.2992 163.776 66.4424 163.503 66.4597C163.323 66.4712 163.139 66.4279 162.975 66.3242ZM156.909 61.4738C156.211 60.7777 155.535 60.0443 154.9 59.2945C154.584 58.922 154.63 58.3648 155.003 58.0493C155.375 57.7334 155.932 57.7801 156.248 58.1521C156.851 58.8649 157.494 59.5613 158.157 60.2229C158.502 60.5676 158.503 61.127 158.158 61.4722C158 61.631 157.796 61.7168 157.589 61.7299C157.345 61.7456 157.095 61.6601 156.909 61.4738ZM152.045 55.4157C151.516 54.584 151.017 53.72 150.562 52.8478C150.336 52.4154 150.503 51.8816 150.936 51.6556C151.368 51.43 151.902 51.5974 152.128 52.0298C152.561 52.8579 153.034 53.6781 153.536 54.4682C153.798 54.88 153.676 55.4259 153.265 55.6875C153.134 55.7701 152.991 55.8145 152.847 55.8236C152.536 55.8433 152.224 55.6975 152.045 55.4157ZM148.63 48.4332C148.298 47.5078 148.002 46.5559 147.749 45.6038C147.624 45.1321 147.905 44.6481 148.377 44.5231C148.847 44.3985 149.332 44.6786 149.457 45.1503C149.697 46.0549 149.978 46.9589 150.293 47.838C150.458 48.2972 150.218 48.803 149.759 48.9674C149.679 48.996 149.598 49.0126 149.517 49.0178C149.134 49.042 148.765 48.8126 148.63 48.4332ZM146.833 40.8792C146.743 40.1604 146.674 39.4299 146.628 38.7084C146.611 38.447 146.598 38.1865 146.587 37.926C146.567 37.4387 146.939 37.0177 147.433 37.0067C147.92 36.9862 148.332 37.365 148.353 37.8527C148.363 38.1 148.376 38.3481 148.392 38.5964C148.435 39.2825 148.5 39.9765 148.586 40.6599C148.646 41.144 148.303 41.5856 147.819 41.646C147.801 41.6482 147.782 41.6501 147.764 41.6512C147.302 41.6807 146.891 41.3451 146.833 40.8792Z" fill="#91B3FA"/>
<path d="M203.418 64.2419C203.593 64.2308 203.767 64.1676 203.914 64.0496C204.287 63.7503 204.661 63.4375 205.025 63.1197C205.393 62.799 205.431 62.2409 205.11 61.8732C204.789 61.5056 204.232 61.467 203.864 61.7881C203.518 62.0899 203.163 62.3869 202.809 62.6712C202.428 62.9761 202.367 63.5323 202.672 63.9129C202.859 64.1463 203.141 64.2595 203.418 64.2419Z" fill="#91B3FA"/>
</g>
<path d="M205.087 49.1881C205.189 49.0447 205.19 48.8523 205.088 48.7087L202.177 44.6116C203.072 42.4418 203.626 40.1137 203.785 37.7036L208.201 35.3116C208.356 35.2277 208.441 35.0547 208.412 34.881L207.426 28.9341C207.397 28.7603 207.261 28.6239 207.087 28.5945L202.135 27.7561C201.207 25.5263 199.93 23.5018 198.383 21.7369L199.816 16.9197C199.866 16.7509 199.803 16.5688 199.66 16.4663L194.758 12.9585C194.614 12.856 194.422 12.8557 194.278 12.9577L190.181 15.8682C188.011 14.9738 185.683 14.4188 183.273 14.2602L180.881 9.84398C180.797 9.68901 180.624 9.60438 180.451 9.63328L174.504 10.6195C174.33 10.6484 174.193 10.7842 174.164 10.9579L173.326 15.9099C171.096 16.838 169.071 18.1147 167.306 19.6617L162.489 18.2293C162.32 18.1792 162.138 18.2415 162.036 18.3848L158.528 23.2873C158.425 23.4305 158.425 23.6231 158.527 23.7667L161.438 27.8638C160.543 30.0336 159.988 32.3617 159.83 34.7719L155.413 37.1638C155.258 37.2476 155.174 37.4207 155.203 37.5944L156.189 43.5415C156.218 43.7153 156.354 43.8516 156.527 43.881L161.479 44.7195C162.408 46.9493 163.684 48.9737 165.231 50.7387L163.799 55.5559C163.749 55.7247 163.811 55.9068 163.954 56.0094L168.857 59.5172C169 59.6197 169.193 59.6201 169.336 59.518L173.433 56.6074C175.603 57.5019 177.931 58.0567 180.341 58.2154L182.733 62.6317C182.817 62.7864 182.99 62.8711 183.164 62.8424L189.111 61.8561C189.285 61.8273 189.421 61.6914 189.451 61.5177L190.289 56.5658C192.519 55.6375 194.543 54.3609 196.308 52.8139L201.125 54.2462C201.294 54.2965 201.476 54.2339 201.579 54.0907L205.087 49.1881Z" fill="#91B3FA"/>
<path d="M181.305 42.2763C177.976 41.9994 175.492 39.0656 175.769 35.7356C175.903 34.1226 176.657 32.6583 177.892 31.6127C179.127 30.5671 180.696 30.0647 182.309 30.1992C185.639 30.4761 188.123 33.4099 187.846 36.7399C187.594 39.7692 185.143 42.0982 182.195 42.2853C181.903 42.3037 181.605 42.3011 181.305 42.2763ZM178.806 32.6917C177.858 33.4936 177.28 34.6161 177.177 35.853C176.965 38.4057 178.87 40.6556 181.422 40.8677C183.976 41.0808 186.225 39.1755 186.437 36.6225C186.649 34.0698 184.745 31.8199 182.192 31.6078C181.961 31.5886 181.731 31.5866 181.503 31.6011C180.514 31.6637 179.575 32.0401 178.806 32.6917Z" fill="#BDD0FB"/>
<path d="M182.626 51.0273C183.132 50.9952 183.64 50.9374 184.147 50.8533C184.307 50.8269 184.466 50.7977 184.625 50.7662C185.408 50.6104 186.177 50.3925 186.921 50.116C186.931 50.1122 186.941 50.1085 186.951 50.1048C186.98 50.094 187.009 50.0832 187.037 50.072C187.093 50.0509 187.149 50.029 187.204 50.0072C187.35 49.9495 187.436 49.8054 187.427 49.6566C187.425 49.6204 187.417 49.5839 187.403 49.5485C187.331 49.367 187.126 49.2788 186.944 49.3501C186.01 49.7196 185.03 49.9907 184.032 50.156C179.07 50.9796 174.274 49.1096 171.139 45.6197C169.395 43.6787 168.166 41.2362 167.708 38.4768C167.628 37.9929 167.573 37.5085 167.542 37.0256C167.336 33.7758 168.247 30.5805 170.167 27.8966C172.373 24.8135 175.648 22.7739 179.387 22.1538C187.111 20.8737 194.43 26.113 195.711 33.833C195.79 34.309 195.844 34.7872 195.874 35.2656C196.006 37.3387 195.682 39.4175 194.919 41.3515C194.899 41.4015 194.891 41.4532 194.895 41.5034C194.903 41.6357 194.986 41.758 195.118 41.8098C195.3 41.8809 195.505 41.7928 195.576 41.6106C196.377 39.5801 196.717 37.3975 196.58 35.2212C196.548 34.7191 196.491 34.2172 196.408 33.7175C195.064 25.6122 187.374 20.1127 179.272 21.4562C175.346 22.1073 171.908 24.2484 169.592 27.4852C167.576 30.3027 166.62 33.6572 166.836 37.0689C166.869 37.5759 166.927 38.0844 167.011 38.5922C167.662 42.5185 169.803 45.9562 173.04 48.272C175.858 50.2884 179.213 51.2438 182.626 51.0273Z" fill="#BDD0FB"/>
<g opacity="0.3">
<path d="M247.846 60.1659C248.082 60.1509 248.289 59.9835 248.344 59.7413C248.446 59.2895 248.536 58.8284 248.611 58.3708C248.659 58.0735 248.458 57.7932 248.16 57.7442C247.863 57.6942 247.582 57.8973 247.534 58.1946C247.462 58.6306 247.377 59.07 247.279 59.5013C247.213 59.7949 247.397 60.087 247.691 60.1538C247.744 60.1654 247.796 60.1691 247.846 60.1659Z" fill="#91B3FA"/>
<path d="M248.335 56.0048C248.034 55.993 247.799 55.7398 247.811 55.4384C247.84 54.6784 247.83 53.908 247.782 53.1491C247.772 52.989 247.76 52.8285 247.746 52.6676C247.721 52.3675 247.944 52.1035 248.244 52.078C248.529 52.0653 248.808 52.2756 248.834 52.5761C248.848 52.7445 248.861 52.9125 248.871 53.08C248.922 53.8756 248.932 54.6833 248.901 55.4803C248.891 55.7624 248.667 55.9864 248.391 56.0039C248.373 56.0051 248.354 56.0052 248.335 56.0048ZM247.345 49.9256C247.156 49.023 246.91 48.1239 246.612 47.2538C246.515 46.9684 246.667 46.6587 246.952 46.561C247.236 46.4645 247.548 46.6156 247.645 46.9009C247.957 47.8129 248.215 48.7555 248.413 49.7019C248.475 49.997 248.286 50.2861 247.991 50.3481C247.965 50.3535 247.939 50.3567 247.913 50.3583C247.646 50.3753 247.401 50.1944 247.345 49.9256ZM245.554 44.6923C245.151 43.8647 244.691 43.0539 244.187 42.2818C244.023 42.0295 244.094 41.6913 244.346 41.5268C244.599 41.3618 244.937 41.4328 245.101 41.6856C245.63 42.4951 246.112 43.346 246.535 44.2136C246.667 44.4844 246.555 44.8114 246.284 44.9434C246.218 44.9753 246.149 44.9931 246.08 44.9975C245.866 45.0111 245.654 44.8969 245.554 44.6923ZM242.533 40.0588C241.937 39.3544 241.293 38.6804 240.618 38.0569C240.396 37.852 240.382 37.5069 240.587 37.2857C240.791 37.065 241.136 37.0506 241.358 37.2549C242.066 37.9094 242.742 38.6156 243.366 39.3545C243.561 39.5846 243.532 39.9292 243.302 40.1238C243.209 40.2018 243.097 40.2441 242.984 40.2512C242.818 40.2617 242.649 40.1961 242.533 40.0588ZM238.471 36.3034C237.723 35.7652 236.934 35.2684 236.127 34.8263C235.863 34.6818 235.766 34.35 235.911 34.0856C236.056 33.8212 236.387 33.7238 236.652 33.8694C237.498 34.3325 238.324 34.8535 239.109 35.4173C239.353 35.5935 239.409 35.9344 239.233 36.1788C239.134 36.317 238.982 36.395 238.824 36.405C238.703 36.4126 238.578 36.38 238.471 36.3034ZM233.621 33.6478C232.765 33.3081 231.88 33.0188 230.99 32.7881C230.699 32.7126 230.523 32.4146 230.599 32.1231C230.675 31.8315 230.972 31.6568 231.264 31.7316C232.198 31.9736 233.126 32.2772 234.024 32.6335C234.304 32.7449 234.441 33.0619 234.33 33.3418C234.249 33.5445 234.061 33.6723 233.857 33.6853C233.779 33.6902 233.699 33.6787 233.621 33.6478ZM228.271 32.2595C227.361 32.1406 226.431 32.0773 225.507 32.0719C225.206 32.0697 224.963 31.824 224.965 31.5227C224.967 31.2215 225.212 30.9832 225.514 30.9801C226.483 30.9865 227.458 31.0527 228.412 31.1774C228.711 31.2166 228.922 31.4905 228.883 31.7893C228.849 32.0521 228.632 32.2468 228.377 32.263C228.342 32.2652 228.307 32.2643 228.271 32.2595ZM219.354 32.3152C219.282 32.0224 219.461 31.7274 219.754 31.6559C220.565 31.4581 221.4 31.3015 222.235 31.1904C222.361 31.1728 222.488 31.1572 222.614 31.1423C222.911 31.0988 223.185 31.3217 223.219 31.6218C223.254 31.9212 223.039 32.1917 222.74 32.2267C222.621 32.2402 222.502 32.2551 222.381 32.2719C221.583 32.3781 220.786 32.5275 220.013 32.7159C219.981 32.7238 219.949 32.7285 219.918 32.7305C219.658 32.747 219.417 32.5759 219.354 32.3152Z" fill="#91B3FA"/>
</g>
<g opacity="0.3">
<path d="M226.514 78.09C225.565 78.138 224.604 78.128 223.658 78.0615C223.358 78.04 223.131 77.7794 223.152 77.4785C223.173 77.1775 223.436 76.9543 223.735 76.9727C224.637 77.0365 225.553 77.0457 226.46 76.9999C226.761 76.9845 227.017 77.2166 227.032 77.5173C227.047 77.8159 226.819 78.0706 226.522 78.0896C226.519 78.0898 226.517 78.0899 226.514 78.09ZM228.725 77.3293C228.674 77.0324 228.873 76.7501 229.17 76.6992C230.063 76.5453 230.956 76.336 231.824 76.0764C232.112 75.9914 232.417 76.1541 232.503 76.4434C232.59 76.7322 232.426 77.0356 232.137 77.1223C231.227 77.3942 230.291 77.6138 229.355 77.7746C229.335 77.778 229.316 77.7804 229.296 77.7816C229.022 77.799 228.773 77.6071 228.725 77.3293ZM220.824 77.6855C219.89 77.5024 218.96 77.2608 218.059 76.9672C217.772 76.8738 217.615 76.5655 217.709 76.2793C217.802 75.9925 218.109 75.8369 218.396 75.9291C219.256 76.2094 220.144 76.4398 221.034 76.615C221.33 76.673 221.523 76.9599 221.465 77.255C221.416 77.5037 221.206 77.6794 220.964 77.6947C220.918 77.6977 220.872 77.6948 220.824 77.6855ZM234.102 75.856C233.981 75.5801 234.107 75.2582 234.383 75.1371C235.213 74.7731 236.029 74.3545 236.808 73.8923C237.067 73.7391 237.402 73.8247 237.555 74.083C237.709 74.3423 237.624 74.6772 237.364 74.8309C236.548 75.3158 235.692 75.755 234.821 76.1366C234.761 76.1628 234.698 76.1774 234.637 76.1814C234.414 76.1955 234.197 76.0715 234.102 75.856ZM215.402 75.9185C214.542 75.5171 213.697 75.0586 212.891 74.5561C212.636 74.3966 212.558 74.0599 212.717 73.8041C212.877 73.5484 213.213 73.4699 213.469 73.6298C214.238 74.1096 215.043 74.5465 215.864 74.929C216.137 75.0565 216.255 75.381 216.128 75.6545C216.041 75.8415 215.86 75.956 215.667 75.9683C215.579 75.9739 215.488 75.9584 215.402 75.9185ZM210.562 72.9018C209.822 72.3048 209.111 71.6575 208.449 70.9781C208.239 70.7624 208.244 70.4172 208.46 70.2069C208.675 69.9968 209.021 70.001 209.231 70.2172C209.862 70.8649 210.54 71.4823 211.247 72.0521C211.482 72.2412 211.519 72.5848 211.33 72.8195C211.23 72.9433 211.087 73.0122 210.939 73.0215C210.808 73.0299 210.673 72.9908 210.562 72.9018ZM206.583 68.8128C206.006 68.0554 205.471 67.2559 204.993 66.4372C204.841 66.1767 204.928 65.8428 205.189 65.6907C205.449 65.5385 205.783 65.6268 205.935 65.8862C206.391 66.6672 206.901 67.4294 207.452 68.1511C207.634 68.391 207.588 68.7335 207.348 68.9159C207.259 68.984 207.156 69.0199 207.052 69.0265C206.876 69.0377 206.698 68.9636 206.583 68.8128Z" fill="#91B3FA"/>
<path d="M239.452 73.3229C239.557 73.3163 239.661 73.2792 239.751 73.21C240.12 72.9243 240.483 72.6263 240.829 72.3246C241.056 72.1265 241.079 71.7816 240.881 71.5545C240.683 71.3285 240.339 71.3044 240.111 71.5019C239.781 71.7899 239.435 72.074 239.083 72.3468C238.844 72.5312 238.801 72.8741 238.985 73.1122C239.1 73.2609 239.277 73.3341 239.452 73.3229Z" fill="#91B3FA"/>
</g>
<path d="M240.9 63.0361C240.968 62.9402 240.969 62.8114 240.9 62.7153L238.953 59.9737C239.551 58.5217 239.922 56.9639 240.029 55.3512L242.984 53.7506C243.087 53.6945 243.144 53.5788 243.125 53.4624L242.465 49.483C242.446 49.3667 242.354 49.2754 242.238 49.2558L238.925 48.6948C238.304 47.2027 237.449 45.8479 236.414 44.6669L237.373 41.4435C237.406 41.3305 237.364 41.2087 237.269 41.14L233.988 38.7927C233.892 38.7242 233.763 38.7239 233.667 38.7922L230.926 40.7398C229.474 40.1413 227.916 39.7699 226.303 39.6638L224.703 36.7086C224.646 36.605 224.531 36.5484 224.414 36.5677L220.435 37.2276C220.319 37.2469 220.227 37.3379 220.208 37.4541L219.647 40.7677C218.155 41.3888 216.8 42.243 215.619 43.2783L212.396 42.3198C212.283 42.2863 212.161 42.328 212.092 42.4239L209.745 45.7046C209.676 45.8004 209.676 45.9292 209.744 46.0253L211.692 48.7669C211.093 50.2188 210.722 51.7767 210.616 53.3894L207.661 54.99C207.557 55.0461 207.501 55.1618 207.52 55.2782L208.18 59.2577C208.199 59.3739 208.29 59.4651 208.406 59.4849L211.72 60.0459C212.341 61.538 213.195 62.8926 214.23 64.0737L213.272 67.2972C213.238 67.4101 213.28 67.532 213.376 67.6007L216.657 69.9479C216.753 70.0165 216.881 70.0167 216.978 69.9485L219.719 68.0008C221.171 68.5993 222.729 68.9705 224.342 69.0768L225.942 72.0319C225.998 72.1356 226.114 72.1922 226.23 72.1729L230.21 71.5129C230.326 71.4936 230.417 71.4027 230.437 71.2864L230.998 67.9729C232.49 67.3518 233.845 66.4974 235.026 65.4623L238.249 66.4207C238.362 66.4544 238.484 66.4125 238.553 66.3166L240.9 63.0361Z" fill="#91B3FA"/>
<path d="M224.981 58.4835C223.882 58.3926 222.884 57.8787 222.172 57.037C221.46 56.1958 221.118 55.1273 221.209 54.0284C221.398 51.7605 223.393 50.0721 225.664 50.2568C227.933 50.446 229.624 52.4446 229.436 54.7119C229.344 55.8107 228.831 56.8081 227.989 57.5204C227.305 58.0994 226.471 58.4337 225.593 58.4895C225.391 58.5024 225.186 58.5004 224.981 58.4835ZM222.297 54.1185C222.229 54.9269 222.481 55.7129 223.005 56.3322C223.529 56.9509 224.263 57.3288 225.071 57.3961C225.879 57.4622 226.665 57.2116 227.284 56.6874C227.903 56.1639 228.281 55.4297 228.348 54.6218C228.487 52.9535 227.242 51.4834 225.574 51.3443C225.423 51.332 225.275 51.3308 225.128 51.34C223.651 51.4338 222.423 52.6011 222.297 54.1185Z" fill="#BDD0FB"/>
<path d="M225.9 64.5741C226.245 64.5522 226.591 64.5127 226.939 64.4553C227.629 64.341 228.309 64.1564 228.96 63.9058C228.989 63.8943 229.018 63.8828 229.047 63.8713C229.273 63.7823 229.406 63.5597 229.392 63.33C229.388 63.2742 229.376 63.2178 229.354 63.1631C229.243 62.8829 228.926 62.7471 228.646 62.8567C228.04 63.0965 227.406 63.2718 226.761 63.3784H226.76C226.725 63.3843 226.689 63.3898 226.654 63.3953C225.125 63.6339 223.594 63.4822 222.174 62.9743C221.404 62.6986 220.666 62.3172 219.979 61.8349C219.973 61.8309 219.967 61.8271 219.962 61.8231C219.945 61.8108 219.928 61.7991 219.911 61.7868C217.915 60.3586 216.595 58.2389 216.193 55.8177C216.141 55.5044 216.105 55.1911 216.086 54.8784C215.952 52.7746 216.542 50.706 217.785 48.9681C219.213 46.9723 221.333 45.6524 223.754 45.2509C226.173 44.8506 228.608 45.4149 230.604 46.8425C232.599 48.2707 233.92 50.3905 234.321 52.8116C234.373 53.1196 234.408 53.4293 234.427 53.7387C234.512 55.0811 234.303 56.4266 233.809 57.6786C233.778 57.7557 233.767 57.8355 233.772 57.9132C233.785 58.1174 233.913 58.3063 234.116 58.3864C234.397 58.4962 234.713 58.3597 234.824 58.0788C235.376 56.6778 235.611 55.1722 235.516 53.6709C235.494 53.3242 235.455 52.978 235.398 52.6335C234.949 49.9245 233.472 47.553 231.238 45.9552C229.005 44.3578 226.285 43.7231 223.576 44.1744C220.867 44.6234 218.495 46.1003 216.898 48.3338C215.507 50.2776 214.847 52.5919 214.996 54.9457C215.018 55.2951 215.058 55.6461 215.116 55.9963C215.986 61.2404 220.705 64.9039 225.9 64.5741Z" fill="#BDD0FB"/>
<defs>
<linearGradient id="paint0_linear_2_894" x1="278.706" y1="320.597" x2="59.1672" y2="47.9434" gradientUnits="userSpaceOnUse">
<stop stop-color="#DAE3FE"/>
<stop offset="1" stop-color="#E9EFFD"/>
</linearGradient>
<linearGradient id="paint1_linear_2_894" x1="53.0207" y1="125.72" x2="71.9078" y2="125.72" gradientUnits="userSpaceOnUse">
<stop stop-color="#DAE3FE"/>
<stop offset="1" stop-color="#E9EFFD"/>
</linearGradient>
<linearGradient id="paint2_linear_2_894" x1="32.0171" y1="125.718" x2="50.8649" y2="125.718" gradientUnits="userSpaceOnUse">
<stop stop-color="#DAE3FE"/>
<stop offset="1" stop-color="#E9EFFD"/>
</linearGradient>
<linearGradient id="paint3_linear_2_894" x1="11.0344" y1="125.716" x2="29.8431" y2="125.716" gradientUnits="userSpaceOnUse">
<stop stop-color="#DAE3FE"/>
<stop offset="1" stop-color="#E9EFFD"/>
</linearGradient>
<linearGradient id="paint4_linear_2_894" x1="52.7866" y1="139.462" x2="71.6404" y2="139.462" gradientUnits="userSpaceOnUse">
<stop stop-color="#DAE3FE"/>
<stop offset="1" stop-color="#E9EFFD"/>
</linearGradient>
<linearGradient id="paint5_linear_2_894" x1="31.8195" y1="139.453" x2="50.6344" y2="139.453" gradientUnits="userSpaceOnUse">
<stop stop-color="#DAE3FE"/>
<stop offset="1" stop-color="#E9EFFD"/>
</linearGradient>
<linearGradient id="paint6_linear_2_894" x1="10.8735" y1="139.444" x2="29.6492" y2="139.444" gradientUnits="userSpaceOnUse">
<stop stop-color="#DAE3FE"/>
<stop offset="1" stop-color="#E9EFFD"/>
</linearGradient>
<linearGradient id="paint7_linear_2_894" x1="52.553" y1="153.084" x2="71.3738" y2="153.084" gradientUnits="userSpaceOnUse">
<stop stop-color="#DAE3FE"/>
<stop offset="1" stop-color="#E9EFFD"/>
</linearGradient>
<linearGradient id="paint8_linear_2_894" x1="31.6224" y1="153.068" x2="50.4043" y2="153.068" gradientUnits="userSpaceOnUse">
<stop stop-color="#DAE3FE"/>
<stop offset="1" stop-color="#E9EFFD"/>
</linearGradient>
<linearGradient id="paint9_linear_2_894" x1="10.7129" y1="153.053" x2="29.4558" y2="153.053" gradientUnits="userSpaceOnUse">
<stop stop-color="#DAE3FE"/>
<stop offset="1" stop-color="#E9EFFD"/>
</linearGradient>
<linearGradient id="paint10_linear_2_894" x1="52.3204" y1="166.659" x2="71.1083" y2="166.659" gradientUnits="userSpaceOnUse">
<stop stop-color="#DAE3FE"/>
<stop offset="1" stop-color="#E9EFFD"/>
</linearGradient>
<linearGradient id="paint11_linear_2_894" x1="31.4262" y1="166.637" x2="50.1752" y2="166.637" gradientUnits="userSpaceOnUse">
<stop stop-color="#DAE3FE"/>
<stop offset="1" stop-color="#E9EFFD"/>
</linearGradient>
<linearGradient id="paint12_linear_2_894" x1="10.5529" y1="166.614" x2="29.2631" y2="166.614" gradientUnits="userSpaceOnUse">
<stop stop-color="#DAE3FE"/>
<stop offset="1" stop-color="#E9EFFD"/>
</linearGradient>
<linearGradient id="paint13_linear_2_894" x1="52.0888" y1="180.187" x2="70.8438" y2="180.187" gradientUnits="userSpaceOnUse">
<stop stop-color="#DAE3FE"/>
<stop offset="1" stop-color="#E9EFFD"/>
</linearGradient>
<linearGradient id="paint14_linear_2_894" x1="31.2308" y1="180.158" x2="49.9471" y2="180.158" gradientUnits="userSpaceOnUse">
<stop stop-color="#DAE3FE"/>
<stop offset="1" stop-color="#E9EFFD"/>
</linearGradient>
<linearGradient id="paint15_linear_2_894" x1="10.3934" y1="180.129" x2="29.0711" y2="180.129" gradientUnits="userSpaceOnUse">
<stop stop-color="#DAE3FE"/>
<stop offset="1" stop-color="#E9EFFD"/>
</linearGradient>
<linearGradient id="paint16_linear_2_894" x1="51.8579" y1="193.668" x2="70.5802" y2="193.668" gradientUnits="userSpaceOnUse">
<stop stop-color="#DAE3FE"/>
<stop offset="1" stop-color="#E9EFFD"/>
</linearGradient>
<linearGradient id="paint17_linear_2_894" x1="31.0359" y1="193.633" x2="49.7197" y2="193.633" gradientUnits="userSpaceOnUse">
<stop stop-color="#DAE3FE"/>
<stop offset="1" stop-color="#E9EFFD"/>
</linearGradient>
<linearGradient id="paint18_linear_2_894" x1="10.2346" y1="193.597" x2="28.8798" y2="193.597" gradientUnits="userSpaceOnUse">
<stop stop-color="#DAE3FE"/>
<stop offset="1" stop-color="#E9EFFD"/>
</linearGradient>
<linearGradient id="paint19_linear_2_894" x1="51.6276" y1="207.103" x2="70.3173" y2="207.103" gradientUnits="userSpaceOnUse">
<stop stop-color="#DAE3FE"/>
<stop offset="1" stop-color="#E9EFFD"/>
</linearGradient>
<linearGradient id="paint20_linear_2_894" x1="30.8416" y1="207.061" x2="49.4929" y2="207.061" gradientUnits="userSpaceOnUse">
<stop stop-color="#DAE3FE"/>
<stop offset="1" stop-color="#E9EFFD"/>
</linearGradient>
<linearGradient id="paint21_linear_2_894" x1="10.0762" y1="207.019" x2="28.6892" y2="207.019" gradientUnits="userSpaceOnUse">
<stop stop-color="#DAE3FE"/>
<stop offset="1" stop-color="#E9EFFD"/>
</linearGradient>
<linearGradient id="paint22_linear_2_894" x1="51.3984" y1="220.492" x2="70.0557" y2="220.492" gradientUnits="userSpaceOnUse">
<stop stop-color="#DAE3FE"/>
<stop offset="1" stop-color="#E9EFFD"/>
</linearGradient>
<linearGradient id="paint23_linear_2_894" x1="30.6482" y1="220.443" x2="49.2671" y2="220.443" gradientUnits="userSpaceOnUse">
<stop stop-color="#DAE3FE"/>
<stop offset="1" stop-color="#E9EFFD"/>
</linearGradient>
<linearGradient id="paint24_linear_2_894" x1="9.91849" y1="220.394" x2="28.4991" y2="220.394" gradientUnits="userSpaceOnUse">
<stop stop-color="#DAE3FE"/>
<stop offset="1" stop-color="#E9EFFD"/>
</linearGradient>
<linearGradient id="paint25_linear_2_894" x1="51.1697" y1="233.835" x2="69.7945" y2="233.835" gradientUnits="userSpaceOnUse">
<stop stop-color="#DAE3FE"/>
<stop offset="1" stop-color="#E9EFFD"/>
</linearGradient>
<linearGradient id="paint26_linear_2_894" x1="30.4551" y1="233.779" x2="49.0419" y2="233.779" gradientUnits="userSpaceOnUse">
<stop stop-color="#DAE3FE"/>
<stop offset="1" stop-color="#E9EFFD"/>
</linearGradient>
<linearGradient id="paint27_linear_2_894" x1="9.76127" y1="233.724" x2="28.3098" y2="233.724" gradientUnits="userSpaceOnUse">
<stop stop-color="#DAE3FE"/>
<stop offset="1" stop-color="#E9EFFD"/>
</linearGradient>
<linearGradient id="paint28_linear_2_894" x1="203.991" y1="-111.899" x2="149.781" y2="204.322" gradientUnits="userSpaceOnUse">
<stop stop-color="#BEBEE0"/>
<stop offset="1" stop-color="#787AFF"/>
</linearGradient>
<linearGradient id="paint29_linear_2_894" x1="111.627" y1="149.416" x2="207.484" y2="149.416" gradientUnits="userSpaceOnUse">
<stop stop-color="#7475DD" stop-opacity="0.99"/>
<stop offset="1" stop-color="#4F52FA" stop-opacity="0.87"/>
</linearGradient>
<linearGradient id="paint30_linear_2_894" x1="167.02" y1="43.739" x2="196.183" y2="-23.5606" gradientUnits="userSpaceOnUse">
<stop stop-color="#09005D"/>
<stop offset="1" stop-color="#1A0F91"/>
</linearGradient>
<linearGradient id="paint31_linear_2_894" x1="169.672" y1="87.3369" x2="104.04" y2="542.23" gradientUnits="userSpaceOnUse">
<stop stop-color="#FEBBBA"/>
<stop offset="1" stop-color="#FF928E"/>
</linearGradient>
<linearGradient id="paint32_linear_2_894" x1="167.95" y1="87.0886" x2="102.319" y2="541.982" gradientUnits="userSpaceOnUse">
<stop stop-color="#FEBBBA"/>
<stop offset="1" stop-color="#FF928E"/>
</linearGradient>
<linearGradient id="paint33_linear_2_894" x1="171.697" y1="139.071" x2="267.91" y2="-52.2223" gradientUnits="userSpaceOnUse">
<stop stop-color="#FE7062"/>
<stop offset="1" stop-color="#FF928E"/>
</linearGradient>
<linearGradient id="paint34_linear_2_894" x1="42.1347" y1="243.948" x2="52.7774" y2="243.948" gradientUnits="userSpaceOnUse">
<stop stop-color="#09005D"/>
<stop offset="1" stop-color="#1A0F91"/>
</linearGradient>
<linearGradient id="paint35_linear_2_894" x1="45.0944" y1="231.832" x2="43.0614" y2="249.574" gradientUnits="userSpaceOnUse">
<stop stop-color="#FEBBBA"/>
<stop offset="1" stop-color="#FF928E"/>
</linearGradient>
<linearGradient id="paint36_linear_2_894" x1="58.3407" y1="244.218" x2="73.6606" y2="244.218" gradientUnits="userSpaceOnUse">
<stop stop-color="#09005D"/>
<stop offset="1" stop-color="#1A0F91"/>
</linearGradient>
<linearGradient id="paint37_linear_2_894" x1="61.3767" y1="233.705" x2="60.4638" y2="251.54" gradientUnits="userSpaceOnUse">
<stop stop-color="#FEBBBA"/>
<stop offset="1" stop-color="#FF928E"/>
</linearGradient>
<linearGradient id="paint38_linear_2_894" x1="58.5696" y1="248.569" x2="37.5272" y2="148.233" gradientUnits="userSpaceOnUse">
<stop stop-color="#09005D"/>
<stop offset="1" stop-color="#1A0F91"/>
</linearGradient>
<linearGradient id="paint39_linear_2_894" x1="80.06" y1="111.473" x2="33.5656" y2="162.767" gradientUnits="userSpaceOnUse">
<stop stop-color="#4042E2"/>
<stop offset="1" stop-color="#4F52FF"/>
</linearGradient>
<linearGradient id="paint40_linear_2_894" x1="71.0211" y1="114.321" x2="3.24639" y2="238.718" gradientUnits="userSpaceOnUse">
<stop stop-color="#4042E2"/>
<stop offset="1" stop-color="#4F52FF"/>
</linearGradient>
<linearGradient id="paint41_linear_2_894" x1="53.2046" y1="128.423" x2="57.9261" y2="115.53" gradientUnits="userSpaceOnUse">
<stop stop-color="#FEBBBA"/>
<stop offset="1" stop-color="#FF928E"/>
</linearGradient>
<linearGradient id="paint42_linear_2_894" x1="57.2905" y1="86.8649" x2="55.0969" y2="103.616" gradientUnits="userSpaceOnUse">
<stop stop-color="#4042E2"/>
<stop offset="1" stop-color="#4F52FF"/>
</linearGradient>
<linearGradient id="paint43_linear_2_894" x1="61.1273" y1="87.3673" x2="58.9337" y2="104.118" gradientUnits="userSpaceOnUse">
<stop stop-color="#4042E2"/>
<stop offset="1" stop-color="#4F52FF"/>
</linearGradient>
<linearGradient id="paint44_linear_2_894" x1="64.8096" y1="109.083" x2="36.6778" y2="131.489" gradientUnits="userSpaceOnUse">
<stop stop-color="#FEBBBA"/>
<stop offset="1" stop-color="#FF928E"/>
</linearGradient>
<linearGradient id="paint45_linear_2_894" x1="53.9494" y1="101.712" x2="66.8434" y2="118.313" gradientUnits="userSpaceOnUse">
<stop stop-color="#09005D"/>
<stop offset="1" stop-color="#1A0F91"/>
</linearGradient>
<linearGradient id="paint46_linear_2_894" x1="61.978" y1="107.855" x2="48.1335" y2="118.448" gradientUnits="userSpaceOnUse">
<stop stop-color="#FEBBBA"/>
<stop offset="1" stop-color="#FF928E"/>
</linearGradient>
<linearGradient id="paint47_linear_2_894" x1="94.745" y1="114.854" x2="65.4322" y2="140.175" gradientUnits="userSpaceOnUse">
<stop stop-color="#FEBBBA"/>
<stop offset="1" stop-color="#FF928E"/>
</linearGradient>
<linearGradient id="paint48_linear_2_894" x1="95.3562" y1="117.214" x2="66.8228" y2="141.862" gradientUnits="userSpaceOnUse">
<stop stop-color="#FEBBBA"/>
<stop offset="1" stop-color="#FF928E"/>
</linearGradient>
<linearGradient id="paint49_linear_2_894" x1="95.8301" y1="116.11" x2="66.5174" y2="141.431" gradientUnits="userSpaceOnUse">
<stop stop-color="#FEBBBA"/>
<stop offset="1" stop-color="#FF928E"/>
</linearGradient>
<linearGradient id="paint50_linear_2_894" x1="58.8295" y1="64.3371" x2="132.959" y2="162.189" gradientUnits="userSpaceOnUse">
<stop stop-color="#E1473D"/>
<stop offset="1" stop-color="#E9605A"/>
</linearGradient>
<linearGradient id="paint51_linear_2_894" x1="138.116" y1="81.6544" x2="124.344" y2="149.198" gradientUnits="userSpaceOnUse">
<stop stop-color="#FE7062"/>
<stop offset="1" stop-color="#FF928E"/>
</linearGradient>
<linearGradient id="paint52_linear_2_894" x1="66.9011" y1="113.61" x2="183.145" y2="122.301" gradientUnits="userSpaceOnUse">
<stop stop-color="#FF9085"/>
<stop offset="1" stop-color="#FB6FBB"/>
</linearGradient>
<linearGradient id="paint53_linear_2_894" x1="119.766" y1="109.197" x2="147.883" y2="37.7062" gradientUnits="userSpaceOnUse">
<stop stop-color="#FE7062"/>
<stop offset="1" stop-color="#FF928E"/>
</linearGradient>
<linearGradient id="paint54_linear_2_894" x1="135.254" y1="33.1368" x2="130.468" y2="42.4097" gradientUnits="userSpaceOnUse">
<stop stop-color="#FE7062"/>
<stop offset="1" stop-color="#FF928E"/>
</linearGradient>
<linearGradient id="paint55_linear_2_894" x1="77.2594" y1="136.885" x2="63.319" y2="206.425" gradientUnits="userSpaceOnUse">
<stop stop-color="#FEBBBA"/>
<stop offset="1" stop-color="#FF928E"/>
</linearGradient>
</defs>
</svg>
